%TF.GenerationSoftware,KiCad,Pcbnew,9.0.7*%
%TF.CreationDate,2026-03-11T04:27:33+08:00*%
%TF.ProjectId,CawBMS,43617742-4d53-42e6-9b69-6361645f7063,rev?*%
%TF.SameCoordinates,Original*%
%TF.FileFunction,Copper,L2,Inr*%
%TF.FilePolarity,Positive*%
%FSLAX46Y46*%
G04 Gerber Fmt 4.6, Leading zero omitted, Abs format (unit mm)*
G04 Created by KiCad (PCBNEW 9.0.7) date 2026-03-11 04:27:33*
%MOMM*%
%LPD*%
G01*
G04 APERTURE LIST*
G04 Aperture macros list*
%AMRoundRect*
0 Rectangle with rounded corners*
0 $1 Rounding radius*
0 $2 $3 $4 $5 $6 $7 $8 $9 X,Y pos of 4 corners*
0 Add a 4 corners polygon primitive as box body*
4,1,4,$2,$3,$4,$5,$6,$7,$8,$9,$2,$3,0*
0 Add four circle primitives for the rounded corners*
1,1,$1+$1,$2,$3*
1,1,$1+$1,$4,$5*
1,1,$1+$1,$6,$7*
1,1,$1+$1,$8,$9*
0 Add four rect primitives between the rounded corners*
20,1,$1+$1,$2,$3,$4,$5,0*
20,1,$1+$1,$4,$5,$6,$7,0*
20,1,$1+$1,$6,$7,$8,$9,0*
20,1,$1+$1,$8,$9,$2,$3,0*%
G04 Aperture macros list end*
%TA.AperFunction,ComponentPad*%
%ADD10C,0.700000*%
%TD*%
%TA.AperFunction,ComponentPad*%
%ADD11C,4.400000*%
%TD*%
%TA.AperFunction,ComponentPad*%
%ADD12RoundRect,1.500000X-1.000000X-1.000000X1.000000X-1.000000X1.000000X1.000000X-1.000000X1.000000X0*%
%TD*%
%TA.AperFunction,ViaPad*%
%ADD13C,0.457200*%
%TD*%
%TA.AperFunction,ViaPad*%
%ADD14C,0.609600*%
%TD*%
%TA.AperFunction,ViaPad*%
%ADD15C,1.016000*%
%TD*%
G04 APERTURE END LIST*
D10*
%TO.N,unconnected-(H4-Pad1)*%
%TO.C,H4*%
X160350000Y-113000000D03*
%TO.N,unconnected-(H4-Pad1)_1*%
X160833274Y-111833274D03*
%TO.N,unconnected-(H4-Pad1)_2*%
X160833274Y-114166726D03*
%TO.N,unconnected-(H4-Pad1)_3*%
X162000000Y-111350000D03*
D11*
%TO.N,unconnected-(H4-Pad1)_4*%
X162000000Y-113000000D03*
D10*
%TO.N,unconnected-(H4-Pad1)_5*%
X162000000Y-114650000D03*
%TO.N,unconnected-(H4-Pad1)_6*%
X163166726Y-111833274D03*
%TO.N,unconnected-(H4-Pad1)_7*%
X163166726Y-114166726D03*
%TO.N,unconnected-(H4-Pad1)_8*%
X163650000Y-113000000D03*
%TD*%
%TO.N,unconnected-(H2-Pad1)*%
%TO.C,H2*%
X160350000Y-78000000D03*
%TO.N,unconnected-(H2-Pad1)_1*%
X160833274Y-76833274D03*
%TO.N,unconnected-(H2-Pad1)_2*%
X160833274Y-79166726D03*
%TO.N,unconnected-(H2-Pad1)_3*%
X162000000Y-76350000D03*
D11*
%TO.N,unconnected-(H2-Pad1)_4*%
X162000000Y-78000000D03*
D10*
%TO.N,unconnected-(H2-Pad1)_5*%
X162000000Y-79650000D03*
%TO.N,unconnected-(H2-Pad1)_6*%
X163166726Y-76833274D03*
%TO.N,unconnected-(H2-Pad1)_7*%
X163166726Y-79166726D03*
%TO.N,unconnected-(H2-Pad1)_8*%
X163650000Y-78000000D03*
%TD*%
%TO.N,unconnected-(H1-Pad1)*%
%TO.C,H1*%
X111350000Y-78000000D03*
%TO.N,unconnected-(H1-Pad1)_1*%
X111833274Y-76833274D03*
%TO.N,unconnected-(H1-Pad1)_2*%
X111833274Y-79166726D03*
%TO.N,unconnected-(H1-Pad1)_3*%
X113000000Y-76350000D03*
D11*
%TO.N,unconnected-(H1-Pad1)_4*%
X113000000Y-78000000D03*
D10*
%TO.N,unconnected-(H1-Pad1)_5*%
X113000000Y-79650000D03*
%TO.N,unconnected-(H1-Pad1)_6*%
X114166726Y-76833274D03*
%TO.N,unconnected-(H1-Pad1)_7*%
X114166726Y-79166726D03*
%TO.N,unconnected-(H1-Pad1)_8*%
X114650000Y-78000000D03*
%TD*%
D12*
%TO.N,PACK+*%
%TO.C,H5*%
X161500000Y-126500000D03*
%TD*%
%TO.N,PACK-*%
%TO.C,H6*%
X161500000Y-119173000D03*
%TD*%
%TO.N,-BATT*%
%TO.C,H8*%
X113030000Y-119173000D03*
%TD*%
%TO.N,PACK+*%
%TO.C,H7*%
X113030000Y-126492000D03*
%TD*%
D10*
%TO.N,unconnected-(H3-Pad1)*%
%TO.C,H3*%
X111350000Y-113000000D03*
%TO.N,unconnected-(H3-Pad1)_1*%
X111833274Y-111833274D03*
%TO.N,unconnected-(H3-Pad1)_2*%
X111833274Y-114166726D03*
%TO.N,unconnected-(H3-Pad1)_3*%
X113000000Y-111350000D03*
D11*
%TO.N,unconnected-(H3-Pad1)_4*%
X113000000Y-113000000D03*
D10*
%TO.N,unconnected-(H3-Pad1)_5*%
X113000000Y-114650000D03*
%TO.N,unconnected-(H3-Pad1)_6*%
X114166726Y-111833274D03*
%TO.N,unconnected-(H3-Pad1)_7*%
X114166726Y-114166726D03*
%TO.N,unconnected-(H3-Pad1)_8*%
X114650000Y-113000000D03*
%TD*%
D13*
%TO.N,+3.3V*%
X122270000Y-92910000D03*
X129413000Y-82981800D03*
X136230000Y-98560000D03*
X123060000Y-95130000D03*
X143891000Y-103505000D03*
X141190000Y-81190000D03*
X131810000Y-99440000D03*
X138320000Y-94160000D03*
X129286000Y-84963000D03*
X144526000Y-103505000D03*
X141820000Y-81190000D03*
X138110000Y-85110000D03*
%TO.N,GND*%
X144018000Y-97155000D03*
X151257000Y-105156000D03*
X113690000Y-82740000D03*
X144470000Y-86200000D03*
D14*
X141478000Y-115509000D03*
D13*
X122280000Y-85540000D03*
D15*
X156718000Y-112141000D03*
D13*
X140470000Y-98280000D03*
X140700000Y-110500000D03*
X123100000Y-81672000D03*
X149352000Y-103378000D03*
X123800000Y-91020000D03*
X146177000Y-101473000D03*
X123730000Y-78680000D03*
D15*
X159385000Y-109474000D03*
D13*
X145340000Y-105290000D03*
X123020000Y-93982800D03*
X129184400Y-83820000D03*
X150304500Y-103378000D03*
X132080000Y-84988400D03*
X146070000Y-114430000D03*
X144018000Y-97790000D03*
D15*
X156718000Y-109728000D03*
X118210000Y-115440000D03*
D13*
X113520000Y-89603185D03*
X122170000Y-89280000D03*
X130270000Y-78680000D03*
X151257000Y-103378000D03*
X142120000Y-96930000D03*
D15*
X155194000Y-82296000D03*
D13*
X149597000Y-96478500D03*
X142470000Y-115190000D03*
X131318000Y-97282000D03*
X152209500Y-105156000D03*
X137170000Y-110510000D03*
X127762000Y-94742000D03*
X140540000Y-89560000D03*
X149352000Y-105156000D03*
X118491000Y-84820000D03*
D15*
X155194000Y-83439000D03*
D13*
X143195315Y-105172533D03*
X126365000Y-83188000D03*
X151890000Y-92100000D03*
X128016000Y-110617000D03*
X153162000Y-105156000D03*
X128270000Y-84963000D03*
X137414000Y-81026000D03*
X139240000Y-85130000D03*
X153162000Y-103378000D03*
D14*
X150622000Y-108331000D03*
D13*
X129463800Y-81864200D03*
X145415000Y-103505000D03*
X129921000Y-97282000D03*
D15*
X155194000Y-84582000D03*
D13*
X151880000Y-94980000D03*
D15*
X156718000Y-114808000D03*
D13*
X140820000Y-78560000D03*
X127747927Y-95326033D03*
X128778000Y-94742000D03*
X150304500Y-105156000D03*
X152209500Y-103378000D03*
X113702629Y-95466371D03*
X140810000Y-93830000D03*
X138300000Y-95320000D03*
X145881688Y-100669688D03*
%TO.N,+5V*%
X156972000Y-86360000D03*
X157607000Y-87630000D03*
X153162000Y-86487000D03*
X153162000Y-87122000D03*
X157607000Y-86995000D03*
X156972000Y-91059000D03*
X152178000Y-81534000D03*
X156972000Y-86995000D03*
X157607000Y-91059000D03*
X157607000Y-86360000D03*
X152146000Y-87122000D03*
X153194000Y-80301000D03*
X152178000Y-80936000D03*
X153194000Y-80936000D03*
X152146000Y-87720000D03*
X156972000Y-91694000D03*
X153162000Y-81534000D03*
X152178000Y-80301000D03*
X152146000Y-86487000D03*
X145600000Y-86220000D03*
X153130000Y-87720000D03*
X157607000Y-91694000D03*
X156972000Y-87630000D03*
%TO.N,/RESET*%
X129200000Y-89947106D03*
X122330000Y-90440000D03*
%TO.N,/BQ76920/VC1*%
X128790000Y-105030000D03*
X118250000Y-77980000D03*
%TO.N,/BQ76920/BAT*%
X113665000Y-99695000D03*
X114300000Y-99695000D03*
X113665000Y-100330000D03*
X151003000Y-98806000D03*
X150368000Y-98806000D03*
X151638000Y-98806000D03*
%TO.N,/ALERT*%
X133610000Y-95300000D03*
X134710000Y-106920000D03*
D14*
%TO.N,PACK-*%
X150749000Y-122809000D03*
D15*
X137541000Y-116459000D03*
D14*
X146050000Y-122809000D03*
X149479000Y-122174000D03*
X147193000Y-122174000D03*
X152019000Y-122809000D03*
D15*
X156972000Y-119380000D03*
X156972000Y-121412000D03*
D13*
X150622000Y-115189000D03*
D14*
X143510000Y-122809000D03*
X149479000Y-122809000D03*
X144780000Y-122809000D03*
X147193000Y-122809000D03*
X146050000Y-122174000D03*
X143510000Y-122174000D03*
X150749000Y-122174000D03*
X144780000Y-122174000D03*
D15*
X141223500Y-120903500D03*
D14*
X152019000Y-122174000D03*
D15*
%TO.N,PACK+*%
X118110000Y-126492000D03*
X156972000Y-125391000D03*
X156972000Y-126492000D03*
X118110000Y-124841000D03*
%TO.N,-BATT*%
X121666000Y-119634000D03*
X121666000Y-120904000D03*
X121666000Y-122428000D03*
X118110000Y-119634000D03*
X118110000Y-121158000D03*
X121666000Y-118364000D03*
D13*
%TO.N,/USART1_TX*%
X133417364Y-84278172D03*
X142830000Y-81250000D03*
%TO.N,/USART1_RX*%
X133354000Y-84896040D03*
X143830000Y-81250000D03*
%TO.N,/EN_PRE_CHARGE*%
X133850000Y-94090000D03*
X132750000Y-115510000D03*
%TO.N,Net-(U8-BOOT)*%
X162179000Y-97663000D03*
X154940000Y-101854000D03*
X154940000Y-102489000D03*
X161544000Y-97028000D03*
X161544000Y-97663000D03*
X162179000Y-100457000D03*
X155575000Y-101854000D03*
X155575000Y-102489000D03*
X162179000Y-97028000D03*
X161544000Y-100457000D03*
X162179000Y-101092000D03*
X161544000Y-101092000D03*
%TO.N,/KEY_A*%
X138020000Y-89940000D03*
X124750000Y-78670000D03*
%TO.N,/CAN_STB*%
X138397076Y-89461012D03*
X146210000Y-88270000D03*
%TO.N,/I2C2_SCL*%
X133830000Y-100160000D03*
X140470000Y-104376600D03*
%TO.N,/I2C2_SDA*%
X135050000Y-100250000D03*
X140470000Y-105050000D03*
D15*
%TO.N,Net-(Q10-D-Pad5)*%
X142214600Y-124587000D03*
X144246600Y-124587000D03*
X136118600Y-124587000D03*
X148310600Y-124587000D03*
X133324600Y-124587000D03*
X152374600Y-124587000D03*
X139166600Y-124587000D03*
X145262600Y-124587000D03*
X149326600Y-124587000D03*
X146278600Y-124587000D03*
X151358600Y-124587000D03*
X134340600Y-124587000D03*
X140182600Y-124587000D03*
X137134600Y-124587000D03*
X130276600Y-124587000D03*
X132308600Y-124587000D03*
X138150600Y-124587000D03*
X150342600Y-124587000D03*
X131292600Y-124587000D03*
X143230600Y-124587000D03*
D13*
%TO.N,Net-(R31-Pad1)*%
X119250000Y-78440000D03*
X137450000Y-98220000D03*
%TO.N,/5V_EN*%
X149320500Y-108299500D03*
X138020000Y-92490000D03*
D14*
%TO.N,Net-(C26-Pad1)*%
X139954000Y-122809000D03*
X137414000Y-122174000D03*
D15*
X127762000Y-119634000D03*
D14*
X131445000Y-122809000D03*
X132715000Y-122174000D03*
X133985000Y-122174000D03*
D15*
X127762000Y-122428000D03*
D14*
X131445000Y-122174000D03*
X137414000Y-122809000D03*
D15*
X127762000Y-120904000D03*
D14*
X132715000Y-122809000D03*
X138684000Y-122174000D03*
X139954000Y-122174000D03*
X133985000Y-122809000D03*
D15*
X127762000Y-118364000D03*
D14*
X138684000Y-122809000D03*
D13*
%TO.N,/ADC1_IN8*%
X130620000Y-95350000D03*
X147280000Y-114510000D03*
%TO.N,/ADC1_IN5*%
X117870000Y-88640000D03*
X127762000Y-91990000D03*
%TO.N,/ADC1_IN6*%
X128820000Y-91923300D03*
X117970000Y-94440000D03*
%TO.N,+3V3*%
X148209000Y-94361000D03*
X117930000Y-87410000D03*
X129250000Y-78680000D03*
X146939000Y-94361000D03*
X147574000Y-93599000D03*
X146939000Y-93599000D03*
X117850000Y-93260000D03*
X148209000Y-93599000D03*
X154820000Y-78460000D03*
X147574000Y-94361000D03*
%TD*%
%TA.AperFunction,Conductor*%
%TO.N,PACK+*%
G36*
X119442121Y-124028002D02*
G01*
X119488614Y-124081658D01*
X119500000Y-124134000D01*
X119500000Y-129619500D01*
X119479998Y-129687621D01*
X119426342Y-129734114D01*
X119374000Y-129745500D01*
X112503806Y-129745500D01*
X112496198Y-129745270D01*
X112236942Y-129729588D01*
X112221838Y-129727754D01*
X111970115Y-129681624D01*
X111955345Y-129677984D01*
X111711007Y-129601845D01*
X111696781Y-129596449D01*
X111463415Y-129491420D01*
X111449942Y-129484349D01*
X111230930Y-129351951D01*
X111218409Y-129343308D01*
X111016956Y-129185480D01*
X111005567Y-129175390D01*
X110824609Y-128994432D01*
X110814519Y-128983043D01*
X110656691Y-128781590D01*
X110648048Y-128769069D01*
X110515650Y-128550057D01*
X110508579Y-128536584D01*
X110403550Y-128303218D01*
X110398157Y-128289001D01*
X110322012Y-128044642D01*
X110318377Y-128029895D01*
X110272243Y-127778149D01*
X110270412Y-127763068D01*
X110254730Y-127503801D01*
X110254500Y-127496194D01*
X110254500Y-124134000D01*
X110274502Y-124065879D01*
X110328158Y-124019386D01*
X110380500Y-124008000D01*
X119374000Y-124008000D01*
X119442121Y-124028002D01*
G37*
%TD.AperFunction*%
%TD*%
%TA.AperFunction,Conductor*%
%TO.N,PACK+*%
G36*
X164687621Y-123020002D02*
G01*
X164734114Y-123073658D01*
X164745500Y-123126000D01*
X164745500Y-126496707D01*
X164745327Y-126503302D01*
X164728066Y-126832647D01*
X164726688Y-126845763D01*
X164675610Y-127168255D01*
X164672868Y-127181155D01*
X164588361Y-127496541D01*
X164584285Y-127509084D01*
X164467280Y-127813894D01*
X164461916Y-127825943D01*
X164313682Y-128116867D01*
X164307088Y-128128288D01*
X164129258Y-128402123D01*
X164121505Y-128412793D01*
X163916032Y-128666531D01*
X163907207Y-128676332D01*
X163676332Y-128907207D01*
X163666531Y-128916032D01*
X163412793Y-129121505D01*
X163402123Y-129129258D01*
X163128288Y-129307088D01*
X163116867Y-129313682D01*
X162825943Y-129461916D01*
X162813894Y-129467280D01*
X162509084Y-129584285D01*
X162496541Y-129588361D01*
X162181155Y-129672868D01*
X162168255Y-129675610D01*
X161845763Y-129726688D01*
X161832647Y-129728066D01*
X161520434Y-129744429D01*
X161503300Y-129745327D01*
X161496707Y-129745500D01*
X154126000Y-129745500D01*
X154057879Y-129725498D01*
X154011386Y-129671842D01*
X154000000Y-129619500D01*
X154000000Y-123126000D01*
X154020002Y-123057879D01*
X154073658Y-123011386D01*
X154126000Y-123000000D01*
X164619500Y-123000000D01*
X164687621Y-123020002D01*
G37*
%TD.AperFunction*%
%TD*%
%TA.AperFunction,Conductor*%
%TO.N,Net-(Q10-D-Pad5)*%
G36*
X152942121Y-124139002D02*
G01*
X152988614Y-124192658D01*
X153000000Y-124245000D01*
X153000000Y-129619500D01*
X152979998Y-129687621D01*
X152926342Y-129734114D01*
X152874000Y-129745500D01*
X129626000Y-129745500D01*
X129557879Y-129725498D01*
X129511386Y-129671842D01*
X129500000Y-129619500D01*
X129500000Y-124245000D01*
X129520002Y-124176879D01*
X129573658Y-124130386D01*
X129626000Y-124119000D01*
X152874000Y-124119000D01*
X152942121Y-124139002D01*
G37*
%TD.AperFunction*%
%TD*%
%TA.AperFunction,Conductor*%
%TO.N,Net-(C26-Pad1)*%
G36*
X136736433Y-116520002D02*
G01*
X136782926Y-116573658D01*
X136791890Y-116601415D01*
X136807803Y-116681413D01*
X136865282Y-116820179D01*
X136948728Y-116945065D01*
X137054935Y-117051272D01*
X137179821Y-117134718D01*
X137318587Y-117192197D01*
X137465900Y-117221500D01*
X137616100Y-117221500D01*
X137763413Y-117192197D01*
X137902179Y-117134718D01*
X138027065Y-117051272D01*
X138133272Y-116945065D01*
X138216718Y-116820179D01*
X138274197Y-116681413D01*
X138290109Y-116601416D01*
X138323017Y-116538509D01*
X138384712Y-116503377D01*
X138413688Y-116500000D01*
X140874000Y-116500000D01*
X140942121Y-116520002D01*
X140988614Y-116573658D01*
X141000000Y-116626000D01*
X141000000Y-120086562D01*
X140979998Y-120154683D01*
X140926342Y-120201176D01*
X140922220Y-120202970D01*
X140862322Y-120227781D01*
X140862321Y-120227781D01*
X140737439Y-120311225D01*
X140737432Y-120311230D01*
X140631230Y-120417432D01*
X140631225Y-120417439D01*
X140547783Y-120542319D01*
X140490304Y-120681084D01*
X140490303Y-120681085D01*
X140461000Y-120828396D01*
X140461000Y-120978603D01*
X140490303Y-121125913D01*
X140547782Y-121264679D01*
X140631228Y-121389565D01*
X140737435Y-121495772D01*
X140862321Y-121579218D01*
X140922219Y-121604028D01*
X140977498Y-121648574D01*
X140999920Y-121715937D01*
X141000000Y-121720436D01*
X141000000Y-123374000D01*
X140979998Y-123442121D01*
X140926342Y-123488614D01*
X140874000Y-123500000D01*
X129000000Y-123500000D01*
X129000000Y-129619500D01*
X128979998Y-129687621D01*
X128926342Y-129734114D01*
X128874000Y-129745500D01*
X125364000Y-129745500D01*
X125295879Y-129725498D01*
X125249386Y-129671842D01*
X125238000Y-129619500D01*
X125238000Y-116626000D01*
X125258002Y-116557879D01*
X125311658Y-116511386D01*
X125364000Y-116500000D01*
X136668312Y-116500000D01*
X136736433Y-116520002D01*
G37*
%TD.AperFunction*%
%TD*%
%TA.AperFunction,Conductor*%
%TO.N,-BATT*%
G36*
X124442121Y-116520002D02*
G01*
X124488614Y-116573658D01*
X124500000Y-116626000D01*
X124500000Y-129619500D01*
X124479998Y-129687621D01*
X124426342Y-129734114D01*
X124374000Y-129745500D01*
X120126000Y-129745500D01*
X120057879Y-129725498D01*
X120011386Y-129671842D01*
X120000000Y-129619500D01*
X120000000Y-123500000D01*
X110380500Y-123500000D01*
X110312379Y-123479998D01*
X110265886Y-123426342D01*
X110254500Y-123374000D01*
X110254500Y-116626000D01*
X110274502Y-116557879D01*
X110328158Y-116511386D01*
X110380500Y-116500000D01*
X124374000Y-116500000D01*
X124442121Y-116520002D01*
G37*
%TD.AperFunction*%
%TD*%
%TA.AperFunction,Conductor*%
%TO.N,PACK-*%
G36*
X164687621Y-116520002D02*
G01*
X164734114Y-116573658D01*
X164745500Y-116626000D01*
X164745500Y-122374000D01*
X164725498Y-122442121D01*
X164671842Y-122488614D01*
X164619500Y-122500000D01*
X153000000Y-122500000D01*
X153000000Y-123366000D01*
X152979998Y-123434121D01*
X152926342Y-123480614D01*
X152874000Y-123492000D01*
X142126000Y-123492000D01*
X142057879Y-123471998D01*
X142011386Y-123418342D01*
X142000000Y-123366000D01*
X142000000Y-116626000D01*
X142020002Y-116557879D01*
X142073658Y-116511386D01*
X142126000Y-116500000D01*
X164619500Y-116500000D01*
X164687621Y-116520002D01*
G37*
%TD.AperFunction*%
%TD*%
%TA.AperFunction,Conductor*%
%TO.N,GND*%
G36*
X162503801Y-75254730D02*
G01*
X162530277Y-75256331D01*
X162763068Y-75270412D01*
X162778149Y-75272243D01*
X163029895Y-75318377D01*
X163044642Y-75322012D01*
X163289001Y-75398157D01*
X163303214Y-75403548D01*
X163444883Y-75467308D01*
X163536584Y-75508579D01*
X163550055Y-75515649D01*
X163769074Y-75648051D01*
X163781585Y-75656687D01*
X163873587Y-75728766D01*
X163983043Y-75814519D01*
X163994432Y-75824609D01*
X164175390Y-76005567D01*
X164185480Y-76016956D01*
X164343308Y-76218409D01*
X164351951Y-76230930D01*
X164484349Y-76449942D01*
X164491420Y-76463415D01*
X164596449Y-76696781D01*
X164601845Y-76711007D01*
X164639576Y-76832091D01*
X164677983Y-76955341D01*
X164681624Y-76970115D01*
X164727754Y-77221838D01*
X164729588Y-77236942D01*
X164745270Y-77496197D01*
X164745500Y-77503805D01*
X164745500Y-115874000D01*
X164725498Y-115942121D01*
X164671842Y-115988614D01*
X164619500Y-116000000D01*
X138212528Y-116000000D01*
X138144407Y-115979998D01*
X138123433Y-115963096D01*
X138086679Y-115926342D01*
X138027065Y-115866728D01*
X137902179Y-115783282D01*
X137763414Y-115725803D01*
X137616103Y-115696500D01*
X137616100Y-115696500D01*
X137465900Y-115696500D01*
X137465896Y-115696500D01*
X137318585Y-115725803D01*
X137318584Y-115725804D01*
X137179819Y-115783283D01*
X137054939Y-115866725D01*
X137054937Y-115866726D01*
X136958567Y-115963096D01*
X136896255Y-115997121D01*
X136869472Y-116000000D01*
X133243173Y-116000000D01*
X133175052Y-115979998D01*
X133128559Y-115926342D01*
X133118455Y-115856068D01*
X133134054Y-115811000D01*
X133160620Y-115764984D01*
X133200178Y-115696470D01*
X133233100Y-115573601D01*
X133233100Y-115446399D01*
X133200178Y-115323530D01*
X133136576Y-115213369D01*
X133136574Y-115213367D01*
X133136570Y-115213362D01*
X133048607Y-115125399D01*
X150138900Y-115125399D01*
X150138900Y-115252601D01*
X150171822Y-115375470D01*
X150171823Y-115375472D01*
X150171824Y-115375474D01*
X150235421Y-115485627D01*
X150235429Y-115485637D01*
X150325362Y-115575570D01*
X150325367Y-115575574D01*
X150325369Y-115575576D01*
X150435530Y-115639178D01*
X150558399Y-115672100D01*
X150558400Y-115672100D01*
X150685599Y-115672100D01*
X150685601Y-115672100D01*
X150808470Y-115639178D01*
X150918631Y-115575576D01*
X151008576Y-115485631D01*
X151072178Y-115375470D01*
X151105100Y-115252601D01*
X151105100Y-115125399D01*
X151072178Y-115002530D01*
X151011005Y-114896576D01*
X151008578Y-114892372D01*
X151008570Y-114892362D01*
X150918637Y-114802429D01*
X150918627Y-114802421D01*
X150808474Y-114738824D01*
X150808472Y-114738823D01*
X150808470Y-114738822D01*
X150685601Y-114705900D01*
X150558399Y-114705900D01*
X150435530Y-114738822D01*
X150435528Y-114738823D01*
X150435525Y-114738824D01*
X150325372Y-114802421D01*
X150325362Y-114802429D01*
X150235429Y-114892362D01*
X150235421Y-114892372D01*
X150171824Y-115002525D01*
X150171823Y-115002528D01*
X150171822Y-115002530D01*
X150138900Y-115125399D01*
X133048607Y-115125399D01*
X133046637Y-115123429D01*
X133046627Y-115123421D01*
X132936474Y-115059824D01*
X132936472Y-115059823D01*
X132936470Y-115059822D01*
X132813601Y-115026900D01*
X132686399Y-115026900D01*
X132563530Y-115059822D01*
X132563528Y-115059823D01*
X132563525Y-115059824D01*
X132453372Y-115123421D01*
X132453362Y-115123429D01*
X132363429Y-115213362D01*
X132363421Y-115213372D01*
X132299824Y-115323525D01*
X132299823Y-115323528D01*
X132299822Y-115323530D01*
X132266900Y-115446399D01*
X132266900Y-115573601D01*
X132299822Y-115696470D01*
X132299823Y-115696472D01*
X132299824Y-115696474D01*
X132365946Y-115811000D01*
X132382684Y-115879995D01*
X132359464Y-115947087D01*
X132303656Y-115990974D01*
X132256827Y-116000000D01*
X110380500Y-116000000D01*
X110312379Y-115979998D01*
X110265886Y-115926342D01*
X110254500Y-115874000D01*
X110254500Y-112862156D01*
X110545500Y-112862156D01*
X110545500Y-113137843D01*
X110576367Y-113411795D01*
X110637714Y-113680569D01*
X110728758Y-113940758D01*
X110728763Y-113940772D01*
X110728765Y-113940776D01*
X110848380Y-114189159D01*
X110848384Y-114189165D01*
X110995052Y-114422586D01*
X111166940Y-114638127D01*
X111361872Y-114833059D01*
X111436248Y-114892372D01*
X111577414Y-115004948D01*
X111810841Y-115151620D01*
X112059224Y-115271235D01*
X112059239Y-115271240D01*
X112059241Y-115271241D01*
X112319430Y-115362285D01*
X112319433Y-115362285D01*
X112319437Y-115362287D01*
X112588208Y-115423633D01*
X112782462Y-115445520D01*
X112862156Y-115454500D01*
X112862158Y-115454500D01*
X113137844Y-115454500D01*
X113209740Y-115446399D01*
X113411792Y-115423633D01*
X113680563Y-115362287D01*
X113940776Y-115271235D01*
X114189159Y-115151620D01*
X114422586Y-115004948D01*
X114638124Y-114833062D01*
X114833062Y-114638124D01*
X114985958Y-114446399D01*
X146796900Y-114446399D01*
X146796900Y-114573601D01*
X146829822Y-114696470D01*
X146829823Y-114696472D01*
X146829824Y-114696474D01*
X146893421Y-114806627D01*
X146893429Y-114806637D01*
X146983362Y-114896570D01*
X146983367Y-114896574D01*
X146983369Y-114896576D01*
X147093530Y-114960178D01*
X147216399Y-114993100D01*
X147216400Y-114993100D01*
X147343600Y-114993100D01*
X147343601Y-114993100D01*
X147466470Y-114960178D01*
X147576631Y-114896576D01*
X147666576Y-114806631D01*
X147730178Y-114696470D01*
X147763100Y-114573601D01*
X147763100Y-114446399D01*
X147730178Y-114323530D01*
X147666576Y-114213369D01*
X147666574Y-114213367D01*
X147666570Y-114213362D01*
X147576637Y-114123429D01*
X147576627Y-114123421D01*
X147466474Y-114059824D01*
X147466472Y-114059823D01*
X147466470Y-114059822D01*
X147343601Y-114026900D01*
X147216399Y-114026900D01*
X147093530Y-114059822D01*
X147093528Y-114059823D01*
X147093525Y-114059824D01*
X146983372Y-114123421D01*
X146983362Y-114123429D01*
X146893429Y-114213362D01*
X146893421Y-114213372D01*
X146829824Y-114323525D01*
X146829823Y-114323528D01*
X146829822Y-114323530D01*
X146796900Y-114446399D01*
X114985958Y-114446399D01*
X115004948Y-114422586D01*
X115151620Y-114189159D01*
X115271235Y-113940776D01*
X115362287Y-113680563D01*
X115423633Y-113411792D01*
X115454500Y-113137842D01*
X115454500Y-112862158D01*
X115454500Y-112862156D01*
X159545500Y-112862156D01*
X159545500Y-113137843D01*
X159576367Y-113411795D01*
X159637714Y-113680569D01*
X159728758Y-113940758D01*
X159728763Y-113940772D01*
X159728765Y-113940776D01*
X159848380Y-114189159D01*
X159848384Y-114189165D01*
X159995052Y-114422586D01*
X160166940Y-114638127D01*
X160361872Y-114833059D01*
X160436248Y-114892372D01*
X160577414Y-115004948D01*
X160810841Y-115151620D01*
X161059224Y-115271235D01*
X161059239Y-115271240D01*
X161059241Y-115271241D01*
X161319430Y-115362285D01*
X161319433Y-115362285D01*
X161319437Y-115362287D01*
X161588208Y-115423633D01*
X161782462Y-115445520D01*
X161862156Y-115454500D01*
X161862158Y-115454500D01*
X162137844Y-115454500D01*
X162209740Y-115446399D01*
X162411792Y-115423633D01*
X162680563Y-115362287D01*
X162940776Y-115271235D01*
X163189159Y-115151620D01*
X163422586Y-115004948D01*
X163638124Y-114833062D01*
X163833062Y-114638124D01*
X164004948Y-114422586D01*
X164151620Y-114189159D01*
X164271235Y-113940776D01*
X164362287Y-113680563D01*
X164423633Y-113411792D01*
X164454500Y-113137842D01*
X164454500Y-112862158D01*
X164423633Y-112588208D01*
X164362287Y-112319437D01*
X164271235Y-112059224D01*
X164151620Y-111810841D01*
X164004948Y-111577414D01*
X163833062Y-111361876D01*
X163833059Y-111361872D01*
X163638127Y-111166940D01*
X163422586Y-110995052D01*
X163189165Y-110848384D01*
X163189166Y-110848384D01*
X163189159Y-110848380D01*
X162940776Y-110728765D01*
X162940772Y-110728763D01*
X162940758Y-110728758D01*
X162680569Y-110637714D01*
X162411795Y-110576367D01*
X162137844Y-110545500D01*
X162137842Y-110545500D01*
X161862158Y-110545500D01*
X161862156Y-110545500D01*
X161588204Y-110576367D01*
X161319430Y-110637714D01*
X161059241Y-110728758D01*
X161059221Y-110728766D01*
X160956339Y-110778311D01*
X160810841Y-110848380D01*
X160810836Y-110848382D01*
X160810834Y-110848384D01*
X160577413Y-110995052D01*
X160361872Y-111166940D01*
X160166940Y-111361872D01*
X159995052Y-111577413D01*
X159848384Y-111810834D01*
X159848380Y-111810841D01*
X159778311Y-111956339D01*
X159728766Y-112059221D01*
X159728758Y-112059241D01*
X159637714Y-112319430D01*
X159576367Y-112588204D01*
X159545500Y-112862156D01*
X115454500Y-112862156D01*
X115423633Y-112588208D01*
X115362287Y-112319437D01*
X115271235Y-112059224D01*
X115151620Y-111810841D01*
X115004948Y-111577414D01*
X114833062Y-111361876D01*
X114833059Y-111361872D01*
X114638127Y-111166940D01*
X114422586Y-110995052D01*
X114189165Y-110848384D01*
X114189166Y-110848384D01*
X114189159Y-110848380D01*
X113940776Y-110728765D01*
X113940772Y-110728763D01*
X113940758Y-110728758D01*
X113680569Y-110637714D01*
X113411795Y-110576367D01*
X113137844Y-110545500D01*
X113137842Y-110545500D01*
X112862158Y-110545500D01*
X112862156Y-110545500D01*
X112588204Y-110576367D01*
X112319430Y-110637714D01*
X112059241Y-110728758D01*
X112059221Y-110728766D01*
X111956339Y-110778311D01*
X111810841Y-110848380D01*
X111810836Y-110848382D01*
X111810834Y-110848384D01*
X111577413Y-110995052D01*
X111361872Y-111166940D01*
X111166940Y-111361872D01*
X110995052Y-111577413D01*
X110848384Y-111810834D01*
X110848380Y-111810841D01*
X110778311Y-111956339D01*
X110728766Y-112059221D01*
X110728758Y-112059241D01*
X110637714Y-112319430D01*
X110576367Y-112588204D01*
X110545500Y-112862156D01*
X110254500Y-112862156D01*
X110254500Y-108235899D01*
X148837400Y-108235899D01*
X148837400Y-108363101D01*
X148870322Y-108485970D01*
X148870323Y-108485972D01*
X148870324Y-108485974D01*
X148933921Y-108596127D01*
X148933929Y-108596137D01*
X149023862Y-108686070D01*
X149023867Y-108686074D01*
X149023869Y-108686076D01*
X149134030Y-108749678D01*
X149256899Y-108782600D01*
X149256900Y-108782600D01*
X149384099Y-108782600D01*
X149384101Y-108782600D01*
X149506970Y-108749678D01*
X149617131Y-108686076D01*
X149707076Y-108596131D01*
X149770678Y-108485970D01*
X149803600Y-108363101D01*
X149803600Y-108235899D01*
X149770678Y-108113030D01*
X149707076Y-108002869D01*
X149707074Y-108002867D01*
X149707070Y-108002862D01*
X149617137Y-107912929D01*
X149617127Y-107912921D01*
X149506974Y-107849324D01*
X149506972Y-107849323D01*
X149506970Y-107849322D01*
X149384101Y-107816400D01*
X149256899Y-107816400D01*
X149134030Y-107849322D01*
X149134028Y-107849323D01*
X149134025Y-107849324D01*
X149023872Y-107912921D01*
X149023862Y-107912929D01*
X148933929Y-108002862D01*
X148933921Y-108002872D01*
X148870324Y-108113025D01*
X148870323Y-108113028D01*
X148870322Y-108113030D01*
X148837400Y-108235899D01*
X110254500Y-108235899D01*
X110254500Y-106856399D01*
X134226900Y-106856399D01*
X134226900Y-106983601D01*
X134259822Y-107106470D01*
X134259823Y-107106472D01*
X134259824Y-107106474D01*
X134323421Y-107216627D01*
X134323429Y-107216637D01*
X134413362Y-107306570D01*
X134413367Y-107306574D01*
X134413369Y-107306576D01*
X134523530Y-107370178D01*
X134646399Y-107403100D01*
X134646400Y-107403100D01*
X134773599Y-107403100D01*
X134773601Y-107403100D01*
X134896470Y-107370178D01*
X135006631Y-107306576D01*
X135096576Y-107216631D01*
X135160178Y-107106470D01*
X135193100Y-106983601D01*
X135193100Y-106856399D01*
X135160178Y-106733530D01*
X135096576Y-106623369D01*
X135096574Y-106623367D01*
X135096570Y-106623362D01*
X135006637Y-106533429D01*
X135006627Y-106533421D01*
X134896474Y-106469824D01*
X134896472Y-106469823D01*
X134896470Y-106469822D01*
X134773601Y-106436900D01*
X134646399Y-106436900D01*
X134523530Y-106469822D01*
X134523528Y-106469823D01*
X134523525Y-106469824D01*
X134413372Y-106533421D01*
X134413362Y-106533429D01*
X134323429Y-106623362D01*
X134323421Y-106623372D01*
X134259824Y-106733525D01*
X134259823Y-106733528D01*
X134259822Y-106733530D01*
X134226900Y-106856399D01*
X110254500Y-106856399D01*
X110254500Y-104966399D01*
X128306900Y-104966399D01*
X128306900Y-105093601D01*
X128339822Y-105216470D01*
X128339823Y-105216472D01*
X128339824Y-105216474D01*
X128403421Y-105326627D01*
X128403429Y-105326637D01*
X128493362Y-105416570D01*
X128493367Y-105416574D01*
X128493369Y-105416576D01*
X128493370Y-105416577D01*
X128493372Y-105416578D01*
X128528013Y-105436578D01*
X128603530Y-105480178D01*
X128726399Y-105513100D01*
X128726400Y-105513100D01*
X128853599Y-105513100D01*
X128853601Y-105513100D01*
X128976470Y-105480178D01*
X129086631Y-105416576D01*
X129176576Y-105326631D01*
X129240178Y-105216470D01*
X129273100Y-105093601D01*
X129273100Y-104966399D01*
X129240178Y-104843530D01*
X129221283Y-104810803D01*
X129176578Y-104733372D01*
X129176570Y-104733362D01*
X129086637Y-104643429D01*
X129086627Y-104643421D01*
X128976474Y-104579824D01*
X128976472Y-104579823D01*
X128976470Y-104579822D01*
X128853601Y-104546900D01*
X128726399Y-104546900D01*
X128603530Y-104579822D01*
X128603528Y-104579823D01*
X128603525Y-104579824D01*
X128493372Y-104643421D01*
X128493362Y-104643429D01*
X128403429Y-104733362D01*
X128403421Y-104733372D01*
X128339824Y-104843525D01*
X128339823Y-104843528D01*
X128339822Y-104843530D01*
X128306900Y-104966399D01*
X110254500Y-104966399D01*
X110254500Y-104312999D01*
X139986900Y-104312999D01*
X139986900Y-104440201D01*
X140019822Y-104563070D01*
X140019823Y-104563072D01*
X140019824Y-104563074D01*
X140070184Y-104650300D01*
X140086922Y-104719296D01*
X140070184Y-104776300D01*
X140019824Y-104863525D01*
X140019823Y-104863528D01*
X140019822Y-104863530D01*
X139986900Y-104986399D01*
X139986900Y-105113601D01*
X140019822Y-105236470D01*
X140019823Y-105236472D01*
X140019824Y-105236474D01*
X140083421Y-105346627D01*
X140083429Y-105346637D01*
X140173362Y-105436570D01*
X140173367Y-105436574D01*
X140173369Y-105436576D01*
X140283530Y-105500178D01*
X140406399Y-105533100D01*
X140406400Y-105533100D01*
X140533599Y-105533100D01*
X140533601Y-105533100D01*
X140656470Y-105500178D01*
X140766631Y-105436576D01*
X140856576Y-105346631D01*
X140920178Y-105236470D01*
X140953100Y-105113601D01*
X140953100Y-104986399D01*
X140920178Y-104863530D01*
X140869814Y-104776299D01*
X140853077Y-104707305D01*
X140869815Y-104650300D01*
X140873787Y-104643421D01*
X140920178Y-104563070D01*
X140953100Y-104440201D01*
X140953100Y-104312999D01*
X140920178Y-104190130D01*
X140856576Y-104079969D01*
X140856574Y-104079967D01*
X140856570Y-104079962D01*
X140766637Y-103990029D01*
X140766627Y-103990021D01*
X140656474Y-103926424D01*
X140656472Y-103926423D01*
X140656470Y-103926422D01*
X140533601Y-103893500D01*
X140406399Y-103893500D01*
X140283530Y-103926422D01*
X140283528Y-103926423D01*
X140283525Y-103926424D01*
X140173372Y-103990021D01*
X140173362Y-103990029D01*
X140083429Y-104079962D01*
X140083421Y-104079972D01*
X140019824Y-104190125D01*
X140019823Y-104190128D01*
X140019822Y-104190130D01*
X139986900Y-104312999D01*
X110254500Y-104312999D01*
X110254500Y-103441399D01*
X143407900Y-103441399D01*
X143407900Y-103568601D01*
X143440822Y-103691470D01*
X143440823Y-103691472D01*
X143440824Y-103691474D01*
X143504421Y-103801627D01*
X143504429Y-103801637D01*
X143594362Y-103891570D01*
X143594367Y-103891574D01*
X143594369Y-103891576D01*
X143594370Y-103891577D01*
X143594372Y-103891578D01*
X143654727Y-103926424D01*
X143704530Y-103955178D01*
X143827399Y-103988100D01*
X143827400Y-103988100D01*
X143954599Y-103988100D01*
X143954601Y-103988100D01*
X144077470Y-103955178D01*
X144145502Y-103915899D01*
X144214495Y-103899162D01*
X144271497Y-103915898D01*
X144339530Y-103955178D01*
X144462399Y-103988100D01*
X144462400Y-103988100D01*
X144589599Y-103988100D01*
X144589601Y-103988100D01*
X144712470Y-103955178D01*
X144822631Y-103891576D01*
X144912576Y-103801631D01*
X144976178Y-103691470D01*
X145009100Y-103568601D01*
X145009100Y-103441399D01*
X144976178Y-103318530D01*
X144912576Y-103208369D01*
X144912574Y-103208367D01*
X144912570Y-103208362D01*
X144822637Y-103118429D01*
X144822627Y-103118421D01*
X144712474Y-103054824D01*
X144712472Y-103054823D01*
X144712470Y-103054822D01*
X144589601Y-103021900D01*
X144462399Y-103021900D01*
X144339530Y-103054822D01*
X144339528Y-103054823D01*
X144339525Y-103054824D01*
X144271500Y-103094099D01*
X144202504Y-103110837D01*
X144145500Y-103094099D01*
X144077474Y-103054824D01*
X144077472Y-103054823D01*
X144077470Y-103054822D01*
X143954601Y-103021900D01*
X143827399Y-103021900D01*
X143704530Y-103054822D01*
X143704528Y-103054823D01*
X143704525Y-103054824D01*
X143594372Y-103118421D01*
X143594362Y-103118429D01*
X143504429Y-103208362D01*
X143504421Y-103208372D01*
X143440824Y-103318525D01*
X143440823Y-103318528D01*
X143440822Y-103318530D01*
X143407900Y-103441399D01*
X110254500Y-103441399D01*
X110254500Y-101790399D01*
X154456900Y-101790399D01*
X154456900Y-101917601D01*
X154489822Y-102040470D01*
X154489823Y-102040472D01*
X154489824Y-102040474D01*
X154529099Y-102108500D01*
X154545837Y-102177496D01*
X154529099Y-102234500D01*
X154489824Y-102302525D01*
X154489823Y-102302528D01*
X154489822Y-102302530D01*
X154456900Y-102425399D01*
X154456900Y-102552601D01*
X154489822Y-102675470D01*
X154489823Y-102675472D01*
X154489824Y-102675474D01*
X154553421Y-102785627D01*
X154553429Y-102785637D01*
X154643362Y-102875570D01*
X154643367Y-102875574D01*
X154643369Y-102875576D01*
X154753530Y-102939178D01*
X154876399Y-102972100D01*
X154876400Y-102972100D01*
X155003599Y-102972100D01*
X155003601Y-102972100D01*
X155126470Y-102939178D01*
X155194502Y-102899899D01*
X155263495Y-102883162D01*
X155320497Y-102899898D01*
X155388530Y-102939178D01*
X155511399Y-102972100D01*
X155511400Y-102972100D01*
X155638599Y-102972100D01*
X155638601Y-102972100D01*
X155761470Y-102939178D01*
X155871631Y-102875576D01*
X155961576Y-102785631D01*
X156025178Y-102675470D01*
X156058100Y-102552601D01*
X156058100Y-102425399D01*
X156025178Y-102302530D01*
X155985899Y-102234497D01*
X155969162Y-102165505D01*
X155985898Y-102108502D01*
X156025178Y-102040470D01*
X156058100Y-101917601D01*
X156058100Y-101790399D01*
X156025178Y-101667530D01*
X155961576Y-101557369D01*
X155961574Y-101557367D01*
X155961570Y-101557362D01*
X155871637Y-101467429D01*
X155871627Y-101467421D01*
X155761474Y-101403824D01*
X155761472Y-101403823D01*
X155761470Y-101403822D01*
X155638601Y-101370900D01*
X155511399Y-101370900D01*
X155388530Y-101403822D01*
X155388528Y-101403823D01*
X155388525Y-101403824D01*
X155320500Y-101443099D01*
X155251504Y-101459837D01*
X155194500Y-101443099D01*
X155126474Y-101403824D01*
X155126472Y-101403823D01*
X155126470Y-101403822D01*
X155003601Y-101370900D01*
X154876399Y-101370900D01*
X154753530Y-101403822D01*
X154753528Y-101403823D01*
X154753525Y-101403824D01*
X154643372Y-101467421D01*
X154643362Y-101467429D01*
X154553429Y-101557362D01*
X154553421Y-101557372D01*
X154489824Y-101667525D01*
X154489823Y-101667528D01*
X154489822Y-101667530D01*
X154456900Y-101790399D01*
X110254500Y-101790399D01*
X110254500Y-99631399D01*
X113181900Y-99631399D01*
X113181900Y-99758601D01*
X113214822Y-99881470D01*
X113214823Y-99881472D01*
X113214824Y-99881474D01*
X113254099Y-99949500D01*
X113270837Y-100018496D01*
X113254099Y-100075500D01*
X113214824Y-100143525D01*
X113214823Y-100143528D01*
X113214822Y-100143530D01*
X113181900Y-100266399D01*
X113181900Y-100393601D01*
X113214822Y-100516470D01*
X113214823Y-100516472D01*
X113214824Y-100516474D01*
X113278421Y-100626627D01*
X113278429Y-100626637D01*
X113368362Y-100716570D01*
X113368367Y-100716574D01*
X113368369Y-100716576D01*
X113478530Y-100780178D01*
X113601399Y-100813100D01*
X113601400Y-100813100D01*
X113728599Y-100813100D01*
X113728601Y-100813100D01*
X113851470Y-100780178D01*
X113961631Y-100716576D01*
X114051576Y-100626631D01*
X114115178Y-100516470D01*
X114148100Y-100393601D01*
X114148100Y-100304100D01*
X114168102Y-100235979D01*
X114221758Y-100189486D01*
X114274100Y-100178100D01*
X114363599Y-100178100D01*
X114363601Y-100178100D01*
X114486470Y-100145178D01*
X114570957Y-100096399D01*
X133346900Y-100096399D01*
X133346900Y-100223601D01*
X133379822Y-100346470D01*
X133379823Y-100346472D01*
X133379824Y-100346474D01*
X133443421Y-100456627D01*
X133443429Y-100456637D01*
X133533362Y-100546570D01*
X133533367Y-100546574D01*
X133533369Y-100546576D01*
X133533370Y-100546577D01*
X133533372Y-100546578D01*
X133610803Y-100591283D01*
X133643530Y-100610178D01*
X133766399Y-100643100D01*
X133766400Y-100643100D01*
X133893599Y-100643100D01*
X133893601Y-100643100D01*
X134016470Y-100610178D01*
X134126631Y-100546576D01*
X134216576Y-100456631D01*
X134280178Y-100346470D01*
X134313100Y-100223601D01*
X134313100Y-100186399D01*
X134566900Y-100186399D01*
X134566900Y-100313601D01*
X134599822Y-100436470D01*
X134599823Y-100436472D01*
X134599824Y-100436474D01*
X134663421Y-100546627D01*
X134663429Y-100546637D01*
X134753362Y-100636570D01*
X134753367Y-100636574D01*
X134753369Y-100636576D01*
X134753370Y-100636577D01*
X134753372Y-100636578D01*
X134830803Y-100681283D01*
X134863530Y-100700178D01*
X134986399Y-100733100D01*
X134986400Y-100733100D01*
X135113599Y-100733100D01*
X135113601Y-100733100D01*
X135236470Y-100700178D01*
X135346631Y-100636576D01*
X135436576Y-100546631D01*
X135500178Y-100436470D01*
X135511719Y-100393399D01*
X161060900Y-100393399D01*
X161060900Y-100520601D01*
X161093822Y-100643470D01*
X161093823Y-100643472D01*
X161093824Y-100643474D01*
X161133099Y-100711500D01*
X161149837Y-100780496D01*
X161133099Y-100837500D01*
X161093824Y-100905525D01*
X161093823Y-100905528D01*
X161093822Y-100905530D01*
X161060900Y-101028399D01*
X161060900Y-101155601D01*
X161093822Y-101278470D01*
X161093823Y-101278472D01*
X161093824Y-101278474D01*
X161157421Y-101388627D01*
X161157429Y-101388637D01*
X161247362Y-101478570D01*
X161247367Y-101478574D01*
X161247369Y-101478576D01*
X161357530Y-101542178D01*
X161480399Y-101575100D01*
X161480400Y-101575100D01*
X161607599Y-101575100D01*
X161607601Y-101575100D01*
X161730470Y-101542178D01*
X161798502Y-101502899D01*
X161867495Y-101486162D01*
X161924497Y-101502898D01*
X161992530Y-101542178D01*
X162115399Y-101575100D01*
X162115400Y-101575100D01*
X162242599Y-101575100D01*
X162242601Y-101575100D01*
X162365470Y-101542178D01*
X162475631Y-101478576D01*
X162565576Y-101388631D01*
X162629178Y-101278470D01*
X162662100Y-101155601D01*
X162662100Y-101028399D01*
X162629178Y-100905530D01*
X162589899Y-100837497D01*
X162573162Y-100768505D01*
X162589898Y-100711502D01*
X162629178Y-100643470D01*
X162662100Y-100520601D01*
X162662100Y-100393399D01*
X162629178Y-100270530D01*
X162565576Y-100160369D01*
X162565574Y-100160367D01*
X162565570Y-100160362D01*
X162475637Y-100070429D01*
X162475627Y-100070421D01*
X162365474Y-100006824D01*
X162365472Y-100006823D01*
X162365470Y-100006822D01*
X162242601Y-99973900D01*
X162115399Y-99973900D01*
X161992530Y-100006822D01*
X161992528Y-100006823D01*
X161992525Y-100006824D01*
X161924500Y-100046099D01*
X161855504Y-100062837D01*
X161798500Y-100046099D01*
X161730474Y-100006824D01*
X161730472Y-100006823D01*
X161730470Y-100006822D01*
X161607601Y-99973900D01*
X161480399Y-99973900D01*
X161357530Y-100006822D01*
X161357528Y-100006823D01*
X161357525Y-100006824D01*
X161247372Y-100070421D01*
X161247362Y-100070429D01*
X161157429Y-100160362D01*
X161157421Y-100160372D01*
X161093824Y-100270525D01*
X161093823Y-100270528D01*
X161093822Y-100270530D01*
X161060900Y-100393399D01*
X135511719Y-100393399D01*
X135533100Y-100313601D01*
X135533100Y-100186399D01*
X135500178Y-100063530D01*
X135458667Y-99991631D01*
X135436578Y-99953372D01*
X135436570Y-99953362D01*
X135346637Y-99863429D01*
X135346627Y-99863421D01*
X135236474Y-99799824D01*
X135236472Y-99799823D01*
X135236470Y-99799822D01*
X135113601Y-99766900D01*
X134986399Y-99766900D01*
X134863530Y-99799822D01*
X134863528Y-99799823D01*
X134863525Y-99799824D01*
X134753372Y-99863421D01*
X134753362Y-99863429D01*
X134663429Y-99953362D01*
X134663421Y-99953372D01*
X134599824Y-100063525D01*
X134599823Y-100063528D01*
X134599822Y-100063530D01*
X134566900Y-100186399D01*
X134313100Y-100186399D01*
X134313100Y-100096399D01*
X134280178Y-99973530D01*
X134216576Y-99863369D01*
X134216574Y-99863367D01*
X134216570Y-99863362D01*
X134126637Y-99773429D01*
X134126627Y-99773421D01*
X134016474Y-99709824D01*
X134016472Y-99709823D01*
X134016470Y-99709822D01*
X133893601Y-99676900D01*
X133766399Y-99676900D01*
X133643530Y-99709822D01*
X133643528Y-99709823D01*
X133643525Y-99709824D01*
X133533372Y-99773421D01*
X133533362Y-99773429D01*
X133443429Y-99863362D01*
X133443421Y-99863372D01*
X133379824Y-99973525D01*
X133379823Y-99973528D01*
X133379822Y-99973530D01*
X133346900Y-100096399D01*
X114570957Y-100096399D01*
X114596631Y-100081576D01*
X114632108Y-100046099D01*
X114679162Y-99999046D01*
X114686570Y-99991637D01*
X114686576Y-99991631D01*
X114750178Y-99881470D01*
X114783100Y-99758601D01*
X114783100Y-99631399D01*
X114750178Y-99508530D01*
X114686576Y-99398369D01*
X114686574Y-99398367D01*
X114686570Y-99398362D01*
X114664607Y-99376399D01*
X131326900Y-99376399D01*
X131326900Y-99503601D01*
X131359822Y-99626470D01*
X131359823Y-99626472D01*
X131359824Y-99626474D01*
X131423421Y-99736627D01*
X131423429Y-99736637D01*
X131513362Y-99826570D01*
X131513367Y-99826574D01*
X131513369Y-99826576D01*
X131623530Y-99890178D01*
X131746399Y-99923100D01*
X131746400Y-99923100D01*
X131873599Y-99923100D01*
X131873601Y-99923100D01*
X131996470Y-99890178D01*
X132106631Y-99826576D01*
X132196576Y-99736631D01*
X132260178Y-99626470D01*
X132293100Y-99503601D01*
X132293100Y-99376399D01*
X132260178Y-99253530D01*
X132241283Y-99220803D01*
X132196578Y-99143372D01*
X132196570Y-99143362D01*
X132106637Y-99053429D01*
X132106627Y-99053421D01*
X131996474Y-98989824D01*
X131996472Y-98989823D01*
X131996470Y-98989822D01*
X131873601Y-98956900D01*
X131746399Y-98956900D01*
X131623530Y-98989822D01*
X131623528Y-98989823D01*
X131623525Y-98989824D01*
X131513372Y-99053421D01*
X131513362Y-99053429D01*
X131423429Y-99143362D01*
X131423421Y-99143372D01*
X131359824Y-99253525D01*
X131359823Y-99253528D01*
X131359822Y-99253530D01*
X131326900Y-99376399D01*
X114664607Y-99376399D01*
X114596637Y-99308429D01*
X114596627Y-99308421D01*
X114486474Y-99244824D01*
X114486472Y-99244823D01*
X114486470Y-99244822D01*
X114363601Y-99211900D01*
X114236399Y-99211900D01*
X114113530Y-99244822D01*
X114113528Y-99244823D01*
X114113525Y-99244824D01*
X114045500Y-99284099D01*
X113976504Y-99300837D01*
X113919500Y-99284099D01*
X113851474Y-99244824D01*
X113851472Y-99244823D01*
X113851470Y-99244822D01*
X113728601Y-99211900D01*
X113601399Y-99211900D01*
X113478530Y-99244822D01*
X113478528Y-99244823D01*
X113478525Y-99244824D01*
X113368372Y-99308421D01*
X113368362Y-99308429D01*
X113278429Y-99398362D01*
X113278421Y-99398372D01*
X113214824Y-99508525D01*
X113214823Y-99508528D01*
X113214822Y-99508530D01*
X113181900Y-99631399D01*
X110254500Y-99631399D01*
X110254500Y-98496399D01*
X135746900Y-98496399D01*
X135746900Y-98623601D01*
X135779822Y-98746470D01*
X135779823Y-98746472D01*
X135779824Y-98746474D01*
X135843421Y-98856627D01*
X135843429Y-98856637D01*
X135933362Y-98946570D01*
X135933367Y-98946574D01*
X135933369Y-98946576D01*
X135933370Y-98946577D01*
X135933372Y-98946578D01*
X136008273Y-98989822D01*
X136043530Y-99010178D01*
X136166399Y-99043100D01*
X136166400Y-99043100D01*
X136293599Y-99043100D01*
X136293601Y-99043100D01*
X136416470Y-99010178D01*
X136526631Y-98946576D01*
X136616576Y-98856631D01*
X136680178Y-98746470D01*
X136681269Y-98742399D01*
X149884900Y-98742399D01*
X149884900Y-98869601D01*
X149917822Y-98992470D01*
X149917823Y-98992472D01*
X149917824Y-98992474D01*
X149981421Y-99102627D01*
X149981429Y-99102637D01*
X150071362Y-99192570D01*
X150071367Y-99192574D01*
X150071369Y-99192576D01*
X150181530Y-99256178D01*
X150304399Y-99289100D01*
X150304400Y-99289100D01*
X150431599Y-99289100D01*
X150431601Y-99289100D01*
X150554470Y-99256178D01*
X150622502Y-99216899D01*
X150691495Y-99200162D01*
X150748497Y-99216898D01*
X150816530Y-99256178D01*
X150939399Y-99289100D01*
X150939400Y-99289100D01*
X151066599Y-99289100D01*
X151066601Y-99289100D01*
X151189470Y-99256178D01*
X151257502Y-99216899D01*
X151326495Y-99200162D01*
X151383497Y-99216898D01*
X151451530Y-99256178D01*
X151574399Y-99289100D01*
X151574400Y-99289100D01*
X151701599Y-99289100D01*
X151701601Y-99289100D01*
X151824470Y-99256178D01*
X151934631Y-99192576D01*
X152024576Y-99102631D01*
X152088178Y-98992470D01*
X152121100Y-98869601D01*
X152121100Y-98742399D01*
X152088178Y-98619530D01*
X152028769Y-98516631D01*
X152024578Y-98509372D01*
X152024570Y-98509362D01*
X151934637Y-98419429D01*
X151934627Y-98419421D01*
X151824474Y-98355824D01*
X151824472Y-98355823D01*
X151824470Y-98355822D01*
X151701601Y-98322900D01*
X151574399Y-98322900D01*
X151451530Y-98355822D01*
X151451528Y-98355823D01*
X151451525Y-98355824D01*
X151383500Y-98395099D01*
X151314504Y-98411837D01*
X151257500Y-98395099D01*
X151189474Y-98355824D01*
X151189472Y-98355823D01*
X151189470Y-98355822D01*
X151066601Y-98322900D01*
X150939399Y-98322900D01*
X150816530Y-98355822D01*
X150816528Y-98355823D01*
X150816525Y-98355824D01*
X150748500Y-98395099D01*
X150679504Y-98411837D01*
X150622500Y-98395099D01*
X150554474Y-98355824D01*
X150554472Y-98355823D01*
X150554470Y-98355822D01*
X150431601Y-98322900D01*
X150304399Y-98322900D01*
X150181530Y-98355822D01*
X150181528Y-98355823D01*
X150181525Y-98355824D01*
X150071372Y-98419421D01*
X150071362Y-98419429D01*
X149981429Y-98509362D01*
X149981421Y-98509372D01*
X149917824Y-98619525D01*
X149917823Y-98619528D01*
X149917822Y-98619530D01*
X149884900Y-98742399D01*
X136681269Y-98742399D01*
X136713100Y-98623601D01*
X136713100Y-98496399D01*
X136680178Y-98373530D01*
X136616576Y-98263369D01*
X136616574Y-98263367D01*
X136616570Y-98263362D01*
X136526637Y-98173429D01*
X136526627Y-98173421D01*
X136497144Y-98156399D01*
X136966900Y-98156399D01*
X136966900Y-98283601D01*
X136999822Y-98406470D01*
X136999823Y-98406472D01*
X136999824Y-98406474D01*
X137063421Y-98516627D01*
X137063429Y-98516637D01*
X137153362Y-98606570D01*
X137153367Y-98606574D01*
X137153369Y-98606576D01*
X137153370Y-98606577D01*
X137153372Y-98606578D01*
X137175809Y-98619532D01*
X137263530Y-98670178D01*
X137386399Y-98703100D01*
X137386400Y-98703100D01*
X137513599Y-98703100D01*
X137513601Y-98703100D01*
X137636470Y-98670178D01*
X137746631Y-98606576D01*
X137836576Y-98516631D01*
X137900178Y-98406470D01*
X137933100Y-98283601D01*
X137933100Y-98156399D01*
X137900178Y-98033530D01*
X137836576Y-97923369D01*
X137836574Y-97923367D01*
X137836570Y-97923362D01*
X137746637Y-97833429D01*
X137746627Y-97833421D01*
X137636474Y-97769824D01*
X137636472Y-97769823D01*
X137636470Y-97769822D01*
X137513601Y-97736900D01*
X137386399Y-97736900D01*
X137263530Y-97769822D01*
X137263528Y-97769823D01*
X137263525Y-97769824D01*
X137153372Y-97833421D01*
X137153362Y-97833429D01*
X137063429Y-97923362D01*
X137063421Y-97923372D01*
X136999824Y-98033525D01*
X136999823Y-98033528D01*
X136999822Y-98033530D01*
X136966900Y-98156399D01*
X136497144Y-98156399D01*
X136416474Y-98109824D01*
X136416472Y-98109823D01*
X136416470Y-98109822D01*
X136293601Y-98076900D01*
X136166399Y-98076900D01*
X136043530Y-98109822D01*
X136043528Y-98109823D01*
X136043525Y-98109824D01*
X135933372Y-98173421D01*
X135933362Y-98173429D01*
X135843429Y-98263362D01*
X135843421Y-98263372D01*
X135779824Y-98373525D01*
X135779823Y-98373528D01*
X135779822Y-98373530D01*
X135746900Y-98496399D01*
X110254500Y-98496399D01*
X110254500Y-96964399D01*
X161060900Y-96964399D01*
X161060900Y-97091601D01*
X161093822Y-97214470D01*
X161093823Y-97214472D01*
X161093824Y-97214474D01*
X161133099Y-97282500D01*
X161149837Y-97351496D01*
X161133099Y-97408500D01*
X161093824Y-97476525D01*
X161093823Y-97476528D01*
X161093822Y-97476530D01*
X161060900Y-97599399D01*
X161060900Y-97726601D01*
X161093822Y-97849470D01*
X161093823Y-97849472D01*
X161093824Y-97849474D01*
X161157421Y-97959627D01*
X161157429Y-97959637D01*
X161247362Y-98049570D01*
X161247367Y-98049574D01*
X161247369Y-98049576D01*
X161357530Y-98113178D01*
X161480399Y-98146100D01*
X161480400Y-98146100D01*
X161607599Y-98146100D01*
X161607601Y-98146100D01*
X161730470Y-98113178D01*
X161798502Y-98073899D01*
X161867495Y-98057162D01*
X161924497Y-98073898D01*
X161992530Y-98113178D01*
X162115399Y-98146100D01*
X162115400Y-98146100D01*
X162242599Y-98146100D01*
X162242601Y-98146100D01*
X162365470Y-98113178D01*
X162475631Y-98049576D01*
X162565576Y-97959631D01*
X162629178Y-97849470D01*
X162662100Y-97726601D01*
X162662100Y-97599399D01*
X162629178Y-97476530D01*
X162589899Y-97408497D01*
X162573162Y-97339505D01*
X162589898Y-97282502D01*
X162629178Y-97214470D01*
X162662100Y-97091601D01*
X162662100Y-96964399D01*
X162629178Y-96841530D01*
X162565576Y-96731369D01*
X162565574Y-96731367D01*
X162565570Y-96731362D01*
X162475637Y-96641429D01*
X162475627Y-96641421D01*
X162365474Y-96577824D01*
X162365472Y-96577823D01*
X162365470Y-96577822D01*
X162242601Y-96544900D01*
X162115399Y-96544900D01*
X161992530Y-96577822D01*
X161992528Y-96577823D01*
X161992525Y-96577824D01*
X161924500Y-96617099D01*
X161855504Y-96633837D01*
X161798500Y-96617099D01*
X161730474Y-96577824D01*
X161730472Y-96577823D01*
X161730470Y-96577822D01*
X161607601Y-96544900D01*
X161480399Y-96544900D01*
X161357530Y-96577822D01*
X161357528Y-96577823D01*
X161357525Y-96577824D01*
X161247372Y-96641421D01*
X161247362Y-96641429D01*
X161157429Y-96731362D01*
X161157421Y-96731372D01*
X161093824Y-96841525D01*
X161093823Y-96841528D01*
X161093822Y-96841530D01*
X161060900Y-96964399D01*
X110254500Y-96964399D01*
X110254500Y-95066399D01*
X122576900Y-95066399D01*
X122576900Y-95193601D01*
X122609822Y-95316470D01*
X122609823Y-95316472D01*
X122609824Y-95316474D01*
X122673421Y-95426627D01*
X122673429Y-95426637D01*
X122763362Y-95516570D01*
X122763367Y-95516574D01*
X122763369Y-95516576D01*
X122873530Y-95580178D01*
X122996399Y-95613100D01*
X122996400Y-95613100D01*
X123123599Y-95613100D01*
X123123601Y-95613100D01*
X123246470Y-95580178D01*
X123356631Y-95516576D01*
X123446576Y-95426631D01*
X123510178Y-95316470D01*
X123518235Y-95286399D01*
X130136900Y-95286399D01*
X130136900Y-95413601D01*
X130169822Y-95536470D01*
X130169823Y-95536472D01*
X130169824Y-95536474D01*
X130233421Y-95646627D01*
X130233429Y-95646637D01*
X130323362Y-95736570D01*
X130323367Y-95736574D01*
X130323369Y-95736576D01*
X130433530Y-95800178D01*
X130556399Y-95833100D01*
X130556400Y-95833100D01*
X130683599Y-95833100D01*
X130683601Y-95833100D01*
X130806470Y-95800178D01*
X130916631Y-95736576D01*
X131006576Y-95646631D01*
X131070178Y-95536470D01*
X131103100Y-95413601D01*
X131103100Y-95286399D01*
X131101443Y-95280216D01*
X131096230Y-95260757D01*
X131096228Y-95260752D01*
X131089703Y-95236399D01*
X133126900Y-95236399D01*
X133126900Y-95363601D01*
X133159822Y-95486470D01*
X133159823Y-95486472D01*
X133159824Y-95486474D01*
X133223421Y-95596627D01*
X133223429Y-95596637D01*
X133313362Y-95686570D01*
X133313367Y-95686574D01*
X133313369Y-95686576D01*
X133423530Y-95750178D01*
X133546399Y-95783100D01*
X133546400Y-95783100D01*
X133673599Y-95783100D01*
X133673601Y-95783100D01*
X133796470Y-95750178D01*
X133906631Y-95686576D01*
X133996576Y-95596631D01*
X134060178Y-95486470D01*
X134093100Y-95363601D01*
X134093100Y-95236399D01*
X134060178Y-95113530D01*
X134032967Y-95066399D01*
X133996578Y-95003372D01*
X133996570Y-95003362D01*
X133906637Y-94913429D01*
X133906627Y-94913421D01*
X133796474Y-94849824D01*
X133796472Y-94849823D01*
X133796470Y-94849822D01*
X133673601Y-94816900D01*
X133546399Y-94816900D01*
X133423530Y-94849822D01*
X133423528Y-94849823D01*
X133423525Y-94849824D01*
X133313372Y-94913421D01*
X133313362Y-94913429D01*
X133223429Y-95003362D01*
X133223421Y-95003372D01*
X133159824Y-95113525D01*
X133159823Y-95113528D01*
X133159822Y-95113530D01*
X133126900Y-95236399D01*
X131089703Y-95236399D01*
X131078235Y-95193601D01*
X131070178Y-95163530D01*
X131006576Y-95053369D01*
X131006574Y-95053367D01*
X131006570Y-95053362D01*
X130916637Y-94963429D01*
X130916627Y-94963421D01*
X130806474Y-94899824D01*
X130806472Y-94899823D01*
X130806470Y-94899822D01*
X130683601Y-94866900D01*
X130556399Y-94866900D01*
X130433530Y-94899822D01*
X130433528Y-94899823D01*
X130433525Y-94899824D01*
X130323372Y-94963421D01*
X130323362Y-94963429D01*
X130233429Y-95053362D01*
X130233421Y-95053372D01*
X130169824Y-95163525D01*
X130169823Y-95163528D01*
X130169822Y-95163530D01*
X130136900Y-95286399D01*
X123518235Y-95286399D01*
X123543100Y-95193601D01*
X123543100Y-95066399D01*
X123510178Y-94943530D01*
X123465935Y-94866900D01*
X123446578Y-94833372D01*
X123446570Y-94833362D01*
X123356637Y-94743429D01*
X123356627Y-94743421D01*
X123246474Y-94679824D01*
X123246472Y-94679823D01*
X123246470Y-94679822D01*
X123123601Y-94646900D01*
X122996399Y-94646900D01*
X122873530Y-94679822D01*
X122873528Y-94679823D01*
X122873525Y-94679824D01*
X122763372Y-94743421D01*
X122763362Y-94743429D01*
X122673429Y-94833362D01*
X122673421Y-94833372D01*
X122609824Y-94943525D01*
X122609823Y-94943528D01*
X122609822Y-94943530D01*
X122576900Y-95066399D01*
X110254500Y-95066399D01*
X110254500Y-93196399D01*
X117366900Y-93196399D01*
X117366900Y-93323601D01*
X117399822Y-93446470D01*
X117399823Y-93446472D01*
X117399824Y-93446474D01*
X117463421Y-93556627D01*
X117463429Y-93556637D01*
X117553362Y-93646570D01*
X117553367Y-93646574D01*
X117553369Y-93646576D01*
X117663530Y-93710178D01*
X117786399Y-93743100D01*
X117786402Y-93743100D01*
X117791138Y-93744369D01*
X117851761Y-93781320D01*
X117882783Y-93845180D01*
X117874355Y-93915675D01*
X117829153Y-93970422D01*
X117791145Y-93987781D01*
X117783537Y-93989819D01*
X117783525Y-93989824D01*
X117673372Y-94053421D01*
X117673362Y-94053429D01*
X117583429Y-94143362D01*
X117583421Y-94143372D01*
X117519824Y-94253525D01*
X117519823Y-94253528D01*
X117519822Y-94253530D01*
X117486900Y-94376399D01*
X117486900Y-94503601D01*
X117519822Y-94626470D01*
X117519823Y-94626472D01*
X117519824Y-94626474D01*
X117583421Y-94736627D01*
X117583429Y-94736637D01*
X117673362Y-94826570D01*
X117673367Y-94826574D01*
X117673369Y-94826576D01*
X117673370Y-94826577D01*
X117673372Y-94826578D01*
X117685140Y-94833372D01*
X117783530Y-94890178D01*
X117906399Y-94923100D01*
X117906400Y-94923100D01*
X118033599Y-94923100D01*
X118033601Y-94923100D01*
X118156470Y-94890178D01*
X118266631Y-94826576D01*
X118356576Y-94736631D01*
X118420178Y-94626470D01*
X118453100Y-94503601D01*
X118453100Y-94376399D01*
X118420178Y-94253530D01*
X118374564Y-94174525D01*
X118356578Y-94143372D01*
X118356570Y-94143362D01*
X118266637Y-94053429D01*
X118266627Y-94053421D01*
X118219824Y-94026399D01*
X133366900Y-94026399D01*
X133366900Y-94153601D01*
X133399822Y-94276470D01*
X133399823Y-94276472D01*
X133399824Y-94276474D01*
X133463421Y-94386627D01*
X133463429Y-94386637D01*
X133553362Y-94476570D01*
X133553367Y-94476574D01*
X133553369Y-94476576D01*
X133663530Y-94540178D01*
X133786399Y-94573100D01*
X133786400Y-94573100D01*
X133913599Y-94573100D01*
X133913601Y-94573100D01*
X134036470Y-94540178D01*
X134146631Y-94476576D01*
X134236576Y-94386631D01*
X134300178Y-94276470D01*
X134333100Y-94153601D01*
X134333100Y-94096399D01*
X137836900Y-94096399D01*
X137836900Y-94223601D01*
X137869822Y-94346470D01*
X137869823Y-94346472D01*
X137869824Y-94346474D01*
X137933421Y-94456627D01*
X137933429Y-94456637D01*
X138023362Y-94546570D01*
X138023367Y-94546574D01*
X138023369Y-94546576D01*
X138023370Y-94546577D01*
X138023372Y-94546578D01*
X138100803Y-94591283D01*
X138133530Y-94610178D01*
X138256399Y-94643100D01*
X138256400Y-94643100D01*
X138383599Y-94643100D01*
X138383601Y-94643100D01*
X138506470Y-94610178D01*
X138616631Y-94546576D01*
X138706576Y-94456631D01*
X138770178Y-94346470D01*
X138803100Y-94223601D01*
X138803100Y-94096399D01*
X138770178Y-93973530D01*
X138729733Y-93903478D01*
X138706578Y-93863372D01*
X138706570Y-93863362D01*
X138616637Y-93773429D01*
X138616627Y-93773421D01*
X138506474Y-93709824D01*
X138506472Y-93709823D01*
X138506470Y-93709822D01*
X138383601Y-93676900D01*
X138256399Y-93676900D01*
X138133530Y-93709822D01*
X138133528Y-93709823D01*
X138133525Y-93709824D01*
X138023372Y-93773421D01*
X138023362Y-93773429D01*
X137933429Y-93863362D01*
X137933421Y-93863372D01*
X137869824Y-93973525D01*
X137869823Y-93973528D01*
X137869822Y-93973530D01*
X137836900Y-94096399D01*
X134333100Y-94096399D01*
X134333100Y-94026399D01*
X134300178Y-93903530D01*
X134236576Y-93793369D01*
X134236574Y-93793367D01*
X134236570Y-93793362D01*
X134146637Y-93703429D01*
X134146627Y-93703421D01*
X134036474Y-93639824D01*
X134036472Y-93639823D01*
X134036470Y-93639822D01*
X133913601Y-93606900D01*
X133786399Y-93606900D01*
X133663530Y-93639822D01*
X133663528Y-93639823D01*
X133663525Y-93639824D01*
X133553372Y-93703421D01*
X133553362Y-93703429D01*
X133463429Y-93793362D01*
X133463421Y-93793372D01*
X133399824Y-93903525D01*
X133399823Y-93903528D01*
X133399822Y-93903530D01*
X133366900Y-94026399D01*
X118219824Y-94026399D01*
X118156474Y-93989824D01*
X118156472Y-93989823D01*
X118156470Y-93989822D01*
X118033601Y-93956900D01*
X118033600Y-93956900D01*
X118028860Y-93955630D01*
X117968237Y-93918678D01*
X117937216Y-93854818D01*
X117945644Y-93784323D01*
X117990847Y-93729576D01*
X118028858Y-93712217D01*
X118036470Y-93710178D01*
X118146631Y-93646576D01*
X118236576Y-93556631D01*
X118248834Y-93535399D01*
X146455900Y-93535399D01*
X146455900Y-93662601D01*
X146488822Y-93785470D01*
X146488823Y-93785472D01*
X146488824Y-93785474D01*
X146552421Y-93895627D01*
X146557452Y-93902183D01*
X146554917Y-93904127D01*
X146581723Y-93953217D01*
X146576658Y-94024032D01*
X146555773Y-94056528D01*
X146557452Y-94057817D01*
X146552421Y-94064372D01*
X146488824Y-94174525D01*
X146488823Y-94174528D01*
X146488822Y-94174530D01*
X146455900Y-94297399D01*
X146455900Y-94424601D01*
X146488822Y-94547470D01*
X146488823Y-94547472D01*
X146488824Y-94547474D01*
X146552421Y-94657627D01*
X146552429Y-94657637D01*
X146642362Y-94747570D01*
X146642367Y-94747574D01*
X146642369Y-94747576D01*
X146752530Y-94811178D01*
X146875399Y-94844100D01*
X146875400Y-94844100D01*
X147002599Y-94844100D01*
X147002601Y-94844100D01*
X147125470Y-94811178D01*
X147193502Y-94771899D01*
X147262495Y-94755162D01*
X147319497Y-94771898D01*
X147387530Y-94811178D01*
X147510399Y-94844100D01*
X147510400Y-94844100D01*
X147637599Y-94844100D01*
X147637601Y-94844100D01*
X147760470Y-94811178D01*
X147828502Y-94771899D01*
X147897495Y-94755162D01*
X147954497Y-94771898D01*
X148022530Y-94811178D01*
X148145399Y-94844100D01*
X148145400Y-94844100D01*
X148272599Y-94844100D01*
X148272601Y-94844100D01*
X148395470Y-94811178D01*
X148505631Y-94747576D01*
X148595576Y-94657631D01*
X148659178Y-94547470D01*
X148692100Y-94424601D01*
X148692100Y-94297399D01*
X148659178Y-94174530D01*
X148595576Y-94064369D01*
X148595574Y-94064367D01*
X148590548Y-94057817D01*
X148593089Y-94055867D01*
X148566289Y-94006839D01*
X148571322Y-93936021D01*
X148592235Y-93903478D01*
X148590548Y-93902183D01*
X148595571Y-93895635D01*
X148595576Y-93895631D01*
X148659178Y-93785470D01*
X148692100Y-93662601D01*
X148692100Y-93535399D01*
X148659178Y-93412530D01*
X148628951Y-93360175D01*
X148595578Y-93302372D01*
X148595570Y-93302362D01*
X148505637Y-93212429D01*
X148505627Y-93212421D01*
X148395474Y-93148824D01*
X148395472Y-93148823D01*
X148395470Y-93148822D01*
X148272601Y-93115900D01*
X148145399Y-93115900D01*
X148022530Y-93148822D01*
X148022528Y-93148823D01*
X148022525Y-93148824D01*
X147954500Y-93188099D01*
X147885504Y-93204837D01*
X147828500Y-93188099D01*
X147760474Y-93148824D01*
X147760472Y-93148823D01*
X147760470Y-93148822D01*
X147637601Y-93115900D01*
X147510399Y-93115900D01*
X147387530Y-93148822D01*
X147387528Y-93148823D01*
X147387525Y-93148824D01*
X147319500Y-93188099D01*
X147250504Y-93204837D01*
X147193500Y-93188099D01*
X147125474Y-93148824D01*
X147125472Y-93148823D01*
X147125470Y-93148822D01*
X147002601Y-93115900D01*
X146875399Y-93115900D01*
X146752530Y-93148822D01*
X146752528Y-93148823D01*
X146752525Y-93148824D01*
X146642372Y-93212421D01*
X146642362Y-93212429D01*
X146552429Y-93302362D01*
X146552421Y-93302372D01*
X146488824Y-93412525D01*
X146488823Y-93412528D01*
X146488822Y-93412530D01*
X146455900Y-93535399D01*
X118248834Y-93535399D01*
X118300178Y-93446470D01*
X118333100Y-93323601D01*
X118333100Y-93196399D01*
X118300178Y-93073530D01*
X118281283Y-93040803D01*
X118236578Y-92963372D01*
X118236570Y-92963362D01*
X118146637Y-92873429D01*
X118146627Y-92873421D01*
X118099824Y-92846399D01*
X121786900Y-92846399D01*
X121786900Y-92973601D01*
X121819822Y-93096470D01*
X121819823Y-93096472D01*
X121819824Y-93096474D01*
X121883421Y-93206627D01*
X121883429Y-93206637D01*
X121973362Y-93296570D01*
X121973367Y-93296574D01*
X121973369Y-93296576D01*
X121973370Y-93296577D01*
X121973372Y-93296578D01*
X122020174Y-93323599D01*
X122083530Y-93360178D01*
X122206399Y-93393100D01*
X122206400Y-93393100D01*
X122333599Y-93393100D01*
X122333601Y-93393100D01*
X122456470Y-93360178D01*
X122566631Y-93296576D01*
X122656576Y-93206631D01*
X122720178Y-93096470D01*
X122753100Y-92973601D01*
X122753100Y-92846399D01*
X122720178Y-92723530D01*
X122656576Y-92613369D01*
X122656574Y-92613367D01*
X122656570Y-92613362D01*
X122566637Y-92523429D01*
X122566627Y-92523421D01*
X122456474Y-92459824D01*
X122456472Y-92459823D01*
X122456470Y-92459822D01*
X122333601Y-92426900D01*
X122206399Y-92426900D01*
X122083530Y-92459822D01*
X122083528Y-92459823D01*
X122083525Y-92459824D01*
X121973372Y-92523421D01*
X121973362Y-92523429D01*
X121883429Y-92613362D01*
X121883421Y-92613372D01*
X121819824Y-92723525D01*
X121819823Y-92723528D01*
X121819822Y-92723530D01*
X121786900Y-92846399D01*
X118099824Y-92846399D01*
X118036474Y-92809824D01*
X118036472Y-92809823D01*
X118036470Y-92809822D01*
X117913601Y-92776900D01*
X117786399Y-92776900D01*
X117663530Y-92809822D01*
X117663528Y-92809823D01*
X117663525Y-92809824D01*
X117553372Y-92873421D01*
X117553362Y-92873429D01*
X117463429Y-92963362D01*
X117463421Y-92963372D01*
X117399824Y-93073525D01*
X117399823Y-93073528D01*
X117399822Y-93073530D01*
X117366900Y-93196399D01*
X110254500Y-93196399D01*
X110254500Y-91926399D01*
X127278900Y-91926399D01*
X127278900Y-92053601D01*
X127311822Y-92176470D01*
X127311823Y-92176472D01*
X127311824Y-92176474D01*
X127375421Y-92286627D01*
X127375429Y-92286637D01*
X127465362Y-92376570D01*
X127465367Y-92376574D01*
X127465369Y-92376576D01*
X127575530Y-92440178D01*
X127698399Y-92473100D01*
X127698400Y-92473100D01*
X127825599Y-92473100D01*
X127825601Y-92473100D01*
X127948470Y-92440178D01*
X127972336Y-92426399D01*
X137536900Y-92426399D01*
X137536900Y-92553601D01*
X137569822Y-92676470D01*
X137569823Y-92676472D01*
X137569824Y-92676474D01*
X137633421Y-92786627D01*
X137633429Y-92786637D01*
X137723362Y-92876570D01*
X137723367Y-92876574D01*
X137723369Y-92876576D01*
X137833530Y-92940178D01*
X137956399Y-92973100D01*
X137956400Y-92973100D01*
X138083599Y-92973100D01*
X138083601Y-92973100D01*
X138206470Y-92940178D01*
X138316631Y-92876576D01*
X138406576Y-92786631D01*
X138470178Y-92676470D01*
X138503100Y-92553601D01*
X138503100Y-92426399D01*
X138470178Y-92303530D01*
X138421911Y-92219929D01*
X138406578Y-92193372D01*
X138406570Y-92193362D01*
X138316637Y-92103429D01*
X138316627Y-92103421D01*
X138206474Y-92039824D01*
X138206472Y-92039823D01*
X138206470Y-92039822D01*
X138083601Y-92006900D01*
X137956399Y-92006900D01*
X137833530Y-92039822D01*
X137833528Y-92039823D01*
X137833525Y-92039824D01*
X137723372Y-92103421D01*
X137723362Y-92103429D01*
X137633429Y-92193362D01*
X137633421Y-92193372D01*
X137569824Y-92303525D01*
X137569823Y-92303528D01*
X137569822Y-92303530D01*
X137536900Y-92426399D01*
X127972336Y-92426399D01*
X128058631Y-92376576D01*
X128148576Y-92286631D01*
X128201137Y-92195592D01*
X128252517Y-92146602D01*
X128322230Y-92133165D01*
X128388141Y-92159552D01*
X128419372Y-92195593D01*
X128433424Y-92219931D01*
X128433426Y-92219933D01*
X128433429Y-92219937D01*
X128523362Y-92309870D01*
X128523367Y-92309874D01*
X128523369Y-92309876D01*
X128633530Y-92373478D01*
X128756399Y-92406400D01*
X128756400Y-92406400D01*
X128883599Y-92406400D01*
X128883601Y-92406400D01*
X129006470Y-92373478D01*
X129116631Y-92309876D01*
X129206576Y-92219931D01*
X129270178Y-92109770D01*
X129303100Y-91986901D01*
X129303100Y-91859699D01*
X129270178Y-91736830D01*
X129206576Y-91626669D01*
X129206574Y-91626667D01*
X129206570Y-91626662D01*
X129116637Y-91536729D01*
X129116627Y-91536721D01*
X129006474Y-91473124D01*
X129006472Y-91473123D01*
X129006470Y-91473122D01*
X128883601Y-91440200D01*
X128756399Y-91440200D01*
X128633530Y-91473122D01*
X128633528Y-91473123D01*
X128633525Y-91473124D01*
X128523372Y-91536721D01*
X128523362Y-91536729D01*
X128433429Y-91626662D01*
X128433423Y-91626669D01*
X128385041Y-91710469D01*
X128380865Y-91717704D01*
X128380864Y-91717705D01*
X128329481Y-91766698D01*
X128259767Y-91780133D01*
X128193856Y-91753746D01*
X128162626Y-91717704D01*
X128148578Y-91693372D01*
X128148570Y-91693362D01*
X128058637Y-91603429D01*
X128058627Y-91603421D01*
X127948474Y-91539824D01*
X127948472Y-91539823D01*
X127948470Y-91539822D01*
X127825601Y-91506900D01*
X127698399Y-91506900D01*
X127575530Y-91539822D01*
X127575528Y-91539823D01*
X127575525Y-91539824D01*
X127465372Y-91603421D01*
X127465362Y-91603429D01*
X127375429Y-91693362D01*
X127375421Y-91693372D01*
X127311824Y-91803525D01*
X127311823Y-91803528D01*
X127311822Y-91803530D01*
X127278900Y-91926399D01*
X110254500Y-91926399D01*
X110254500Y-90995399D01*
X156488900Y-90995399D01*
X156488900Y-91122601D01*
X156521822Y-91245470D01*
X156521823Y-91245472D01*
X156521824Y-91245474D01*
X156561099Y-91313500D01*
X156577837Y-91382496D01*
X156561099Y-91439500D01*
X156521824Y-91507525D01*
X156521823Y-91507528D01*
X156521822Y-91507530D01*
X156488900Y-91630399D01*
X156488900Y-91757601D01*
X156521822Y-91880470D01*
X156521823Y-91880472D01*
X156521824Y-91880474D01*
X156585421Y-91990627D01*
X156585429Y-91990637D01*
X156675362Y-92080570D01*
X156675367Y-92080574D01*
X156675369Y-92080576D01*
X156675370Y-92080577D01*
X156675372Y-92080578D01*
X156714951Y-92103429D01*
X156785530Y-92144178D01*
X156908399Y-92177100D01*
X156908400Y-92177100D01*
X157035599Y-92177100D01*
X157035601Y-92177100D01*
X157158470Y-92144178D01*
X157226502Y-92104899D01*
X157295495Y-92088162D01*
X157352497Y-92104898D01*
X157420530Y-92144178D01*
X157543399Y-92177100D01*
X157543400Y-92177100D01*
X157670599Y-92177100D01*
X157670601Y-92177100D01*
X157793470Y-92144178D01*
X157903631Y-92080576D01*
X157993576Y-91990631D01*
X158057178Y-91880470D01*
X158090100Y-91757601D01*
X158090100Y-91630399D01*
X158057178Y-91507530D01*
X158017899Y-91439497D01*
X158001162Y-91370505D01*
X158017898Y-91313502D01*
X158057178Y-91245470D01*
X158090100Y-91122601D01*
X158090100Y-90995399D01*
X158057178Y-90872530D01*
X157993576Y-90762369D01*
X157993574Y-90762367D01*
X157993570Y-90762362D01*
X157903637Y-90672429D01*
X157903627Y-90672421D01*
X157793474Y-90608824D01*
X157793472Y-90608823D01*
X157793470Y-90608822D01*
X157670601Y-90575900D01*
X157543399Y-90575900D01*
X157420530Y-90608822D01*
X157420528Y-90608823D01*
X157420525Y-90608824D01*
X157352500Y-90648099D01*
X157283504Y-90664837D01*
X157226500Y-90648099D01*
X157158474Y-90608824D01*
X157158472Y-90608823D01*
X157158470Y-90608822D01*
X157035601Y-90575900D01*
X156908399Y-90575900D01*
X156785530Y-90608822D01*
X156785528Y-90608823D01*
X156785525Y-90608824D01*
X156675372Y-90672421D01*
X156675362Y-90672429D01*
X156585429Y-90762362D01*
X156585421Y-90762372D01*
X156521824Y-90872525D01*
X156521823Y-90872528D01*
X156521822Y-90872530D01*
X156488900Y-90995399D01*
X110254500Y-90995399D01*
X110254500Y-90376399D01*
X121846900Y-90376399D01*
X121846900Y-90503601D01*
X121879822Y-90626470D01*
X121879823Y-90626472D01*
X121879824Y-90626474D01*
X121943421Y-90736627D01*
X121943429Y-90736637D01*
X122033362Y-90826570D01*
X122033367Y-90826574D01*
X122033369Y-90826576D01*
X122143530Y-90890178D01*
X122266399Y-90923100D01*
X122266400Y-90923100D01*
X122393599Y-90923100D01*
X122393601Y-90923100D01*
X122516470Y-90890178D01*
X122626631Y-90826576D01*
X122716576Y-90736631D01*
X122780178Y-90626470D01*
X122813100Y-90503601D01*
X122813100Y-90376399D01*
X122780178Y-90253530D01*
X122716576Y-90143369D01*
X122716574Y-90143367D01*
X122716570Y-90143362D01*
X122626637Y-90053429D01*
X122626627Y-90053421D01*
X122516471Y-89989822D01*
X122455035Y-89973361D01*
X122393601Y-89956900D01*
X122266399Y-89956900D01*
X122143530Y-89989822D01*
X122143528Y-89989823D01*
X122143525Y-89989824D01*
X122033372Y-90053421D01*
X122033362Y-90053429D01*
X121943429Y-90143362D01*
X121943421Y-90143372D01*
X121879824Y-90253525D01*
X121879823Y-90253528D01*
X121879822Y-90253530D01*
X121846900Y-90376399D01*
X110254500Y-90376399D01*
X110254500Y-89883505D01*
X128716900Y-89883505D01*
X128716900Y-90010707D01*
X128749822Y-90133576D01*
X128749823Y-90133578D01*
X128749824Y-90133580D01*
X128813421Y-90243733D01*
X128813429Y-90243743D01*
X128903362Y-90333676D01*
X128903367Y-90333680D01*
X128903369Y-90333682D01*
X129013530Y-90397284D01*
X129136399Y-90430206D01*
X129136400Y-90430206D01*
X129263599Y-90430206D01*
X129263601Y-90430206D01*
X129386470Y-90397284D01*
X129496631Y-90333682D01*
X129586576Y-90243737D01*
X129650178Y-90133576D01*
X129683100Y-90010707D01*
X129683100Y-89883505D01*
X129681196Y-89876399D01*
X137536900Y-89876399D01*
X137536900Y-90003601D01*
X137569822Y-90126470D01*
X137569823Y-90126472D01*
X137569824Y-90126474D01*
X137633421Y-90236627D01*
X137633429Y-90236637D01*
X137723362Y-90326570D01*
X137723367Y-90326574D01*
X137723369Y-90326576D01*
X137723370Y-90326577D01*
X137723372Y-90326578D01*
X137735680Y-90333684D01*
X137833530Y-90390178D01*
X137956399Y-90423100D01*
X137956400Y-90423100D01*
X138083599Y-90423100D01*
X138083601Y-90423100D01*
X138206470Y-90390178D01*
X138316631Y-90326576D01*
X138406576Y-90236631D01*
X138470178Y-90126470D01*
X138503100Y-90003601D01*
X138503100Y-90003598D01*
X138504827Y-89997153D01*
X138541778Y-89936531D01*
X138578322Y-89913353D01*
X138583535Y-89911192D01*
X138583546Y-89911190D01*
X138693707Y-89847588D01*
X138783652Y-89757643D01*
X138847254Y-89647482D01*
X138880176Y-89524613D01*
X138880176Y-89397411D01*
X138847254Y-89274542D01*
X138783652Y-89164381D01*
X138783650Y-89164379D01*
X138783646Y-89164374D01*
X138693713Y-89074441D01*
X138693703Y-89074433D01*
X138583550Y-89010836D01*
X138583548Y-89010835D01*
X138583546Y-89010834D01*
X138460677Y-88977912D01*
X138333475Y-88977912D01*
X138210606Y-89010834D01*
X138210604Y-89010835D01*
X138210601Y-89010836D01*
X138100448Y-89074433D01*
X138100438Y-89074441D01*
X138010505Y-89164374D01*
X138010497Y-89164384D01*
X137946900Y-89274537D01*
X137946897Y-89274544D01*
X137912249Y-89403857D01*
X137875297Y-89464480D01*
X137838769Y-89487651D01*
X137833534Y-89489819D01*
X137723372Y-89553421D01*
X137723362Y-89553429D01*
X137633429Y-89643362D01*
X137633421Y-89643372D01*
X137569824Y-89753525D01*
X137569823Y-89753528D01*
X137569822Y-89753530D01*
X137536900Y-89876399D01*
X129681196Y-89876399D01*
X129650178Y-89760636D01*
X129586576Y-89650475D01*
X129586574Y-89650473D01*
X129586570Y-89650468D01*
X129496637Y-89560535D01*
X129496627Y-89560527D01*
X129386474Y-89496930D01*
X129386472Y-89496929D01*
X129386470Y-89496928D01*
X129263601Y-89464006D01*
X129136399Y-89464006D01*
X129013530Y-89496928D01*
X129013528Y-89496929D01*
X129013525Y-89496930D01*
X128903372Y-89560527D01*
X128903362Y-89560535D01*
X128813429Y-89650468D01*
X128813421Y-89650478D01*
X128749824Y-89760631D01*
X128749823Y-89760634D01*
X128749822Y-89760636D01*
X128716900Y-89883505D01*
X110254500Y-89883505D01*
X110254500Y-88576399D01*
X117386900Y-88576399D01*
X117386900Y-88703601D01*
X117419822Y-88826470D01*
X117419823Y-88826472D01*
X117419824Y-88826474D01*
X117483421Y-88936627D01*
X117483429Y-88936637D01*
X117573362Y-89026570D01*
X117573367Y-89026574D01*
X117573369Y-89026576D01*
X117683530Y-89090178D01*
X117806399Y-89123100D01*
X117806400Y-89123100D01*
X117933599Y-89123100D01*
X117933601Y-89123100D01*
X118056470Y-89090178D01*
X118166631Y-89026576D01*
X118256576Y-88936631D01*
X118320178Y-88826470D01*
X118353100Y-88703601D01*
X118353100Y-88576399D01*
X118320178Y-88453530D01*
X118256576Y-88343369D01*
X118256574Y-88343367D01*
X118256570Y-88343362D01*
X118166637Y-88253429D01*
X118166627Y-88253421D01*
X118085183Y-88206399D01*
X145726900Y-88206399D01*
X145726900Y-88333601D01*
X145759822Y-88456470D01*
X145759823Y-88456472D01*
X145759824Y-88456474D01*
X145823421Y-88566627D01*
X145823429Y-88566637D01*
X145913362Y-88656570D01*
X145913367Y-88656574D01*
X145913369Y-88656576D01*
X146023530Y-88720178D01*
X146146399Y-88753100D01*
X146146400Y-88753100D01*
X146273599Y-88753100D01*
X146273601Y-88753100D01*
X146396470Y-88720178D01*
X146506631Y-88656576D01*
X146596576Y-88566631D01*
X146660178Y-88456470D01*
X146693100Y-88333601D01*
X146693100Y-88206399D01*
X146660178Y-88083530D01*
X146609473Y-87995707D01*
X146596578Y-87973372D01*
X146596570Y-87973362D01*
X146506637Y-87883429D01*
X146506627Y-87883421D01*
X146396474Y-87819824D01*
X146396472Y-87819823D01*
X146396470Y-87819822D01*
X146273601Y-87786900D01*
X146146399Y-87786900D01*
X146023530Y-87819822D01*
X146023528Y-87819823D01*
X146023525Y-87819824D01*
X145913372Y-87883421D01*
X145913362Y-87883429D01*
X145823429Y-87973362D01*
X145823421Y-87973372D01*
X145759824Y-88083525D01*
X145759823Y-88083528D01*
X145759822Y-88083530D01*
X145726900Y-88206399D01*
X118085183Y-88206399D01*
X118056474Y-88189824D01*
X118056472Y-88189823D01*
X118056470Y-88189822D01*
X117933601Y-88156900D01*
X117806399Y-88156900D01*
X117683530Y-88189822D01*
X117683528Y-88189823D01*
X117683525Y-88189824D01*
X117573372Y-88253421D01*
X117573362Y-88253429D01*
X117483429Y-88343362D01*
X117483421Y-88343372D01*
X117419824Y-88453525D01*
X117419823Y-88453528D01*
X117419822Y-88453530D01*
X117386900Y-88576399D01*
X110254500Y-88576399D01*
X110254500Y-87346399D01*
X117446900Y-87346399D01*
X117446900Y-87473601D01*
X117479822Y-87596470D01*
X117479823Y-87596472D01*
X117479824Y-87596474D01*
X117543421Y-87706627D01*
X117543429Y-87706637D01*
X117633362Y-87796570D01*
X117633367Y-87796574D01*
X117633369Y-87796576D01*
X117743530Y-87860178D01*
X117866399Y-87893100D01*
X117866400Y-87893100D01*
X117993599Y-87893100D01*
X117993601Y-87893100D01*
X118116470Y-87860178D01*
X118226631Y-87796576D01*
X118316576Y-87706631D01*
X118380178Y-87596470D01*
X118413100Y-87473601D01*
X118413100Y-87346399D01*
X118380178Y-87223530D01*
X118316576Y-87113369D01*
X118316574Y-87113367D01*
X118316570Y-87113362D01*
X118226637Y-87023429D01*
X118226627Y-87023421D01*
X118116474Y-86959824D01*
X118116472Y-86959823D01*
X118116470Y-86959822D01*
X117993601Y-86926900D01*
X117866399Y-86926900D01*
X117743530Y-86959822D01*
X117743528Y-86959823D01*
X117743525Y-86959824D01*
X117633372Y-87023421D01*
X117633362Y-87023429D01*
X117543429Y-87113362D01*
X117543421Y-87113372D01*
X117479824Y-87223525D01*
X117479823Y-87223528D01*
X117479822Y-87223530D01*
X117446900Y-87346399D01*
X110254500Y-87346399D01*
X110254500Y-86156399D01*
X145116900Y-86156399D01*
X145116900Y-86283601D01*
X145149822Y-86406470D01*
X145149823Y-86406472D01*
X145149824Y-86406474D01*
X145213421Y-86516627D01*
X145213429Y-86516637D01*
X145303362Y-86606570D01*
X145303367Y-86606574D01*
X145303369Y-86606576D01*
X145303370Y-86606577D01*
X145303372Y-86606578D01*
X145380803Y-86651283D01*
X145413530Y-86670178D01*
X145536399Y-86703100D01*
X145536400Y-86703100D01*
X145663599Y-86703100D01*
X145663601Y-86703100D01*
X145786470Y-86670178D01*
X145896631Y-86606576D01*
X145986576Y-86516631D01*
X146040404Y-86423399D01*
X151662900Y-86423399D01*
X151662900Y-86550601D01*
X151695822Y-86673470D01*
X151695823Y-86673472D01*
X151695824Y-86673474D01*
X151735099Y-86741500D01*
X151751837Y-86810496D01*
X151735099Y-86867500D01*
X151695824Y-86935525D01*
X151695823Y-86935528D01*
X151695822Y-86935530D01*
X151662900Y-87058399D01*
X151662900Y-87185601D01*
X151695822Y-87308470D01*
X151695822Y-87308471D01*
X151695823Y-87308472D01*
X151724419Y-87358001D01*
X151741156Y-87426996D01*
X151724419Y-87483999D01*
X151695823Y-87533527D01*
X151695822Y-87533528D01*
X151695822Y-87533530D01*
X151662900Y-87656399D01*
X151662900Y-87783601D01*
X151695822Y-87906470D01*
X151695823Y-87906472D01*
X151695824Y-87906474D01*
X151759421Y-88016627D01*
X151759429Y-88016637D01*
X151849362Y-88106570D01*
X151849367Y-88106574D01*
X151849369Y-88106576D01*
X151849370Y-88106577D01*
X151849372Y-88106578D01*
X151926803Y-88151283D01*
X151959530Y-88170178D01*
X152082399Y-88203100D01*
X152082400Y-88203100D01*
X152209599Y-88203100D01*
X152209601Y-88203100D01*
X152332470Y-88170178D01*
X152442631Y-88106576D01*
X152532576Y-88016631D01*
X152532580Y-88016623D01*
X152537603Y-88010079D01*
X152540299Y-88012147D01*
X152580245Y-87974047D01*
X152649956Y-87960600D01*
X152715871Y-87986975D01*
X152736891Y-88011233D01*
X152738397Y-88010079D01*
X152743429Y-88016637D01*
X152833362Y-88106570D01*
X152833367Y-88106574D01*
X152833369Y-88106576D01*
X152833370Y-88106577D01*
X152833372Y-88106578D01*
X152910803Y-88151283D01*
X152943530Y-88170178D01*
X153066399Y-88203100D01*
X153066400Y-88203100D01*
X153193599Y-88203100D01*
X153193601Y-88203100D01*
X153316470Y-88170178D01*
X153426631Y-88106576D01*
X153516576Y-88016631D01*
X153580178Y-87906470D01*
X153613100Y-87783601D01*
X153613100Y-87656399D01*
X153580178Y-87533530D01*
X153567580Y-87511711D01*
X153550843Y-87442717D01*
X153567579Y-87385716D01*
X153612178Y-87308470D01*
X153645100Y-87185601D01*
X153645100Y-87058399D01*
X153612178Y-86935530D01*
X153572899Y-86867497D01*
X153556162Y-86798505D01*
X153572898Y-86741502D01*
X153612178Y-86673470D01*
X153645100Y-86550601D01*
X153645100Y-86423399D01*
X153612178Y-86300530D01*
X153609793Y-86296399D01*
X156488900Y-86296399D01*
X156488900Y-86423601D01*
X156521822Y-86546470D01*
X156521823Y-86546472D01*
X156521824Y-86546474D01*
X156561099Y-86614500D01*
X156577837Y-86683496D01*
X156561099Y-86740500D01*
X156521824Y-86808525D01*
X156521823Y-86808528D01*
X156521822Y-86808530D01*
X156488900Y-86931399D01*
X156488900Y-87058601D01*
X156521822Y-87181470D01*
X156521823Y-87181472D01*
X156521824Y-87181474D01*
X156561099Y-87249500D01*
X156577837Y-87318496D01*
X156561099Y-87375500D01*
X156521824Y-87443525D01*
X156521823Y-87443528D01*
X156521822Y-87443530D01*
X156488900Y-87566399D01*
X156488900Y-87693601D01*
X156521822Y-87816470D01*
X156521823Y-87816472D01*
X156521824Y-87816474D01*
X156585421Y-87926627D01*
X156585429Y-87926637D01*
X156675362Y-88016570D01*
X156675367Y-88016574D01*
X156675369Y-88016576D01*
X156675370Y-88016577D01*
X156675372Y-88016578D01*
X156688508Y-88024162D01*
X156785530Y-88080178D01*
X156908399Y-88113100D01*
X156908400Y-88113100D01*
X157035599Y-88113100D01*
X157035601Y-88113100D01*
X157158470Y-88080178D01*
X157226502Y-88040899D01*
X157295495Y-88024162D01*
X157352497Y-88040898D01*
X157420530Y-88080178D01*
X157543399Y-88113100D01*
X157543400Y-88113100D01*
X157670599Y-88113100D01*
X157670601Y-88113100D01*
X157793470Y-88080178D01*
X157903631Y-88016576D01*
X157993576Y-87926631D01*
X158057178Y-87816470D01*
X158090100Y-87693601D01*
X158090100Y-87566399D01*
X158057178Y-87443530D01*
X158017899Y-87375497D01*
X158001162Y-87306505D01*
X158017898Y-87249502D01*
X158057178Y-87181470D01*
X158090100Y-87058601D01*
X158090100Y-86931399D01*
X158057178Y-86808530D01*
X158017899Y-86740497D01*
X158001162Y-86671505D01*
X158017898Y-86614502D01*
X158057178Y-86546470D01*
X158090100Y-86423601D01*
X158090100Y-86296399D01*
X158057178Y-86173530D01*
X157993576Y-86063369D01*
X157993574Y-86063367D01*
X157993570Y-86063362D01*
X157903637Y-85973429D01*
X157903627Y-85973421D01*
X157793474Y-85909824D01*
X157793472Y-85909823D01*
X157793470Y-85909822D01*
X157670601Y-85876900D01*
X157543399Y-85876900D01*
X157420530Y-85909822D01*
X157420528Y-85909823D01*
X157420525Y-85909824D01*
X157352500Y-85949099D01*
X157283504Y-85965837D01*
X157226500Y-85949099D01*
X157158474Y-85909824D01*
X157158472Y-85909823D01*
X157158470Y-85909822D01*
X157035601Y-85876900D01*
X156908399Y-85876900D01*
X156785530Y-85909822D01*
X156785528Y-85909823D01*
X156785525Y-85909824D01*
X156675372Y-85973421D01*
X156675362Y-85973429D01*
X156585429Y-86063362D01*
X156585421Y-86063372D01*
X156521824Y-86173525D01*
X156521823Y-86173528D01*
X156521822Y-86173530D01*
X156488900Y-86296399D01*
X153609793Y-86296399D01*
X153548576Y-86190369D01*
X153548574Y-86190367D01*
X153548570Y-86190362D01*
X153458637Y-86100429D01*
X153458627Y-86100421D01*
X153348474Y-86036824D01*
X153348472Y-86036823D01*
X153348470Y-86036822D01*
X153225601Y-86003900D01*
X153098399Y-86003900D01*
X152975530Y-86036822D01*
X152975528Y-86036823D01*
X152975525Y-86036824D01*
X152865372Y-86100421D01*
X152865362Y-86100429D01*
X152775429Y-86190362D01*
X152775423Y-86190370D01*
X152763119Y-86211682D01*
X152711736Y-86260675D01*
X152642022Y-86274110D01*
X152576111Y-86247723D01*
X152544881Y-86211682D01*
X152532576Y-86190369D01*
X152532573Y-86190366D01*
X152532570Y-86190362D01*
X152442637Y-86100429D01*
X152442627Y-86100421D01*
X152332474Y-86036824D01*
X152332472Y-86036823D01*
X152332470Y-86036822D01*
X152209601Y-86003900D01*
X152082399Y-86003900D01*
X151959530Y-86036822D01*
X151959528Y-86036823D01*
X151959525Y-86036824D01*
X151849372Y-86100421D01*
X151849362Y-86100429D01*
X151759429Y-86190362D01*
X151759421Y-86190372D01*
X151695824Y-86300525D01*
X151695823Y-86300528D01*
X151695822Y-86300530D01*
X151662900Y-86423399D01*
X146040404Y-86423399D01*
X146050178Y-86406470D01*
X146083100Y-86283601D01*
X146083100Y-86156399D01*
X146050178Y-86033530D01*
X146011095Y-85965837D01*
X145986578Y-85923372D01*
X145986570Y-85923362D01*
X145896637Y-85833429D01*
X145896627Y-85833421D01*
X145786474Y-85769824D01*
X145786472Y-85769823D01*
X145786470Y-85769822D01*
X145663601Y-85736900D01*
X145536399Y-85736900D01*
X145413530Y-85769822D01*
X145413528Y-85769823D01*
X145413525Y-85769824D01*
X145303372Y-85833421D01*
X145303362Y-85833429D01*
X145213429Y-85923362D01*
X145213421Y-85923372D01*
X145149824Y-86033525D01*
X145149823Y-86033528D01*
X145149822Y-86033530D01*
X145116900Y-86156399D01*
X110254500Y-86156399D01*
X110254500Y-84899399D01*
X128802900Y-84899399D01*
X128802900Y-85026601D01*
X128835822Y-85149470D01*
X128835823Y-85149472D01*
X128835824Y-85149474D01*
X128899421Y-85259627D01*
X128899429Y-85259637D01*
X128989362Y-85349570D01*
X128989367Y-85349574D01*
X128989369Y-85349576D01*
X129099530Y-85413178D01*
X129222399Y-85446100D01*
X129222400Y-85446100D01*
X129349599Y-85446100D01*
X129349601Y-85446100D01*
X129472470Y-85413178D01*
X129582631Y-85349576D01*
X129672576Y-85259631D01*
X129736178Y-85149470D01*
X129769100Y-85026601D01*
X129769100Y-84899399D01*
X129751158Y-84832439D01*
X132870900Y-84832439D01*
X132870900Y-84959641D01*
X132903822Y-85082510D01*
X132903823Y-85082512D01*
X132903824Y-85082514D01*
X132967421Y-85192667D01*
X132967429Y-85192677D01*
X133057362Y-85282610D01*
X133057367Y-85282614D01*
X133057369Y-85282616D01*
X133057370Y-85282617D01*
X133057372Y-85282618D01*
X133134803Y-85327323D01*
X133167530Y-85346218D01*
X133290399Y-85379140D01*
X133290400Y-85379140D01*
X133417599Y-85379140D01*
X133417601Y-85379140D01*
X133540470Y-85346218D01*
X133650631Y-85282616D01*
X133740576Y-85192671D01*
X133804178Y-85082510D01*
X133813854Y-85046399D01*
X137626900Y-85046399D01*
X137626900Y-85173601D01*
X137659822Y-85296470D01*
X137659823Y-85296472D01*
X137659824Y-85296474D01*
X137723421Y-85406627D01*
X137723429Y-85406637D01*
X137813362Y-85496570D01*
X137813367Y-85496574D01*
X137813369Y-85496576D01*
X137923530Y-85560178D01*
X138046399Y-85593100D01*
X138046400Y-85593100D01*
X138173599Y-85593100D01*
X138173601Y-85593100D01*
X138296470Y-85560178D01*
X138406631Y-85496576D01*
X138496576Y-85406631D01*
X138560178Y-85296470D01*
X138593100Y-85173601D01*
X138593100Y-85046399D01*
X138560178Y-84923530D01*
X138541283Y-84890803D01*
X138496578Y-84813372D01*
X138496570Y-84813362D01*
X138406637Y-84723429D01*
X138406627Y-84723421D01*
X138296474Y-84659824D01*
X138296472Y-84659823D01*
X138296470Y-84659822D01*
X138173601Y-84626900D01*
X138046399Y-84626900D01*
X137923530Y-84659822D01*
X137923528Y-84659823D01*
X137923525Y-84659824D01*
X137813372Y-84723421D01*
X137813362Y-84723429D01*
X137723429Y-84813362D01*
X137723421Y-84813372D01*
X137659824Y-84923525D01*
X137659823Y-84923528D01*
X137659822Y-84923530D01*
X137626900Y-85046399D01*
X133813854Y-85046399D01*
X133837100Y-84959641D01*
X133837100Y-84832439D01*
X133804178Y-84709570D01*
X133801528Y-84704981D01*
X133784790Y-84635988D01*
X133801528Y-84578981D01*
X133839725Y-84512822D01*
X133867542Y-84464642D01*
X133900464Y-84341773D01*
X133900464Y-84214571D01*
X133867542Y-84091702D01*
X133803940Y-83981541D01*
X133803938Y-83981539D01*
X133803934Y-83981534D01*
X133714001Y-83891601D01*
X133713991Y-83891593D01*
X133603838Y-83827996D01*
X133603836Y-83827995D01*
X133603834Y-83827994D01*
X133480965Y-83795072D01*
X133353763Y-83795072D01*
X133230894Y-83827994D01*
X133230892Y-83827995D01*
X133230889Y-83827996D01*
X133120736Y-83891593D01*
X133120726Y-83891601D01*
X133030793Y-83981534D01*
X133030785Y-83981544D01*
X132967188Y-84091697D01*
X132967187Y-84091700D01*
X132967186Y-84091702D01*
X132934264Y-84214571D01*
X132934264Y-84341773D01*
X132967186Y-84464642D01*
X132967188Y-84464646D01*
X132967189Y-84464648D01*
X132969838Y-84469236D01*
X132986573Y-84538232D01*
X132969836Y-84595230D01*
X132903823Y-84709567D01*
X132903822Y-84709568D01*
X132903822Y-84709570D01*
X132870900Y-84832439D01*
X129751158Y-84832439D01*
X129736178Y-84776530D01*
X129705515Y-84723421D01*
X129672578Y-84666372D01*
X129672570Y-84666362D01*
X129582637Y-84576429D01*
X129582627Y-84576421D01*
X129472474Y-84512824D01*
X129472472Y-84512823D01*
X129472470Y-84512822D01*
X129349601Y-84479900D01*
X129222399Y-84479900D01*
X129099530Y-84512822D01*
X129099528Y-84512823D01*
X129099525Y-84512824D01*
X128989372Y-84576421D01*
X128989362Y-84576429D01*
X128899429Y-84666362D01*
X128899421Y-84666372D01*
X128835824Y-84776525D01*
X128835823Y-84776528D01*
X128835822Y-84776530D01*
X128802900Y-84899399D01*
X110254500Y-84899399D01*
X110254500Y-82918199D01*
X128929900Y-82918199D01*
X128929900Y-83045401D01*
X128962822Y-83168270D01*
X128962823Y-83168272D01*
X128962824Y-83168274D01*
X129026421Y-83278427D01*
X129026429Y-83278437D01*
X129116362Y-83368370D01*
X129116367Y-83368374D01*
X129116369Y-83368376D01*
X129226530Y-83431978D01*
X129349399Y-83464900D01*
X129349400Y-83464900D01*
X129476599Y-83464900D01*
X129476601Y-83464900D01*
X129599470Y-83431978D01*
X129709631Y-83368376D01*
X129799576Y-83278431D01*
X129863178Y-83168270D01*
X129896100Y-83045401D01*
X129896100Y-82918199D01*
X129863178Y-82795330D01*
X129799576Y-82685169D01*
X129799574Y-82685167D01*
X129799570Y-82685162D01*
X129709637Y-82595229D01*
X129709627Y-82595221D01*
X129599474Y-82531624D01*
X129599472Y-82531623D01*
X129599470Y-82531622D01*
X129476601Y-82498700D01*
X129349399Y-82498700D01*
X129226530Y-82531622D01*
X129226528Y-82531623D01*
X129226525Y-82531624D01*
X129116372Y-82595221D01*
X129116362Y-82595229D01*
X129026429Y-82685162D01*
X129026421Y-82685172D01*
X128962824Y-82795325D01*
X128962823Y-82795328D01*
X128962822Y-82795330D01*
X128929900Y-82918199D01*
X110254500Y-82918199D01*
X110254500Y-81126399D01*
X140706900Y-81126399D01*
X140706900Y-81253601D01*
X140739822Y-81376470D01*
X140739823Y-81376472D01*
X140739824Y-81376474D01*
X140803421Y-81486627D01*
X140803429Y-81486637D01*
X140893362Y-81576570D01*
X140893367Y-81576574D01*
X140893369Y-81576576D01*
X140893370Y-81576577D01*
X140893372Y-81576578D01*
X140929785Y-81597601D01*
X141003530Y-81640178D01*
X141126399Y-81673100D01*
X141126400Y-81673100D01*
X141253599Y-81673100D01*
X141253601Y-81673100D01*
X141376470Y-81640178D01*
X141442003Y-81602341D01*
X141510994Y-81585605D01*
X141567995Y-81602341D01*
X141633530Y-81640178D01*
X141756399Y-81673100D01*
X141756400Y-81673100D01*
X141883599Y-81673100D01*
X141883601Y-81673100D01*
X142006470Y-81640178D01*
X142116631Y-81576576D01*
X142206576Y-81486631D01*
X142206578Y-81486626D01*
X142207162Y-81485867D01*
X142207825Y-81485382D01*
X142212416Y-81480792D01*
X142213131Y-81481507D01*
X142264496Y-81443995D01*
X142335367Y-81439768D01*
X142397273Y-81474527D01*
X142416249Y-81499563D01*
X142443421Y-81546627D01*
X142443429Y-81546637D01*
X142533362Y-81636570D01*
X142533367Y-81636574D01*
X142533369Y-81636576D01*
X142533370Y-81636577D01*
X142533372Y-81636578D01*
X142596630Y-81673100D01*
X142643530Y-81700178D01*
X142766399Y-81733100D01*
X142766400Y-81733100D01*
X142893599Y-81733100D01*
X142893601Y-81733100D01*
X143016470Y-81700178D01*
X143126631Y-81636576D01*
X143216576Y-81546631D01*
X143220880Y-81539175D01*
X143272261Y-81490182D01*
X143341974Y-81476744D01*
X143407885Y-81503129D01*
X143439119Y-81539174D01*
X143443424Y-81546631D01*
X143443426Y-81546633D01*
X143443429Y-81546637D01*
X143533362Y-81636570D01*
X143533367Y-81636574D01*
X143533369Y-81636576D01*
X143533370Y-81636577D01*
X143533372Y-81636578D01*
X143596630Y-81673100D01*
X143643530Y-81700178D01*
X143766399Y-81733100D01*
X143766400Y-81733100D01*
X143893599Y-81733100D01*
X143893601Y-81733100D01*
X144016470Y-81700178D01*
X144126631Y-81636576D01*
X144216576Y-81546631D01*
X144280178Y-81436470D01*
X144313100Y-81313601D01*
X144313100Y-81186399D01*
X144280178Y-81063530D01*
X144216576Y-80953369D01*
X144216574Y-80953367D01*
X144216570Y-80953362D01*
X144126637Y-80863429D01*
X144126627Y-80863421D01*
X144016474Y-80799824D01*
X144016472Y-80799823D01*
X144016470Y-80799822D01*
X143893601Y-80766900D01*
X143766399Y-80766900D01*
X143643530Y-80799822D01*
X143643528Y-80799823D01*
X143643525Y-80799824D01*
X143533372Y-80863421D01*
X143533362Y-80863429D01*
X143443429Y-80953362D01*
X143443421Y-80953372D01*
X143439119Y-80960825D01*
X143387736Y-81009818D01*
X143318023Y-81023254D01*
X143252112Y-80996867D01*
X143220881Y-80960825D01*
X143216578Y-80953372D01*
X143216570Y-80953362D01*
X143126637Y-80863429D01*
X143126627Y-80863421D01*
X143016474Y-80799824D01*
X143016472Y-80799823D01*
X143016470Y-80799822D01*
X142893601Y-80766900D01*
X142766399Y-80766900D01*
X142643530Y-80799822D01*
X142643528Y-80799823D01*
X142643525Y-80799824D01*
X142533372Y-80863421D01*
X142533362Y-80863429D01*
X142443423Y-80953368D01*
X142442826Y-80954147D01*
X142442155Y-80954636D01*
X142437584Y-80959208D01*
X142436870Y-80958494D01*
X142385485Y-80996010D01*
X142314613Y-81000227D01*
X142252713Y-80965458D01*
X142233752Y-80940439D01*
X142206576Y-80893369D01*
X142206573Y-80893366D01*
X142206570Y-80893362D01*
X142116637Y-80803429D01*
X142116627Y-80803421D01*
X142006474Y-80739824D01*
X142006472Y-80739823D01*
X142006470Y-80739822D01*
X141883601Y-80706900D01*
X141756399Y-80706900D01*
X141633530Y-80739822D01*
X141633528Y-80739823D01*
X141633525Y-80739824D01*
X141568000Y-80777656D01*
X141499005Y-80794394D01*
X141442000Y-80777656D01*
X141376474Y-80739824D01*
X141376472Y-80739823D01*
X141376470Y-80739822D01*
X141253601Y-80706900D01*
X141126399Y-80706900D01*
X141003530Y-80739822D01*
X141003528Y-80739823D01*
X141003525Y-80739824D01*
X140893372Y-80803421D01*
X140893362Y-80803429D01*
X140803429Y-80893362D01*
X140803421Y-80893372D01*
X140739824Y-81003525D01*
X140739823Y-81003528D01*
X140739822Y-81003530D01*
X140706900Y-81126399D01*
X110254500Y-81126399D01*
X110254500Y-78003539D01*
X110254698Y-77996474D01*
X110262241Y-77862156D01*
X110545500Y-77862156D01*
X110545500Y-78137843D01*
X110576367Y-78411795D01*
X110637714Y-78680569D01*
X110728758Y-78940758D01*
X110728763Y-78940772D01*
X110728765Y-78940776D01*
X110848380Y-79189159D01*
X110848384Y-79189165D01*
X110995052Y-79422586D01*
X111166940Y-79638127D01*
X111361872Y-79833059D01*
X111361876Y-79833062D01*
X111577414Y-80004948D01*
X111810841Y-80151620D01*
X112059224Y-80271235D01*
X112059239Y-80271240D01*
X112059241Y-80271241D01*
X112319430Y-80362285D01*
X112319433Y-80362285D01*
X112319437Y-80362287D01*
X112588208Y-80423633D01*
X112782462Y-80445520D01*
X112862156Y-80454500D01*
X112862158Y-80454500D01*
X113137844Y-80454500D01*
X113207417Y-80446660D01*
X113411792Y-80423633D01*
X113680563Y-80362287D01*
X113940776Y-80271235D01*
X114011037Y-80237399D01*
X151694900Y-80237399D01*
X151694900Y-80364601D01*
X151727822Y-80487470D01*
X151727823Y-80487472D01*
X151727824Y-80487474D01*
X151767099Y-80555500D01*
X151783837Y-80624496D01*
X151767099Y-80681500D01*
X151727824Y-80749525D01*
X151727823Y-80749528D01*
X151727822Y-80749530D01*
X151694900Y-80872399D01*
X151694900Y-80999601D01*
X151727822Y-81122470D01*
X151727822Y-81122471D01*
X151727823Y-81122472D01*
X151756419Y-81172001D01*
X151773156Y-81240996D01*
X151756419Y-81297999D01*
X151727823Y-81347527D01*
X151727822Y-81347528D01*
X151727822Y-81347530D01*
X151694900Y-81470399D01*
X151694900Y-81597601D01*
X151727822Y-81720470D01*
X151727823Y-81720472D01*
X151727824Y-81720474D01*
X151791421Y-81830627D01*
X151791429Y-81830637D01*
X151881362Y-81920570D01*
X151881367Y-81920574D01*
X151881369Y-81920576D01*
X151991530Y-81984178D01*
X152114399Y-82017100D01*
X152114400Y-82017100D01*
X152241599Y-82017100D01*
X152241601Y-82017100D01*
X152364470Y-81984178D01*
X152474631Y-81920576D01*
X152564576Y-81830631D01*
X152564580Y-81830623D01*
X152569603Y-81824079D01*
X152572299Y-81826147D01*
X152612245Y-81788047D01*
X152681956Y-81774600D01*
X152747871Y-81800975D01*
X152768891Y-81825233D01*
X152770397Y-81824079D01*
X152775429Y-81830637D01*
X152865362Y-81920570D01*
X152865367Y-81920574D01*
X152865369Y-81920576D01*
X152975530Y-81984178D01*
X153098399Y-82017100D01*
X153098400Y-82017100D01*
X153225599Y-82017100D01*
X153225601Y-82017100D01*
X153348470Y-81984178D01*
X153458631Y-81920576D01*
X153548576Y-81830631D01*
X153612178Y-81720470D01*
X153645100Y-81597601D01*
X153645100Y-81470399D01*
X153612178Y-81347530D01*
X153599580Y-81325711D01*
X153582843Y-81256717D01*
X153599579Y-81199716D01*
X153644178Y-81122470D01*
X153677100Y-80999601D01*
X153677100Y-80872399D01*
X153644178Y-80749530D01*
X153604899Y-80681497D01*
X153588162Y-80612505D01*
X153604898Y-80555502D01*
X153644178Y-80487470D01*
X153677100Y-80364601D01*
X153677100Y-80237399D01*
X153644178Y-80114530D01*
X153592881Y-80025682D01*
X153580578Y-80004372D01*
X153580577Y-80004370D01*
X153580576Y-80004369D01*
X153580574Y-80004367D01*
X153580570Y-80004362D01*
X153490637Y-79914429D01*
X153490627Y-79914421D01*
X153380474Y-79850824D01*
X153380472Y-79850823D01*
X153380470Y-79850822D01*
X153257601Y-79817900D01*
X153130399Y-79817900D01*
X153007530Y-79850822D01*
X153007528Y-79850823D01*
X153007525Y-79850824D01*
X152897372Y-79914421D01*
X152897362Y-79914429D01*
X152807429Y-80004362D01*
X152807423Y-80004370D01*
X152795119Y-80025682D01*
X152743736Y-80074675D01*
X152674022Y-80088110D01*
X152608111Y-80061723D01*
X152576881Y-80025682D01*
X152564910Y-80004948D01*
X152564576Y-80004369D01*
X152564573Y-80004366D01*
X152564570Y-80004362D01*
X152474637Y-79914429D01*
X152474627Y-79914421D01*
X152364474Y-79850824D01*
X152364472Y-79850823D01*
X152364470Y-79850822D01*
X152241601Y-79817900D01*
X152114399Y-79817900D01*
X151991530Y-79850822D01*
X151991528Y-79850823D01*
X151991525Y-79850824D01*
X151881372Y-79914421D01*
X151881362Y-79914429D01*
X151791429Y-80004362D01*
X151791421Y-80004372D01*
X151727824Y-80114525D01*
X151727823Y-80114528D01*
X151727822Y-80114530D01*
X151694900Y-80237399D01*
X114011037Y-80237399D01*
X114189159Y-80151620D01*
X114217571Y-80133767D01*
X114235577Y-80122454D01*
X114287203Y-80090014D01*
X114422586Y-80004948D01*
X114638124Y-79833062D01*
X114833062Y-79638124D01*
X115004948Y-79422586D01*
X115151620Y-79189159D01*
X115271235Y-78940776D01*
X115362287Y-78680563D01*
X115423633Y-78411792D01*
X115454500Y-78137842D01*
X115454500Y-77916399D01*
X117766900Y-77916399D01*
X117766900Y-78043601D01*
X117799822Y-78166470D01*
X117799823Y-78166472D01*
X117799824Y-78166474D01*
X117863421Y-78276627D01*
X117863429Y-78276637D01*
X117953362Y-78366570D01*
X117953367Y-78366574D01*
X117953369Y-78366576D01*
X117953370Y-78366577D01*
X117953372Y-78366578D01*
X118005025Y-78396400D01*
X118063530Y-78430178D01*
X118186399Y-78463100D01*
X118186400Y-78463100D01*
X118313599Y-78463100D01*
X118313601Y-78463100D01*
X118436470Y-78430178D01*
X118546631Y-78366576D01*
X118546637Y-78366570D01*
X118551805Y-78361403D01*
X118614117Y-78327377D01*
X118684932Y-78332442D01*
X118741768Y-78374989D01*
X118766579Y-78441509D01*
X118766900Y-78450498D01*
X118766900Y-78503601D01*
X118799822Y-78626470D01*
X118799823Y-78626472D01*
X118799824Y-78626474D01*
X118863421Y-78736627D01*
X118863429Y-78736637D01*
X118953362Y-78826570D01*
X118953367Y-78826574D01*
X118953369Y-78826576D01*
X118953370Y-78826577D01*
X118953372Y-78826578D01*
X119005153Y-78856474D01*
X119063530Y-78890178D01*
X119186399Y-78923100D01*
X119186400Y-78923100D01*
X119313599Y-78923100D01*
X119313601Y-78923100D01*
X119436470Y-78890178D01*
X119546631Y-78826576D01*
X119636576Y-78736631D01*
X119700178Y-78626470D01*
X119705556Y-78606399D01*
X124266900Y-78606399D01*
X124266900Y-78733601D01*
X124299822Y-78856470D01*
X124299823Y-78856472D01*
X124299824Y-78856474D01*
X124363421Y-78966627D01*
X124363429Y-78966637D01*
X124453362Y-79056570D01*
X124453367Y-79056574D01*
X124453369Y-79056576D01*
X124453370Y-79056577D01*
X124453372Y-79056578D01*
X124530803Y-79101283D01*
X124563530Y-79120178D01*
X124686399Y-79153100D01*
X124686400Y-79153100D01*
X124813599Y-79153100D01*
X124813601Y-79153100D01*
X124936470Y-79120178D01*
X125046631Y-79056576D01*
X125136576Y-78966631D01*
X125200178Y-78856470D01*
X125233100Y-78733601D01*
X125233100Y-78616399D01*
X128766900Y-78616399D01*
X128766900Y-78743601D01*
X128799822Y-78866470D01*
X128799823Y-78866472D01*
X128799824Y-78866474D01*
X128863421Y-78976627D01*
X128863429Y-78976637D01*
X128953362Y-79066570D01*
X128953367Y-79066574D01*
X128953369Y-79066576D01*
X129063530Y-79130178D01*
X129186399Y-79163100D01*
X129186400Y-79163100D01*
X129313599Y-79163100D01*
X129313601Y-79163100D01*
X129436470Y-79130178D01*
X129546631Y-79066576D01*
X129636576Y-78976631D01*
X129700178Y-78866470D01*
X129733100Y-78743601D01*
X129733100Y-78616399D01*
X129700178Y-78493530D01*
X129644099Y-78396399D01*
X154336900Y-78396399D01*
X154336900Y-78523601D01*
X154369822Y-78646470D01*
X154369823Y-78646472D01*
X154369824Y-78646474D01*
X154433421Y-78756627D01*
X154433429Y-78756637D01*
X154523362Y-78846570D01*
X154523367Y-78846574D01*
X154523369Y-78846576D01*
X154523370Y-78846577D01*
X154523372Y-78846578D01*
X154557821Y-78866467D01*
X154633530Y-78910178D01*
X154756399Y-78943100D01*
X154756400Y-78943100D01*
X154883599Y-78943100D01*
X154883601Y-78943100D01*
X155006470Y-78910178D01*
X155116631Y-78846576D01*
X155206576Y-78756631D01*
X155270178Y-78646470D01*
X155303100Y-78523601D01*
X155303100Y-78396399D01*
X155270178Y-78273530D01*
X155208369Y-78166474D01*
X155206578Y-78163372D01*
X155206570Y-78163362D01*
X155116637Y-78073429D01*
X155116627Y-78073421D01*
X155006474Y-78009824D01*
X155006472Y-78009823D01*
X155006470Y-78009822D01*
X154896400Y-77980329D01*
X154883601Y-77976900D01*
X154756399Y-77976900D01*
X154633530Y-78009822D01*
X154633528Y-78009823D01*
X154633525Y-78009824D01*
X154523372Y-78073421D01*
X154523362Y-78073429D01*
X154433429Y-78163362D01*
X154433421Y-78163372D01*
X154369824Y-78273525D01*
X154369823Y-78273528D01*
X154369822Y-78273530D01*
X154336900Y-78396399D01*
X129644099Y-78396399D01*
X129636576Y-78383369D01*
X129636574Y-78383367D01*
X129636570Y-78383362D01*
X129546637Y-78293429D01*
X129546627Y-78293421D01*
X129436474Y-78229824D01*
X129436472Y-78229823D01*
X129436470Y-78229822D01*
X129313601Y-78196900D01*
X129186399Y-78196900D01*
X129063530Y-78229822D01*
X129063528Y-78229823D01*
X129063525Y-78229824D01*
X128953372Y-78293421D01*
X128953362Y-78293429D01*
X128863429Y-78383362D01*
X128863421Y-78383372D01*
X128799824Y-78493525D01*
X128799823Y-78493528D01*
X128799822Y-78493530D01*
X128766900Y-78616399D01*
X125233100Y-78616399D01*
X125233100Y-78606399D01*
X125200178Y-78483530D01*
X125169373Y-78430175D01*
X125136578Y-78373372D01*
X125136570Y-78373362D01*
X125046637Y-78283429D01*
X125046627Y-78283421D01*
X124936474Y-78219824D01*
X124936472Y-78219823D01*
X124936470Y-78219822D01*
X124813601Y-78186900D01*
X124686399Y-78186900D01*
X124563530Y-78219822D01*
X124563528Y-78219823D01*
X124563525Y-78219824D01*
X124453372Y-78283421D01*
X124453362Y-78283429D01*
X124363429Y-78373362D01*
X124363421Y-78373372D01*
X124299824Y-78483525D01*
X124299823Y-78483528D01*
X124299822Y-78483530D01*
X124266900Y-78606399D01*
X119705556Y-78606399D01*
X119733100Y-78503601D01*
X119733100Y-78376399D01*
X119700178Y-78253530D01*
X119649916Y-78166474D01*
X119636578Y-78143372D01*
X119636570Y-78143362D01*
X119546637Y-78053429D01*
X119546627Y-78053421D01*
X119436474Y-77989824D01*
X119436472Y-77989823D01*
X119436470Y-77989822D01*
X119313601Y-77956900D01*
X119186399Y-77956900D01*
X119063530Y-77989822D01*
X119063528Y-77989823D01*
X119063525Y-77989824D01*
X118953372Y-78053421D01*
X118953362Y-78053429D01*
X118948195Y-78058597D01*
X118885883Y-78092623D01*
X118815068Y-78087558D01*
X118758232Y-78045011D01*
X118733421Y-77978491D01*
X118733100Y-77969502D01*
X118733100Y-77916400D01*
X118718566Y-77862158D01*
X118718565Y-77862156D01*
X159545500Y-77862156D01*
X159545500Y-78137843D01*
X159576367Y-78411795D01*
X159637714Y-78680569D01*
X159728758Y-78940758D01*
X159728763Y-78940772D01*
X159728765Y-78940776D01*
X159848380Y-79189159D01*
X159848384Y-79189165D01*
X159995052Y-79422586D01*
X160166940Y-79638127D01*
X160361872Y-79833059D01*
X160361876Y-79833062D01*
X160577414Y-80004948D01*
X160810841Y-80151620D01*
X161059224Y-80271235D01*
X161059239Y-80271240D01*
X161059241Y-80271241D01*
X161319430Y-80362285D01*
X161319433Y-80362285D01*
X161319437Y-80362287D01*
X161588208Y-80423633D01*
X161782462Y-80445520D01*
X161862156Y-80454500D01*
X161862158Y-80454500D01*
X162137844Y-80454500D01*
X162207417Y-80446660D01*
X162411792Y-80423633D01*
X162680563Y-80362287D01*
X162940776Y-80271235D01*
X163189159Y-80151620D01*
X163422586Y-80004948D01*
X163638124Y-79833062D01*
X163833062Y-79638124D01*
X164004948Y-79422586D01*
X164151620Y-79189159D01*
X164271235Y-78940776D01*
X164362287Y-78680563D01*
X164423633Y-78411792D01*
X164454500Y-78137842D01*
X164454500Y-77862158D01*
X164450813Y-77829439D01*
X164445520Y-77782462D01*
X164423633Y-77588208D01*
X164362287Y-77319437D01*
X164305279Y-77156518D01*
X164271241Y-77059241D01*
X164271240Y-77059239D01*
X164271235Y-77059224D01*
X164151620Y-76810841D01*
X164004948Y-76577414D01*
X163914037Y-76463415D01*
X163833059Y-76361872D01*
X163638127Y-76166940D01*
X163422586Y-75995052D01*
X163276942Y-75903538D01*
X163189159Y-75848380D01*
X162940776Y-75728765D01*
X162940772Y-75728763D01*
X162940758Y-75728758D01*
X162680569Y-75637714D01*
X162411795Y-75576367D01*
X162137844Y-75545500D01*
X162137842Y-75545500D01*
X161862158Y-75545500D01*
X161862156Y-75545500D01*
X161588204Y-75576367D01*
X161319430Y-75637714D01*
X161059241Y-75728758D01*
X161059221Y-75728766D01*
X160956339Y-75778311D01*
X160810841Y-75848380D01*
X160810836Y-75848382D01*
X160810834Y-75848384D01*
X160577413Y-75995052D01*
X160361872Y-76166940D01*
X160166940Y-76361872D01*
X159995052Y-76577413D01*
X159853572Y-76802578D01*
X159848380Y-76810841D01*
X159838147Y-76832091D01*
X159728766Y-77059221D01*
X159728758Y-77059241D01*
X159637714Y-77319430D01*
X159576367Y-77588204D01*
X159545500Y-77862156D01*
X118718565Y-77862156D01*
X118700178Y-77793530D01*
X118636576Y-77683369D01*
X118636574Y-77683367D01*
X118636570Y-77683362D01*
X118546637Y-77593429D01*
X118546627Y-77593421D01*
X118436474Y-77529824D01*
X118436472Y-77529823D01*
X118436470Y-77529822D01*
X118313601Y-77496900D01*
X118186399Y-77496900D01*
X118063530Y-77529822D01*
X118063528Y-77529823D01*
X118063525Y-77529824D01*
X117953372Y-77593421D01*
X117953362Y-77593429D01*
X117863429Y-77683362D01*
X117863421Y-77683372D01*
X117799824Y-77793525D01*
X117799823Y-77793528D01*
X117799822Y-77793530D01*
X117766900Y-77916399D01*
X115454500Y-77916399D01*
X115454500Y-77862158D01*
X115450813Y-77829439D01*
X115445520Y-77782462D01*
X115423633Y-77588208D01*
X115362287Y-77319437D01*
X115305279Y-77156518D01*
X115271241Y-77059241D01*
X115271240Y-77059239D01*
X115271235Y-77059224D01*
X115151620Y-76810841D01*
X115004948Y-76577414D01*
X114914037Y-76463415D01*
X114833059Y-76361872D01*
X114638127Y-76166940D01*
X114422586Y-75995052D01*
X114276942Y-75903538D01*
X114189159Y-75848380D01*
X113940776Y-75728765D01*
X113940772Y-75728763D01*
X113940758Y-75728758D01*
X113680569Y-75637714D01*
X113411795Y-75576367D01*
X113137844Y-75545500D01*
X113137842Y-75545500D01*
X112862158Y-75545500D01*
X112862156Y-75545500D01*
X112588204Y-75576367D01*
X112319430Y-75637714D01*
X112059241Y-75728758D01*
X112059221Y-75728766D01*
X111956339Y-75778311D01*
X111810841Y-75848380D01*
X111810836Y-75848382D01*
X111810834Y-75848384D01*
X111577413Y-75995052D01*
X111361872Y-76166940D01*
X111166940Y-76361872D01*
X110995052Y-76577413D01*
X110853572Y-76802578D01*
X110848380Y-76810841D01*
X110838147Y-76832091D01*
X110728766Y-77059221D01*
X110728758Y-77059241D01*
X110637714Y-77319430D01*
X110576367Y-77588204D01*
X110545500Y-77862156D01*
X110262241Y-77862156D01*
X110262836Y-77851558D01*
X110271366Y-77699667D01*
X110272948Y-77685627D01*
X110299420Y-77529822D01*
X110322151Y-77396036D01*
X110325290Y-77382282D01*
X110406611Y-77100008D01*
X110411273Y-77086688D01*
X110523684Y-76815304D01*
X110529813Y-76802578D01*
X110671898Y-76545494D01*
X110679406Y-76533545D01*
X110849393Y-76293970D01*
X110858202Y-76282927D01*
X110904669Y-76230930D01*
X111053932Y-76063903D01*
X111063903Y-76053932D01*
X111282929Y-75858199D01*
X111293973Y-75849392D01*
X111295394Y-75848384D01*
X111533545Y-75679406D01*
X111545494Y-75671898D01*
X111802582Y-75529810D01*
X111815304Y-75523684D01*
X112086688Y-75411273D01*
X112100008Y-75406611D01*
X112382282Y-75325290D01*
X112396036Y-75322151D01*
X112685628Y-75272947D01*
X112699662Y-75271366D01*
X112996474Y-75254697D01*
X113003539Y-75254500D01*
X113044875Y-75254500D01*
X162455125Y-75254500D01*
X162496194Y-75254500D01*
X162503801Y-75254730D01*
G37*
%TD.AperFunction*%
%TD*%
M02*
