%TF.GenerationSoftware,KiCad,Pcbnew,9.0.7*%
%TF.CreationDate,2026-03-11T04:27:33+08:00*%
%TF.ProjectId,CawBMS,43617742-4d53-42e6-9b69-6361645f7063,rev?*%
%TF.SameCoordinates,Original*%
%TF.FileFunction,Legend,Bot*%
%TF.FilePolarity,Positive*%
%FSLAX46Y46*%
G04 Gerber Fmt 4.6, Leading zero omitted, Abs format (unit mm)*
G04 Created by KiCad (PCBNEW 9.0.7) date 2026-03-11 04:27:33*
%MOMM*%
%LPD*%
G01*
G04 APERTURE LIST*
%ADD10C,0.000000*%
%ADD11C,0.010000*%
G04 APERTURE END LIST*
D10*
%TO.C,kibuzzard-69B05E76*%
G36*
X131402534Y-110935582D02*
G01*
X131445453Y-111051462D01*
X131399673Y-111153035D01*
X131279501Y-111191662D01*
X131139301Y-111155897D01*
X131087799Y-111057184D01*
X131129287Y-110937013D01*
X131265195Y-110899817D01*
X131402534Y-110935582D01*
G37*
G36*
X139363907Y-111547885D02*
G01*
X139431146Y-111715267D01*
X139356754Y-111889802D01*
X139199387Y-111947027D01*
X139039158Y-111889802D01*
X138961905Y-111712406D01*
X139027713Y-111543593D01*
X139202248Y-111480646D01*
X139363907Y-111547885D01*
G37*
G36*
X144810259Y-111572206D02*
G01*
X144870345Y-111718128D01*
X144810259Y-111862621D01*
X144667198Y-111924137D01*
X144521275Y-111862621D01*
X144458328Y-111718128D01*
X144518414Y-111572206D01*
X144664337Y-111512120D01*
X144810259Y-111572206D01*
G37*
G36*
X147451175Y-114286560D02*
G01*
X146258996Y-114286560D01*
X145136440Y-114286560D01*
X143140732Y-114286560D01*
X141931862Y-114286560D01*
X140335295Y-114286560D01*
X139193664Y-114286560D01*
X137176497Y-114286560D01*
X136515553Y-114286560D01*
X135265195Y-114286560D01*
X134083507Y-114286560D01*
X132312405Y-114286560D01*
X131665767Y-114286560D01*
X129768772Y-114286560D01*
X128643354Y-114286560D01*
X127451175Y-114286560D01*
X127451175Y-110705253D01*
X129508400Y-110705253D01*
X129508400Y-112193093D01*
X129565624Y-112393379D01*
X129768772Y-112450603D01*
X129969058Y-112393379D01*
X130026282Y-112190231D01*
X130026282Y-111223136D01*
X130054895Y-111248887D01*
X130230860Y-111331862D01*
X130401103Y-111231719D01*
X130549887Y-111231719D01*
X130562134Y-111441848D01*
X130598872Y-111635038D01*
X130660102Y-111811290D01*
X130745824Y-111970603D01*
X130856039Y-112112978D01*
X130986397Y-112233493D01*
X131132548Y-112327227D01*
X131294494Y-112394180D01*
X131472234Y-112434352D01*
X131665767Y-112447742D01*
X131755896Y-112442020D01*
X131830288Y-112413407D01*
X131890374Y-112333293D01*
X131908972Y-112184509D01*
X131904735Y-112153035D01*
X132029144Y-112153035D01*
X132123564Y-112344738D01*
X132226568Y-112432721D01*
X132312405Y-112462048D01*
X132495524Y-112359044D01*
X132847455Y-112030003D01*
X132847455Y-112187370D01*
X132851747Y-112284652D01*
X132878929Y-112360475D01*
X132957613Y-112424852D01*
X133107827Y-112444881D01*
X133255181Y-112424852D01*
X133333865Y-112359044D01*
X133361046Y-112280360D01*
X133365338Y-112184509D01*
X133365338Y-111286083D01*
X133537012Y-111286083D01*
X133597098Y-111449173D01*
X133700102Y-111567199D01*
X133803106Y-111606540D01*
X133944737Y-111555038D01*
X134089229Y-111503536D01*
X134238013Y-111565053D01*
X134300960Y-111715267D01*
X134239444Y-111866912D01*
X134094952Y-111929860D01*
X133969058Y-111892664D01*
X133820274Y-111829716D01*
X133720846Y-111867628D01*
X133605681Y-111981362D01*
X133540509Y-112113614D01*
X133570075Y-112235693D01*
X133694380Y-112347599D01*
X133888943Y-112431290D01*
X134083507Y-112459187D01*
X134207613Y-112447027D01*
X134333865Y-112410546D01*
X134457970Y-112351891D01*
X134575639Y-112273207D01*
X134679358Y-112169845D01*
X134761618Y-112037156D01*
X134815267Y-111882292D01*
X134833149Y-111712406D01*
X134815267Y-111545024D01*
X134761618Y-111391948D01*
X134679716Y-111260689D01*
X134676474Y-111257470D01*
X135004823Y-111257470D01*
X135004823Y-112187370D01*
X135009115Y-112284652D01*
X135036297Y-112360475D01*
X135114980Y-112424852D01*
X135265195Y-112444881D01*
X135412548Y-112424852D01*
X135491232Y-112360475D01*
X135518414Y-112283221D01*
X135522706Y-112184509D01*
X135522706Y-111251748D01*
X135519631Y-111183078D01*
X135651461Y-111183078D01*
X135667198Y-111317199D01*
X135714408Y-111427714D01*
X135874637Y-111526426D01*
X135984794Y-111504967D01*
X136054895Y-111483508D01*
X136196526Y-111524995D01*
X136252319Y-111629430D01*
X136252319Y-112187370D01*
X136256611Y-112284652D01*
X136283793Y-112360475D01*
X136363907Y-112424852D01*
X136515553Y-112444881D01*
X136662906Y-112424852D01*
X136741590Y-112359044D01*
X136768772Y-112280360D01*
X136773063Y-112181648D01*
X136773063Y-111260332D01*
X136887513Y-111260332D01*
X136993378Y-111437728D01*
X137268056Y-111715267D01*
X136993378Y-111995668D01*
X136887513Y-112171633D01*
X136993378Y-112359044D01*
X137176497Y-112463479D01*
X137353893Y-112359044D01*
X137628571Y-112081505D01*
X137906111Y-112359044D01*
X138082076Y-112462048D01*
X138266626Y-112359044D01*
X138369630Y-112170203D01*
X138266626Y-111995668D01*
X137991948Y-111715267D01*
X138438299Y-111715267D01*
X138464527Y-111926045D01*
X138543211Y-112108210D01*
X138674351Y-112261762D01*
X138836964Y-112377801D01*
X139010069Y-112447424D01*
X139193664Y-112470632D01*
X139379008Y-112446947D01*
X139553543Y-112375894D01*
X139717269Y-112257470D01*
X139849204Y-112102805D01*
X139928365Y-111923024D01*
X139954752Y-111718128D01*
X139954394Y-111715267D01*
X140074923Y-111715267D01*
X140074923Y-112184509D01*
X140079215Y-112280360D01*
X140106397Y-112357613D01*
X140185081Y-112421991D01*
X140335295Y-112442020D01*
X140486940Y-112421991D01*
X140567055Y-112356183D01*
X140594237Y-112277499D01*
X140598528Y-112181648D01*
X140598528Y-111715267D01*
X140651461Y-111563622D01*
X140801676Y-111509259D01*
X140953321Y-111565053D01*
X141010546Y-111715267D01*
X141010546Y-112184509D01*
X141014837Y-112280360D01*
X141042019Y-112357613D01*
X141122134Y-112421991D01*
X141270917Y-112442020D01*
X141418271Y-112421991D01*
X141496955Y-112357613D01*
X141524136Y-112280360D01*
X141528428Y-112181648D01*
X141528428Y-112175925D01*
X141657184Y-112175925D01*
X141718700Y-112387656D01*
X141931862Y-112447742D01*
X142145023Y-112387656D01*
X142206540Y-112178787D01*
X142191161Y-112045382D01*
X142145023Y-111959902D01*
X142060259Y-111913765D01*
X141929000Y-111898386D01*
X141717269Y-111959902D01*
X141672205Y-112044666D01*
X141657184Y-112175925D01*
X141528428Y-112175925D01*
X141528428Y-111326140D01*
X141654322Y-111326140D01*
X141715839Y-111537871D01*
X141929000Y-111597957D01*
X142142162Y-111537871D01*
X142203679Y-111329001D01*
X142188299Y-111195596D01*
X142159922Y-111143021D01*
X142282362Y-111143021D01*
X142312405Y-111334724D01*
X143013407Y-112905539D01*
X143140732Y-113067199D01*
X143353893Y-113031433D01*
X143516983Y-112892664D01*
X143479787Y-112693808D01*
X143256611Y-112195954D01*
X143577297Y-111712406D01*
X143937584Y-111712406D01*
X143959997Y-111895843D01*
X144027236Y-112064655D01*
X144139301Y-112218844D01*
X144279978Y-112341241D01*
X144433054Y-112414679D01*
X144598528Y-112439159D01*
X144763049Y-112413407D01*
X144901819Y-112336154D01*
X144983364Y-112415553D01*
X145136440Y-112442020D01*
X145283793Y-112421991D01*
X145362477Y-112356183D01*
X145389659Y-112277499D01*
X145393950Y-112181648D01*
X145393950Y-110593665D01*
X145389659Y-110497814D01*
X145362477Y-110420561D01*
X145283793Y-110356183D01*
X145133578Y-110336154D01*
X145009115Y-110350460D01*
X144934723Y-110390518D01*
X144897527Y-110450603D01*
X144886082Y-110522134D01*
X144887513Y-110596526D01*
X144887513Y-111088658D01*
X144755181Y-111017842D01*
X144598528Y-110994237D01*
X144434484Y-111018717D01*
X144281886Y-111092155D01*
X144140732Y-111214552D01*
X144027872Y-111367787D01*
X143960156Y-111533738D01*
X143937584Y-111712406D01*
X143577297Y-111712406D01*
X143803106Y-111371920D01*
X143863192Y-111183078D01*
X143725853Y-111028572D01*
X143519845Y-110964194D01*
X143368199Y-111100103D01*
X143010546Y-111640875D01*
X142784508Y-111137299D01*
X142655753Y-110977070D01*
X142444022Y-111008543D01*
X142282362Y-111143021D01*
X142159922Y-111143021D01*
X142142162Y-111110117D01*
X142057398Y-111063980D01*
X141926139Y-111048601D01*
X141714408Y-111110117D01*
X141669344Y-111194881D01*
X141654322Y-111326140D01*
X141528428Y-111326140D01*
X141528428Y-111240303D01*
X141522706Y-111145882D01*
X141495524Y-111071490D01*
X141416840Y-111009974D01*
X141268056Y-110991376D01*
X141133578Y-111008543D01*
X141056325Y-111055754D01*
X141024852Y-111110117D01*
X141016268Y-111168772D01*
X140863192Y-111045739D01*
X140655753Y-110991376D01*
X140484715Y-111013948D01*
X140341653Y-111081664D01*
X140226568Y-111194523D01*
X140142321Y-111342671D01*
X140091773Y-111516253D01*
X140074923Y-111715267D01*
X139954394Y-111715267D01*
X139929954Y-111519909D01*
X139855562Y-111341082D01*
X139731576Y-111181648D01*
X139573254Y-111056866D01*
X139395858Y-110981997D01*
X139199387Y-110957041D01*
X138998306Y-110981521D01*
X138818525Y-111054959D01*
X138660045Y-111177356D01*
X138536853Y-111335042D01*
X138462938Y-111514345D01*
X138438299Y-111715267D01*
X137991948Y-111715267D01*
X138266626Y-111437728D01*
X138371061Y-111261762D01*
X138266626Y-111071490D01*
X138083507Y-110967055D01*
X137906111Y-111071490D01*
X137628571Y-111351891D01*
X137353893Y-111071490D01*
X137173636Y-110968486D01*
X136993378Y-111071490D01*
X136887513Y-111260332D01*
X136773063Y-111260332D01*
X136773063Y-111248887D01*
X136768772Y-111151605D01*
X136741590Y-111075782D01*
X136662906Y-111011405D01*
X136512691Y-110991376D01*
X136346740Y-111020704D01*
X136266626Y-111108686D01*
X136122134Y-111009974D01*
X135969058Y-110977070D01*
X135883221Y-110984223D01*
X135780216Y-111009974D01*
X135687227Y-111074352D01*
X135651461Y-111183078D01*
X135519631Y-111183078D01*
X135518414Y-111155897D01*
X135491232Y-111078643D01*
X135411118Y-111014266D01*
X135265195Y-110994622D01*
X135262334Y-110994237D01*
X135114980Y-111014266D01*
X135036297Y-111080074D01*
X135009115Y-111158758D01*
X135004823Y-111257470D01*
X134676474Y-111257470D01*
X134577069Y-111158758D01*
X134460474Y-111081147D01*
X134336726Y-111022849D01*
X134211189Y-110986369D01*
X134089229Y-110974209D01*
X133884651Y-111002821D01*
X133694380Y-111088658D01*
X133618557Y-111138729D01*
X133564194Y-111200246D01*
X133537012Y-111286083D01*
X133365338Y-111286083D01*
X133365338Y-110596526D01*
X135004823Y-110596526D01*
X135009115Y-110693808D01*
X135036297Y-110769631D01*
X135114980Y-110834008D01*
X135265195Y-110854037D01*
X135412548Y-110834008D01*
X135491232Y-110768200D01*
X135518414Y-110689516D01*
X135522706Y-110593665D01*
X135518414Y-110497814D01*
X135491232Y-110420561D01*
X135411118Y-110356183D01*
X135262334Y-110336154D01*
X135114980Y-110356183D01*
X135036297Y-110421991D01*
X135009115Y-110500675D01*
X135004823Y-110596526D01*
X133365338Y-110596526D01*
X133365338Y-110590804D01*
X133361046Y-110492091D01*
X133333865Y-110414838D01*
X133253750Y-110350460D01*
X133104966Y-110330432D01*
X132957613Y-110350460D01*
X132878929Y-110416269D01*
X132851747Y-110494952D01*
X132847455Y-110593665D01*
X132847455Y-111383365D01*
X132604251Y-111145882D01*
X132416840Y-111044309D01*
X132232291Y-111145882D01*
X132124995Y-111340446D01*
X132232291Y-111517842D01*
X132464051Y-111720990D01*
X132140732Y-111972778D01*
X132029144Y-112153035D01*
X131904735Y-112153035D01*
X131888943Y-112035725D01*
X131823135Y-111955611D01*
X131743020Y-111928429D01*
X131642877Y-111924137D01*
X131428603Y-111892028D01*
X131262652Y-111795700D01*
X131145023Y-111635153D01*
X131296669Y-111660904D01*
X131466594Y-111641193D01*
X131621577Y-111582061D01*
X131761618Y-111483508D01*
X131872094Y-111358567D01*
X131938379Y-111220274D01*
X131960474Y-111068629D01*
X131938538Y-110893299D01*
X131872730Y-110737362D01*
X131763049Y-110600818D01*
X131621259Y-110495111D01*
X131459123Y-110431688D01*
X131276640Y-110410546D01*
X131066022Y-110434867D01*
X130888148Y-110507828D01*
X130743020Y-110629430D01*
X130635724Y-110793633D01*
X130571347Y-110994396D01*
X130549887Y-111231719D01*
X130401103Y-111231719D01*
X130489802Y-111042878D01*
X130456897Y-110951319D01*
X130369630Y-110854037D01*
X130006254Y-110527857D01*
X129960474Y-110490661D01*
X129765910Y-110442020D01*
X129565624Y-110500675D01*
X129508400Y-110705253D01*
X127451175Y-110705253D01*
X127451175Y-109138252D01*
X128643354Y-109138252D01*
X146258996Y-109138252D01*
X147451175Y-109138252D01*
X147451175Y-114286560D01*
G37*
D11*
%TO.C,REF\u002A\u002A*%
X133663030Y-95990879D02*
X133691405Y-96018218D01*
X133774142Y-96101592D01*
X133883572Y-96215098D01*
X134014379Y-96352948D01*
X134161244Y-96509351D01*
X134318850Y-96678518D01*
X134481879Y-96854659D01*
X134645013Y-97031985D01*
X134802934Y-97204706D01*
X134950324Y-97367032D01*
X135081866Y-97513173D01*
X135192241Y-97637341D01*
X135276131Y-97733744D01*
X135328220Y-97796594D01*
X135343188Y-97820101D01*
X135338051Y-97822697D01*
X135288928Y-97850110D01*
X135191767Y-97905380D01*
X135050662Y-97986149D01*
X134869705Y-98090063D01*
X134652988Y-98214763D01*
X134404606Y-98357896D01*
X134128649Y-98517103D01*
X133829211Y-98690030D01*
X133510384Y-98874320D01*
X133176261Y-99067617D01*
X133051374Y-99139888D01*
X132723125Y-99329766D01*
X132412074Y-99509581D01*
X132122267Y-99677001D01*
X131857749Y-99829695D01*
X131622566Y-99965331D01*
X131420763Y-100081575D01*
X131256385Y-100176095D01*
X131133477Y-100246560D01*
X131056086Y-100290637D01*
X131028256Y-100305994D01*
X131029508Y-100297816D01*
X131052344Y-100250814D01*
X131094345Y-100175726D01*
X131120110Y-100131281D01*
X131174903Y-100036500D01*
X131255532Y-99896908D01*
X131359377Y-99717042D01*
X131483820Y-99501437D01*
X131626244Y-99254633D01*
X131784028Y-98981165D01*
X131954555Y-98685571D01*
X132135206Y-98372388D01*
X132323363Y-98046153D01*
X132507601Y-97726799D01*
X132686718Y-97416527D01*
X132855145Y-97124977D01*
X133010352Y-96856520D01*
X133149809Y-96615523D01*
X133270986Y-96406357D01*
X133371354Y-96233391D01*
X133448383Y-96100996D01*
X133499542Y-96013539D01*
X133522302Y-95975391D01*
X133568999Y-95902556D01*
X133663030Y-95990879D01*
G36*
X133663030Y-95990879D02*
G01*
X133691405Y-96018218D01*
X133774142Y-96101592D01*
X133883572Y-96215098D01*
X134014379Y-96352948D01*
X134161244Y-96509351D01*
X134318850Y-96678518D01*
X134481879Y-96854659D01*
X134645013Y-97031985D01*
X134802934Y-97204706D01*
X134950324Y-97367032D01*
X135081866Y-97513173D01*
X135192241Y-97637341D01*
X135276131Y-97733744D01*
X135328220Y-97796594D01*
X135343188Y-97820101D01*
X135338051Y-97822697D01*
X135288928Y-97850110D01*
X135191767Y-97905380D01*
X135050662Y-97986149D01*
X134869705Y-98090063D01*
X134652988Y-98214763D01*
X134404606Y-98357896D01*
X134128649Y-98517103D01*
X133829211Y-98690030D01*
X133510384Y-98874320D01*
X133176261Y-99067617D01*
X133051374Y-99139888D01*
X132723125Y-99329766D01*
X132412074Y-99509581D01*
X132122267Y-99677001D01*
X131857749Y-99829695D01*
X131622566Y-99965331D01*
X131420763Y-100081575D01*
X131256385Y-100176095D01*
X131133477Y-100246560D01*
X131056086Y-100290637D01*
X131028256Y-100305994D01*
X131029508Y-100297816D01*
X131052344Y-100250814D01*
X131094345Y-100175726D01*
X131120110Y-100131281D01*
X131174903Y-100036500D01*
X131255532Y-99896908D01*
X131359377Y-99717042D01*
X131483820Y-99501437D01*
X131626244Y-99254633D01*
X131784028Y-98981165D01*
X131954555Y-98685571D01*
X132135206Y-98372388D01*
X132323363Y-98046153D01*
X132507601Y-97726799D01*
X132686718Y-97416527D01*
X132855145Y-97124977D01*
X133010352Y-96856520D01*
X133149809Y-96615523D01*
X133270986Y-96406357D01*
X133371354Y-96233391D01*
X133448383Y-96100996D01*
X133499542Y-96013539D01*
X133522302Y-95975391D01*
X133568999Y-95902556D01*
X133663030Y-95990879D01*
G37*
X137188479Y-89652503D02*
X137211544Y-89687176D01*
X137262359Y-89770477D01*
X137338373Y-89897976D01*
X137437032Y-90065244D01*
X137555784Y-90267852D01*
X137692077Y-90501371D01*
X137843359Y-90761369D01*
X138007077Y-91043419D01*
X138180678Y-91343090D01*
X138361611Y-91655954D01*
X138547322Y-91977580D01*
X138735260Y-92303539D01*
X138922873Y-92629401D01*
X139107607Y-92950737D01*
X139286910Y-93263118D01*
X139458230Y-93562114D01*
X139619015Y-93843296D01*
X139766712Y-94102233D01*
X139898769Y-94334497D01*
X140012633Y-94535658D01*
X140105753Y-94701287D01*
X140175575Y-94826953D01*
X140219547Y-94908228D01*
X140235117Y-94940682D01*
X140235132Y-94940929D01*
X140210024Y-94974985D01*
X140137875Y-95032712D01*
X140026192Y-95108647D01*
X139882480Y-95197328D01*
X139786104Y-95254058D01*
X139647423Y-95332946D01*
X139550827Y-95382662D01*
X139489843Y-95406002D01*
X139457998Y-95405765D01*
X139448822Y-95384747D01*
X139448123Y-95381320D01*
X139421895Y-95339517D01*
X139365358Y-95268432D01*
X139288930Y-95181320D01*
X139253669Y-95143903D01*
X139144322Y-95043177D01*
X139023402Y-94957084D01*
X138883723Y-94883100D01*
X138718099Y-94818699D01*
X138519343Y-94761357D01*
X138280268Y-94708550D01*
X137993690Y-94657753D01*
X137652421Y-94606443D01*
X137259627Y-94548607D01*
X136879907Y-94486499D01*
X136547879Y-94424241D01*
X136256122Y-94360037D01*
X135997212Y-94292091D01*
X135763725Y-94218606D01*
X135548239Y-94137788D01*
X135343329Y-94047840D01*
X135192735Y-93973662D01*
X135048888Y-93895603D01*
X134935131Y-93825917D01*
X134860356Y-93770083D01*
X134833456Y-93733582D01*
X134834250Y-93730893D01*
X134855919Y-93687877D01*
X134905048Y-93597798D01*
X134978729Y-93465697D01*
X135074053Y-93296619D01*
X135188111Y-93095608D01*
X135317995Y-92867705D01*
X135460796Y-92617955D01*
X135613606Y-92351401D01*
X135773516Y-92073087D01*
X135937618Y-91788055D01*
X136103002Y-91501350D01*
X136266761Y-91218013D01*
X136425985Y-90943090D01*
X136577766Y-90681622D01*
X136719196Y-90438654D01*
X136847366Y-90219229D01*
X136959367Y-90028390D01*
X137052291Y-89871181D01*
X137123229Y-89752644D01*
X137169273Y-89677824D01*
X137187513Y-89651763D01*
X137188479Y-89652503D01*
G36*
X137188479Y-89652503D02*
G01*
X137211544Y-89687176D01*
X137262359Y-89770477D01*
X137338373Y-89897976D01*
X137437032Y-90065244D01*
X137555784Y-90267852D01*
X137692077Y-90501371D01*
X137843359Y-90761369D01*
X138007077Y-91043419D01*
X138180678Y-91343090D01*
X138361611Y-91655954D01*
X138547322Y-91977580D01*
X138735260Y-92303539D01*
X138922873Y-92629401D01*
X139107607Y-92950737D01*
X139286910Y-93263118D01*
X139458230Y-93562114D01*
X139619015Y-93843296D01*
X139766712Y-94102233D01*
X139898769Y-94334497D01*
X140012633Y-94535658D01*
X140105753Y-94701287D01*
X140175575Y-94826953D01*
X140219547Y-94908228D01*
X140235117Y-94940682D01*
X140235132Y-94940929D01*
X140210024Y-94974985D01*
X140137875Y-95032712D01*
X140026192Y-95108647D01*
X139882480Y-95197328D01*
X139786104Y-95254058D01*
X139647423Y-95332946D01*
X139550827Y-95382662D01*
X139489843Y-95406002D01*
X139457998Y-95405765D01*
X139448822Y-95384747D01*
X139448123Y-95381320D01*
X139421895Y-95339517D01*
X139365358Y-95268432D01*
X139288930Y-95181320D01*
X139253669Y-95143903D01*
X139144322Y-95043177D01*
X139023402Y-94957084D01*
X138883723Y-94883100D01*
X138718099Y-94818699D01*
X138519343Y-94761357D01*
X138280268Y-94708550D01*
X137993690Y-94657753D01*
X137652421Y-94606443D01*
X137259627Y-94548607D01*
X136879907Y-94486499D01*
X136547879Y-94424241D01*
X136256122Y-94360037D01*
X135997212Y-94292091D01*
X135763725Y-94218606D01*
X135548239Y-94137788D01*
X135343329Y-94047840D01*
X135192735Y-93973662D01*
X135048888Y-93895603D01*
X134935131Y-93825917D01*
X134860356Y-93770083D01*
X134833456Y-93733582D01*
X134834250Y-93730893D01*
X134855919Y-93687877D01*
X134905048Y-93597798D01*
X134978729Y-93465697D01*
X135074053Y-93296619D01*
X135188111Y-93095608D01*
X135317995Y-92867705D01*
X135460796Y-92617955D01*
X135613606Y-92351401D01*
X135773516Y-92073087D01*
X135937618Y-91788055D01*
X136103002Y-91501350D01*
X136266761Y-91218013D01*
X136425985Y-90943090D01*
X136577766Y-90681622D01*
X136719196Y-90438654D01*
X136847366Y-90219229D01*
X136959367Y-90028390D01*
X137052291Y-89871181D01*
X137123229Y-89752644D01*
X137169273Y-89677824D01*
X137187513Y-89651763D01*
X137188479Y-89652503D01*
G37*
X140917453Y-96098233D02*
X140928962Y-96115403D01*
X140970088Y-96182845D01*
X141037717Y-96296554D01*
X141129259Y-96452090D01*
X141242125Y-96645017D01*
X141373726Y-96870896D01*
X141521474Y-97125289D01*
X141682780Y-97403759D01*
X141855054Y-97701868D01*
X142035709Y-98015178D01*
X142085253Y-98101196D01*
X142281158Y-98441304D01*
X142478376Y-98783662D01*
X142672878Y-99121278D01*
X142860635Y-99447160D01*
X143037620Y-99754317D01*
X143199802Y-100035756D01*
X143343154Y-100284485D01*
X143463647Y-100493513D01*
X143557252Y-100655848D01*
X143999419Y-101422495D01*
X137799510Y-101422495D01*
X137543201Y-101422472D01*
X136932358Y-101422238D01*
X136340222Y-101421757D01*
X135769677Y-101421042D01*
X135223605Y-101420105D01*
X134704889Y-101418960D01*
X134216412Y-101417617D01*
X133761057Y-101416090D01*
X133341706Y-101414391D01*
X132961244Y-101412532D01*
X132622552Y-101410526D01*
X132328514Y-101408384D01*
X132082012Y-101406119D01*
X131885930Y-101403745D01*
X131743150Y-101401271D01*
X131656555Y-101398713D01*
X131629029Y-101396080D01*
X131649467Y-101382761D01*
X131719980Y-101340320D01*
X131835801Y-101271994D01*
X131992219Y-101180495D01*
X132184524Y-101068533D01*
X132408004Y-100938819D01*
X132657950Y-100794061D01*
X132929650Y-100636972D01*
X133218394Y-100470262D01*
X133519470Y-100296640D01*
X133828169Y-100118818D01*
X134139779Y-99939505D01*
X134449590Y-99761412D01*
X134752891Y-99587250D01*
X135044971Y-99419729D01*
X135321120Y-99261559D01*
X135576626Y-99115451D01*
X135806780Y-98984115D01*
X136006870Y-98870262D01*
X136172186Y-98776602D01*
X136298017Y-98705845D01*
X136379652Y-98660701D01*
X136412380Y-98643882D01*
X136433737Y-98648051D01*
X136498074Y-98685970D01*
X136589801Y-98756218D01*
X136698838Y-98851492D01*
X136797048Y-98946866D01*
X136922136Y-99076786D01*
X137062095Y-99228464D01*
X137209751Y-99393549D01*
X137357929Y-99563689D01*
X137499455Y-99730534D01*
X137627155Y-99885731D01*
X137733853Y-100020931D01*
X137812376Y-100127781D01*
X137855549Y-100197931D01*
X137884370Y-100249163D01*
X137962645Y-100355185D01*
X138063275Y-100467978D01*
X138171911Y-100573077D01*
X138274206Y-100656014D01*
X138355813Y-100702325D01*
X138445942Y-100713029D01*
X138566211Y-100683444D01*
X138680516Y-100615606D01*
X138769224Y-100518259D01*
X138784585Y-100493003D01*
X138804142Y-100451640D01*
X138816889Y-100401861D01*
X138823643Y-100332972D01*
X138825221Y-100234277D01*
X138822440Y-100095082D01*
X138816120Y-99904690D01*
X138811591Y-99794557D01*
X138801967Y-99620387D01*
X138790609Y-99467952D01*
X138778575Y-99350651D01*
X138766924Y-99281885D01*
X138738716Y-99203329D01*
X138655091Y-99048633D01*
X138525148Y-98865336D01*
X138347299Y-98651287D01*
X138119958Y-98404333D01*
X138021302Y-98300285D01*
X137907234Y-98177546D01*
X137813087Y-98073483D01*
X137746606Y-97996686D01*
X137715536Y-97955746D01*
X137712342Y-97949245D01*
X137708512Y-97921260D01*
X137727648Y-97890231D01*
X137777588Y-97849472D01*
X137866171Y-97792296D01*
X138001234Y-97712017D01*
X138116053Y-97644997D01*
X138327342Y-97522400D01*
X138493700Y-97427171D01*
X138620714Y-97356219D01*
X138713971Y-97306452D01*
X138779059Y-97274779D01*
X138821566Y-97258107D01*
X138865552Y-97239609D01*
X138891261Y-97214768D01*
X138893666Y-97208909D01*
X138931281Y-97176321D01*
X139000028Y-97134349D01*
X139108796Y-97075774D01*
X139189106Y-97150537D01*
X139217473Y-97180826D01*
X139283469Y-97263140D01*
X139364051Y-97373044D01*
X139447723Y-97495215D01*
X139626030Y-97765131D01*
X139612036Y-99164623D01*
X139510145Y-99263620D01*
X139475907Y-99298912D01*
X139366111Y-99457473D01*
X139302019Y-99646023D01*
X139280182Y-99873714D01*
X139285605Y-99995712D01*
X139323880Y-100210909D01*
X139393640Y-100407319D01*
X139488842Y-100564917D01*
X139554948Y-100622381D01*
X139672457Y-100666028D01*
X139805480Y-100671062D01*
X139936990Y-100639809D01*
X140049961Y-100574593D01*
X140127365Y-100477739D01*
X140129898Y-100472490D01*
X140176685Y-100376604D01*
X140226237Y-100276397D01*
X140268303Y-100182327D01*
X140328646Y-100023774D01*
X140395222Y-99828298D01*
X140465717Y-99604610D01*
X140537816Y-99361422D01*
X140609208Y-99107443D01*
X140677578Y-98851385D01*
X140740612Y-98601957D01*
X140795998Y-98367872D01*
X140841422Y-98157840D01*
X140874570Y-97980571D01*
X140893129Y-97844777D01*
X140894786Y-97759167D01*
X140891053Y-97739718D01*
X140854675Y-97641265D01*
X140787172Y-97509551D01*
X140694468Y-97356484D01*
X140658887Y-97301323D01*
X140515923Y-97076398D01*
X140394398Y-96879697D01*
X140296992Y-96715818D01*
X140226387Y-96589363D01*
X140185262Y-96504933D01*
X140176297Y-96467127D01*
X140177335Y-96465794D01*
X140214448Y-96438563D01*
X140293762Y-96388791D01*
X140404411Y-96323105D01*
X140535526Y-96248130D01*
X140546611Y-96241905D01*
X140688973Y-96163578D01*
X140788121Y-96113626D01*
X140853171Y-96088470D01*
X140893243Y-96084532D01*
X140917453Y-96098233D01*
G36*
X140917453Y-96098233D02*
G01*
X140928962Y-96115403D01*
X140970088Y-96182845D01*
X141037717Y-96296554D01*
X141129259Y-96452090D01*
X141242125Y-96645017D01*
X141373726Y-96870896D01*
X141521474Y-97125289D01*
X141682780Y-97403759D01*
X141855054Y-97701868D01*
X142035709Y-98015178D01*
X142085253Y-98101196D01*
X142281158Y-98441304D01*
X142478376Y-98783662D01*
X142672878Y-99121278D01*
X142860635Y-99447160D01*
X143037620Y-99754317D01*
X143199802Y-100035756D01*
X143343154Y-100284485D01*
X143463647Y-100493513D01*
X143557252Y-100655848D01*
X143999419Y-101422495D01*
X137799510Y-101422495D01*
X137543201Y-101422472D01*
X136932358Y-101422238D01*
X136340222Y-101421757D01*
X135769677Y-101421042D01*
X135223605Y-101420105D01*
X134704889Y-101418960D01*
X134216412Y-101417617D01*
X133761057Y-101416090D01*
X133341706Y-101414391D01*
X132961244Y-101412532D01*
X132622552Y-101410526D01*
X132328514Y-101408384D01*
X132082012Y-101406119D01*
X131885930Y-101403745D01*
X131743150Y-101401271D01*
X131656555Y-101398713D01*
X131629029Y-101396080D01*
X131649467Y-101382761D01*
X131719980Y-101340320D01*
X131835801Y-101271994D01*
X131992219Y-101180495D01*
X132184524Y-101068533D01*
X132408004Y-100938819D01*
X132657950Y-100794061D01*
X132929650Y-100636972D01*
X133218394Y-100470262D01*
X133519470Y-100296640D01*
X133828169Y-100118818D01*
X134139779Y-99939505D01*
X134449590Y-99761412D01*
X134752891Y-99587250D01*
X135044971Y-99419729D01*
X135321120Y-99261559D01*
X135576626Y-99115451D01*
X135806780Y-98984115D01*
X136006870Y-98870262D01*
X136172186Y-98776602D01*
X136298017Y-98705845D01*
X136379652Y-98660701D01*
X136412380Y-98643882D01*
X136433737Y-98648051D01*
X136498074Y-98685970D01*
X136589801Y-98756218D01*
X136698838Y-98851492D01*
X136797048Y-98946866D01*
X136922136Y-99076786D01*
X137062095Y-99228464D01*
X137209751Y-99393549D01*
X137357929Y-99563689D01*
X137499455Y-99730534D01*
X137627155Y-99885731D01*
X137733853Y-100020931D01*
X137812376Y-100127781D01*
X137855549Y-100197931D01*
X137884370Y-100249163D01*
X137962645Y-100355185D01*
X138063275Y-100467978D01*
X138171911Y-100573077D01*
X138274206Y-100656014D01*
X138355813Y-100702325D01*
X138445942Y-100713029D01*
X138566211Y-100683444D01*
X138680516Y-100615606D01*
X138769224Y-100518259D01*
X138784585Y-100493003D01*
X138804142Y-100451640D01*
X138816889Y-100401861D01*
X138823643Y-100332972D01*
X138825221Y-100234277D01*
X138822440Y-100095082D01*
X138816120Y-99904690D01*
X138811591Y-99794557D01*
X138801967Y-99620387D01*
X138790609Y-99467952D01*
X138778575Y-99350651D01*
X138766924Y-99281885D01*
X138738716Y-99203329D01*
X138655091Y-99048633D01*
X138525148Y-98865336D01*
X138347299Y-98651287D01*
X138119958Y-98404333D01*
X138021302Y-98300285D01*
X137907234Y-98177546D01*
X137813087Y-98073483D01*
X137746606Y-97996686D01*
X137715536Y-97955746D01*
X137712342Y-97949245D01*
X137708512Y-97921260D01*
X137727648Y-97890231D01*
X137777588Y-97849472D01*
X137866171Y-97792296D01*
X138001234Y-97712017D01*
X138116053Y-97644997D01*
X138327342Y-97522400D01*
X138493700Y-97427171D01*
X138620714Y-97356219D01*
X138713971Y-97306452D01*
X138779059Y-97274779D01*
X138821566Y-97258107D01*
X138865552Y-97239609D01*
X138891261Y-97214768D01*
X138893666Y-97208909D01*
X138931281Y-97176321D01*
X139000028Y-97134349D01*
X139108796Y-97075774D01*
X139189106Y-97150537D01*
X139217473Y-97180826D01*
X139283469Y-97263140D01*
X139364051Y-97373044D01*
X139447723Y-97495215D01*
X139626030Y-97765131D01*
X139612036Y-99164623D01*
X139510145Y-99263620D01*
X139475907Y-99298912D01*
X139366111Y-99457473D01*
X139302019Y-99646023D01*
X139280182Y-99873714D01*
X139285605Y-99995712D01*
X139323880Y-100210909D01*
X139393640Y-100407319D01*
X139488842Y-100564917D01*
X139554948Y-100622381D01*
X139672457Y-100666028D01*
X139805480Y-100671062D01*
X139936990Y-100639809D01*
X140049961Y-100574593D01*
X140127365Y-100477739D01*
X140129898Y-100472490D01*
X140176685Y-100376604D01*
X140226237Y-100276397D01*
X140268303Y-100182327D01*
X140328646Y-100023774D01*
X140395222Y-99828298D01*
X140465717Y-99604610D01*
X140537816Y-99361422D01*
X140609208Y-99107443D01*
X140677578Y-98851385D01*
X140740612Y-98601957D01*
X140795998Y-98367872D01*
X140841422Y-98157840D01*
X140874570Y-97980571D01*
X140893129Y-97844777D01*
X140894786Y-97759167D01*
X140891053Y-97739718D01*
X140854675Y-97641265D01*
X140787172Y-97509551D01*
X140694468Y-97356484D01*
X140658887Y-97301323D01*
X140515923Y-97076398D01*
X140394398Y-96879697D01*
X140296992Y-96715818D01*
X140226387Y-96589363D01*
X140185262Y-96504933D01*
X140176297Y-96467127D01*
X140177335Y-96465794D01*
X140214448Y-96438563D01*
X140293762Y-96388791D01*
X140404411Y-96323105D01*
X140535526Y-96248130D01*
X140546611Y-96241905D01*
X140688973Y-96163578D01*
X140788121Y-96113626D01*
X140853171Y-96088470D01*
X140893243Y-96084532D01*
X140917453Y-96098233D01*
G37*
%TD*%
M02*
