%TF.GenerationSoftware,KiCad,Pcbnew,9.0.7*%
%TF.CreationDate,2026-03-11T04:27:33+08:00*%
%TF.ProjectId,CawBMS,43617742-4d53-42e6-9b69-6361645f7063,rev?*%
%TF.SameCoordinates,Original*%
%TF.FileFunction,Copper,L4,Bot*%
%TF.FilePolarity,Positive*%
%FSLAX46Y46*%
G04 Gerber Fmt 4.6, Leading zero omitted, Abs format (unit mm)*
G04 Created by KiCad (PCBNEW 9.0.7) date 2026-03-11 04:27:33*
%MOMM*%
%LPD*%
G01*
G04 APERTURE LIST*
G04 Aperture macros list*
%AMRoundRect*
0 Rectangle with rounded corners*
0 $1 Rounding radius*
0 $2 $3 $4 $5 $6 $7 $8 $9 X,Y pos of 4 corners*
0 Add a 4 corners polygon primitive as box body*
4,1,4,$2,$3,$4,$5,$6,$7,$8,$9,$2,$3,0*
0 Add four circle primitives for the rounded corners*
1,1,$1+$1,$2,$3*
1,1,$1+$1,$4,$5*
1,1,$1+$1,$6,$7*
1,1,$1+$1,$8,$9*
0 Add four rect primitives between the rounded corners*
20,1,$1+$1,$2,$3,$4,$5,0*
20,1,$1+$1,$4,$5,$6,$7,0*
20,1,$1+$1,$6,$7,$8,$9,0*
20,1,$1+$1,$8,$9,$2,$3,0*%
G04 Aperture macros list end*
%TA.AperFunction,ComponentPad*%
%ADD10C,0.700000*%
%TD*%
%TA.AperFunction,ComponentPad*%
%ADD11C,4.400000*%
%TD*%
%TA.AperFunction,ComponentPad*%
%ADD12RoundRect,1.500000X-1.000000X-1.000000X1.000000X-1.000000X1.000000X1.000000X-1.000000X1.000000X0*%
%TD*%
%TA.AperFunction,ViaPad*%
%ADD13C,0.457200*%
%TD*%
%TA.AperFunction,ViaPad*%
%ADD14C,0.609600*%
%TD*%
%TA.AperFunction,ViaPad*%
%ADD15C,1.016000*%
%TD*%
%TA.AperFunction,Conductor*%
%ADD16C,0.508000*%
%TD*%
%TA.AperFunction,Conductor*%
%ADD17C,0.152400*%
%TD*%
%TA.AperFunction,Conductor*%
%ADD18C,0.254000*%
%TD*%
G04 APERTURE END LIST*
D10*
%TO.P,H4,1,1*%
%TO.N,unconnected-(H4-Pad1)*%
X160350000Y-113000000D03*
%TO.N,unconnected-(H4-Pad1)_1*%
X160833274Y-111833274D03*
%TO.N,unconnected-(H4-Pad1)_2*%
X160833274Y-114166726D03*
%TO.N,unconnected-(H4-Pad1)_3*%
X162000000Y-111350000D03*
D11*
%TO.N,unconnected-(H4-Pad1)_4*%
X162000000Y-113000000D03*
D10*
%TO.N,unconnected-(H4-Pad1)_5*%
X162000000Y-114650000D03*
%TO.N,unconnected-(H4-Pad1)_6*%
X163166726Y-111833274D03*
%TO.N,unconnected-(H4-Pad1)_7*%
X163166726Y-114166726D03*
%TO.N,unconnected-(H4-Pad1)_8*%
X163650000Y-113000000D03*
%TD*%
%TO.P,H2,1,1*%
%TO.N,unconnected-(H2-Pad1)*%
X160350000Y-78000000D03*
%TO.N,unconnected-(H2-Pad1)_1*%
X160833274Y-76833274D03*
%TO.N,unconnected-(H2-Pad1)_2*%
X160833274Y-79166726D03*
%TO.N,unconnected-(H2-Pad1)_3*%
X162000000Y-76350000D03*
D11*
%TO.N,unconnected-(H2-Pad1)_4*%
X162000000Y-78000000D03*
D10*
%TO.N,unconnected-(H2-Pad1)_5*%
X162000000Y-79650000D03*
%TO.N,unconnected-(H2-Pad1)_6*%
X163166726Y-76833274D03*
%TO.N,unconnected-(H2-Pad1)_7*%
X163166726Y-79166726D03*
%TO.N,unconnected-(H2-Pad1)_8*%
X163650000Y-78000000D03*
%TD*%
%TO.P,H1,1,1*%
%TO.N,unconnected-(H1-Pad1)*%
X111350000Y-78000000D03*
%TO.N,unconnected-(H1-Pad1)_1*%
X111833274Y-76833274D03*
%TO.N,unconnected-(H1-Pad1)_2*%
X111833274Y-79166726D03*
%TO.N,unconnected-(H1-Pad1)_3*%
X113000000Y-76350000D03*
D11*
%TO.N,unconnected-(H1-Pad1)_4*%
X113000000Y-78000000D03*
D10*
%TO.N,unconnected-(H1-Pad1)_5*%
X113000000Y-79650000D03*
%TO.N,unconnected-(H1-Pad1)_6*%
X114166726Y-76833274D03*
%TO.N,unconnected-(H1-Pad1)_7*%
X114166726Y-79166726D03*
%TO.N,unconnected-(H1-Pad1)_8*%
X114650000Y-78000000D03*
%TD*%
D12*
%TO.P,H5,1,1*%
%TO.N,PACK+*%
X161500000Y-126500000D03*
%TD*%
%TO.P,H6,1,1*%
%TO.N,PACK-*%
X161500000Y-119173000D03*
%TD*%
%TO.P,H8,1,1*%
%TO.N,-BATT*%
X113030000Y-119173000D03*
%TD*%
%TO.P,H7,1,1*%
%TO.N,PACK+*%
X113030000Y-126492000D03*
%TD*%
D10*
%TO.P,H3,1,1*%
%TO.N,unconnected-(H3-Pad1)*%
X111350000Y-113000000D03*
%TO.N,unconnected-(H3-Pad1)_1*%
X111833274Y-111833274D03*
%TO.N,unconnected-(H3-Pad1)_2*%
X111833274Y-114166726D03*
%TO.N,unconnected-(H3-Pad1)_3*%
X113000000Y-111350000D03*
D11*
%TO.N,unconnected-(H3-Pad1)_4*%
X113000000Y-113000000D03*
D10*
%TO.N,unconnected-(H3-Pad1)_5*%
X113000000Y-114650000D03*
%TO.N,unconnected-(H3-Pad1)_6*%
X114166726Y-111833274D03*
%TO.N,unconnected-(H3-Pad1)_7*%
X114166726Y-114166726D03*
%TO.N,unconnected-(H3-Pad1)_8*%
X114650000Y-113000000D03*
%TD*%
D13*
%TO.N,+3.3V*%
X122270000Y-92910000D03*
X129413000Y-82981800D03*
X136230000Y-98560000D03*
X123060000Y-95130000D03*
X143891000Y-103505000D03*
X141190000Y-81190000D03*
X131810000Y-99440000D03*
X138320000Y-94160000D03*
X129286000Y-84963000D03*
X144526000Y-103505000D03*
X141820000Y-81190000D03*
X138110000Y-85110000D03*
%TO.N,GND*%
X144018000Y-97155000D03*
X151257000Y-105156000D03*
X113690000Y-82740000D03*
X144470000Y-86200000D03*
D14*
X141478000Y-115509000D03*
D13*
X122280000Y-85540000D03*
D15*
X156718000Y-112141000D03*
D13*
X140470000Y-98280000D03*
X140700000Y-110500000D03*
X123100000Y-81672000D03*
X149352000Y-103378000D03*
X123800000Y-91020000D03*
X146177000Y-101473000D03*
X123730000Y-78680000D03*
D15*
X159385000Y-109474000D03*
D13*
X145340000Y-105290000D03*
X123020000Y-93982800D03*
X129184400Y-83820000D03*
X150304500Y-103378000D03*
X132080000Y-84988400D03*
X146070000Y-114430000D03*
X144018000Y-97790000D03*
D15*
X156718000Y-109728000D03*
X118210000Y-115440000D03*
D13*
X113520000Y-89603185D03*
X122170000Y-89280000D03*
X130270000Y-78680000D03*
X151257000Y-103378000D03*
X142120000Y-96930000D03*
D15*
X155194000Y-82296000D03*
D13*
X149597000Y-96478500D03*
X142470000Y-115190000D03*
X131318000Y-97282000D03*
X152209500Y-105156000D03*
X137170000Y-110510000D03*
X127762000Y-94742000D03*
X140540000Y-89560000D03*
X149352000Y-105156000D03*
X118491000Y-84820000D03*
D15*
X155194000Y-83439000D03*
D13*
X143195315Y-105172533D03*
X126365000Y-83188000D03*
X151890000Y-92100000D03*
X128016000Y-110617000D03*
X153162000Y-105156000D03*
X128270000Y-84963000D03*
X137414000Y-81026000D03*
X139240000Y-85130000D03*
X153162000Y-103378000D03*
D14*
X150622000Y-108331000D03*
D13*
X129463800Y-81864200D03*
X145415000Y-103505000D03*
X129921000Y-97282000D03*
D15*
X155194000Y-84582000D03*
D13*
X151880000Y-94980000D03*
D15*
X156718000Y-114808000D03*
D13*
X140820000Y-78560000D03*
X127747927Y-95326033D03*
X128778000Y-94742000D03*
X150304500Y-105156000D03*
X152209500Y-103378000D03*
X113702629Y-95466371D03*
X140810000Y-93830000D03*
X138300000Y-95320000D03*
X145881688Y-100669688D03*
%TO.N,+5V*%
X156972000Y-86360000D03*
X157607000Y-87630000D03*
X153162000Y-86487000D03*
X153162000Y-87122000D03*
X157607000Y-86995000D03*
X156972000Y-91059000D03*
X152178000Y-81534000D03*
X156972000Y-86995000D03*
X157607000Y-91059000D03*
X157607000Y-86360000D03*
X152146000Y-87122000D03*
X153194000Y-80301000D03*
X152178000Y-80936000D03*
X153194000Y-80936000D03*
X152146000Y-87720000D03*
X156972000Y-91694000D03*
X153162000Y-81534000D03*
X152178000Y-80301000D03*
X152146000Y-86487000D03*
X145600000Y-86220000D03*
X153130000Y-87720000D03*
X157607000Y-91694000D03*
X156972000Y-87630000D03*
%TO.N,/RESET*%
X129200000Y-89947106D03*
X122330000Y-90440000D03*
%TO.N,/BQ76920/VC1*%
X128790000Y-105030000D03*
X118250000Y-77980000D03*
%TO.N,/BQ76920/BAT*%
X113665000Y-99695000D03*
X114300000Y-99695000D03*
X113665000Y-100330000D03*
X151003000Y-98806000D03*
X150368000Y-98806000D03*
X151638000Y-98806000D03*
%TO.N,/ALERT*%
X133610000Y-95300000D03*
X134710000Y-106920000D03*
D14*
%TO.N,PACK-*%
X150749000Y-122809000D03*
D15*
X137541000Y-116459000D03*
D14*
X146050000Y-122809000D03*
X149479000Y-122174000D03*
X147193000Y-122174000D03*
X152019000Y-122809000D03*
D15*
X156972000Y-119380000D03*
X156972000Y-121412000D03*
D13*
X150622000Y-115189000D03*
D14*
X143510000Y-122809000D03*
X149479000Y-122809000D03*
X144780000Y-122809000D03*
X147193000Y-122809000D03*
X146050000Y-122174000D03*
X143510000Y-122174000D03*
X150749000Y-122174000D03*
X144780000Y-122174000D03*
D15*
X141223500Y-120903500D03*
D14*
X152019000Y-122174000D03*
D15*
%TO.N,PACK+*%
X118110000Y-126492000D03*
X156972000Y-125391000D03*
X156972000Y-126492000D03*
X118110000Y-124841000D03*
%TO.N,-BATT*%
X121666000Y-119634000D03*
X121666000Y-120904000D03*
X121666000Y-122428000D03*
X118110000Y-119634000D03*
X118110000Y-121158000D03*
X121666000Y-118364000D03*
D13*
%TO.N,/USART1_TX*%
X133417364Y-84278172D03*
X142830000Y-81250000D03*
%TO.N,/USART1_RX*%
X133354000Y-84896040D03*
X143830000Y-81250000D03*
%TO.N,/EN_PRE_CHARGE*%
X133850000Y-94090000D03*
X132750000Y-115510000D03*
%TO.N,Net-(U8-BOOT)*%
X162179000Y-97663000D03*
X154940000Y-101854000D03*
X154940000Y-102489000D03*
X161544000Y-97028000D03*
X161544000Y-97663000D03*
X162179000Y-100457000D03*
X155575000Y-101854000D03*
X155575000Y-102489000D03*
X162179000Y-97028000D03*
X161544000Y-100457000D03*
X162179000Y-101092000D03*
X161544000Y-101092000D03*
%TO.N,/KEY_A*%
X138020000Y-89940000D03*
X124750000Y-78670000D03*
%TO.N,/CAN_STB*%
X138397076Y-89461012D03*
X146210000Y-88270000D03*
%TO.N,/I2C2_SCL*%
X133830000Y-100160000D03*
X140470000Y-104376600D03*
%TO.N,/I2C2_SDA*%
X135050000Y-100250000D03*
X140470000Y-105050000D03*
D15*
%TO.N,Net-(Q10-D-Pad5)*%
X142214600Y-124587000D03*
X144246600Y-124587000D03*
X136118600Y-124587000D03*
X148310600Y-124587000D03*
X133324600Y-124587000D03*
X152374600Y-124587000D03*
X139166600Y-124587000D03*
X145262600Y-124587000D03*
X149326600Y-124587000D03*
X146278600Y-124587000D03*
X151358600Y-124587000D03*
X134340600Y-124587000D03*
X140182600Y-124587000D03*
X137134600Y-124587000D03*
X130276600Y-124587000D03*
X132308600Y-124587000D03*
X138150600Y-124587000D03*
X150342600Y-124587000D03*
X131292600Y-124587000D03*
X143230600Y-124587000D03*
D13*
%TO.N,Net-(R31-Pad1)*%
X119250000Y-78440000D03*
X137450000Y-98220000D03*
%TO.N,/5V_EN*%
X149320500Y-108299500D03*
X138020000Y-92490000D03*
D14*
%TO.N,Net-(C26-Pad1)*%
X139954000Y-122809000D03*
X137414000Y-122174000D03*
D15*
X127762000Y-119634000D03*
D14*
X131445000Y-122809000D03*
X132715000Y-122174000D03*
X133985000Y-122174000D03*
D15*
X127762000Y-122428000D03*
D14*
X131445000Y-122174000D03*
X137414000Y-122809000D03*
D15*
X127762000Y-120904000D03*
D14*
X132715000Y-122809000D03*
X138684000Y-122174000D03*
X139954000Y-122174000D03*
X133985000Y-122809000D03*
D15*
X127762000Y-118364000D03*
D14*
X138684000Y-122809000D03*
D13*
%TO.N,/ADC1_IN8*%
X130620000Y-95350000D03*
X147280000Y-114510000D03*
%TO.N,/ADC1_IN5*%
X117870000Y-88640000D03*
X127762000Y-91990000D03*
%TO.N,/ADC1_IN6*%
X128820000Y-91923300D03*
X117970000Y-94440000D03*
%TO.N,+3V3*%
X148209000Y-94361000D03*
X117930000Y-87410000D03*
X129250000Y-78680000D03*
X146939000Y-94361000D03*
X147574000Y-93599000D03*
X146939000Y-93599000D03*
X117850000Y-93260000D03*
X148209000Y-93599000D03*
X154820000Y-78460000D03*
X147574000Y-94361000D03*
%TD*%
D16*
%TO.N,+5V*%
X145600000Y-86220000D02*
X145610000Y-86220000D01*
X152146000Y-87720000D02*
X153130000Y-87720000D01*
X147110000Y-87720000D02*
X152146000Y-87720000D01*
X145610000Y-86220000D02*
X147110000Y-87720000D01*
D17*
%TO.N,/RESET*%
X122822894Y-89947106D02*
X129200000Y-89947106D01*
X122330000Y-90440000D02*
X122822894Y-89947106D01*
D18*
%TO.N,/BQ76920/VC1*%
X123535000Y-88265000D02*
X118250000Y-82980000D01*
X128490000Y-95792000D02*
X130175000Y-94107000D01*
X130175000Y-88615000D02*
X129825000Y-88265000D01*
X128790000Y-105030000D02*
X128490000Y-104730000D01*
X118250000Y-82980000D02*
X118250000Y-77980000D01*
X130175000Y-94107000D02*
X130175000Y-88615000D01*
X129825000Y-88265000D02*
X123535000Y-88265000D01*
X128490000Y-104730000D02*
X128490000Y-95792000D01*
D17*
%TO.N,/ALERT*%
X134202466Y-106920000D02*
X134710000Y-106920000D01*
X133610000Y-98380000D02*
X132770000Y-99220000D01*
X132770000Y-99220000D02*
X132770000Y-105487534D01*
X132770000Y-105487534D02*
X134202466Y-106920000D01*
X133610000Y-95300000D02*
X133610000Y-98380000D01*
D18*
%TO.N,PACK-*%
X150622000Y-115697000D02*
X151035000Y-116110000D01*
X150622000Y-115189000D02*
X150622000Y-115697000D01*
D16*
X142233500Y-120903500D02*
X143504000Y-122174000D01*
X137541000Y-116459000D02*
X137922000Y-116459000D01*
D18*
X156115000Y-116110000D02*
X156972000Y-116967000D01*
D16*
X141478000Y-120649000D02*
X141223500Y-120903500D01*
X137922000Y-116459000D02*
X138049000Y-116332000D01*
D18*
X151035000Y-116110000D02*
X156115000Y-116110000D01*
D16*
X138049000Y-116332000D02*
X141224000Y-116332000D01*
X141224000Y-116332000D02*
X141478000Y-116586000D01*
D18*
X156972000Y-116967000D02*
X156972000Y-119380000D01*
D16*
X141223500Y-120903500D02*
X142233500Y-120903500D01*
X143504000Y-122174000D02*
X143510000Y-122174000D01*
X141478000Y-116586000D02*
X141478000Y-120649000D01*
D17*
%TO.N,/USART1_TX*%
X133419192Y-84280000D02*
X133830000Y-84280000D01*
X141452800Y-83007200D02*
X142830000Y-81630000D01*
X135102800Y-83007200D02*
X141452800Y-83007200D01*
X142830000Y-81630000D02*
X142830000Y-81250000D01*
X133830000Y-84280000D02*
X135102800Y-83007200D01*
X133417364Y-84278172D02*
X133419192Y-84280000D01*
%TO.N,/USART1_RX*%
X143830000Y-81823600D02*
X143830000Y-81250000D01*
X133354000Y-84896040D02*
X133357960Y-84900000D01*
X134200400Y-84900000D02*
X134899400Y-84201000D01*
X141452600Y-84201000D02*
X143830000Y-81823600D01*
X133357960Y-84900000D02*
X134200400Y-84900000D01*
X134899400Y-84201000D02*
X141452600Y-84201000D01*
%TO.N,/EN_PRE_CHARGE*%
X129360000Y-112120000D02*
X132750000Y-115510000D01*
X131208000Y-94090000D02*
X129360000Y-95938000D01*
X129360000Y-95938000D02*
X129360000Y-112120000D01*
X133850000Y-94090000D02*
X131208000Y-94090000D01*
%TO.N,/KEY_A*%
X124750000Y-78670000D02*
X128603600Y-82523600D01*
X137749967Y-89940000D02*
X138020000Y-89940000D01*
X130333567Y-82523600D02*
X137749967Y-89940000D01*
X128603600Y-82523600D02*
X130333567Y-82523600D01*
%TO.N,/CAN_STB*%
X146205000Y-88265000D02*
X146210000Y-88270000D01*
X138397076Y-89461012D02*
X139593088Y-88265000D01*
X139593088Y-88265000D02*
X146205000Y-88265000D01*
%TO.N,/I2C2_SCL*%
X133830000Y-100160000D02*
X133977200Y-100160000D01*
X135712200Y-99618800D02*
X140470000Y-104376600D01*
X133977200Y-100160000D02*
X134518400Y-99618800D01*
X134518400Y-99618800D02*
X135712200Y-99618800D01*
%TO.N,/I2C2_SDA*%
X135060000Y-100250000D02*
X139860000Y-105050000D01*
X135050000Y-100250000D02*
X135060000Y-100250000D01*
X139860000Y-105050000D02*
X140470000Y-105050000D01*
D18*
%TO.N,Net-(R31-Pad1)*%
X119250000Y-81010000D02*
X125108000Y-86868000D01*
X130048000Y-86868000D02*
X135860000Y-92680000D01*
X137450000Y-97040000D02*
X137450000Y-98220000D01*
X125108000Y-86868000D02*
X130048000Y-86868000D01*
X135860000Y-95450000D02*
X137450000Y-97040000D01*
X119250000Y-78440000D02*
X119250000Y-81010000D01*
X135860000Y-92680000D02*
X135860000Y-95450000D01*
D17*
%TO.N,/5V_EN*%
X145359200Y-106249200D02*
X138785000Y-99675000D01*
X138020000Y-92490000D02*
X138785000Y-93255000D01*
X138785000Y-99675000D02*
X138785000Y-93255000D01*
X147270200Y-106249200D02*
X145359200Y-106249200D01*
X149320500Y-108299500D02*
X147270200Y-106249200D01*
%TO.N,/ADC1_IN8*%
X130620000Y-107470000D02*
X130620000Y-95350000D01*
X147280000Y-114510000D02*
X147280000Y-114100000D01*
X147280000Y-114100000D02*
X146990000Y-113810000D01*
X146990000Y-113810000D02*
X136960000Y-113810000D01*
X136960000Y-113810000D02*
X130620000Y-107470000D01*
%TO.N,/ADC1_IN5*%
X127762000Y-91990000D02*
X127750000Y-91990000D01*
X127750000Y-91990000D02*
X126268000Y-93472000D01*
X117983000Y-88753000D02*
X117870000Y-88640000D01*
X117983000Y-90043000D02*
X117983000Y-88753000D01*
X121412000Y-93472000D02*
X117983000Y-90043000D01*
X126268000Y-93472000D02*
X121412000Y-93472000D01*
%TO.N,/ADC1_IN6*%
X128820000Y-91923300D02*
X128816700Y-91923300D01*
X126250000Y-94490000D02*
X118020000Y-94490000D01*
X128816700Y-91923300D02*
X126250000Y-94490000D01*
X118020000Y-94490000D02*
X117970000Y-94440000D01*
%TD*%
%TA.AperFunction,Conductor*%
%TO.N,Net-(C26-Pad1)*%
G36*
X136736433Y-116520002D02*
G01*
X136782926Y-116573658D01*
X136791890Y-116601415D01*
X136807803Y-116681413D01*
X136865282Y-116820179D01*
X136948728Y-116945065D01*
X137054935Y-117051272D01*
X137179821Y-117134718D01*
X137318587Y-117192197D01*
X137465900Y-117221500D01*
X137616100Y-117221500D01*
X137763413Y-117192197D01*
X137902179Y-117134718D01*
X137912161Y-117128047D01*
X137933893Y-117116425D01*
X138576236Y-116850106D01*
X138624493Y-116840500D01*
X140843500Y-116840500D01*
X140911621Y-116860502D01*
X140958114Y-116914158D01*
X140969500Y-116966500D01*
X140969500Y-119840867D01*
X140949574Y-119908869D01*
X140588837Y-120471565D01*
X140588833Y-120471573D01*
X140584580Y-120482257D01*
X140572285Y-120505647D01*
X140547783Y-120542318D01*
X140490304Y-120681084D01*
X140490303Y-120681085D01*
X140461000Y-120828396D01*
X140461000Y-120978603D01*
X140490303Y-121125913D01*
X140547782Y-121264679D01*
X140631228Y-121389565D01*
X140737435Y-121495772D01*
X140862321Y-121579218D01*
X140922219Y-121604028D01*
X140977498Y-121648574D01*
X140999920Y-121715937D01*
X141000000Y-121720436D01*
X141000000Y-123374000D01*
X140979998Y-123442121D01*
X140926342Y-123488614D01*
X140874000Y-123500000D01*
X125364000Y-123500000D01*
X125295879Y-123479998D01*
X125249386Y-123426342D01*
X125238000Y-123374000D01*
X125238000Y-116626000D01*
X125258002Y-116557879D01*
X125311658Y-116511386D01*
X125364000Y-116500000D01*
X136668312Y-116500000D01*
X136736433Y-116520002D01*
G37*
%TD.AperFunction*%
%TD*%
%TA.AperFunction,Conductor*%
%TO.N,Net-(U8-BOOT)*%
G36*
X162629121Y-96667002D02*
G01*
X162675614Y-96720658D01*
X162687000Y-96773000D01*
X162687000Y-101728000D01*
X162666998Y-101796121D01*
X162613342Y-101842614D01*
X162561000Y-101854000D01*
X156210000Y-101854000D01*
X156210000Y-104268000D01*
X156189998Y-104336121D01*
X156136342Y-104382614D01*
X156084000Y-104394000D01*
X154558000Y-104394000D01*
X154489879Y-104373998D01*
X154443386Y-104320342D01*
X154432000Y-104268000D01*
X154432000Y-102616000D01*
X152653000Y-102616000D01*
X152584879Y-102595998D01*
X152538386Y-102542342D01*
X152527000Y-102490000D01*
X152527000Y-99440000D01*
X152547002Y-99371879D01*
X152600658Y-99325386D01*
X152653000Y-99314000D01*
X157734000Y-99314000D01*
X157734000Y-96773000D01*
X157754002Y-96704879D01*
X157807658Y-96658386D01*
X157860000Y-96647000D01*
X162561000Y-96647000D01*
X162629121Y-96667002D01*
G37*
%TD.AperFunction*%
%TD*%
%TA.AperFunction,Conductor*%
%TO.N,+5V*%
G36*
X161105121Y-85618002D02*
G01*
X161151614Y-85671658D01*
X161163000Y-85724000D01*
X161163000Y-92203000D01*
X161142998Y-92271121D01*
X161089342Y-92317614D01*
X161037000Y-92329000D01*
X156717000Y-92329000D01*
X156648879Y-92308998D01*
X156602386Y-92255342D01*
X156591000Y-92203000D01*
X156591000Y-85724000D01*
X156611002Y-85655879D01*
X156664658Y-85609386D01*
X156717000Y-85598000D01*
X161037000Y-85598000D01*
X161105121Y-85618002D01*
G37*
%TD.AperFunction*%
%TD*%
%TA.AperFunction,Conductor*%
%TO.N,+5V*%
G36*
X154120121Y-78887002D02*
G01*
X154166614Y-78940658D01*
X154178000Y-78993000D01*
X154178000Y-88520000D01*
X154157998Y-88588121D01*
X154104342Y-88634614D01*
X154052000Y-88646000D01*
X151510000Y-88646000D01*
X151441879Y-88625998D01*
X151395386Y-88572342D01*
X151384000Y-88520000D01*
X151384000Y-78993000D01*
X151404002Y-78924879D01*
X151457658Y-78878386D01*
X151510000Y-78867000D01*
X154052000Y-78867000D01*
X154120121Y-78887002D01*
G37*
%TD.AperFunction*%
%TD*%
%TA.AperFunction,Conductor*%
%TO.N,PACK-*%
G36*
X164687621Y-116520002D02*
G01*
X164734114Y-116573658D01*
X164745500Y-116626000D01*
X164745500Y-123382000D01*
X164725498Y-123450121D01*
X164671842Y-123496614D01*
X164619500Y-123508000D01*
X142126000Y-123508000D01*
X142057879Y-123487998D01*
X142011386Y-123434342D01*
X142000000Y-123382000D01*
X142000000Y-116626000D01*
X142020002Y-116557879D01*
X142073658Y-116511386D01*
X142126000Y-116500000D01*
X164619500Y-116500000D01*
X164687621Y-116520002D01*
G37*
%TD.AperFunction*%
%TD*%
%TA.AperFunction,Conductor*%
%TO.N,-BATT*%
G36*
X124442121Y-116520002D02*
G01*
X124488614Y-116573658D01*
X124500000Y-116626000D01*
X124500000Y-123255000D01*
X124479998Y-123323121D01*
X124426342Y-123369614D01*
X124374000Y-123381000D01*
X110380500Y-123381000D01*
X110312379Y-123360998D01*
X110265886Y-123307342D01*
X110254500Y-123255000D01*
X110254500Y-116626000D01*
X110274502Y-116557879D01*
X110328158Y-116511386D01*
X110380500Y-116500000D01*
X124374000Y-116500000D01*
X124442121Y-116520002D01*
G37*
%TD.AperFunction*%
%TD*%
%TA.AperFunction,Conductor*%
%TO.N,PACK+*%
G36*
X129584162Y-124020002D02*
G01*
X129630655Y-124073658D01*
X129640759Y-124143932D01*
X129620807Y-124196001D01*
X129600882Y-124225820D01*
X129543404Y-124364584D01*
X129543403Y-124364585D01*
X129514100Y-124511896D01*
X129514100Y-124662103D01*
X129543403Y-124809413D01*
X129600882Y-124948179D01*
X129684328Y-125073065D01*
X129790535Y-125179272D01*
X129915421Y-125262718D01*
X130054187Y-125320197D01*
X130201500Y-125349500D01*
X130351700Y-125349500D01*
X130499013Y-125320197D01*
X130637779Y-125262718D01*
X130714598Y-125211388D01*
X130782351Y-125190174D01*
X130850818Y-125208957D01*
X130854590Y-125211381D01*
X130931421Y-125262718D01*
X131070187Y-125320197D01*
X131217500Y-125349500D01*
X131367700Y-125349500D01*
X131515013Y-125320197D01*
X131653779Y-125262718D01*
X131730598Y-125211388D01*
X131798351Y-125190174D01*
X131866818Y-125208957D01*
X131870590Y-125211381D01*
X131947421Y-125262718D01*
X132086187Y-125320197D01*
X132233500Y-125349500D01*
X132383700Y-125349500D01*
X132531013Y-125320197D01*
X132669779Y-125262718D01*
X132746598Y-125211388D01*
X132814351Y-125190174D01*
X132882818Y-125208957D01*
X132886590Y-125211381D01*
X132963421Y-125262718D01*
X133102187Y-125320197D01*
X133249500Y-125349500D01*
X133399700Y-125349500D01*
X133547013Y-125320197D01*
X133685779Y-125262718D01*
X133762598Y-125211388D01*
X133830351Y-125190174D01*
X133898818Y-125208957D01*
X133902590Y-125211381D01*
X133979421Y-125262718D01*
X134118187Y-125320197D01*
X134265500Y-125349500D01*
X134415700Y-125349500D01*
X134563013Y-125320197D01*
X134701779Y-125262718D01*
X134826665Y-125179272D01*
X134932872Y-125073065D01*
X135016318Y-124948179D01*
X135073797Y-124809413D01*
X135103100Y-124662100D01*
X135103100Y-124511900D01*
X135073797Y-124364587D01*
X135016318Y-124225821D01*
X134996393Y-124196001D01*
X134975179Y-124128248D01*
X134993963Y-124059781D01*
X135046781Y-124012338D01*
X135101159Y-124000000D01*
X135358041Y-124000000D01*
X135426162Y-124020002D01*
X135472655Y-124073658D01*
X135482759Y-124143932D01*
X135462807Y-124196001D01*
X135442882Y-124225820D01*
X135385404Y-124364584D01*
X135385403Y-124364585D01*
X135356100Y-124511896D01*
X135356100Y-124662103D01*
X135385403Y-124809413D01*
X135442882Y-124948179D01*
X135526328Y-125073065D01*
X135632535Y-125179272D01*
X135757421Y-125262718D01*
X135896187Y-125320197D01*
X136043500Y-125349500D01*
X136193700Y-125349500D01*
X136341013Y-125320197D01*
X136479779Y-125262718D01*
X136556598Y-125211388D01*
X136624351Y-125190174D01*
X136692818Y-125208957D01*
X136696590Y-125211381D01*
X136773421Y-125262718D01*
X136912187Y-125320197D01*
X137059500Y-125349500D01*
X137209700Y-125349500D01*
X137357013Y-125320197D01*
X137495779Y-125262718D01*
X137572598Y-125211388D01*
X137640351Y-125190174D01*
X137708818Y-125208957D01*
X137712590Y-125211381D01*
X137789421Y-125262718D01*
X137928187Y-125320197D01*
X138075500Y-125349500D01*
X138225700Y-125349500D01*
X138373013Y-125320197D01*
X138511779Y-125262718D01*
X138588598Y-125211388D01*
X138656351Y-125190174D01*
X138724818Y-125208957D01*
X138728590Y-125211381D01*
X138805421Y-125262718D01*
X138944187Y-125320197D01*
X139091500Y-125349500D01*
X139241700Y-125349500D01*
X139389013Y-125320197D01*
X139527779Y-125262718D01*
X139604598Y-125211388D01*
X139672351Y-125190174D01*
X139740818Y-125208957D01*
X139744590Y-125211381D01*
X139821421Y-125262718D01*
X139960187Y-125320197D01*
X140107500Y-125349500D01*
X140257700Y-125349500D01*
X140405013Y-125320197D01*
X140543779Y-125262718D01*
X140668665Y-125179272D01*
X140774872Y-125073065D01*
X140858318Y-124948179D01*
X140915797Y-124809413D01*
X140945100Y-124662100D01*
X140945100Y-124511900D01*
X140915797Y-124364587D01*
X140858318Y-124225821D01*
X140838393Y-124196001D01*
X140817179Y-124128248D01*
X140835963Y-124059781D01*
X140888781Y-124012338D01*
X140943159Y-124000000D01*
X141454041Y-124000000D01*
X141522162Y-124020002D01*
X141568655Y-124073658D01*
X141578759Y-124143932D01*
X141558807Y-124196001D01*
X141538882Y-124225820D01*
X141481404Y-124364584D01*
X141481403Y-124364585D01*
X141452100Y-124511896D01*
X141452100Y-124662103D01*
X141481403Y-124809413D01*
X141538882Y-124948179D01*
X141622328Y-125073065D01*
X141728535Y-125179272D01*
X141853421Y-125262718D01*
X141992187Y-125320197D01*
X142139500Y-125349500D01*
X142289700Y-125349500D01*
X142437013Y-125320197D01*
X142575779Y-125262718D01*
X142652598Y-125211388D01*
X142720351Y-125190174D01*
X142788818Y-125208957D01*
X142792590Y-125211381D01*
X142869421Y-125262718D01*
X143008187Y-125320197D01*
X143155500Y-125349500D01*
X143305700Y-125349500D01*
X143453013Y-125320197D01*
X143591779Y-125262718D01*
X143668598Y-125211388D01*
X143736351Y-125190174D01*
X143804818Y-125208957D01*
X143808590Y-125211381D01*
X143885421Y-125262718D01*
X144024187Y-125320197D01*
X144171500Y-125349500D01*
X144321700Y-125349500D01*
X144469013Y-125320197D01*
X144607779Y-125262718D01*
X144684598Y-125211388D01*
X144752351Y-125190174D01*
X144820818Y-125208957D01*
X144824590Y-125211381D01*
X144901421Y-125262718D01*
X145040187Y-125320197D01*
X145187500Y-125349500D01*
X145337700Y-125349500D01*
X145485013Y-125320197D01*
X145623779Y-125262718D01*
X145700598Y-125211388D01*
X145768351Y-125190174D01*
X145836818Y-125208957D01*
X145840590Y-125211381D01*
X145917421Y-125262718D01*
X146056187Y-125320197D01*
X146203500Y-125349500D01*
X146353700Y-125349500D01*
X146501013Y-125320197D01*
X146639779Y-125262718D01*
X146764665Y-125179272D01*
X146870872Y-125073065D01*
X146954318Y-124948179D01*
X147011797Y-124809413D01*
X147041100Y-124662100D01*
X147041100Y-124511900D01*
X147011797Y-124364587D01*
X146954318Y-124225821D01*
X146934393Y-124196001D01*
X146913179Y-124128248D01*
X146931963Y-124059781D01*
X146984781Y-124012338D01*
X147039159Y-124000000D01*
X147550041Y-124000000D01*
X147618162Y-124020002D01*
X147664655Y-124073658D01*
X147674759Y-124143932D01*
X147654807Y-124196001D01*
X147634882Y-124225820D01*
X147577404Y-124364584D01*
X147577403Y-124364585D01*
X147548100Y-124511896D01*
X147548100Y-124662103D01*
X147577403Y-124809413D01*
X147634882Y-124948179D01*
X147718328Y-125073065D01*
X147824535Y-125179272D01*
X147949421Y-125262718D01*
X148088187Y-125320197D01*
X148235500Y-125349500D01*
X148385700Y-125349500D01*
X148533013Y-125320197D01*
X148671779Y-125262718D01*
X148748598Y-125211388D01*
X148816351Y-125190174D01*
X148884818Y-125208957D01*
X148888590Y-125211381D01*
X148965421Y-125262718D01*
X149104187Y-125320197D01*
X149251500Y-125349500D01*
X149401700Y-125349500D01*
X149549013Y-125320197D01*
X149687779Y-125262718D01*
X149764598Y-125211388D01*
X149832351Y-125190174D01*
X149900818Y-125208957D01*
X149904590Y-125211381D01*
X149981421Y-125262718D01*
X150120187Y-125320197D01*
X150267500Y-125349500D01*
X150417700Y-125349500D01*
X150565013Y-125320197D01*
X150703779Y-125262718D01*
X150780598Y-125211388D01*
X150848351Y-125190174D01*
X150916818Y-125208957D01*
X150920590Y-125211381D01*
X150997421Y-125262718D01*
X151136187Y-125320197D01*
X151283500Y-125349500D01*
X151433700Y-125349500D01*
X151581013Y-125320197D01*
X151719779Y-125262718D01*
X151796598Y-125211388D01*
X151864351Y-125190174D01*
X151932818Y-125208957D01*
X151936590Y-125211381D01*
X152013421Y-125262718D01*
X152152187Y-125320197D01*
X152299500Y-125349500D01*
X152449700Y-125349500D01*
X152597013Y-125320197D01*
X152735779Y-125262718D01*
X152860665Y-125179272D01*
X152966872Y-125073065D01*
X153050318Y-124948179D01*
X153107797Y-124809413D01*
X153137100Y-124662100D01*
X153137100Y-124511900D01*
X153107797Y-124364587D01*
X153050318Y-124225821D01*
X153030393Y-124196001D01*
X153009179Y-124128248D01*
X153027963Y-124059781D01*
X153080781Y-124012338D01*
X153135159Y-124000000D01*
X164619500Y-124000000D01*
X164687621Y-124020002D01*
X164734114Y-124073658D01*
X164745500Y-124126000D01*
X164745500Y-126496707D01*
X164745327Y-126503302D01*
X164728066Y-126832647D01*
X164726688Y-126845763D01*
X164675610Y-127168255D01*
X164672868Y-127181155D01*
X164588361Y-127496541D01*
X164584285Y-127509084D01*
X164467280Y-127813894D01*
X164461916Y-127825943D01*
X164313682Y-128116867D01*
X164307088Y-128128288D01*
X164129258Y-128402123D01*
X164121505Y-128412793D01*
X163916032Y-128666531D01*
X163907207Y-128676332D01*
X163676332Y-128907207D01*
X163666531Y-128916032D01*
X163412793Y-129121505D01*
X163402123Y-129129258D01*
X163128288Y-129307088D01*
X163116867Y-129313682D01*
X162825943Y-129461916D01*
X162813894Y-129467280D01*
X162509084Y-129584285D01*
X162496541Y-129588361D01*
X162181155Y-129672868D01*
X162168255Y-129675610D01*
X161845763Y-129726688D01*
X161832647Y-129728066D01*
X161520434Y-129744429D01*
X161503300Y-129745327D01*
X161496707Y-129745500D01*
X112503806Y-129745500D01*
X112496198Y-129745270D01*
X112236942Y-129729588D01*
X112221838Y-129727754D01*
X111970115Y-129681624D01*
X111955345Y-129677984D01*
X111711007Y-129601845D01*
X111696781Y-129596449D01*
X111463415Y-129491420D01*
X111449942Y-129484349D01*
X111230930Y-129351951D01*
X111218409Y-129343308D01*
X111172177Y-129307088D01*
X111016956Y-129185480D01*
X111005567Y-129175390D01*
X110824609Y-128994432D01*
X110814519Y-128983043D01*
X110656687Y-128781585D01*
X110648048Y-128769069D01*
X110591986Y-128676332D01*
X110515649Y-128550055D01*
X110508579Y-128536584D01*
X110461747Y-128432527D01*
X110403548Y-128303214D01*
X110398157Y-128289001D01*
X110322012Y-128044642D01*
X110318377Y-128029895D01*
X110272243Y-127778149D01*
X110270412Y-127763068D01*
X110256331Y-127530277D01*
X110254730Y-127503801D01*
X110254500Y-127496194D01*
X110254500Y-124126000D01*
X110274502Y-124057879D01*
X110328158Y-124011386D01*
X110380500Y-124000000D01*
X129516041Y-124000000D01*
X129584162Y-124020002D01*
G37*
%TD.AperFunction*%
%TD*%
%TA.AperFunction,Conductor*%
%TO.N,/RESET*%
G36*
X129151597Y-89727921D02*
G01*
X129157638Y-89734531D01*
X129158104Y-89736187D01*
X129200525Y-89944774D01*
X129200525Y-89949438D01*
X129158104Y-90158024D01*
X129153097Y-90165448D01*
X129144307Y-90167157D01*
X129142653Y-90166691D01*
X128934985Y-90091395D01*
X128754904Y-90026102D01*
X128748294Y-90020061D01*
X128747192Y-90015103D01*
X128747192Y-89879108D01*
X128750619Y-89870835D01*
X128754901Y-89868110D01*
X129142654Y-89727520D01*
X129151597Y-89727921D01*
G37*
%TD.AperFunction*%
%TD*%
%TA.AperFunction,Conductor*%
%TO.N,/RESET*%
G36*
X122602102Y-90071735D02*
G01*
X122698264Y-90167897D01*
X122701691Y-90176170D01*
X122700589Y-90181128D01*
X122525820Y-90554718D01*
X122519210Y-90560759D01*
X122510264Y-90560358D01*
X122508764Y-90559516D01*
X122331277Y-90442020D01*
X122327979Y-90438722D01*
X122210483Y-90261235D01*
X122208774Y-90252445D01*
X122213781Y-90245021D01*
X122215276Y-90244181D01*
X122588874Y-90069409D01*
X122597817Y-90069009D01*
X122602102Y-90071735D01*
G37*
%TD.AperFunction*%
%TD*%
%TA.AperFunction,Conductor*%
%TO.N,/BQ76920/VC1*%
G36*
X128619333Y-104702533D02*
G01*
X128634718Y-104709634D01*
X128904600Y-104834201D01*
X128910676Y-104840779D01*
X128910320Y-104849727D01*
X128909441Y-104851301D01*
X128791308Y-105029031D01*
X128788029Y-105032306D01*
X128610768Y-105149815D01*
X128601979Y-105151530D01*
X128594551Y-105146528D01*
X128593928Y-105145471D01*
X128371892Y-104718554D01*
X128371116Y-104709634D01*
X128376874Y-104702776D01*
X128382273Y-104701456D01*
X128614430Y-104701456D01*
X128619333Y-104702533D01*
G37*
%TD.AperFunction*%
%TD*%
%TA.AperFunction,Conductor*%
%TO.N,/BQ76920/VC1*%
G36*
X118462357Y-78022187D02*
G01*
X118469780Y-78027194D01*
X118471489Y-78035984D01*
X118471406Y-78036362D01*
X118379141Y-78423818D01*
X118373891Y-78431073D01*
X118367759Y-78432808D01*
X118132241Y-78432808D01*
X118123968Y-78429381D01*
X118120859Y-78423818D01*
X118028593Y-78036362D01*
X118030010Y-78027520D01*
X118037265Y-78022270D01*
X118037592Y-78022198D01*
X118247669Y-77979474D01*
X118252331Y-77979474D01*
X118462357Y-78022187D01*
G37*
%TD.AperFunction*%
%TD*%
%TA.AperFunction,Conductor*%
%TO.N,/ALERT*%
G36*
X134661597Y-106700815D02*
G01*
X134667638Y-106707425D01*
X134668104Y-106709081D01*
X134710525Y-106917668D01*
X134710525Y-106922332D01*
X134668104Y-107130918D01*
X134663097Y-107138342D01*
X134654307Y-107140051D01*
X134652653Y-107139585D01*
X134444985Y-107064289D01*
X134264904Y-106998996D01*
X134258294Y-106992955D01*
X134257192Y-106987997D01*
X134257192Y-106852002D01*
X134260619Y-106843729D01*
X134264901Y-106841004D01*
X134652654Y-106700414D01*
X134661597Y-106700815D01*
G37*
%TD.AperFunction*%
%TD*%
%TA.AperFunction,Conductor*%
%TO.N,/ALERT*%
G36*
X133820918Y-95341895D02*
G01*
X133828342Y-95346902D01*
X133830051Y-95355692D01*
X133829585Y-95357348D01*
X133688996Y-95745096D01*
X133682955Y-95751706D01*
X133677997Y-95752808D01*
X133542003Y-95752808D01*
X133533730Y-95749381D01*
X133531004Y-95745096D01*
X133504506Y-95672015D01*
X133390414Y-95357345D01*
X133390815Y-95348402D01*
X133397425Y-95342361D01*
X133399076Y-95341896D01*
X133607669Y-95299474D01*
X133612331Y-95299474D01*
X133820918Y-95341895D01*
G37*
%TD.AperFunction*%
%TD*%
%TA.AperFunction,Conductor*%
%TO.N,PACK-*%
G36*
X150834357Y-115231187D02*
G01*
X150841780Y-115236194D01*
X150843489Y-115244984D01*
X150843406Y-115245362D01*
X150751141Y-115632818D01*
X150745891Y-115640073D01*
X150739759Y-115641808D01*
X150504241Y-115641808D01*
X150495968Y-115638381D01*
X150492859Y-115632818D01*
X150400593Y-115245362D01*
X150402010Y-115236520D01*
X150409265Y-115231270D01*
X150409592Y-115231198D01*
X150619669Y-115188474D01*
X150624331Y-115188474D01*
X150834357Y-115231187D01*
G37*
%TD.AperFunction*%
%TD*%
%TA.AperFunction,Conductor*%
%TO.N,PACK-*%
G36*
X143679338Y-121920568D02*
G01*
X143510707Y-122174707D01*
X143256568Y-122343338D01*
X142900484Y-121929694D01*
X143259694Y-121570484D01*
X143679338Y-121920568D01*
G37*
%TD.AperFunction*%
%TD*%
%TA.AperFunction,Conductor*%
%TO.N,PACK-*%
G36*
X138525504Y-116076667D02*
G01*
X138533262Y-116081139D01*
X138535685Y-116088268D01*
X138535685Y-116578185D01*
X138532258Y-116586458D01*
X138528466Y-116588993D01*
X137832088Y-116877714D01*
X137823133Y-116877717D01*
X137817889Y-116873422D01*
X137542712Y-116463045D01*
X137540951Y-116454265D01*
X137637953Y-115971474D01*
X137642943Y-115964039D01*
X137650941Y-115962179D01*
X138525504Y-116076667D01*
G37*
%TD.AperFunction*%
%TD*%
%TA.AperFunction,Conductor*%
%TO.N,PACK-*%
G36*
X157470239Y-119280894D02*
G01*
X156972000Y-119381000D01*
X156473761Y-119280894D01*
X156845000Y-118373761D01*
X157099000Y-118373761D01*
X157470239Y-119280894D01*
G37*
%TD.AperFunction*%
%TD*%
%TA.AperFunction,Conductor*%
%TO.N,PACK-*%
G36*
X141334646Y-120408502D02*
G01*
X142229739Y-120649500D01*
X142229739Y-121157500D01*
X142000000Y-121219355D01*
X141334660Y-121398493D01*
X141325780Y-121397335D01*
X141320320Y-121390237D01*
X141320147Y-121389500D01*
X141222963Y-120905805D01*
X141222963Y-120901195D01*
X141273225Y-120651036D01*
X141320147Y-120417498D01*
X141325137Y-120410063D01*
X141333923Y-120408333D01*
X141334646Y-120408502D01*
G37*
%TD.AperFunction*%
%TD*%
%TA.AperFunction,Conductor*%
%TO.N,PACK-*%
G36*
X141728458Y-119965054D02*
G01*
X141731885Y-119973327D01*
X141731884Y-119973442D01*
X141721877Y-120988519D01*
X141718369Y-120996758D01*
X141710063Y-121000103D01*
X141707918Y-120999884D01*
X141225805Y-120904953D01*
X141221549Y-120903191D01*
X140810633Y-120627653D01*
X140805670Y-120620199D01*
X140807299Y-120611620D01*
X141220548Y-119967012D01*
X141227898Y-119961897D01*
X141230398Y-119961627D01*
X141720185Y-119961627D01*
X141728458Y-119965054D01*
G37*
%TD.AperFunction*%
%TD*%
%TA.AperFunction,Conductor*%
%TO.N,/USART1_TX*%
G36*
X133553262Y-84091846D02*
G01*
X133802416Y-84196824D01*
X133806144Y-84199332D01*
X133900218Y-84293406D01*
X133903645Y-84301679D01*
X133900218Y-84309952D01*
X133896679Y-84312379D01*
X133553324Y-84464283D01*
X133544371Y-84464496D01*
X133538890Y-84460125D01*
X133439249Y-84312379D01*
X133421051Y-84285395D01*
X133419267Y-84276621D01*
X133421027Y-84272350D01*
X133538997Y-84096118D01*
X133546446Y-84091151D01*
X133553262Y-84091846D01*
G37*
%TD.AperFunction*%
%TD*%
%TA.AperFunction,Conductor*%
%TO.N,/USART1_TX*%
G36*
X142834696Y-81251983D02*
G01*
X143011394Y-81371149D01*
X143016337Y-81378616D01*
X143015217Y-81386277D01*
X142839781Y-81721264D01*
X142832907Y-81727003D01*
X142823988Y-81726201D01*
X142821143Y-81724109D01*
X142726497Y-81629463D01*
X142723751Y-81625123D01*
X142610336Y-81307331D01*
X142610782Y-81298387D01*
X142617422Y-81292379D01*
X142619039Y-81291929D01*
X142825913Y-81250258D01*
X142834696Y-81251983D01*
G37*
%TD.AperFunction*%
%TD*%
%TA.AperFunction,Conductor*%
%TO.N,/USART1_RX*%
G36*
X144040918Y-81291895D02*
G01*
X144048342Y-81296902D01*
X144050051Y-81305692D01*
X144049585Y-81307348D01*
X143908996Y-81695096D01*
X143902955Y-81701706D01*
X143897997Y-81702808D01*
X143762003Y-81702808D01*
X143753730Y-81699381D01*
X143751004Y-81695096D01*
X143724506Y-81622015D01*
X143610414Y-81307345D01*
X143610815Y-81298402D01*
X143617425Y-81292361D01*
X143619076Y-81291896D01*
X143827669Y-81249474D01*
X143832331Y-81249474D01*
X144040918Y-81291895D01*
G37*
%TD.AperFunction*%
%TD*%
%TA.AperFunction,Conductor*%
%TO.N,/USART1_RX*%
G36*
X133411410Y-84676601D02*
G01*
X133799191Y-84820964D01*
X133805748Y-84827061D01*
X133806808Y-84831928D01*
X133806808Y-84967921D01*
X133803381Y-84976194D01*
X133799001Y-84978954D01*
X133411276Y-85115774D01*
X133402334Y-85115296D01*
X133396350Y-85108634D01*
X133395920Y-85107080D01*
X133353474Y-84898370D01*
X133353474Y-84893708D01*
X133395872Y-84685235D01*
X133400878Y-84677813D01*
X133409668Y-84676104D01*
X133411410Y-84676601D01*
G37*
%TD.AperFunction*%
%TD*%
%TA.AperFunction,Conductor*%
%TO.N,/EN_PRE_CHARGE*%
G36*
X132491124Y-115139409D02*
G01*
X132858257Y-115311156D01*
X132864718Y-115314179D01*
X132870759Y-115320789D01*
X132870358Y-115329735D01*
X132869516Y-115331235D01*
X132752020Y-115508722D01*
X132748722Y-115512020D01*
X132571235Y-115629516D01*
X132562445Y-115631225D01*
X132555021Y-115626218D01*
X132554179Y-115624718D01*
X132416885Y-115331235D01*
X132379409Y-115251126D01*
X132379009Y-115242182D01*
X132381733Y-115237899D01*
X132477898Y-115141734D01*
X132486170Y-115138308D01*
X132491124Y-115139409D01*
G37*
%TD.AperFunction*%
%TD*%
%TA.AperFunction,Conductor*%
%TO.N,/EN_PRE_CHARGE*%
G36*
X133801597Y-93870815D02*
G01*
X133807638Y-93877425D01*
X133808104Y-93879081D01*
X133850525Y-94087668D01*
X133850525Y-94092332D01*
X133808104Y-94300918D01*
X133803097Y-94308342D01*
X133794307Y-94310051D01*
X133792653Y-94309585D01*
X133584985Y-94234289D01*
X133404904Y-94168996D01*
X133398294Y-94162955D01*
X133397192Y-94157997D01*
X133397192Y-94022002D01*
X133400619Y-94013729D01*
X133404901Y-94011004D01*
X133792654Y-93870414D01*
X133801597Y-93870815D01*
G37*
%TD.AperFunction*%
%TD*%
%TA.AperFunction,Conductor*%
%TO.N,/KEY_A*%
G36*
X124944978Y-78553781D02*
G01*
X124945820Y-78555281D01*
X125120589Y-78928871D01*
X125120990Y-78937817D01*
X125118264Y-78942102D01*
X125022102Y-79038264D01*
X125013829Y-79041691D01*
X125008872Y-79040589D01*
X124789183Y-78937817D01*
X124635281Y-78865820D01*
X124629240Y-78859210D01*
X124629641Y-78850264D01*
X124630476Y-78848775D01*
X124747980Y-78671275D01*
X124751275Y-78667980D01*
X124928766Y-78550482D01*
X124937554Y-78548774D01*
X124944978Y-78553781D01*
G37*
%TD.AperFunction*%
%TD*%
%TA.AperFunction,Conductor*%
%TO.N,/KEY_A*%
G36*
X137973178Y-89719553D02*
G01*
X137977571Y-89726560D01*
X138019741Y-89935911D01*
X138018015Y-89944698D01*
X138017971Y-89944763D01*
X137900154Y-90119461D01*
X137892687Y-90124404D01*
X137883912Y-90122619D01*
X137883069Y-90121994D01*
X137654418Y-89935911D01*
X137576897Y-89872822D01*
X137572644Y-89864943D01*
X137575208Y-89856363D01*
X137576000Y-89855485D01*
X137671823Y-89759662D01*
X137678509Y-89756345D01*
X137964519Y-89717278D01*
X137973178Y-89719553D01*
G37*
%TD.AperFunction*%
%TD*%
%TA.AperFunction,Conductor*%
%TO.N,/CAN_STB*%
G36*
X138669178Y-89092747D02*
G01*
X138765340Y-89188909D01*
X138768767Y-89197182D01*
X138767665Y-89202140D01*
X138592896Y-89575730D01*
X138586286Y-89581771D01*
X138577340Y-89581370D01*
X138575840Y-89580528D01*
X138398353Y-89463032D01*
X138395055Y-89459734D01*
X138277559Y-89282247D01*
X138275850Y-89273457D01*
X138280857Y-89266033D01*
X138282352Y-89265193D01*
X138655950Y-89090421D01*
X138664893Y-89090021D01*
X138669178Y-89092747D01*
G37*
%TD.AperFunction*%
%TD*%
%TA.AperFunction,Conductor*%
%TO.N,/CAN_STB*%
G36*
X146161683Y-88050726D02*
G01*
X146167652Y-88057401D01*
X146168075Y-88058937D01*
X146210525Y-88267668D01*
X146210525Y-88272332D01*
X146168134Y-88480771D01*
X146163127Y-88488195D01*
X146154337Y-88489904D01*
X146152563Y-88489395D01*
X145764786Y-88344046D01*
X145758241Y-88337933D01*
X145757192Y-88333090D01*
X145757192Y-88197098D01*
X145760619Y-88188825D01*
X145765023Y-88186056D01*
X146152742Y-88050227D01*
X146161683Y-88050726D01*
G37*
%TD.AperFunction*%
%TD*%
%TA.AperFunction,Conductor*%
%TO.N,/I2C2_SCL*%
G36*
X140211124Y-104006009D02*
G01*
X140578257Y-104177756D01*
X140584718Y-104180779D01*
X140590759Y-104187389D01*
X140590358Y-104196335D01*
X140589516Y-104197835D01*
X140472020Y-104375322D01*
X140468722Y-104378620D01*
X140291235Y-104496116D01*
X140282445Y-104497825D01*
X140275021Y-104492818D01*
X140274179Y-104491318D01*
X140136885Y-104197835D01*
X140099409Y-104117726D01*
X140099009Y-104108782D01*
X140101733Y-104104499D01*
X140197898Y-104008334D01*
X140206170Y-104004908D01*
X140211124Y-104006009D01*
G37*
%TD.AperFunction*%
%TD*%
%TA.AperFunction,Conductor*%
%TO.N,/I2C2_SCL*%
G36*
X134155290Y-99879979D02*
G01*
X134156703Y-99881184D01*
X134252861Y-99977342D01*
X134256288Y-99985615D01*
X134253749Y-99992893D01*
X134026747Y-100278603D01*
X134018917Y-100282949D01*
X134011128Y-100281081D01*
X133833379Y-100163412D01*
X133828372Y-100155988D01*
X133828354Y-100155897D01*
X133787720Y-99947670D01*
X133789498Y-99938894D01*
X133796962Y-99933946D01*
X133797306Y-99933884D01*
X134146579Y-99877904D01*
X134155290Y-99879979D01*
G37*
%TD.AperFunction*%
%TD*%
%TA.AperFunction,Conductor*%
%TO.N,/I2C2_SDA*%
G36*
X135245153Y-100133665D02*
G01*
X135245917Y-100135003D01*
X135393973Y-100439202D01*
X135425416Y-100503804D01*
X135425955Y-100512742D01*
X135423169Y-100517197D01*
X135327009Y-100613357D01*
X135318736Y-100616784D01*
X135313940Y-100615756D01*
X134935559Y-100445719D01*
X134929418Y-100439202D01*
X134929683Y-100430251D01*
X134930593Y-100428598D01*
X135047980Y-100251275D01*
X135051275Y-100247980D01*
X135228941Y-100130366D01*
X135237729Y-100128658D01*
X135245153Y-100133665D01*
G37*
%TD.AperFunction*%
%TD*%
%TA.AperFunction,Conductor*%
%TO.N,/I2C2_SDA*%
G36*
X140421597Y-104830815D02*
G01*
X140427638Y-104837425D01*
X140428104Y-104839081D01*
X140470525Y-105047668D01*
X140470525Y-105052332D01*
X140428104Y-105260918D01*
X140423097Y-105268342D01*
X140414307Y-105270051D01*
X140412653Y-105269585D01*
X140204985Y-105194289D01*
X140024904Y-105128996D01*
X140018294Y-105122955D01*
X140017192Y-105117997D01*
X140017192Y-104982002D01*
X140020619Y-104973729D01*
X140024901Y-104971004D01*
X140412654Y-104830414D01*
X140421597Y-104830815D01*
G37*
%TD.AperFunction*%
%TD*%
%TA.AperFunction,Conductor*%
%TO.N,Net-(R31-Pad1)*%
G36*
X137576032Y-97770619D02*
G01*
X137579141Y-97776182D01*
X137671406Y-98163637D01*
X137669989Y-98172479D01*
X137662734Y-98177729D01*
X137662356Y-98177812D01*
X137452332Y-98220525D01*
X137447668Y-98220525D01*
X137237643Y-98177812D01*
X137230219Y-98172805D01*
X137228510Y-98164015D01*
X137228585Y-98163670D01*
X137320859Y-97776181D01*
X137326109Y-97768927D01*
X137332241Y-97767192D01*
X137567759Y-97767192D01*
X137576032Y-97770619D01*
G37*
%TD.AperFunction*%
%TD*%
%TA.AperFunction,Conductor*%
%TO.N,Net-(R31-Pad1)*%
G36*
X119462357Y-78482187D02*
G01*
X119469780Y-78487194D01*
X119471489Y-78495984D01*
X119471406Y-78496362D01*
X119379141Y-78883818D01*
X119373891Y-78891073D01*
X119367759Y-78892808D01*
X119132241Y-78892808D01*
X119123968Y-78889381D01*
X119120859Y-78883818D01*
X119028593Y-78496362D01*
X119030010Y-78487520D01*
X119037265Y-78482270D01*
X119037592Y-78482198D01*
X119247669Y-78439474D01*
X119252331Y-78439474D01*
X119462357Y-78482187D01*
G37*
%TD.AperFunction*%
%TD*%
%TA.AperFunction,Conductor*%
%TO.N,/5V_EN*%
G36*
X138214978Y-92373781D02*
G01*
X138215820Y-92375281D01*
X138390589Y-92748871D01*
X138390990Y-92757817D01*
X138388264Y-92762102D01*
X138292102Y-92858264D01*
X138283829Y-92861691D01*
X138278872Y-92860589D01*
X138059183Y-92757817D01*
X137905281Y-92685820D01*
X137899240Y-92679210D01*
X137899641Y-92670264D01*
X137900476Y-92668775D01*
X138017980Y-92491275D01*
X138021275Y-92487980D01*
X138198766Y-92370482D01*
X138207554Y-92368774D01*
X138214978Y-92373781D01*
G37*
%TD.AperFunction*%
%TD*%
%TA.AperFunction,Conductor*%
%TO.N,/5V_EN*%
G36*
X149061624Y-107928909D02*
G01*
X149428757Y-108100656D01*
X149435218Y-108103679D01*
X149441259Y-108110289D01*
X149440858Y-108119235D01*
X149440016Y-108120735D01*
X149322520Y-108298222D01*
X149319222Y-108301520D01*
X149141735Y-108419016D01*
X149132945Y-108420725D01*
X149125521Y-108415718D01*
X149124679Y-108414218D01*
X148987385Y-108120735D01*
X148949909Y-108040626D01*
X148949509Y-108031682D01*
X148952233Y-108027399D01*
X149048398Y-107931234D01*
X149056670Y-107927808D01*
X149061624Y-107928909D01*
G37*
%TD.AperFunction*%
%TD*%
%TA.AperFunction,Conductor*%
%TO.N,/ADC1_IN8*%
G36*
X130830918Y-95391895D02*
G01*
X130838342Y-95396902D01*
X130840051Y-95405692D01*
X130839585Y-95407348D01*
X130698996Y-95795096D01*
X130692955Y-95801706D01*
X130687997Y-95802808D01*
X130552003Y-95802808D01*
X130543730Y-95799381D01*
X130541004Y-95795096D01*
X130514506Y-95722015D01*
X130400414Y-95407345D01*
X130400815Y-95398402D01*
X130407425Y-95392361D01*
X130409076Y-95391896D01*
X130617669Y-95349474D01*
X130622331Y-95349474D01*
X130830918Y-95391895D01*
G37*
%TD.AperFunction*%
%TD*%
%TA.AperFunction,Conductor*%
%TO.N,/ADC1_IN8*%
G36*
X147308206Y-114027799D02*
G01*
X147310589Y-114031241D01*
X147465991Y-114373993D01*
X147466286Y-114382943D01*
X147461877Y-114388524D01*
X147284763Y-114507971D01*
X147275988Y-114509756D01*
X147275911Y-114509741D01*
X147069679Y-114468199D01*
X147062245Y-114463206D01*
X147060519Y-114454419D01*
X147061160Y-114452299D01*
X147194958Y-114125783D01*
X147197508Y-114121951D01*
X147291661Y-114027798D01*
X147299933Y-114024372D01*
X147308206Y-114027799D01*
G37*
%TD.AperFunction*%
%TD*%
%TA.AperFunction,Conductor*%
%TO.N,/ADC1_IN5*%
G36*
X127581720Y-91869596D02*
G01*
X127583019Y-91870340D01*
X127589978Y-91874947D01*
X127760722Y-91987979D01*
X127764020Y-91991277D01*
X127881377Y-92168554D01*
X127883086Y-92177344D01*
X127878079Y-92184768D01*
X127876384Y-92185698D01*
X127497045Y-92354789D01*
X127488094Y-92355028D01*
X127484009Y-92352376D01*
X127387850Y-92256217D01*
X127384423Y-92247944D01*
X127385619Y-92242791D01*
X127422036Y-92168554D01*
X127566064Y-91874945D01*
X127572783Y-91869029D01*
X127581720Y-91869596D01*
G37*
%TD.AperFunction*%
%TD*%
%TA.AperFunction,Conductor*%
%TO.N,/ADC1_IN5*%
G36*
X118083927Y-88682507D02*
G01*
X118091350Y-88687513D01*
X118093245Y-88695045D01*
X118060179Y-89053848D01*
X118056007Y-89061771D01*
X118048528Y-89064474D01*
X117912591Y-89064474D01*
X117904318Y-89061047D01*
X117903288Y-89059869D01*
X117687451Y-88776870D01*
X117685159Y-88768214D01*
X117689659Y-88760472D01*
X117690189Y-88760091D01*
X117865937Y-88641735D01*
X117874711Y-88639958D01*
X118083927Y-88682507D01*
G37*
%TD.AperFunction*%
%TD*%
%TA.AperFunction,Conductor*%
%TO.N,/ADC1_IN6*%
G36*
X118106219Y-94254593D02*
G01*
X118414156Y-94410551D01*
X118419989Y-94417346D01*
X118420570Y-94420989D01*
X118420570Y-94556988D01*
X118417143Y-94565261D01*
X118411616Y-94568361D01*
X118026391Y-94661360D01*
X118017544Y-94659971D01*
X118012272Y-94652733D01*
X118012180Y-94652319D01*
X117995105Y-94568361D01*
X117969976Y-94444800D01*
X117971685Y-94436013D01*
X117971685Y-94436012D01*
X118091231Y-94258495D01*
X118098694Y-94253549D01*
X118106219Y-94254593D01*
G37*
%TD.AperFunction*%
%TD*%
%TA.AperFunction,Conductor*%
%TO.N,/ADC1_IN6*%
G36*
X128639729Y-91802928D02*
G01*
X128641171Y-91803741D01*
X128797603Y-91907298D01*
X128818722Y-91921279D01*
X128822020Y-91924577D01*
X128939478Y-92102007D01*
X128941187Y-92110797D01*
X128936180Y-92118221D01*
X128934626Y-92119088D01*
X128559455Y-92292295D01*
X128550507Y-92292651D01*
X128546278Y-92289945D01*
X128450116Y-92193783D01*
X128446689Y-92185510D01*
X128447816Y-92180501D01*
X128624147Y-91808487D01*
X128630786Y-91802481D01*
X128639729Y-91802928D01*
G37*
%TD.AperFunction*%
%TD*%
M02*
