%TF.GenerationSoftware,KiCad,Pcbnew,9.0.7*%
%TF.CreationDate,2026-03-11T04:27:33+08:00*%
%TF.ProjectId,CawBMS,43617742-4d53-42e6-9b69-6361645f7063,rev?*%
%TF.SameCoordinates,Original*%
%TF.FileFunction,Legend,Top*%
%TF.FilePolarity,Positive*%
%FSLAX46Y46*%
G04 Gerber Fmt 4.6, Leading zero omitted, Abs format (unit mm)*
G04 Created by KiCad (PCBNEW 9.0.7) date 2026-03-11 04:27:33*
%MOMM*%
%LPD*%
G01*
G04 APERTURE LIST*
%ADD10C,0.000000*%
%ADD11C,0.120000*%
%ADD12C,0.254000*%
%ADD13C,0.127000*%
%ADD14C,0.200000*%
%ADD15C,0.102000*%
%ADD16C,0.100000*%
%ADD17C,0.152400*%
%ADD18C,0.203200*%
%ADD19C,0.152000*%
%ADD20C,0.300000*%
G04 APERTURE END LIST*
D10*
%TO.C,kibuzzard-69B07E29*%
G36*
X134707048Y-111957013D02*
G01*
X134765703Y-112102935D01*
X134707048Y-112247428D01*
X134568278Y-112308944D01*
X134418063Y-112247428D01*
X134353686Y-112105797D01*
X134415202Y-111959874D01*
X134562555Y-111896927D01*
X134707048Y-111957013D01*
G37*
G36*
X138569708Y-111373322D02*
G01*
X138599751Y-111462020D01*
X138579723Y-111550718D01*
X138511053Y-111570747D01*
X138476718Y-111570747D01*
X138302183Y-111617957D01*
X138250681Y-111782478D01*
X138299322Y-111952721D01*
X138462412Y-112002792D01*
X138499608Y-112002792D01*
X138619780Y-112029974D01*
X138656976Y-112148715D01*
X138641239Y-112238844D01*
X138598321Y-112287485D01*
X138553972Y-112303222D01*
X138513914Y-112306083D01*
X138104759Y-112306083D01*
X138104759Y-111350432D01*
X138450967Y-111350432D01*
X138569708Y-111373322D01*
G37*
G36*
X147545388Y-114053341D02*
G01*
X146353209Y-114053341D01*
X142327934Y-114053341D01*
X139575431Y-114053341D01*
X137841525Y-114053341D01*
X136058979Y-114053341D01*
X135040381Y-114053341D01*
X133063271Y-114053341D01*
X128737567Y-114053341D01*
X127545388Y-114053341D01*
X127545388Y-111819674D01*
X132027505Y-111819674D01*
X132045746Y-112027828D01*
X132100467Y-112217385D01*
X132183085Y-112381548D01*
X132285016Y-112513522D01*
X132404115Y-112620818D01*
X132538235Y-112710947D01*
X132677720Y-112780689D01*
X132812913Y-112826827D01*
X132942026Y-112852578D01*
X133063271Y-112861162D01*
X133248297Y-112843358D01*
X133425693Y-112789949D01*
X133595460Y-112700933D01*
X133712770Y-112613665D01*
X133752827Y-112509230D01*
X133689880Y-112343279D01*
X133586876Y-112220961D01*
X133489594Y-112180189D01*
X133346532Y-112237413D01*
X133202756Y-112308229D01*
X133051826Y-112331834D01*
X132834372Y-112286054D01*
X132731010Y-112222034D01*
X132638378Y-112121533D01*
X132627678Y-112100074D01*
X133835803Y-112100074D01*
X133858216Y-112283511D01*
X133925455Y-112452324D01*
X134037520Y-112606512D01*
X134178197Y-112728909D01*
X134331273Y-112802347D01*
X134496747Y-112826827D01*
X134660553Y-112801076D01*
X134797176Y-112723822D01*
X134878006Y-112801076D01*
X135040381Y-112826827D01*
X135189165Y-112806798D01*
X135269279Y-112742420D01*
X135296461Y-112666598D01*
X135300753Y-112569316D01*
X135300753Y-111639416D01*
X135296461Y-111543565D01*
X135286577Y-111514953D01*
X135416633Y-111514953D01*
X135426647Y-111702363D01*
X135807191Y-112637986D01*
X135832942Y-112700933D01*
X135871568Y-112761018D01*
X135948821Y-112822535D01*
X136058979Y-112841133D01*
X136116203Y-112838272D01*
X136163414Y-112828257D01*
X136200610Y-112815382D01*
X136229222Y-112793923D01*
X136250681Y-112772463D01*
X136269279Y-112743851D01*
X136282155Y-112712378D01*
X136296461Y-112675182D01*
X136310767Y-112637986D01*
X136442384Y-112286054D01*
X136574000Y-112637986D01*
X136605474Y-112710947D01*
X136644100Y-112772463D01*
X136717062Y-112825396D01*
X136828650Y-112841133D01*
X136877291Y-112836841D01*
X136918779Y-112826827D01*
X136954544Y-112809659D01*
X136983156Y-112789631D01*
X137007477Y-112765310D01*
X137026075Y-112739559D01*
X137041811Y-112710947D01*
X137054687Y-112685196D01*
X137066132Y-112659445D01*
X137074716Y-112637986D01*
X137458120Y-111708086D01*
X137482282Y-111582509D01*
X137428872Y-111476644D01*
X137297892Y-111390489D01*
X137155148Y-111362513D01*
X137043560Y-111415922D01*
X136963128Y-111550718D01*
X136825789Y-111931262D01*
X136694172Y-111565024D01*
X136595460Y-111423393D01*
X136436661Y-111376183D01*
X136288593Y-111422678D01*
X136193457Y-111562163D01*
X136058979Y-111931262D01*
X135904472Y-111504938D01*
X135833895Y-111396530D01*
X135721354Y-111361241D01*
X135566847Y-111399073D01*
X135416633Y-111514953D01*
X135286577Y-111514953D01*
X135269279Y-111464881D01*
X135190595Y-111399073D01*
X135043242Y-111379044D01*
X134870138Y-111408372D01*
X134797176Y-111496355D01*
X134664844Y-111410518D01*
X134496747Y-111381905D01*
X134332703Y-111406385D01*
X134180104Y-111479823D01*
X134038950Y-111602220D01*
X133926091Y-111755455D01*
X133858375Y-111921406D01*
X133835803Y-112100074D01*
X132627678Y-112100074D01*
X132572927Y-111990275D01*
X132551110Y-111833980D01*
X132563271Y-111712378D01*
X132599751Y-111605081D01*
X132727076Y-111449144D01*
X132888736Y-111364738D01*
X133051826Y-111336126D01*
X133120495Y-111338987D01*
X133177720Y-111349001D01*
X133223500Y-111360446D01*
X133262126Y-111374752D01*
X133289308Y-111390489D01*
X133313628Y-111406226D01*
X133332226Y-111419101D01*
X133486733Y-111484910D01*
X133585445Y-111446283D01*
X133692741Y-111330403D01*
X133755688Y-111170174D01*
X133729413Y-111087199D01*
X137581153Y-111087199D01*
X137581153Y-112563594D01*
X137585445Y-112663737D01*
X137612627Y-112743851D01*
X137692741Y-112809659D01*
X137841525Y-112829688D01*
X138542527Y-112829688D01*
X138708001Y-112808706D01*
X138857262Y-112745759D01*
X138990309Y-112640847D01*
X139094744Y-112505733D01*
X139158168Y-112352180D01*
X139180581Y-112180189D01*
X139142670Y-111960589D01*
X139028936Y-111759588D01*
X139099751Y-111606512D01*
X139123357Y-111439130D01*
X139103646Y-111280650D01*
X139044514Y-111137111D01*
X139008455Y-111090060D01*
X139317920Y-111090060D01*
X139317920Y-112566455D01*
X139323643Y-112666598D01*
X139350824Y-112745282D01*
X139428078Y-112809659D01*
X139575431Y-112829688D01*
X139727076Y-112809659D01*
X139807191Y-112745282D01*
X139834372Y-112668028D01*
X139838664Y-112572177D01*
X139838664Y-111756727D01*
X140170567Y-112208801D01*
X140264987Y-112296784D01*
X140393743Y-112326111D01*
X140472427Y-112317528D01*
X140532512Y-112291777D01*
X140569708Y-112263164D01*
X140596890Y-112231691D01*
X140614058Y-112208801D01*
X140948821Y-111753865D01*
X140948821Y-112566455D01*
X140953113Y-112665167D01*
X140980295Y-112743851D01*
X141060409Y-112809659D01*
X141209193Y-112829688D01*
X141359408Y-112809659D01*
X141438092Y-112746712D01*
X141466704Y-112669459D01*
X141472427Y-112572177D01*
X141472427Y-112363307D01*
X141595460Y-112363307D01*
X141666990Y-112549287D01*
X141684158Y-112569316D01*
X141715631Y-112609373D01*
X141765703Y-112659445D01*
X141834372Y-112715239D01*
X141923070Y-112769602D01*
X142033228Y-112816812D01*
X142167706Y-112848286D01*
X142327934Y-112861162D01*
X142518206Y-112839702D01*
X142714201Y-112766741D01*
X142890166Y-112639416D01*
X143014630Y-112446283D01*
X143051110Y-112322535D01*
X143063271Y-112185911D01*
X143036447Y-111972034D01*
X142955975Y-111816812D01*
X142830438Y-111708086D01*
X142668421Y-111633694D01*
X142485302Y-111589345D01*
X142310767Y-111553579D01*
X142197749Y-111503508D01*
X142147677Y-111410518D01*
X142193457Y-111323250D01*
X142299322Y-111287485D01*
X142393743Y-111297499D01*
X142449537Y-111318958D01*
X142489594Y-111351863D01*
X142522498Y-111379044D01*
X142714201Y-111431977D01*
X142883013Y-111293207D01*
X142951683Y-111117242D01*
X142848678Y-110969888D01*
X142700212Y-110874514D01*
X142518047Y-110817289D01*
X142302183Y-110798214D01*
X142118747Y-110817448D01*
X141957564Y-110875150D01*
X141818635Y-110971319D01*
X141712134Y-111096736D01*
X141648233Y-111242182D01*
X141626933Y-111407657D01*
X141649823Y-111593636D01*
X141718492Y-111748143D01*
X141832942Y-111871176D01*
X141993171Y-111962735D01*
X142101540Y-112001719D01*
X142237806Y-112038558D01*
X142462412Y-112105797D01*
X142536804Y-112194495D01*
X142485302Y-112327542D01*
X142316490Y-112369030D01*
X142203471Y-112341848D01*
X142087591Y-112237413D01*
X141958518Y-112133137D01*
X141834531Y-112114063D01*
X141715631Y-112180189D01*
X141595460Y-112363307D01*
X141472427Y-112363307D01*
X141472427Y-111095782D01*
X141466704Y-110995639D01*
X141439522Y-110916956D01*
X141360839Y-110852578D01*
X141212055Y-110832549D01*
X141060409Y-110849717D01*
X140974573Y-110915525D01*
X140393743Y-111662306D01*
X139810052Y-110912664D01*
X139791454Y-110892635D01*
X139769995Y-110871176D01*
X139745674Y-110856870D01*
X139708478Y-110843994D01*
X139656976Y-110836841D01*
X139581153Y-110832549D01*
X139429508Y-110852578D01*
X139349394Y-110916956D01*
X139322212Y-110994209D01*
X139317920Y-111090060D01*
X139008455Y-111090060D01*
X138945960Y-111008515D01*
X138819112Y-110907577D01*
X138675097Y-110847014D01*
X138513914Y-110826827D01*
X137844387Y-110826827D01*
X137692741Y-110846855D01*
X137612627Y-110912664D01*
X137585445Y-110991348D01*
X137581153Y-111087199D01*
X133729413Y-111087199D01*
X133728507Y-111084337D01*
X133675574Y-111024252D01*
X133598321Y-110969888D01*
X133417745Y-110880872D01*
X133242257Y-110827463D01*
X133071854Y-110809659D01*
X132945603Y-110818243D01*
X132812913Y-110843994D01*
X132675574Y-110889416D01*
X132535374Y-110957013D01*
X132401254Y-111044280D01*
X132282155Y-111148715D01*
X132180581Y-111277113D01*
X132099036Y-111436269D01*
X132045388Y-111619388D01*
X132027505Y-111819674D01*
X127545388Y-111819674D01*
X127545388Y-109606035D01*
X128737567Y-109606035D01*
X146353209Y-109606035D01*
X147545388Y-109606035D01*
X147545388Y-114053341D01*
G37*
D11*
%TO.C,C35*%
X154430000Y-86721733D02*
X154430000Y-87014267D01*
X155450000Y-86721733D02*
X155450000Y-87014267D01*
%TO.C,C1*%
X127402000Y-93460835D02*
X127402000Y-93229165D01*
X128122000Y-93460835D02*
X128122000Y-93229165D01*
%TO.C,C41*%
X122703000Y-87551335D02*
X122703000Y-87319665D01*
X123423000Y-87551335D02*
X123423000Y-87319665D01*
D12*
%TO.C,Q6*%
X129388000Y-128981000D02*
X129388000Y-122987000D01*
X129449000Y-128981000D02*
X129388000Y-128981000D01*
X129569000Y-122987000D02*
X129388000Y-122987000D01*
X130839000Y-122987000D02*
X130781000Y-122987000D01*
X134772000Y-122987000D02*
X134591000Y-122987000D01*
X134772000Y-122987000D02*
X134772000Y-128981000D01*
X134772000Y-128981000D02*
X134711000Y-128981000D01*
X134102000Y-122184000D02*
G75*
G02*
X133858000Y-122184000I-122000J0D01*
G01*
X133858000Y-122184000D02*
G75*
G02*
X134102000Y-122184000I122000J0D01*
G01*
D11*
%TO.C,D10*%
X149063176Y-120386000D02*
X149063176Y-118426000D01*
X150263176Y-118426000D02*
X149063176Y-118426000D01*
X150263176Y-120386000D02*
X150263176Y-118426000D01*
%TO.C,C21*%
X141497267Y-98931000D02*
X141204733Y-98931000D01*
X141497267Y-99951000D02*
X141204733Y-99951000D01*
%TO.C,R23*%
X124399323Y-101760000D02*
X124734565Y-101760000D01*
X124399323Y-102520000D02*
X124734565Y-102520000D01*
%TO.C,R36*%
X122534936Y-126052000D02*
X126889064Y-126052000D01*
X122534936Y-129472000D02*
X126889064Y-129472000D01*
D12*
%TO.C,CN5*%
X152146000Y-79718500D02*
X152146000Y-78149500D01*
X153340000Y-79718500D02*
X152146000Y-79718500D01*
X154302000Y-79718500D02*
X154340000Y-79718500D01*
X155302000Y-79718500D02*
X155340000Y-79718500D01*
X156302000Y-79718500D02*
X156340000Y-79718500D01*
X157090000Y-75418500D02*
X153552000Y-75418500D01*
X157302000Y-79718500D02*
X158496000Y-79718500D01*
X158496000Y-79718500D02*
X158496000Y-78149500D01*
X157978000Y-80418500D02*
G75*
G02*
X157434000Y-80418500I-272000J0D01*
G01*
X157434000Y-80418500D02*
G75*
G02*
X157978000Y-80418500I272000J0D01*
G01*
D11*
%TO.C,R44*%
X148922121Y-99442000D02*
X148586879Y-99442000D01*
X148922121Y-100202000D02*
X148586879Y-100202000D01*
%TO.C,R29*%
X124399323Y-110346556D02*
X124734565Y-110346556D01*
X124399323Y-111106556D02*
X124734565Y-111106556D01*
%TO.C,C13*%
X126395444Y-99835221D02*
X126395444Y-100066891D01*
X127115444Y-99835221D02*
X127115444Y-100066891D01*
D12*
%TO.C,Q9*%
X141410666Y-128981000D02*
X141410666Y-122987000D01*
X141471666Y-128981000D02*
X141410666Y-128981000D01*
X141591666Y-122987000D02*
X141410666Y-122987000D01*
X142861666Y-122987000D02*
X142803666Y-122987000D01*
X146794666Y-122987000D02*
X146613666Y-122987000D01*
X146794666Y-122987000D02*
X146794666Y-128981000D01*
X146794666Y-128981000D02*
X146733666Y-128981000D01*
X146124666Y-122184000D02*
G75*
G02*
X145880666Y-122184000I-122000J0D01*
G01*
X145880666Y-122184000D02*
G75*
G02*
X146124666Y-122184000I122000J0D01*
G01*
D11*
%TO.C,R26*%
X124399323Y-106035333D02*
X124734565Y-106035333D01*
X124399323Y-106795333D02*
X124734565Y-106795333D01*
%TO.C,L6*%
X155685000Y-90661000D02*
X157985000Y-90661000D01*
X155685000Y-98061000D02*
X155685000Y-90661000D01*
X157985000Y-98061000D02*
X155685000Y-98061000D01*
X160785000Y-90661000D02*
X163085000Y-90661000D01*
X163085000Y-90661000D02*
X163085000Y-98061000D01*
X163085000Y-98061000D02*
X160785000Y-98061000D01*
%TO.C,C3*%
X127148000Y-82307165D02*
X127148000Y-82538835D01*
X127868000Y-82307165D02*
X127868000Y-82538835D01*
%TO.C,R43*%
X151462121Y-99442000D02*
X151126879Y-99442000D01*
X151462121Y-100202000D02*
X151126879Y-100202000D01*
%TO.C,D12*%
X116460000Y-118426000D02*
X116460000Y-125436000D01*
X119760000Y-118426000D02*
X116460000Y-118426000D01*
X119760000Y-118426000D02*
X119760000Y-125436000D01*
%TO.C,C34*%
X155975000Y-81553000D02*
X158325000Y-81553000D01*
X155975000Y-87308563D02*
X155975000Y-81553000D01*
X157039437Y-88373000D02*
X155975000Y-87308563D01*
X157039437Y-88373000D02*
X158325000Y-88373000D01*
X157143750Y-89006750D02*
X157931250Y-89006750D01*
X157537500Y-89400500D02*
X157537500Y-88613000D01*
X161730563Y-88373000D02*
X160445000Y-88373000D01*
X161730563Y-88373000D02*
X162795000Y-87308563D01*
X162795000Y-81553000D02*
X160445000Y-81553000D01*
X162795000Y-87308563D02*
X162795000Y-81553000D01*
%TO.C,R45*%
X131291064Y-116486000D02*
X130836936Y-116486000D01*
X131291064Y-117956000D02*
X130836936Y-117956000D01*
%TO.C,C27*%
X139378088Y-119894733D02*
X139378088Y-120187267D01*
X140398088Y-119894733D02*
X140398088Y-120187267D01*
%TO.C,R42*%
X116332379Y-115063000D02*
X116667621Y-115063000D01*
X116332379Y-115823000D02*
X116667621Y-115823000D01*
%TO.C,R41*%
X150849448Y-119658621D02*
X150849448Y-119323379D01*
X151609448Y-119658621D02*
X151609448Y-119323379D01*
%TO.C,R9*%
X149011621Y-81789000D02*
X148676379Y-81789000D01*
X149011621Y-82549000D02*
X148676379Y-82549000D01*
%TO.C,D4*%
X121680944Y-97964556D02*
X121680944Y-96004556D01*
X122880944Y-96004556D02*
X121680944Y-96004556D01*
X122880944Y-97964556D02*
X122880944Y-96004556D01*
%TO.C,R18*%
X118078823Y-108060556D02*
X118414065Y-108060556D01*
X118078823Y-108820556D02*
X118414065Y-108820556D01*
%TO.C,C24*%
X140024665Y-108225000D02*
X140256335Y-108225000D01*
X140024665Y-108945000D02*
X140256335Y-108945000D01*
%TO.C,C9*%
X126386000Y-94626165D02*
X126386000Y-94857835D01*
X127106000Y-94626165D02*
X127106000Y-94857835D01*
%TO.C,C4*%
X127910000Y-86475835D02*
X127910000Y-86244165D01*
X128630000Y-86475835D02*
X128630000Y-86244165D01*
%TO.C,D8*%
X121680944Y-109140556D02*
X121680944Y-107180556D01*
X122880944Y-107180556D02*
X121680944Y-107180556D01*
X122880944Y-109140556D02*
X122880944Y-107180556D01*
D13*
%TO.C,U8*%
X148717000Y-102302000D02*
X148717000Y-106202000D01*
X153767000Y-102302000D02*
X153767000Y-106202000D01*
D14*
X153247000Y-100182000D02*
G75*
G02*
X153047000Y-100182000I-100000J0D01*
G01*
X153047000Y-100182000D02*
G75*
G02*
X153247000Y-100182000I100000J0D01*
G01*
D11*
%TO.C,D9*%
X144885000Y-118530000D02*
X141625000Y-118530000D01*
X144885000Y-120230000D02*
X141625000Y-120230000D01*
X144885000Y-120230000D02*
X144885000Y-118530000D01*
%TO.C,C39*%
X144524000Y-96601233D02*
X144524000Y-96893767D01*
X145544000Y-96601233D02*
X145544000Y-96893767D01*
%TO.C,C19*%
X144664165Y-101113000D02*
X144895835Y-101113000D01*
X144664165Y-101833000D02*
X144895835Y-101833000D01*
%TO.C,C29*%
X156853733Y-116838000D02*
X157146267Y-116838000D01*
X156853733Y-117858000D02*
X157146267Y-117858000D01*
%TO.C,R14*%
X118078823Y-96884556D02*
X118414065Y-96884556D01*
X118078823Y-97644556D02*
X118414065Y-97644556D01*
%TO.C,R27*%
X124399323Y-107460444D02*
X124734565Y-107460444D01*
X124399323Y-108220444D02*
X124734565Y-108220444D01*
D15*
%TO.C,Q1*%
X120102944Y-96630556D02*
X120102944Y-96887556D01*
X120102944Y-97092556D02*
X120102944Y-97164556D01*
X120102944Y-97092556D02*
X120102944Y-97201556D01*
X120102944Y-97092556D02*
X120102944Y-97364556D01*
X120102944Y-97715556D02*
X120102944Y-97900556D01*
X120102944Y-97900556D02*
X120902944Y-97900556D01*
X120902944Y-96630556D02*
X120102944Y-96630556D01*
X120902944Y-96884556D02*
X120902944Y-96630556D01*
X120902944Y-97143556D02*
X120902944Y-97094556D01*
X120902944Y-97365556D02*
X120902944Y-97094556D01*
X120902944Y-97365556D02*
X120902944Y-97094556D01*
X120902944Y-97365556D02*
X120902944Y-97433556D01*
X120902944Y-97744556D02*
X120902944Y-97900556D01*
D16*
X120044944Y-97645556D02*
G75*
G02*
X119944944Y-97645556I-50000J0D01*
G01*
X119944944Y-97645556D02*
G75*
G02*
X120044944Y-97645556I50000J0D01*
G01*
D11*
%TO.C,C15*%
X126395444Y-105638221D02*
X126395444Y-105869891D01*
X127115444Y-105638221D02*
X127115444Y-105869891D01*
%TO.C,R32*%
X144566621Y-99061000D02*
X144231379Y-99061000D01*
X144566621Y-99821000D02*
X144231379Y-99821000D01*
%TO.C,C11*%
X122703000Y-89972335D02*
X122703000Y-89740665D01*
X123423000Y-89972335D02*
X123423000Y-89740665D01*
%TO.C,R1*%
X116714000Y-88178621D02*
X116714000Y-87843379D01*
X117474000Y-88178621D02*
X117474000Y-87843379D01*
%TO.C,C28*%
X153795000Y-120187267D02*
X153795000Y-119894733D01*
X154815000Y-120187267D02*
X154815000Y-119894733D01*
%TO.C,C2*%
X128418000Y-93460835D02*
X128418000Y-93229165D01*
X129138000Y-93460835D02*
X129138000Y-93229165D01*
%TO.C,R7*%
X133055379Y-99061000D02*
X133390621Y-99061000D01*
X133055379Y-99821000D02*
X133390621Y-99821000D01*
D12*
%TO.C,Q10*%
X147422000Y-128981000D02*
X147422000Y-122987000D01*
X147483000Y-128981000D02*
X147422000Y-128981000D01*
X147603000Y-122987000D02*
X147422000Y-122987000D01*
X148873000Y-122987000D02*
X148815000Y-122987000D01*
X152806000Y-122987000D02*
X152625000Y-122987000D01*
X152806000Y-122987000D02*
X152806000Y-128981000D01*
X152806000Y-128981000D02*
X152745000Y-128981000D01*
X152136000Y-122184000D02*
G75*
G02*
X151892000Y-122184000I-122000J0D01*
G01*
X151892000Y-122184000D02*
G75*
G02*
X152136000Y-122184000I122000J0D01*
G01*
D15*
%TO.C,Q2*%
X120102944Y-99424556D02*
X120102944Y-99681556D01*
X120102944Y-99886556D02*
X120102944Y-99958556D01*
X120102944Y-99886556D02*
X120102944Y-99995556D01*
X120102944Y-99886556D02*
X120102944Y-100158556D01*
X120102944Y-100509556D02*
X120102944Y-100694556D01*
X120102944Y-100694556D02*
X120902944Y-100694556D01*
X120902944Y-99424556D02*
X120102944Y-99424556D01*
X120902944Y-99678556D02*
X120902944Y-99424556D01*
X120902944Y-99937556D02*
X120902944Y-99888556D01*
X120902944Y-100159556D02*
X120902944Y-99888556D01*
X120902944Y-100159556D02*
X120902944Y-99888556D01*
X120902944Y-100159556D02*
X120902944Y-100227556D01*
X120902944Y-100538556D02*
X120902944Y-100694556D01*
D16*
X120044944Y-100439556D02*
G75*
G02*
X119944944Y-100439556I-50000J0D01*
G01*
X119944944Y-100439556D02*
G75*
G02*
X120044944Y-100439556I50000J0D01*
G01*
D11*
%TO.C,C38*%
X146302000Y-96601233D02*
X146302000Y-96893767D01*
X147322000Y-96601233D02*
X147322000Y-96893767D01*
%TO.C,C36*%
X129561000Y-95769165D02*
X129561000Y-96000835D01*
X130281000Y-95769165D02*
X130281000Y-96000835D01*
D16*
%TO.C,D2*%
X139623000Y-96642000D02*
G75*
G02*
X139523000Y-96642000I-50000J0D01*
G01*
X139523000Y-96642000D02*
G75*
G02*
X139623000Y-96642000I50000J0D01*
G01*
D11*
%TO.C,C42*%
X128291000Y-82307165D02*
X128291000Y-82538835D01*
X129011000Y-82307165D02*
X129011000Y-82538835D01*
%TO.C,R22*%
X124399323Y-100334889D02*
X124734565Y-100334889D01*
X124399323Y-101094889D02*
X124734565Y-101094889D01*
%TO.C,R47*%
X137881379Y-81535000D02*
X138216621Y-81535000D01*
X137881379Y-82295000D02*
X138216621Y-82295000D01*
%TO.C,D11*%
X155322000Y-127401000D02*
X155322000Y-120391000D01*
X155322000Y-127401000D02*
X158622000Y-127401000D01*
X158622000Y-127401000D02*
X158622000Y-120391000D01*
%TO.C,C6*%
X138568165Y-85492000D02*
X138799835Y-85492000D01*
X138568165Y-86212000D02*
X138799835Y-86212000D01*
D12*
%TO.C,CN1*%
X127548600Y-79892500D02*
X127548600Y-78021500D01*
X128790600Y-79892500D02*
X127548600Y-79892500D01*
X129002600Y-75447500D02*
X134540600Y-75447500D01*
X129790600Y-79892500D02*
X129752600Y-79892500D01*
X130790600Y-79892500D02*
X130752600Y-79892500D01*
X131790600Y-79892500D02*
X131752600Y-79892500D01*
X132790600Y-79892500D02*
X132752600Y-79892500D01*
X133790600Y-79892500D02*
X133752600Y-79892500D01*
X135994600Y-79892500D02*
X134752600Y-79892500D01*
X135994600Y-79892500D02*
X135994600Y-78021500D01*
X135232600Y-80400500D02*
G75*
G02*
X134978600Y-80400500I-127000J0D01*
G01*
X134978600Y-80400500D02*
G75*
G02*
X135232600Y-80400500I127000J0D01*
G01*
X135232600Y-80400500D02*
G75*
G02*
X134978600Y-80400500I-127000J0D01*
G01*
X134978600Y-80400500D02*
G75*
G02*
X135232600Y-80400500I127000J0D01*
G01*
D15*
%TO.C,Q5*%
X120102944Y-107806556D02*
X120102944Y-108063556D01*
X120102944Y-108268556D02*
X120102944Y-108340556D01*
X120102944Y-108268556D02*
X120102944Y-108377556D01*
X120102944Y-108268556D02*
X120102944Y-108540556D01*
X120102944Y-108891556D02*
X120102944Y-109076556D01*
X120102944Y-109076556D02*
X120902944Y-109076556D01*
X120902944Y-107806556D02*
X120102944Y-107806556D01*
X120902944Y-108060556D02*
X120902944Y-107806556D01*
X120902944Y-108319556D02*
X120902944Y-108270556D01*
X120902944Y-108541556D02*
X120902944Y-108270556D01*
X120902944Y-108541556D02*
X120902944Y-108270556D01*
X120902944Y-108541556D02*
X120902944Y-108609556D01*
X120902944Y-108920556D02*
X120902944Y-109076556D01*
D16*
X120044944Y-108821556D02*
G75*
G02*
X119944944Y-108821556I-50000J0D01*
G01*
X119944944Y-108821556D02*
G75*
G02*
X120044944Y-108821556I50000J0D01*
G01*
D11*
%TO.C,C14*%
X126395444Y-102736721D02*
X126395444Y-102968391D01*
X127115444Y-102736721D02*
X127115444Y-102968391D01*
%TO.C,D7*%
X121680944Y-106335306D02*
X121680944Y-104375306D01*
X122880944Y-104375306D02*
X121680944Y-104375306D01*
X122880944Y-106335306D02*
X122880944Y-104375306D01*
D15*
%TO.C,Q3*%
X120102944Y-102218556D02*
X120102944Y-102475556D01*
X120102944Y-102680556D02*
X120102944Y-102752556D01*
X120102944Y-102680556D02*
X120102944Y-102789556D01*
X120102944Y-102680556D02*
X120102944Y-102952556D01*
X120102944Y-103303556D02*
X120102944Y-103488556D01*
X120102944Y-103488556D02*
X120902944Y-103488556D01*
X120902944Y-102218556D02*
X120102944Y-102218556D01*
X120902944Y-102472556D02*
X120902944Y-102218556D01*
X120902944Y-102731556D02*
X120902944Y-102682556D01*
X120902944Y-102953556D02*
X120902944Y-102682556D01*
X120902944Y-102953556D02*
X120902944Y-102682556D01*
X120902944Y-102953556D02*
X120902944Y-103021556D01*
X120902944Y-103332556D02*
X120902944Y-103488556D01*
D16*
X120044944Y-103233556D02*
G75*
G02*
X119944944Y-103233556I-50000J0D01*
G01*
X119944944Y-103233556D02*
G75*
G02*
X120044944Y-103233556I50000J0D01*
G01*
D12*
%TO.C,U1*%
X110684000Y-89872185D02*
X110684000Y-88334185D01*
X114935000Y-89084185D02*
X114935000Y-89122185D01*
X114935000Y-90084185D02*
X114935000Y-90122185D01*
X114935000Y-90084185D02*
X114935000Y-91303185D01*
X114935000Y-91084185D02*
X114935000Y-91122185D01*
X114935000Y-91303185D02*
X113016000Y-91303185D01*
X114984000Y-86903185D02*
X113015000Y-86903185D01*
X114984000Y-88123185D02*
X114984000Y-86903185D01*
D11*
X115824000Y-87793185D02*
X115443000Y-88047185D01*
X115443000Y-87539185D01*
X115824000Y-87793185D01*
G36*
X115824000Y-87793185D02*
G01*
X115443000Y-88047185D01*
X115443000Y-87539185D01*
X115824000Y-87793185D01*
G37*
%TO.C,R40*%
X143677621Y-117349000D02*
X143342379Y-117349000D01*
X143677621Y-118109000D02*
X143342379Y-118109000D01*
D12*
%TO.C,U5*%
X146644200Y-79892500D02*
X146644200Y-77973500D01*
X146863200Y-79892500D02*
X146825200Y-79892500D01*
X147863200Y-79892500D02*
X146644200Y-79892500D01*
X147863200Y-79892500D02*
X147825200Y-79892500D01*
X148075200Y-75641500D02*
X149613200Y-75641500D01*
X148863200Y-79892500D02*
X148825200Y-79892500D01*
X149824200Y-79941500D02*
X151044200Y-79941500D01*
X151044200Y-79941500D02*
X151044200Y-77972500D01*
D11*
X150154200Y-80781500D02*
X149900200Y-80400500D01*
X150408200Y-80400500D01*
X150154200Y-80781500D01*
G36*
X150154200Y-80781500D02*
G01*
X149900200Y-80400500D01*
X150408200Y-80400500D01*
X150154200Y-80781500D01*
G37*
%TO.C,R46*%
X140421379Y-81535000D02*
X140756621Y-81535000D01*
X140421379Y-82295000D02*
X140756621Y-82295000D01*
D13*
%TO.C,D13*%
X156335000Y-100463000D02*
X156335000Y-107563000D01*
X156335000Y-107563000D02*
X157536500Y-107563000D01*
X157536500Y-100463000D02*
X156335000Y-100463000D01*
X161233500Y-100463000D02*
X162435000Y-100463000D01*
X162435000Y-100463000D02*
X162435000Y-107563000D01*
X162435000Y-107563000D02*
X161233500Y-107563000D01*
D14*
X159485000Y-98763000D02*
G75*
G02*
X159285000Y-98763000I-100000J0D01*
G01*
X159285000Y-98763000D02*
G75*
G02*
X159485000Y-98763000I100000J0D01*
G01*
D17*
%TO.C,XTAL1*%
X124040900Y-86007297D02*
X124040900Y-86407903D01*
X125895100Y-86407903D02*
X125895100Y-86007297D01*
D11*
%TO.C,D5*%
X121680944Y-100724806D02*
X121680944Y-98764806D01*
X122880944Y-98764806D02*
X121680944Y-98764806D01*
X122880944Y-100724806D02*
X122880944Y-98764806D01*
%TO.C,R31*%
X137881379Y-99061000D02*
X138216621Y-99061000D01*
X137881379Y-99821000D02*
X138216621Y-99821000D01*
%TO.C,C25*%
X130958000Y-95769165D02*
X130958000Y-96000835D01*
X131678000Y-95769165D02*
X131678000Y-96000835D01*
%TO.C,R37*%
X125096000Y-116462121D02*
X125096000Y-116126879D01*
X125856000Y-116462121D02*
X125856000Y-116126879D01*
D15*
%TO.C,Q4*%
X120102944Y-105012556D02*
X120102944Y-105269556D01*
X120102944Y-105474556D02*
X120102944Y-105546556D01*
X120102944Y-105474556D02*
X120102944Y-105583556D01*
X120102944Y-105474556D02*
X120102944Y-105746556D01*
X120102944Y-106097556D02*
X120102944Y-106282556D01*
X120102944Y-106282556D02*
X120902944Y-106282556D01*
X120902944Y-105012556D02*
X120102944Y-105012556D01*
X120902944Y-105266556D02*
X120902944Y-105012556D01*
X120902944Y-105525556D02*
X120902944Y-105476556D01*
X120902944Y-105747556D02*
X120902944Y-105476556D01*
X120902944Y-105747556D02*
X120902944Y-105476556D01*
X120902944Y-105747556D02*
X120902944Y-105815556D01*
X120902944Y-106126556D02*
X120902944Y-106282556D01*
D16*
X120044944Y-106027556D02*
G75*
G02*
X119944944Y-106027556I-50000J0D01*
G01*
X119944944Y-106027556D02*
G75*
G02*
X120044944Y-106027556I50000J0D01*
G01*
D11*
%TO.C,R11*%
X140463000Y-95544621D02*
X140463000Y-95209379D01*
X141223000Y-95544621D02*
X141223000Y-95209379D01*
%TO.C,R39*%
X132208000Y-96052621D02*
X132208000Y-95717379D01*
X132968000Y-96052621D02*
X132968000Y-95717379D01*
%TO.C,R21*%
X124399323Y-98909778D02*
X124734565Y-98909778D01*
X124399323Y-99669778D02*
X124734565Y-99669778D01*
%TO.C,L2*%
X135665544Y-119869733D02*
X135665544Y-120212267D01*
X136685544Y-119869733D02*
X136685544Y-120212267D01*
%TO.C,C26*%
X137521816Y-120187267D02*
X137521816Y-119894733D01*
X138541816Y-120187267D02*
X138541816Y-119894733D01*
%TO.C,L3*%
X133809272Y-119869733D02*
X133809272Y-120212267D01*
X134829272Y-119869733D02*
X134829272Y-120212267D01*
%TO.C,R6*%
X120651000Y-83606621D02*
X120651000Y-83271379D01*
X121411000Y-83606621D02*
X121411000Y-83271379D01*
%TO.C,R24*%
X124399323Y-103185111D02*
X124734565Y-103185111D01*
X124399323Y-103945111D02*
X124734565Y-103945111D01*
%TO.C,C12*%
X126395444Y-96933721D02*
X126395444Y-97165391D01*
X127115444Y-96933721D02*
X127115444Y-97165391D01*
%TO.C,R13*%
X122683000Y-92459121D02*
X122683000Y-92123879D01*
X123443000Y-92459121D02*
X123443000Y-92123879D01*
%TO.C,C23*%
X124725165Y-114194000D02*
X124956835Y-114194000D01*
X124725165Y-114914000D02*
X124956835Y-114914000D01*
%TO.C,R33*%
X123826000Y-116462121D02*
X123826000Y-116126879D01*
X124586000Y-116462121D02*
X124586000Y-116126879D01*
%TO.C,C10*%
X150483835Y-91715000D02*
X150252165Y-91715000D01*
X150483835Y-92435000D02*
X150252165Y-92435000D01*
%TO.C,C44*%
X119401000Y-83554835D02*
X119401000Y-83323165D01*
X120121000Y-83554835D02*
X120121000Y-83323165D01*
%TO.C,R4*%
X116714000Y-94020621D02*
X116714000Y-93685379D01*
X117474000Y-94020621D02*
X117474000Y-93685379D01*
%TO.C,R8*%
X135803621Y-99061000D02*
X135468379Y-99061000D01*
X135803621Y-99821000D02*
X135468379Y-99821000D01*
%TO.C,C43*%
X118131000Y-83554835D02*
X118131000Y-83323165D01*
X118851000Y-83554835D02*
X118851000Y-83323165D01*
%TO.C,R17*%
X118078823Y-105266556D02*
X118414065Y-105266556D01*
X118078823Y-106026556D02*
X118414065Y-106026556D01*
%TO.C,R35*%
X122534936Y-121988000D02*
X126889064Y-121988000D01*
X122534936Y-125408000D02*
X126889064Y-125408000D01*
%TO.C,C22*%
X137611665Y-108225000D02*
X137843335Y-108225000D01*
X137611665Y-108945000D02*
X137843335Y-108945000D01*
D10*
%TO.C,kibuzzard-65829086*%
G36*
X155214409Y-128245524D02*
G01*
X155258065Y-128266955D01*
X155286164Y-128305531D01*
X155295530Y-128364110D01*
X155286005Y-128425864D01*
X155257430Y-128466345D01*
X155210123Y-128488729D01*
X155144400Y-128496190D01*
X155080900Y-128496190D01*
X155080900Y-128242190D01*
X155119635Y-128239015D01*
X155158370Y-128238380D01*
X155214409Y-128245524D01*
G37*
G36*
X156404790Y-127841095D02*
G01*
X156469061Y-127850629D01*
X156532089Y-127866416D01*
X156593265Y-127888306D01*
X156652002Y-127916086D01*
X156707733Y-127949490D01*
X156759921Y-127988195D01*
X156808064Y-128031829D01*
X156851698Y-128079972D01*
X156890404Y-128132161D01*
X156923808Y-128187891D01*
X156951588Y-128246628D01*
X156973477Y-128307804D01*
X156989265Y-128370832D01*
X156998798Y-128435104D01*
X157001987Y-128500000D01*
X156998798Y-128564896D01*
X156989265Y-128629168D01*
X156973477Y-128692196D01*
X156951588Y-128753372D01*
X156923808Y-128812109D01*
X156890404Y-128867839D01*
X156851698Y-128920028D01*
X156808064Y-128968171D01*
X156759921Y-129011805D01*
X156707733Y-129050510D01*
X156652002Y-129083914D01*
X156593265Y-129111694D01*
X156532089Y-129133584D01*
X156469061Y-129149371D01*
X156404790Y-129158905D01*
X156339893Y-129162093D01*
X156075310Y-129162093D01*
X155875920Y-129162093D01*
X155080900Y-129162093D01*
X154924690Y-129162093D01*
X154660107Y-129162093D01*
X154595210Y-129158905D01*
X154530939Y-129149371D01*
X154467911Y-129133584D01*
X154406735Y-129111694D01*
X154347998Y-129083914D01*
X154292267Y-129050510D01*
X154240079Y-129011805D01*
X154191936Y-128968171D01*
X154148302Y-128920028D01*
X154109596Y-128867839D01*
X154076192Y-128812109D01*
X154048412Y-128753372D01*
X154026523Y-128692196D01*
X154010735Y-128629168D01*
X154001202Y-128564896D01*
X153998013Y-128500000D01*
X154001202Y-128435104D01*
X154010735Y-128370832D01*
X154026523Y-128307804D01*
X154048412Y-128246628D01*
X154076192Y-128187891D01*
X154109596Y-128132161D01*
X154117473Y-128121540D01*
X154924690Y-128121540D01*
X154924690Y-128897510D01*
X155080900Y-128897510D01*
X155080900Y-128632080D01*
X155136780Y-128632080D01*
X155230689Y-128625095D01*
X155309218Y-128604140D01*
X155372365Y-128569215D01*
X155418579Y-128518627D01*
X155426181Y-128500000D01*
X155541910Y-128500000D01*
X155541910Y-128628270D01*
X155741300Y-128628270D01*
X155741300Y-128849250D01*
X155875920Y-128849250D01*
X155875920Y-128628270D01*
X156075310Y-128628270D01*
X156075310Y-128500000D01*
X155875920Y-128500000D01*
X155875920Y-128279020D01*
X155741300Y-128279020D01*
X155741300Y-128500000D01*
X155541910Y-128500000D01*
X155426181Y-128500000D01*
X155446307Y-128450682D01*
X155455550Y-128365380D01*
X155446378Y-128280925D01*
X155418861Y-128213827D01*
X155373000Y-128164085D01*
X155310488Y-128129866D01*
X155233018Y-128109334D01*
X155140590Y-128102490D01*
X155091060Y-128103760D01*
X155033910Y-128106935D01*
X154976125Y-128112650D01*
X154924690Y-128121540D01*
X154117473Y-128121540D01*
X154148302Y-128079972D01*
X154191936Y-128031829D01*
X154240079Y-127988195D01*
X154292267Y-127949490D01*
X154347998Y-127916086D01*
X154406735Y-127888306D01*
X154467911Y-127866416D01*
X154530939Y-127850629D01*
X154595210Y-127841095D01*
X154660107Y-127837907D01*
X154924690Y-127837907D01*
X156075310Y-127837907D01*
X156339893Y-127837907D01*
X156404790Y-127841095D01*
G37*
D18*
%TO.C,IC1*%
X124191000Y-81330000D02*
X125491000Y-81330000D01*
X125491000Y-83530000D02*
X124191000Y-83530000D01*
D14*
X125957000Y-83700000D02*
G75*
G02*
X125757000Y-83700000I-100000J0D01*
G01*
X125757000Y-83700000D02*
G75*
G02*
X125957000Y-83700000I100000J0D01*
G01*
D11*
%TO.C,R2*%
X125308379Y-88647000D02*
X125643621Y-88647000D01*
X125308379Y-89407000D02*
X125643621Y-89407000D01*
%TO.C,C7*%
X130567165Y-84603000D02*
X130798835Y-84603000D01*
X130567165Y-85323000D02*
X130798835Y-85323000D01*
%TO.C,C33*%
X154684000Y-104667267D02*
X154684000Y-104374733D01*
X155704000Y-104667267D02*
X155704000Y-104374733D01*
%TO.C,R30*%
X143850379Y-114809000D02*
X144185621Y-114809000D01*
X143850379Y-115569000D02*
X144185621Y-115569000D01*
D12*
%TO.C,CN2*%
X137096400Y-79892500D02*
X137096400Y-78021500D01*
X138338400Y-79892500D02*
X137096400Y-79892500D01*
X138550400Y-75447500D02*
X144088400Y-75447500D01*
X139338400Y-79892500D02*
X139300400Y-79892500D01*
X140338400Y-79892500D02*
X140300400Y-79892500D01*
X141338400Y-79892500D02*
X141300400Y-79892500D01*
X142338400Y-79892500D02*
X142300400Y-79892500D01*
X143338400Y-79892500D02*
X143300400Y-79892500D01*
X145542400Y-79892500D02*
X144300400Y-79892500D01*
X145542400Y-79892500D02*
X145542400Y-78021500D01*
X144780400Y-80400500D02*
G75*
G02*
X144526400Y-80400500I-127000J0D01*
G01*
X144526400Y-80400500D02*
G75*
G02*
X144780400Y-80400500I127000J0D01*
G01*
X144780400Y-80400500D02*
G75*
G02*
X144526400Y-80400500I-127000J0D01*
G01*
X144526400Y-80400500D02*
G75*
G02*
X144780400Y-80400500I127000J0D01*
G01*
D16*
%TO.C,D1*%
X143433000Y-94112000D02*
G75*
G02*
X143333000Y-94112000I-50000J0D01*
G01*
X143333000Y-94112000D02*
G75*
G02*
X143433000Y-94112000I50000J0D01*
G01*
D12*
%TO.C,U2*%
X110684000Y-95735371D02*
X110684000Y-94197371D01*
X114935000Y-94947371D02*
X114935000Y-94985371D01*
X114935000Y-95947371D02*
X114935000Y-95985371D01*
X114935000Y-95947371D02*
X114935000Y-97166371D01*
X114935000Y-96947371D02*
X114935000Y-96985371D01*
X114935000Y-97166371D02*
X113016000Y-97166371D01*
X114984000Y-92766371D02*
X113015000Y-92766371D01*
X114984000Y-93986371D02*
X114984000Y-92766371D01*
D11*
X115824000Y-93656371D02*
X115443000Y-93910371D01*
X115443000Y-93402371D01*
X115824000Y-93656371D01*
G36*
X115824000Y-93656371D02*
G01*
X115443000Y-93910371D01*
X115443000Y-93402371D01*
X115824000Y-93656371D01*
G37*
D12*
%TO.C,X1*%
X124318000Y-90849000D02*
X124318000Y-91086000D01*
X124318000Y-92048000D02*
X124318000Y-92285000D01*
X124333000Y-93320000D02*
X125633000Y-93320000D01*
X125603000Y-89814000D02*
X124303000Y-89814000D01*
X125618000Y-90849000D02*
X125618000Y-91086000D01*
X125618000Y-92048000D02*
X125618000Y-92285000D01*
D11*
%TO.C,C32*%
X152634733Y-109218000D02*
X152927267Y-109218000D01*
X152634733Y-110238000D02*
X152927267Y-110238000D01*
%TO.C,R28*%
X124399323Y-108885556D02*
X124734565Y-108885556D01*
X124399323Y-109645556D02*
X124734565Y-109645556D01*
%TO.C,C31*%
X152831748Y-111231000D02*
X154254252Y-111231000D01*
X152831748Y-113051000D02*
X154254252Y-113051000D01*
D19*
%TO.C,U7*%
X137229000Y-100674000D02*
X140771000Y-100674000D01*
X137229000Y-107326000D02*
X137229000Y-100674000D01*
X140771000Y-100674000D02*
X140771000Y-107326000D01*
X140771000Y-107326000D02*
X137229000Y-107326000D01*
D20*
X140169000Y-106925000D02*
G75*
G02*
X139869000Y-106925000I-150000J0D01*
G01*
X139869000Y-106925000D02*
G75*
G02*
X140169000Y-106925000I150000J0D01*
G01*
X142021000Y-107559000D02*
G75*
G02*
X141721000Y-107559000I-150000J0D01*
G01*
X141721000Y-107559000D02*
G75*
G02*
X142021000Y-107559000I150000J0D01*
G01*
D11*
%TO.C,Q11*%
X134368000Y-114899000D02*
X135888000Y-114899000D01*
X134368000Y-114949000D02*
X134368000Y-114899000D01*
X134368000Y-116849000D02*
X134368000Y-116069000D01*
X134368000Y-118019000D02*
X134368000Y-117969000D01*
X135888000Y-114899000D02*
X135888000Y-115899000D01*
X135888000Y-117019000D02*
X135888000Y-118019000D01*
X135888000Y-118019000D02*
X134368000Y-118019000D01*
X134068000Y-116409000D02*
X133588000Y-116409000D01*
X133828000Y-116079000D01*
X134068000Y-116409000D01*
G36*
X134068000Y-116409000D02*
G01*
X133588000Y-116409000D01*
X133828000Y-116079000D01*
X134068000Y-116409000D01*
G37*
%TO.C,R5*%
X124754621Y-93600000D02*
X124419379Y-93600000D01*
X124754621Y-94360000D02*
X124419379Y-94360000D01*
%TO.C,R34*%
X122534936Y-117924000D02*
X126889064Y-117924000D01*
X122534936Y-121344000D02*
X126889064Y-121344000D01*
D10*
%TO.C,kibuzzard-6582907D*%
G36*
X117761875Y-128573025D02*
G01*
X117798070Y-128654940D01*
X117785370Y-128711455D01*
X117752985Y-128745745D01*
X117707900Y-128762255D01*
X117655830Y-128766700D01*
X117617095Y-128765430D01*
X117580900Y-128761620D01*
X117580900Y-128548260D01*
X117664720Y-128548260D01*
X117761875Y-128573025D01*
G37*
G36*
X117693930Y-128236475D02*
G01*
X117729490Y-128249175D01*
X117753620Y-128275845D01*
X117762510Y-128320930D01*
X117732030Y-128392685D01*
X117641860Y-128418720D01*
X117580900Y-128418720D01*
X117580900Y-128238380D01*
X117615190Y-128234570D01*
X117652020Y-128233300D01*
X117693930Y-128236475D01*
G37*
G36*
X118905288Y-127836039D02*
G01*
X118970052Y-127845646D01*
X119033564Y-127861555D01*
X119095210Y-127883612D01*
X119154397Y-127911606D01*
X119210555Y-127945266D01*
X119263144Y-127984268D01*
X119311656Y-128028237D01*
X119355625Y-128076750D01*
X119394628Y-128129338D01*
X119428288Y-128185497D01*
X119456281Y-128244684D01*
X119478338Y-128306330D01*
X119494247Y-128369841D01*
X119503854Y-128434606D01*
X119507067Y-128500000D01*
X119503854Y-128565394D01*
X119494247Y-128630159D01*
X119478338Y-128693670D01*
X119456281Y-128755316D01*
X119428288Y-128814503D01*
X119394628Y-128870662D01*
X119355625Y-128923250D01*
X119311656Y-128971763D01*
X119263144Y-129015732D01*
X119210555Y-129054734D01*
X119154397Y-129088394D01*
X119095210Y-129116388D01*
X119033564Y-129138445D01*
X118970052Y-129154354D01*
X118905288Y-129163961D01*
X118839893Y-129167173D01*
X118575310Y-129167173D01*
X118375920Y-129167173D01*
X117643130Y-129167173D01*
X117424690Y-129167173D01*
X117160107Y-129167173D01*
X117094712Y-129163961D01*
X117029948Y-129154354D01*
X116966436Y-129138445D01*
X116904790Y-129116388D01*
X116845603Y-129088394D01*
X116789445Y-129054734D01*
X116736856Y-129015732D01*
X116688344Y-128971763D01*
X116644375Y-128923250D01*
X116605372Y-128870662D01*
X116571712Y-128814503D01*
X116543719Y-128755316D01*
X116521662Y-128693670D01*
X116505753Y-128630159D01*
X116496146Y-128565394D01*
X116492933Y-128500000D01*
X116496146Y-128434606D01*
X116505753Y-128369841D01*
X116521662Y-128306330D01*
X116543719Y-128244684D01*
X116571712Y-128185497D01*
X116605372Y-128129338D01*
X116614923Y-128116460D01*
X117424690Y-128116460D01*
X117424690Y-128879730D01*
X117479617Y-128889731D01*
X117535180Y-128896875D01*
X117590107Y-128901161D01*
X117643130Y-128902590D01*
X117705836Y-128899574D01*
X117764415Y-128890525D01*
X117817120Y-128874333D01*
X117862205Y-128849885D01*
X117927610Y-128773685D01*
X117945707Y-128720186D01*
X117951740Y-128654940D01*
X117944596Y-128601600D01*
X117923165Y-128550800D01*
X117881731Y-128506350D01*
X117859347Y-128494920D01*
X118041910Y-128494920D01*
X118041910Y-128623190D01*
X118241300Y-128623190D01*
X118241300Y-128844170D01*
X118375920Y-128844170D01*
X118375920Y-128623190D01*
X118575310Y-128623190D01*
X118575310Y-128494920D01*
X118375920Y-128494920D01*
X118375920Y-128273940D01*
X118241300Y-128273940D01*
X118241300Y-128494920D01*
X118041910Y-128494920D01*
X117859347Y-128494920D01*
X117814580Y-128472060D01*
X117887605Y-128403480D01*
X117908084Y-128357125D01*
X117914910Y-128304420D01*
X117903480Y-128230760D01*
X117860300Y-128164085D01*
X117772670Y-128115825D01*
X117708535Y-128102014D01*
X117627890Y-128097410D01*
X117522480Y-128103125D01*
X117424690Y-128116460D01*
X116614923Y-128116460D01*
X116644375Y-128076750D01*
X116688344Y-128028237D01*
X116736856Y-127984268D01*
X116789445Y-127945266D01*
X116845603Y-127911606D01*
X116904790Y-127883612D01*
X116966436Y-127861555D01*
X117029948Y-127845646D01*
X117094712Y-127836039D01*
X117160107Y-127832827D01*
X117424690Y-127832827D01*
X118575310Y-127832827D01*
X118839893Y-127832827D01*
X118905288Y-127836039D01*
G37*
D12*
%TO.C,Q7*%
X135399333Y-128981000D02*
X135399333Y-122987000D01*
X135460333Y-128981000D02*
X135399333Y-128981000D01*
X135580333Y-122987000D02*
X135399333Y-122987000D01*
X136850333Y-122987000D02*
X136792333Y-122987000D01*
X140783333Y-122987000D02*
X140602333Y-122987000D01*
X140783333Y-122987000D02*
X140783333Y-128981000D01*
X140783333Y-128981000D02*
X140722333Y-128981000D01*
X140113333Y-122184000D02*
G75*
G02*
X139869333Y-122184000I-122000J0D01*
G01*
X139869333Y-122184000D02*
G75*
G02*
X140113333Y-122184000I122000J0D01*
G01*
D11*
%TO.C,L4*%
X145470632Y-119869733D02*
X145470632Y-120212267D01*
X146490632Y-119869733D02*
X146490632Y-120212267D01*
%TO.C,R19*%
X124399323Y-96059556D02*
X124734565Y-96059556D01*
X124399323Y-96819556D02*
X124734565Y-96819556D01*
%TO.C,L1*%
X124486800Y-94763000D02*
X124687200Y-94763000D01*
X124486800Y-95483000D02*
X124687200Y-95483000D01*
D12*
%TO.C,U10*%
X122046800Y-79892500D02*
X122046800Y-77973500D01*
X122265800Y-79892500D02*
X122227800Y-79892500D01*
X123265800Y-79892500D02*
X122046800Y-79892500D01*
X123265800Y-79892500D02*
X123227800Y-79892500D01*
X123477800Y-75641500D02*
X125015800Y-75641500D01*
X124265800Y-79892500D02*
X124227800Y-79892500D01*
X125226800Y-79941500D02*
X126446800Y-79941500D01*
X126446800Y-79941500D02*
X126446800Y-77972500D01*
D11*
X125556800Y-80781500D02*
X125302800Y-80400500D01*
X125810800Y-80400500D01*
X125556800Y-80781500D01*
G36*
X125556800Y-80781500D02*
G01*
X125302800Y-80400500D01*
X125810800Y-80400500D01*
X125556800Y-80781500D01*
G37*
D13*
%TO.C,U9*%
X148597000Y-95348500D02*
X150597000Y-95348500D01*
X148597000Y-97608500D02*
X150597000Y-97608500D01*
D11*
%TO.C,R38*%
X132343000Y-119658621D02*
X132343000Y-119323379D01*
X133103000Y-119658621D02*
X133103000Y-119323379D01*
D19*
%TO.C,U6*%
X143386000Y-87644000D02*
X146428000Y-87644000D01*
X143386000Y-92696000D02*
X143386000Y-87644000D01*
X146428000Y-87644000D02*
X146428000Y-92696000D01*
X146428000Y-92696000D02*
X143386000Y-92696000D01*
D20*
X142286000Y-87518000D02*
G75*
G02*
X141984000Y-87518000I-151000J0D01*
G01*
X141984000Y-87518000D02*
G75*
G02*
X142286000Y-87518000I151000J0D01*
G01*
X144288000Y-88265000D02*
G75*
G02*
X143988000Y-88265000I-150000J0D01*
G01*
X143988000Y-88265000D02*
G75*
G02*
X144288000Y-88265000I150000J0D01*
G01*
D11*
%TO.C,C40*%
X122703000Y-84847165D02*
X122703000Y-85078835D01*
X123423000Y-84847165D02*
X123423000Y-85078835D01*
%TO.C,C37*%
X151532000Y-96482335D02*
X151532000Y-96250665D01*
X152252000Y-96482335D02*
X152252000Y-96250665D01*
%TO.C,Q8*%
X140464000Y-114899000D02*
X141984000Y-114899000D01*
X140464000Y-114949000D02*
X140464000Y-114899000D01*
X140464000Y-116849000D02*
X140464000Y-116069000D01*
X140464000Y-118019000D02*
X140464000Y-117969000D01*
X141984000Y-114899000D02*
X141984000Y-115899000D01*
X141984000Y-117019000D02*
X141984000Y-118019000D01*
X141984000Y-118019000D02*
X140464000Y-118019000D01*
X140164000Y-116409000D02*
X139684000Y-116409000D01*
X139924000Y-116079000D01*
X140164000Y-116409000D01*
G36*
X140164000Y-116409000D02*
G01*
X139684000Y-116409000D01*
X139924000Y-116079000D01*
X140164000Y-116409000D01*
G37*
%TO.C,C17*%
X126395444Y-111129425D02*
X126395444Y-111361095D01*
X127115444Y-111129425D02*
X127115444Y-111361095D01*
%TO.C,C30*%
X152831748Y-113898000D02*
X154254252Y-113898000D01*
X152831748Y-115718000D02*
X154254252Y-115718000D01*
%TO.C,C8*%
X145149835Y-86635000D02*
X144918165Y-86635000D01*
X145149835Y-87355000D02*
X144918165Y-87355000D01*
%TO.C,C16*%
X126395444Y-108539721D02*
X126395444Y-108771391D01*
X127115444Y-108539721D02*
X127115444Y-108771391D01*
%TO.C,C5*%
X137054000Y-94626165D02*
X137054000Y-94857835D01*
X137774000Y-94626165D02*
X137774000Y-94857835D01*
%TO.C,U3*%
X129994000Y-86098800D02*
X130469000Y-86098800D01*
X129994000Y-86573800D02*
X129994000Y-86098800D01*
X129994000Y-93318800D02*
X129994000Y-92843800D01*
X130469000Y-93318800D02*
X129994000Y-93318800D01*
X136739000Y-86098800D02*
X137214000Y-86098800D01*
X137214000Y-86098800D02*
X137214000Y-86573800D01*
X137214000Y-92843800D02*
X137214000Y-93318800D01*
X137214000Y-93318800D02*
X136739000Y-93318800D01*
X129464000Y-86958800D02*
X129134000Y-87198800D01*
X129134000Y-86718800D01*
X129464000Y-86958800D01*
G36*
X129464000Y-86958800D02*
G01*
X129134000Y-87198800D01*
X129134000Y-86718800D01*
X129464000Y-86958800D01*
G37*
%TO.C,D6*%
X121680944Y-103530056D02*
X121680944Y-101570056D01*
X122880944Y-101570056D02*
X121680944Y-101570056D01*
X122880944Y-103530056D02*
X122880944Y-101570056D01*
%TO.C,R49*%
X146517379Y-114809000D02*
X146852621Y-114809000D01*
X146517379Y-115569000D02*
X146852621Y-115569000D01*
%TO.C,L5*%
X147326904Y-119869733D02*
X147326904Y-120212267D01*
X148346904Y-119869733D02*
X148346904Y-120212267D01*
D12*
%TO.C,U12*%
X110684000Y-84009000D02*
X110684000Y-82471000D01*
X114935000Y-83221000D02*
X114935000Y-83259000D01*
X114935000Y-84221000D02*
X114935000Y-84259000D01*
X114935000Y-84221000D02*
X114935000Y-85440000D01*
X114935000Y-85221000D02*
X114935000Y-85259000D01*
X114935000Y-85440000D02*
X113016000Y-85440000D01*
X114984000Y-81040000D02*
X113015000Y-81040000D01*
X114984000Y-82260000D02*
X114984000Y-81040000D01*
D11*
X115824000Y-81930000D02*
X115443000Y-82184000D01*
X115443000Y-81676000D01*
X115824000Y-81930000D01*
G36*
X115824000Y-81930000D02*
G01*
X115443000Y-82184000D01*
X115443000Y-81676000D01*
X115824000Y-81930000D01*
G37*
%TO.C,R16*%
X118078823Y-102472556D02*
X118414065Y-102472556D01*
X118078823Y-103232556D02*
X118414065Y-103232556D01*
%TO.C,TP1*%
X121604000Y-85725000D02*
G75*
G02*
X120204000Y-85725000I-700000J0D01*
G01*
X120204000Y-85725000D02*
G75*
G02*
X121604000Y-85725000I700000J0D01*
G01*
%TO.C,C20*%
X144895835Y-104161000D02*
X144664165Y-104161000D01*
X144895835Y-104881000D02*
X144664165Y-104881000D01*
D12*
%TO.C,U11*%
X116545000Y-79883000D02*
X116545000Y-77964000D01*
X116764000Y-79883000D02*
X116726000Y-79883000D01*
X117764000Y-79883000D02*
X116545000Y-79883000D01*
X117764000Y-79883000D02*
X117726000Y-79883000D01*
X117976000Y-75632000D02*
X119514000Y-75632000D01*
X118764000Y-79883000D02*
X118726000Y-79883000D01*
X119725000Y-79932000D02*
X120945000Y-79932000D01*
X120945000Y-79932000D02*
X120945000Y-77963000D01*
D11*
X120055000Y-80772000D02*
X119801000Y-80391000D01*
X120309000Y-80391000D01*
X120055000Y-80772000D01*
G36*
X120055000Y-80772000D02*
G01*
X119801000Y-80391000D01*
X120309000Y-80391000D01*
X120055000Y-80772000D01*
G37*
%TO.C,R3*%
X130515379Y-83440000D02*
X130850621Y-83440000D01*
X130515379Y-84200000D02*
X130850621Y-84200000D01*
%TO.C,R25*%
X124399323Y-104610222D02*
X124734565Y-104610222D01*
X124399323Y-105370222D02*
X124734565Y-105370222D01*
%TO.C,R15*%
X118078823Y-99678556D02*
X118414065Y-99678556D01*
X118078823Y-100438556D02*
X118414065Y-100438556D01*
%TO.C,C18*%
X144664165Y-102383000D02*
X144895835Y-102383000D01*
X144664165Y-103103000D02*
X144895835Y-103103000D01*
%TO.C,R10*%
X141733000Y-95209379D02*
X141733000Y-95544621D01*
X142493000Y-95209379D02*
X142493000Y-95544621D01*
%TO.C,R48*%
X149057379Y-114809000D02*
X149392621Y-114809000D01*
X149057379Y-115569000D02*
X149392621Y-115569000D01*
D12*
%TO.C,CN6*%
X110490000Y-105621556D02*
X110490000Y-100083556D01*
X114935000Y-98629556D02*
X113064000Y-98629556D01*
X114935000Y-98629556D02*
X114935000Y-99871556D01*
X114935000Y-100833556D02*
X114935000Y-100871556D01*
X114935000Y-101833556D02*
X114935000Y-101871556D01*
X114935000Y-102833556D02*
X114935000Y-102871556D01*
X114935000Y-103833556D02*
X114935000Y-103871556D01*
X114935000Y-104833556D02*
X114935000Y-104871556D01*
X114935000Y-105833556D02*
X114935000Y-107075556D01*
X114935000Y-107075556D02*
X113064000Y-107075556D01*
X115570000Y-99518556D02*
G75*
G02*
X115316000Y-99518556I-127000J0D01*
G01*
X115316000Y-99518556D02*
G75*
G02*
X115570000Y-99518556I127000J0D01*
G01*
X115570000Y-99518556D02*
G75*
G02*
X115316000Y-99518556I-127000J0D01*
G01*
X115316000Y-99518556D02*
G75*
G02*
X115570000Y-99518556I127000J0D01*
G01*
D11*
%TO.C,R20*%
X124399323Y-97484667D02*
X124734565Y-97484667D01*
X124399323Y-98244667D02*
X124734565Y-98244667D01*
%TD*%
M02*
