%TF.GenerationSoftware,KiCad,Pcbnew,9.0.7*%
%TF.CreationDate,2026-03-11T04:27:33+08:00*%
%TF.ProjectId,CawBMS,43617742-4d53-42e6-9b69-6361645f7063,rev?*%
%TF.SameCoordinates,Original*%
%TF.FileFunction,Soldermask,Top*%
%TF.FilePolarity,Negative*%
%FSLAX46Y46*%
G04 Gerber Fmt 4.6, Leading zero omitted, Abs format (unit mm)*
G04 Created by KiCad (PCBNEW 9.0.7) date 2026-03-11 04:27:33*
%MOMM*%
%LPD*%
G01*
G04 APERTURE LIST*
G04 Aperture macros list*
%AMRoundRect*
0 Rectangle with rounded corners*
0 $1 Rounding radius*
0 $2 $3 $4 $5 $6 $7 $8 $9 X,Y pos of 4 corners*
0 Add a 4 corners polygon primitive as box body*
4,1,4,$2,$3,$4,$5,$6,$7,$8,$9,$2,$3,0*
0 Add four circle primitives for the rounded corners*
1,1,$1+$1,$2,$3*
1,1,$1+$1,$4,$5*
1,1,$1+$1,$6,$7*
1,1,$1+$1,$8,$9*
0 Add four rect primitives between the rounded corners*
20,1,$1+$1,$2,$3,$4,$5,0*
20,1,$1+$1,$4,$5,$6,$7,0*
20,1,$1+$1,$6,$7,$8,$9,0*
20,1,$1+$1,$8,$9,$2,$3,0*%
G04 Aperture macros list end*
%ADD10C,0.010000*%
%ADD11RoundRect,0.237500X-0.237500X0.300000X-0.237500X-0.300000X0.237500X-0.300000X0.237500X0.300000X0*%
%ADD12RoundRect,0.155000X0.155000X-0.212500X0.155000X0.212500X-0.155000X0.212500X-0.155000X-0.212500X0*%
%ADD13C,0.700000*%
%ADD14C,4.400000*%
%ADD15R,0.749000X1.300000*%
%ADD16R,4.560000X4.000000*%
%ADD17RoundRect,0.150000X0.200000X-0.150000X0.200000X0.150000X-0.200000X0.150000X-0.200000X-0.150000X0*%
%ADD18RoundRect,0.237500X0.300000X0.237500X-0.300000X0.237500X-0.300000X-0.237500X0.300000X-0.237500X0*%
%ADD19RoundRect,0.160000X-0.197500X-0.160000X0.197500X-0.160000X0.197500X0.160000X-0.197500X0.160000X0*%
%ADD20RoundRect,0.249999X-0.450001X-1.425001X0.450001X-1.425001X0.450001X1.425001X-0.450001X1.425001X0*%
%ADD21R,0.500000X1.700000*%
%ADD22R,1.200000X2.500000*%
%ADD23RoundRect,0.160000X0.197500X0.160000X-0.197500X0.160000X-0.197500X-0.160000X0.197500X-0.160000X0*%
%ADD24RoundRect,0.155000X-0.155000X0.212500X-0.155000X-0.212500X0.155000X-0.212500X0.155000X0.212500X0*%
%ADD25R,2.200000X1.500000*%
%ADD26RoundRect,0.250000X-0.650000X1.500000X-0.650000X-1.500000X0.650000X-1.500000X0.650000X1.500000X0*%
%ADD27RoundRect,0.250000X0.550000X-1.500000X0.550000X1.500000X-0.550000X1.500000X-0.550000X-1.500000X0*%
%ADD28RoundRect,0.250000X0.350000X0.450000X-0.350000X0.450000X-0.350000X-0.450000X0.350000X-0.450000X0*%
%ADD29RoundRect,0.160000X0.160000X-0.197500X0.160000X0.197500X-0.160000X0.197500X-0.160000X-0.197500X0*%
%ADD30RoundRect,0.155000X-0.212500X-0.155000X0.212500X-0.155000X0.212500X0.155000X-0.212500X0.155000X0*%
%ADD31RoundRect,0.250000X0.250000X0.250000X-0.250000X0.250000X-0.250000X-0.250000X0.250000X-0.250000X0*%
%ADD32RoundRect,0.237500X-0.300000X-0.237500X0.300000X-0.237500X0.300000X0.237500X-0.300000X0.237500X0*%
%ADD33R,0.150000X0.250000*%
%ADD34R,0.500000X0.250000*%
%ADD35RoundRect,0.237500X0.237500X-0.300000X0.237500X0.300000X-0.237500X0.300000X-0.237500X-0.300000X0*%
%ADD36RoundRect,0.160000X0.160000X-0.222500X0.160000X0.222500X-0.160000X0.222500X-0.160000X-0.222500X0*%
%ADD37RoundRect,1.500000X-1.000000X-1.000000X1.000000X-1.000000X1.000000X1.000000X-1.000000X1.000000X0*%
%ADD38RoundRect,0.250000X0.650000X-1.500000X0.650000X1.500000X-0.650000X1.500000X-0.650000X-1.500000X0*%
%ADD39R,1.700000X0.500000*%
%ADD40R,2.500000X1.200000*%
%ADD41RoundRect,0.316750X-1.320250X0.950250X-1.320250X-0.950250X1.320250X-0.950250X1.320250X0.950250X0*%
%ADD42RoundRect,0.254000X-0.647700X-0.711200X0.647700X-0.711200X0.647700X0.711200X-0.647700X0.711200X0*%
%ADD43RoundRect,0.237500X-0.237500X0.287500X-0.237500X-0.287500X0.237500X-0.287500X0.237500X0.287500X0*%
%ADD44RoundRect,0.155000X0.212500X0.155000X-0.212500X0.155000X-0.212500X-0.155000X0.212500X-0.155000X0*%
%ADD45RoundRect,0.096520X0.335000X-0.150000X0.335000X0.150000X-0.335000X0.150000X-0.335000X-0.150000X0*%
%ADD46RoundRect,0.160000X-0.160000X0.222500X-0.160000X-0.222500X0.160000X-0.222500X0.160000X0.222500X0*%
%ADD47R,1.700000X0.650000*%
%ADD48RoundRect,0.250000X-0.412500X-0.650000X0.412500X-0.650000X0.412500X0.650000X-0.412500X0.650000X0*%
%ADD49O,1.742000X0.364000*%
%ADD50RoundRect,0.150000X-0.587500X-0.150000X0.587500X-0.150000X0.587500X0.150000X-0.587500X0.150000X0*%
%ADD51RoundRect,0.160000X-0.222500X-0.160000X0.222500X-0.160000X0.222500X0.160000X-0.222500X0.160000X0*%
%ADD52R,0.660000X0.320000*%
%ADD53RoundRect,0.102000X0.500000X-0.800000X0.500000X0.800000X-0.500000X0.800000X-0.500000X-0.800000X0*%
%ADD54O,2.045000X0.588000*%
%ADD55RoundRect,0.062500X-0.375000X-0.062500X0.375000X-0.062500X0.375000X0.062500X-0.375000X0.062500X0*%
%ADD56RoundRect,0.062500X-0.062500X-0.375000X0.062500X-0.375000X0.062500X0.375000X-0.062500X0.375000X0*%
%ADD57R,5.600000X5.600000*%
%ADD58C,1.000000*%
%ADD59RoundRect,0.160000X-0.160000X0.197500X-0.160000X-0.197500X0.160000X-0.197500X0.160000X0.197500X0*%
G04 APERTURE END LIST*
D10*
%TO.C,U8*%
X152792000Y-105552000D02*
X149692000Y-105552000D01*
X149692000Y-102952000D01*
X152792000Y-102952000D01*
X152792000Y-105552000D01*
G36*
X152792000Y-105552000D02*
G01*
X149692000Y-105552000D01*
X149692000Y-102952000D01*
X152792000Y-102952000D01*
X152792000Y-105552000D01*
G37*
X149665000Y-100708000D02*
X149667000Y-100708000D01*
X149670000Y-100709000D01*
X149672000Y-100709000D01*
X149675000Y-100710000D01*
X149677000Y-100711000D01*
X149680000Y-100712000D01*
X149682000Y-100714000D01*
X149684000Y-100715000D01*
X149686000Y-100717000D01*
X149688000Y-100718000D01*
X149690000Y-100720000D01*
X149692000Y-100722000D01*
X149694000Y-100724000D01*
X149696000Y-100726000D01*
X149697000Y-100728000D01*
X149699000Y-100730000D01*
X149700000Y-100732000D01*
X149702000Y-100734000D01*
X149703000Y-100737000D01*
X149704000Y-100739000D01*
X149705000Y-100742000D01*
X149705000Y-100744000D01*
X149706000Y-100747000D01*
X149706000Y-100749000D01*
X149707000Y-100752000D01*
X149707000Y-100754000D01*
X149707000Y-100757000D01*
X149707000Y-102347000D01*
X149707000Y-102350000D01*
X149707000Y-102352000D01*
X149706000Y-102355000D01*
X149706000Y-102357000D01*
X149705000Y-102360000D01*
X149705000Y-102362000D01*
X149704000Y-102365000D01*
X149703000Y-102367000D01*
X149702000Y-102370000D01*
X149700000Y-102372000D01*
X149699000Y-102374000D01*
X149697000Y-102376000D01*
X149696000Y-102378000D01*
X149694000Y-102380000D01*
X149692000Y-102382000D01*
X149690000Y-102384000D01*
X149688000Y-102386000D01*
X149686000Y-102387000D01*
X149684000Y-102389000D01*
X149682000Y-102390000D01*
X149680000Y-102392000D01*
X149677000Y-102393000D01*
X149675000Y-102394000D01*
X149672000Y-102395000D01*
X149670000Y-102395000D01*
X149667000Y-102396000D01*
X149665000Y-102396000D01*
X149662000Y-102397000D01*
X149660000Y-102397000D01*
X149657000Y-102397000D01*
X149017000Y-102397000D01*
X149014000Y-102397000D01*
X149012000Y-102397000D01*
X149009000Y-102396000D01*
X149007000Y-102396000D01*
X149004000Y-102395000D01*
X149002000Y-102395000D01*
X148999000Y-102394000D01*
X148997000Y-102393000D01*
X148994000Y-102392000D01*
X148992000Y-102390000D01*
X148990000Y-102389000D01*
X148988000Y-102387000D01*
X148986000Y-102386000D01*
X148984000Y-102384000D01*
X148982000Y-102382000D01*
X148980000Y-102380000D01*
X148978000Y-102378000D01*
X148977000Y-102376000D01*
X148975000Y-102374000D01*
X148974000Y-102372000D01*
X148972000Y-102370000D01*
X148971000Y-102367000D01*
X148970000Y-102365000D01*
X148969000Y-102362000D01*
X148969000Y-102360000D01*
X148968000Y-102357000D01*
X148968000Y-102355000D01*
X148967000Y-102352000D01*
X148967000Y-102350000D01*
X148967000Y-102347000D01*
X148967000Y-100757000D01*
X148967000Y-100754000D01*
X148967000Y-100752000D01*
X148968000Y-100749000D01*
X148968000Y-100747000D01*
X148969000Y-100744000D01*
X148969000Y-100742000D01*
X148970000Y-100739000D01*
X148971000Y-100737000D01*
X148972000Y-100734000D01*
X148974000Y-100732000D01*
X148975000Y-100730000D01*
X148977000Y-100728000D01*
X148978000Y-100726000D01*
X148980000Y-100724000D01*
X148982000Y-100722000D01*
X148984000Y-100720000D01*
X148986000Y-100718000D01*
X148988000Y-100717000D01*
X148990000Y-100715000D01*
X148992000Y-100714000D01*
X148994000Y-100712000D01*
X148997000Y-100711000D01*
X148999000Y-100710000D01*
X149002000Y-100709000D01*
X149004000Y-100709000D01*
X149007000Y-100708000D01*
X149009000Y-100708000D01*
X149012000Y-100707000D01*
X149014000Y-100707000D01*
X149017000Y-100707000D01*
X149657000Y-100707000D01*
X149660000Y-100707000D01*
X149662000Y-100707000D01*
X149665000Y-100708000D01*
G36*
X149665000Y-100708000D02*
G01*
X149667000Y-100708000D01*
X149670000Y-100709000D01*
X149672000Y-100709000D01*
X149675000Y-100710000D01*
X149677000Y-100711000D01*
X149680000Y-100712000D01*
X149682000Y-100714000D01*
X149684000Y-100715000D01*
X149686000Y-100717000D01*
X149688000Y-100718000D01*
X149690000Y-100720000D01*
X149692000Y-100722000D01*
X149694000Y-100724000D01*
X149696000Y-100726000D01*
X149697000Y-100728000D01*
X149699000Y-100730000D01*
X149700000Y-100732000D01*
X149702000Y-100734000D01*
X149703000Y-100737000D01*
X149704000Y-100739000D01*
X149705000Y-100742000D01*
X149705000Y-100744000D01*
X149706000Y-100747000D01*
X149706000Y-100749000D01*
X149707000Y-100752000D01*
X149707000Y-100754000D01*
X149707000Y-100757000D01*
X149707000Y-102347000D01*
X149707000Y-102350000D01*
X149707000Y-102352000D01*
X149706000Y-102355000D01*
X149706000Y-102357000D01*
X149705000Y-102360000D01*
X149705000Y-102362000D01*
X149704000Y-102365000D01*
X149703000Y-102367000D01*
X149702000Y-102370000D01*
X149700000Y-102372000D01*
X149699000Y-102374000D01*
X149697000Y-102376000D01*
X149696000Y-102378000D01*
X149694000Y-102380000D01*
X149692000Y-102382000D01*
X149690000Y-102384000D01*
X149688000Y-102386000D01*
X149686000Y-102387000D01*
X149684000Y-102389000D01*
X149682000Y-102390000D01*
X149680000Y-102392000D01*
X149677000Y-102393000D01*
X149675000Y-102394000D01*
X149672000Y-102395000D01*
X149670000Y-102395000D01*
X149667000Y-102396000D01*
X149665000Y-102396000D01*
X149662000Y-102397000D01*
X149660000Y-102397000D01*
X149657000Y-102397000D01*
X149017000Y-102397000D01*
X149014000Y-102397000D01*
X149012000Y-102397000D01*
X149009000Y-102396000D01*
X149007000Y-102396000D01*
X149004000Y-102395000D01*
X149002000Y-102395000D01*
X148999000Y-102394000D01*
X148997000Y-102393000D01*
X148994000Y-102392000D01*
X148992000Y-102390000D01*
X148990000Y-102389000D01*
X148988000Y-102387000D01*
X148986000Y-102386000D01*
X148984000Y-102384000D01*
X148982000Y-102382000D01*
X148980000Y-102380000D01*
X148978000Y-102378000D01*
X148977000Y-102376000D01*
X148975000Y-102374000D01*
X148974000Y-102372000D01*
X148972000Y-102370000D01*
X148971000Y-102367000D01*
X148970000Y-102365000D01*
X148969000Y-102362000D01*
X148969000Y-102360000D01*
X148968000Y-102357000D01*
X148968000Y-102355000D01*
X148967000Y-102352000D01*
X148967000Y-102350000D01*
X148967000Y-102347000D01*
X148967000Y-100757000D01*
X148967000Y-100754000D01*
X148967000Y-100752000D01*
X148968000Y-100749000D01*
X148968000Y-100747000D01*
X148969000Y-100744000D01*
X148969000Y-100742000D01*
X148970000Y-100739000D01*
X148971000Y-100737000D01*
X148972000Y-100734000D01*
X148974000Y-100732000D01*
X148975000Y-100730000D01*
X148977000Y-100728000D01*
X148978000Y-100726000D01*
X148980000Y-100724000D01*
X148982000Y-100722000D01*
X148984000Y-100720000D01*
X148986000Y-100718000D01*
X148988000Y-100717000D01*
X148990000Y-100715000D01*
X148992000Y-100714000D01*
X148994000Y-100712000D01*
X148997000Y-100711000D01*
X148999000Y-100710000D01*
X149002000Y-100709000D01*
X149004000Y-100709000D01*
X149007000Y-100708000D01*
X149009000Y-100708000D01*
X149012000Y-100707000D01*
X149014000Y-100707000D01*
X149017000Y-100707000D01*
X149657000Y-100707000D01*
X149660000Y-100707000D01*
X149662000Y-100707000D01*
X149665000Y-100708000D01*
G37*
X149665000Y-106108000D02*
X149667000Y-106108000D01*
X149670000Y-106109000D01*
X149672000Y-106109000D01*
X149675000Y-106110000D01*
X149677000Y-106111000D01*
X149680000Y-106112000D01*
X149682000Y-106114000D01*
X149684000Y-106115000D01*
X149686000Y-106117000D01*
X149688000Y-106118000D01*
X149690000Y-106120000D01*
X149692000Y-106122000D01*
X149694000Y-106124000D01*
X149696000Y-106126000D01*
X149697000Y-106128000D01*
X149699000Y-106130000D01*
X149700000Y-106132000D01*
X149702000Y-106134000D01*
X149703000Y-106137000D01*
X149704000Y-106139000D01*
X149705000Y-106142000D01*
X149705000Y-106144000D01*
X149706000Y-106147000D01*
X149706000Y-106149000D01*
X149707000Y-106152000D01*
X149707000Y-106154000D01*
X149707000Y-106157000D01*
X149707000Y-107747000D01*
X149707000Y-107750000D01*
X149707000Y-107752000D01*
X149706000Y-107755000D01*
X149706000Y-107757000D01*
X149705000Y-107760000D01*
X149705000Y-107762000D01*
X149704000Y-107765000D01*
X149703000Y-107767000D01*
X149702000Y-107770000D01*
X149700000Y-107772000D01*
X149699000Y-107774000D01*
X149697000Y-107776000D01*
X149696000Y-107778000D01*
X149694000Y-107780000D01*
X149692000Y-107782000D01*
X149690000Y-107784000D01*
X149688000Y-107786000D01*
X149686000Y-107787000D01*
X149684000Y-107789000D01*
X149682000Y-107790000D01*
X149680000Y-107792000D01*
X149677000Y-107793000D01*
X149675000Y-107794000D01*
X149672000Y-107795000D01*
X149670000Y-107795000D01*
X149667000Y-107796000D01*
X149665000Y-107796000D01*
X149662000Y-107797000D01*
X149660000Y-107797000D01*
X149657000Y-107797000D01*
X149017000Y-107797000D01*
X149014000Y-107797000D01*
X149012000Y-107797000D01*
X149009000Y-107796000D01*
X149007000Y-107796000D01*
X149004000Y-107795000D01*
X149002000Y-107795000D01*
X148999000Y-107794000D01*
X148997000Y-107793000D01*
X148994000Y-107792000D01*
X148992000Y-107790000D01*
X148990000Y-107789000D01*
X148988000Y-107787000D01*
X148986000Y-107786000D01*
X148984000Y-107784000D01*
X148982000Y-107782000D01*
X148980000Y-107780000D01*
X148978000Y-107778000D01*
X148977000Y-107776000D01*
X148975000Y-107774000D01*
X148974000Y-107772000D01*
X148972000Y-107770000D01*
X148971000Y-107767000D01*
X148970000Y-107765000D01*
X148969000Y-107762000D01*
X148969000Y-107760000D01*
X148968000Y-107757000D01*
X148968000Y-107755000D01*
X148967000Y-107752000D01*
X148967000Y-107750000D01*
X148967000Y-107747000D01*
X148967000Y-106157000D01*
X148967000Y-106154000D01*
X148967000Y-106152000D01*
X148968000Y-106149000D01*
X148968000Y-106147000D01*
X148969000Y-106144000D01*
X148969000Y-106142000D01*
X148970000Y-106139000D01*
X148971000Y-106137000D01*
X148972000Y-106134000D01*
X148974000Y-106132000D01*
X148975000Y-106130000D01*
X148977000Y-106128000D01*
X148978000Y-106126000D01*
X148980000Y-106124000D01*
X148982000Y-106122000D01*
X148984000Y-106120000D01*
X148986000Y-106118000D01*
X148988000Y-106117000D01*
X148990000Y-106115000D01*
X148992000Y-106114000D01*
X148994000Y-106112000D01*
X148997000Y-106111000D01*
X148999000Y-106110000D01*
X149002000Y-106109000D01*
X149004000Y-106109000D01*
X149007000Y-106108000D01*
X149009000Y-106108000D01*
X149012000Y-106107000D01*
X149014000Y-106107000D01*
X149017000Y-106107000D01*
X149657000Y-106107000D01*
X149660000Y-106107000D01*
X149662000Y-106107000D01*
X149665000Y-106108000D01*
G36*
X149665000Y-106108000D02*
G01*
X149667000Y-106108000D01*
X149670000Y-106109000D01*
X149672000Y-106109000D01*
X149675000Y-106110000D01*
X149677000Y-106111000D01*
X149680000Y-106112000D01*
X149682000Y-106114000D01*
X149684000Y-106115000D01*
X149686000Y-106117000D01*
X149688000Y-106118000D01*
X149690000Y-106120000D01*
X149692000Y-106122000D01*
X149694000Y-106124000D01*
X149696000Y-106126000D01*
X149697000Y-106128000D01*
X149699000Y-106130000D01*
X149700000Y-106132000D01*
X149702000Y-106134000D01*
X149703000Y-106137000D01*
X149704000Y-106139000D01*
X149705000Y-106142000D01*
X149705000Y-106144000D01*
X149706000Y-106147000D01*
X149706000Y-106149000D01*
X149707000Y-106152000D01*
X149707000Y-106154000D01*
X149707000Y-106157000D01*
X149707000Y-107747000D01*
X149707000Y-107750000D01*
X149707000Y-107752000D01*
X149706000Y-107755000D01*
X149706000Y-107757000D01*
X149705000Y-107760000D01*
X149705000Y-107762000D01*
X149704000Y-107765000D01*
X149703000Y-107767000D01*
X149702000Y-107770000D01*
X149700000Y-107772000D01*
X149699000Y-107774000D01*
X149697000Y-107776000D01*
X149696000Y-107778000D01*
X149694000Y-107780000D01*
X149692000Y-107782000D01*
X149690000Y-107784000D01*
X149688000Y-107786000D01*
X149686000Y-107787000D01*
X149684000Y-107789000D01*
X149682000Y-107790000D01*
X149680000Y-107792000D01*
X149677000Y-107793000D01*
X149675000Y-107794000D01*
X149672000Y-107795000D01*
X149670000Y-107795000D01*
X149667000Y-107796000D01*
X149665000Y-107796000D01*
X149662000Y-107797000D01*
X149660000Y-107797000D01*
X149657000Y-107797000D01*
X149017000Y-107797000D01*
X149014000Y-107797000D01*
X149012000Y-107797000D01*
X149009000Y-107796000D01*
X149007000Y-107796000D01*
X149004000Y-107795000D01*
X149002000Y-107795000D01*
X148999000Y-107794000D01*
X148997000Y-107793000D01*
X148994000Y-107792000D01*
X148992000Y-107790000D01*
X148990000Y-107789000D01*
X148988000Y-107787000D01*
X148986000Y-107786000D01*
X148984000Y-107784000D01*
X148982000Y-107782000D01*
X148980000Y-107780000D01*
X148978000Y-107778000D01*
X148977000Y-107776000D01*
X148975000Y-107774000D01*
X148974000Y-107772000D01*
X148972000Y-107770000D01*
X148971000Y-107767000D01*
X148970000Y-107765000D01*
X148969000Y-107762000D01*
X148969000Y-107760000D01*
X148968000Y-107757000D01*
X148968000Y-107755000D01*
X148967000Y-107752000D01*
X148967000Y-107750000D01*
X148967000Y-107747000D01*
X148967000Y-106157000D01*
X148967000Y-106154000D01*
X148967000Y-106152000D01*
X148968000Y-106149000D01*
X148968000Y-106147000D01*
X148969000Y-106144000D01*
X148969000Y-106142000D01*
X148970000Y-106139000D01*
X148971000Y-106137000D01*
X148972000Y-106134000D01*
X148974000Y-106132000D01*
X148975000Y-106130000D01*
X148977000Y-106128000D01*
X148978000Y-106126000D01*
X148980000Y-106124000D01*
X148982000Y-106122000D01*
X148984000Y-106120000D01*
X148986000Y-106118000D01*
X148988000Y-106117000D01*
X148990000Y-106115000D01*
X148992000Y-106114000D01*
X148994000Y-106112000D01*
X148997000Y-106111000D01*
X148999000Y-106110000D01*
X149002000Y-106109000D01*
X149004000Y-106109000D01*
X149007000Y-106108000D01*
X149009000Y-106108000D01*
X149012000Y-106107000D01*
X149014000Y-106107000D01*
X149017000Y-106107000D01*
X149657000Y-106107000D01*
X149660000Y-106107000D01*
X149662000Y-106107000D01*
X149665000Y-106108000D01*
G37*
X150935000Y-100708000D02*
X150937000Y-100708000D01*
X150940000Y-100709000D01*
X150942000Y-100709000D01*
X150945000Y-100710000D01*
X150947000Y-100711000D01*
X150950000Y-100712000D01*
X150952000Y-100714000D01*
X150954000Y-100715000D01*
X150956000Y-100717000D01*
X150958000Y-100718000D01*
X150960000Y-100720000D01*
X150962000Y-100722000D01*
X150964000Y-100724000D01*
X150966000Y-100726000D01*
X150967000Y-100728000D01*
X150969000Y-100730000D01*
X150970000Y-100732000D01*
X150972000Y-100734000D01*
X150973000Y-100737000D01*
X150974000Y-100739000D01*
X150975000Y-100742000D01*
X150975000Y-100744000D01*
X150976000Y-100747000D01*
X150976000Y-100749000D01*
X150977000Y-100752000D01*
X150977000Y-100754000D01*
X150977000Y-100757000D01*
X150977000Y-102347000D01*
X150977000Y-102350000D01*
X150977000Y-102352000D01*
X150976000Y-102355000D01*
X150976000Y-102357000D01*
X150975000Y-102360000D01*
X150975000Y-102362000D01*
X150974000Y-102365000D01*
X150973000Y-102367000D01*
X150972000Y-102370000D01*
X150970000Y-102372000D01*
X150969000Y-102374000D01*
X150967000Y-102376000D01*
X150966000Y-102378000D01*
X150964000Y-102380000D01*
X150962000Y-102382000D01*
X150960000Y-102384000D01*
X150958000Y-102386000D01*
X150956000Y-102387000D01*
X150954000Y-102389000D01*
X150952000Y-102390000D01*
X150950000Y-102392000D01*
X150947000Y-102393000D01*
X150945000Y-102394000D01*
X150942000Y-102395000D01*
X150940000Y-102395000D01*
X150937000Y-102396000D01*
X150935000Y-102396000D01*
X150932000Y-102397000D01*
X150930000Y-102397000D01*
X150927000Y-102397000D01*
X150287000Y-102397000D01*
X150284000Y-102397000D01*
X150282000Y-102397000D01*
X150279000Y-102396000D01*
X150277000Y-102396000D01*
X150274000Y-102395000D01*
X150272000Y-102395000D01*
X150269000Y-102394000D01*
X150267000Y-102393000D01*
X150264000Y-102392000D01*
X150262000Y-102390000D01*
X150260000Y-102389000D01*
X150258000Y-102387000D01*
X150256000Y-102386000D01*
X150254000Y-102384000D01*
X150252000Y-102382000D01*
X150250000Y-102380000D01*
X150248000Y-102378000D01*
X150247000Y-102376000D01*
X150245000Y-102374000D01*
X150244000Y-102372000D01*
X150242000Y-102370000D01*
X150241000Y-102367000D01*
X150240000Y-102365000D01*
X150239000Y-102362000D01*
X150239000Y-102360000D01*
X150238000Y-102357000D01*
X150238000Y-102355000D01*
X150237000Y-102352000D01*
X150237000Y-102350000D01*
X150237000Y-102347000D01*
X150237000Y-100757000D01*
X150237000Y-100754000D01*
X150237000Y-100752000D01*
X150238000Y-100749000D01*
X150238000Y-100747000D01*
X150239000Y-100744000D01*
X150239000Y-100742000D01*
X150240000Y-100739000D01*
X150241000Y-100737000D01*
X150242000Y-100734000D01*
X150244000Y-100732000D01*
X150245000Y-100730000D01*
X150247000Y-100728000D01*
X150248000Y-100726000D01*
X150250000Y-100724000D01*
X150252000Y-100722000D01*
X150254000Y-100720000D01*
X150256000Y-100718000D01*
X150258000Y-100717000D01*
X150260000Y-100715000D01*
X150262000Y-100714000D01*
X150264000Y-100712000D01*
X150267000Y-100711000D01*
X150269000Y-100710000D01*
X150272000Y-100709000D01*
X150274000Y-100709000D01*
X150277000Y-100708000D01*
X150279000Y-100708000D01*
X150282000Y-100707000D01*
X150284000Y-100707000D01*
X150287000Y-100707000D01*
X150927000Y-100707000D01*
X150930000Y-100707000D01*
X150932000Y-100707000D01*
X150935000Y-100708000D01*
G36*
X150935000Y-100708000D02*
G01*
X150937000Y-100708000D01*
X150940000Y-100709000D01*
X150942000Y-100709000D01*
X150945000Y-100710000D01*
X150947000Y-100711000D01*
X150950000Y-100712000D01*
X150952000Y-100714000D01*
X150954000Y-100715000D01*
X150956000Y-100717000D01*
X150958000Y-100718000D01*
X150960000Y-100720000D01*
X150962000Y-100722000D01*
X150964000Y-100724000D01*
X150966000Y-100726000D01*
X150967000Y-100728000D01*
X150969000Y-100730000D01*
X150970000Y-100732000D01*
X150972000Y-100734000D01*
X150973000Y-100737000D01*
X150974000Y-100739000D01*
X150975000Y-100742000D01*
X150975000Y-100744000D01*
X150976000Y-100747000D01*
X150976000Y-100749000D01*
X150977000Y-100752000D01*
X150977000Y-100754000D01*
X150977000Y-100757000D01*
X150977000Y-102347000D01*
X150977000Y-102350000D01*
X150977000Y-102352000D01*
X150976000Y-102355000D01*
X150976000Y-102357000D01*
X150975000Y-102360000D01*
X150975000Y-102362000D01*
X150974000Y-102365000D01*
X150973000Y-102367000D01*
X150972000Y-102370000D01*
X150970000Y-102372000D01*
X150969000Y-102374000D01*
X150967000Y-102376000D01*
X150966000Y-102378000D01*
X150964000Y-102380000D01*
X150962000Y-102382000D01*
X150960000Y-102384000D01*
X150958000Y-102386000D01*
X150956000Y-102387000D01*
X150954000Y-102389000D01*
X150952000Y-102390000D01*
X150950000Y-102392000D01*
X150947000Y-102393000D01*
X150945000Y-102394000D01*
X150942000Y-102395000D01*
X150940000Y-102395000D01*
X150937000Y-102396000D01*
X150935000Y-102396000D01*
X150932000Y-102397000D01*
X150930000Y-102397000D01*
X150927000Y-102397000D01*
X150287000Y-102397000D01*
X150284000Y-102397000D01*
X150282000Y-102397000D01*
X150279000Y-102396000D01*
X150277000Y-102396000D01*
X150274000Y-102395000D01*
X150272000Y-102395000D01*
X150269000Y-102394000D01*
X150267000Y-102393000D01*
X150264000Y-102392000D01*
X150262000Y-102390000D01*
X150260000Y-102389000D01*
X150258000Y-102387000D01*
X150256000Y-102386000D01*
X150254000Y-102384000D01*
X150252000Y-102382000D01*
X150250000Y-102380000D01*
X150248000Y-102378000D01*
X150247000Y-102376000D01*
X150245000Y-102374000D01*
X150244000Y-102372000D01*
X150242000Y-102370000D01*
X150241000Y-102367000D01*
X150240000Y-102365000D01*
X150239000Y-102362000D01*
X150239000Y-102360000D01*
X150238000Y-102357000D01*
X150238000Y-102355000D01*
X150237000Y-102352000D01*
X150237000Y-102350000D01*
X150237000Y-102347000D01*
X150237000Y-100757000D01*
X150237000Y-100754000D01*
X150237000Y-100752000D01*
X150238000Y-100749000D01*
X150238000Y-100747000D01*
X150239000Y-100744000D01*
X150239000Y-100742000D01*
X150240000Y-100739000D01*
X150241000Y-100737000D01*
X150242000Y-100734000D01*
X150244000Y-100732000D01*
X150245000Y-100730000D01*
X150247000Y-100728000D01*
X150248000Y-100726000D01*
X150250000Y-100724000D01*
X150252000Y-100722000D01*
X150254000Y-100720000D01*
X150256000Y-100718000D01*
X150258000Y-100717000D01*
X150260000Y-100715000D01*
X150262000Y-100714000D01*
X150264000Y-100712000D01*
X150267000Y-100711000D01*
X150269000Y-100710000D01*
X150272000Y-100709000D01*
X150274000Y-100709000D01*
X150277000Y-100708000D01*
X150279000Y-100708000D01*
X150282000Y-100707000D01*
X150284000Y-100707000D01*
X150287000Y-100707000D01*
X150927000Y-100707000D01*
X150930000Y-100707000D01*
X150932000Y-100707000D01*
X150935000Y-100708000D01*
G37*
X150935000Y-106108000D02*
X150937000Y-106108000D01*
X150940000Y-106109000D01*
X150942000Y-106109000D01*
X150945000Y-106110000D01*
X150947000Y-106111000D01*
X150950000Y-106112000D01*
X150952000Y-106114000D01*
X150954000Y-106115000D01*
X150956000Y-106117000D01*
X150958000Y-106118000D01*
X150960000Y-106120000D01*
X150962000Y-106122000D01*
X150964000Y-106124000D01*
X150966000Y-106126000D01*
X150967000Y-106128000D01*
X150969000Y-106130000D01*
X150970000Y-106132000D01*
X150972000Y-106134000D01*
X150973000Y-106137000D01*
X150974000Y-106139000D01*
X150975000Y-106142000D01*
X150975000Y-106144000D01*
X150976000Y-106147000D01*
X150976000Y-106149000D01*
X150977000Y-106152000D01*
X150977000Y-106154000D01*
X150977000Y-106157000D01*
X150977000Y-107747000D01*
X150977000Y-107750000D01*
X150977000Y-107752000D01*
X150976000Y-107755000D01*
X150976000Y-107757000D01*
X150975000Y-107760000D01*
X150975000Y-107762000D01*
X150974000Y-107765000D01*
X150973000Y-107767000D01*
X150972000Y-107770000D01*
X150970000Y-107772000D01*
X150969000Y-107774000D01*
X150967000Y-107776000D01*
X150966000Y-107778000D01*
X150964000Y-107780000D01*
X150962000Y-107782000D01*
X150960000Y-107784000D01*
X150958000Y-107786000D01*
X150956000Y-107787000D01*
X150954000Y-107789000D01*
X150952000Y-107790000D01*
X150950000Y-107792000D01*
X150947000Y-107793000D01*
X150945000Y-107794000D01*
X150942000Y-107795000D01*
X150940000Y-107795000D01*
X150937000Y-107796000D01*
X150935000Y-107796000D01*
X150932000Y-107797000D01*
X150930000Y-107797000D01*
X150927000Y-107797000D01*
X150287000Y-107797000D01*
X150284000Y-107797000D01*
X150282000Y-107797000D01*
X150279000Y-107796000D01*
X150277000Y-107796000D01*
X150274000Y-107795000D01*
X150272000Y-107795000D01*
X150269000Y-107794000D01*
X150267000Y-107793000D01*
X150264000Y-107792000D01*
X150262000Y-107790000D01*
X150260000Y-107789000D01*
X150258000Y-107787000D01*
X150256000Y-107786000D01*
X150254000Y-107784000D01*
X150252000Y-107782000D01*
X150250000Y-107780000D01*
X150248000Y-107778000D01*
X150247000Y-107776000D01*
X150245000Y-107774000D01*
X150244000Y-107772000D01*
X150242000Y-107770000D01*
X150241000Y-107767000D01*
X150240000Y-107765000D01*
X150239000Y-107762000D01*
X150239000Y-107760000D01*
X150238000Y-107757000D01*
X150238000Y-107755000D01*
X150237000Y-107752000D01*
X150237000Y-107750000D01*
X150237000Y-107747000D01*
X150237000Y-106157000D01*
X150237000Y-106154000D01*
X150237000Y-106152000D01*
X150238000Y-106149000D01*
X150238000Y-106147000D01*
X150239000Y-106144000D01*
X150239000Y-106142000D01*
X150240000Y-106139000D01*
X150241000Y-106137000D01*
X150242000Y-106134000D01*
X150244000Y-106132000D01*
X150245000Y-106130000D01*
X150247000Y-106128000D01*
X150248000Y-106126000D01*
X150250000Y-106124000D01*
X150252000Y-106122000D01*
X150254000Y-106120000D01*
X150256000Y-106118000D01*
X150258000Y-106117000D01*
X150260000Y-106115000D01*
X150262000Y-106114000D01*
X150264000Y-106112000D01*
X150267000Y-106111000D01*
X150269000Y-106110000D01*
X150272000Y-106109000D01*
X150274000Y-106109000D01*
X150277000Y-106108000D01*
X150279000Y-106108000D01*
X150282000Y-106107000D01*
X150284000Y-106107000D01*
X150287000Y-106107000D01*
X150927000Y-106107000D01*
X150930000Y-106107000D01*
X150932000Y-106107000D01*
X150935000Y-106108000D01*
G36*
X150935000Y-106108000D02*
G01*
X150937000Y-106108000D01*
X150940000Y-106109000D01*
X150942000Y-106109000D01*
X150945000Y-106110000D01*
X150947000Y-106111000D01*
X150950000Y-106112000D01*
X150952000Y-106114000D01*
X150954000Y-106115000D01*
X150956000Y-106117000D01*
X150958000Y-106118000D01*
X150960000Y-106120000D01*
X150962000Y-106122000D01*
X150964000Y-106124000D01*
X150966000Y-106126000D01*
X150967000Y-106128000D01*
X150969000Y-106130000D01*
X150970000Y-106132000D01*
X150972000Y-106134000D01*
X150973000Y-106137000D01*
X150974000Y-106139000D01*
X150975000Y-106142000D01*
X150975000Y-106144000D01*
X150976000Y-106147000D01*
X150976000Y-106149000D01*
X150977000Y-106152000D01*
X150977000Y-106154000D01*
X150977000Y-106157000D01*
X150977000Y-107747000D01*
X150977000Y-107750000D01*
X150977000Y-107752000D01*
X150976000Y-107755000D01*
X150976000Y-107757000D01*
X150975000Y-107760000D01*
X150975000Y-107762000D01*
X150974000Y-107765000D01*
X150973000Y-107767000D01*
X150972000Y-107770000D01*
X150970000Y-107772000D01*
X150969000Y-107774000D01*
X150967000Y-107776000D01*
X150966000Y-107778000D01*
X150964000Y-107780000D01*
X150962000Y-107782000D01*
X150960000Y-107784000D01*
X150958000Y-107786000D01*
X150956000Y-107787000D01*
X150954000Y-107789000D01*
X150952000Y-107790000D01*
X150950000Y-107792000D01*
X150947000Y-107793000D01*
X150945000Y-107794000D01*
X150942000Y-107795000D01*
X150940000Y-107795000D01*
X150937000Y-107796000D01*
X150935000Y-107796000D01*
X150932000Y-107797000D01*
X150930000Y-107797000D01*
X150927000Y-107797000D01*
X150287000Y-107797000D01*
X150284000Y-107797000D01*
X150282000Y-107797000D01*
X150279000Y-107796000D01*
X150277000Y-107796000D01*
X150274000Y-107795000D01*
X150272000Y-107795000D01*
X150269000Y-107794000D01*
X150267000Y-107793000D01*
X150264000Y-107792000D01*
X150262000Y-107790000D01*
X150260000Y-107789000D01*
X150258000Y-107787000D01*
X150256000Y-107786000D01*
X150254000Y-107784000D01*
X150252000Y-107782000D01*
X150250000Y-107780000D01*
X150248000Y-107778000D01*
X150247000Y-107776000D01*
X150245000Y-107774000D01*
X150244000Y-107772000D01*
X150242000Y-107770000D01*
X150241000Y-107767000D01*
X150240000Y-107765000D01*
X150239000Y-107762000D01*
X150239000Y-107760000D01*
X150238000Y-107757000D01*
X150238000Y-107755000D01*
X150237000Y-107752000D01*
X150237000Y-107750000D01*
X150237000Y-107747000D01*
X150237000Y-106157000D01*
X150237000Y-106154000D01*
X150237000Y-106152000D01*
X150238000Y-106149000D01*
X150238000Y-106147000D01*
X150239000Y-106144000D01*
X150239000Y-106142000D01*
X150240000Y-106139000D01*
X150241000Y-106137000D01*
X150242000Y-106134000D01*
X150244000Y-106132000D01*
X150245000Y-106130000D01*
X150247000Y-106128000D01*
X150248000Y-106126000D01*
X150250000Y-106124000D01*
X150252000Y-106122000D01*
X150254000Y-106120000D01*
X150256000Y-106118000D01*
X150258000Y-106117000D01*
X150260000Y-106115000D01*
X150262000Y-106114000D01*
X150264000Y-106112000D01*
X150267000Y-106111000D01*
X150269000Y-106110000D01*
X150272000Y-106109000D01*
X150274000Y-106109000D01*
X150277000Y-106108000D01*
X150279000Y-106108000D01*
X150282000Y-106107000D01*
X150284000Y-106107000D01*
X150287000Y-106107000D01*
X150927000Y-106107000D01*
X150930000Y-106107000D01*
X150932000Y-106107000D01*
X150935000Y-106108000D01*
G37*
X152205000Y-100708000D02*
X152207000Y-100708000D01*
X152210000Y-100709000D01*
X152212000Y-100709000D01*
X152215000Y-100710000D01*
X152217000Y-100711000D01*
X152220000Y-100712000D01*
X152222000Y-100714000D01*
X152224000Y-100715000D01*
X152226000Y-100717000D01*
X152228000Y-100718000D01*
X152230000Y-100720000D01*
X152232000Y-100722000D01*
X152234000Y-100724000D01*
X152236000Y-100726000D01*
X152237000Y-100728000D01*
X152239000Y-100730000D01*
X152240000Y-100732000D01*
X152242000Y-100734000D01*
X152243000Y-100737000D01*
X152244000Y-100739000D01*
X152245000Y-100742000D01*
X152245000Y-100744000D01*
X152246000Y-100747000D01*
X152246000Y-100749000D01*
X152247000Y-100752000D01*
X152247000Y-100754000D01*
X152247000Y-100757000D01*
X152247000Y-102347000D01*
X152247000Y-102350000D01*
X152247000Y-102352000D01*
X152246000Y-102355000D01*
X152246000Y-102357000D01*
X152245000Y-102360000D01*
X152245000Y-102362000D01*
X152244000Y-102365000D01*
X152243000Y-102367000D01*
X152242000Y-102370000D01*
X152240000Y-102372000D01*
X152239000Y-102374000D01*
X152237000Y-102376000D01*
X152236000Y-102378000D01*
X152234000Y-102380000D01*
X152232000Y-102382000D01*
X152230000Y-102384000D01*
X152228000Y-102386000D01*
X152226000Y-102387000D01*
X152224000Y-102389000D01*
X152222000Y-102390000D01*
X152220000Y-102392000D01*
X152217000Y-102393000D01*
X152215000Y-102394000D01*
X152212000Y-102395000D01*
X152210000Y-102395000D01*
X152207000Y-102396000D01*
X152205000Y-102396000D01*
X152202000Y-102397000D01*
X152200000Y-102397000D01*
X152197000Y-102397000D01*
X151557000Y-102397000D01*
X151554000Y-102397000D01*
X151552000Y-102397000D01*
X151549000Y-102396000D01*
X151547000Y-102396000D01*
X151544000Y-102395000D01*
X151542000Y-102395000D01*
X151539000Y-102394000D01*
X151537000Y-102393000D01*
X151534000Y-102392000D01*
X151532000Y-102390000D01*
X151530000Y-102389000D01*
X151528000Y-102387000D01*
X151526000Y-102386000D01*
X151524000Y-102384000D01*
X151522000Y-102382000D01*
X151520000Y-102380000D01*
X151518000Y-102378000D01*
X151517000Y-102376000D01*
X151515000Y-102374000D01*
X151514000Y-102372000D01*
X151512000Y-102370000D01*
X151511000Y-102367000D01*
X151510000Y-102365000D01*
X151509000Y-102362000D01*
X151509000Y-102360000D01*
X151508000Y-102357000D01*
X151508000Y-102355000D01*
X151507000Y-102352000D01*
X151507000Y-102350000D01*
X151507000Y-102347000D01*
X151507000Y-100757000D01*
X151507000Y-100754000D01*
X151507000Y-100752000D01*
X151508000Y-100749000D01*
X151508000Y-100747000D01*
X151509000Y-100744000D01*
X151509000Y-100742000D01*
X151510000Y-100739000D01*
X151511000Y-100737000D01*
X151512000Y-100734000D01*
X151514000Y-100732000D01*
X151515000Y-100730000D01*
X151517000Y-100728000D01*
X151518000Y-100726000D01*
X151520000Y-100724000D01*
X151522000Y-100722000D01*
X151524000Y-100720000D01*
X151526000Y-100718000D01*
X151528000Y-100717000D01*
X151530000Y-100715000D01*
X151532000Y-100714000D01*
X151534000Y-100712000D01*
X151537000Y-100711000D01*
X151539000Y-100710000D01*
X151542000Y-100709000D01*
X151544000Y-100709000D01*
X151547000Y-100708000D01*
X151549000Y-100708000D01*
X151552000Y-100707000D01*
X151554000Y-100707000D01*
X151557000Y-100707000D01*
X152197000Y-100707000D01*
X152200000Y-100707000D01*
X152202000Y-100707000D01*
X152205000Y-100708000D01*
G36*
X152205000Y-100708000D02*
G01*
X152207000Y-100708000D01*
X152210000Y-100709000D01*
X152212000Y-100709000D01*
X152215000Y-100710000D01*
X152217000Y-100711000D01*
X152220000Y-100712000D01*
X152222000Y-100714000D01*
X152224000Y-100715000D01*
X152226000Y-100717000D01*
X152228000Y-100718000D01*
X152230000Y-100720000D01*
X152232000Y-100722000D01*
X152234000Y-100724000D01*
X152236000Y-100726000D01*
X152237000Y-100728000D01*
X152239000Y-100730000D01*
X152240000Y-100732000D01*
X152242000Y-100734000D01*
X152243000Y-100737000D01*
X152244000Y-100739000D01*
X152245000Y-100742000D01*
X152245000Y-100744000D01*
X152246000Y-100747000D01*
X152246000Y-100749000D01*
X152247000Y-100752000D01*
X152247000Y-100754000D01*
X152247000Y-100757000D01*
X152247000Y-102347000D01*
X152247000Y-102350000D01*
X152247000Y-102352000D01*
X152246000Y-102355000D01*
X152246000Y-102357000D01*
X152245000Y-102360000D01*
X152245000Y-102362000D01*
X152244000Y-102365000D01*
X152243000Y-102367000D01*
X152242000Y-102370000D01*
X152240000Y-102372000D01*
X152239000Y-102374000D01*
X152237000Y-102376000D01*
X152236000Y-102378000D01*
X152234000Y-102380000D01*
X152232000Y-102382000D01*
X152230000Y-102384000D01*
X152228000Y-102386000D01*
X152226000Y-102387000D01*
X152224000Y-102389000D01*
X152222000Y-102390000D01*
X152220000Y-102392000D01*
X152217000Y-102393000D01*
X152215000Y-102394000D01*
X152212000Y-102395000D01*
X152210000Y-102395000D01*
X152207000Y-102396000D01*
X152205000Y-102396000D01*
X152202000Y-102397000D01*
X152200000Y-102397000D01*
X152197000Y-102397000D01*
X151557000Y-102397000D01*
X151554000Y-102397000D01*
X151552000Y-102397000D01*
X151549000Y-102396000D01*
X151547000Y-102396000D01*
X151544000Y-102395000D01*
X151542000Y-102395000D01*
X151539000Y-102394000D01*
X151537000Y-102393000D01*
X151534000Y-102392000D01*
X151532000Y-102390000D01*
X151530000Y-102389000D01*
X151528000Y-102387000D01*
X151526000Y-102386000D01*
X151524000Y-102384000D01*
X151522000Y-102382000D01*
X151520000Y-102380000D01*
X151518000Y-102378000D01*
X151517000Y-102376000D01*
X151515000Y-102374000D01*
X151514000Y-102372000D01*
X151512000Y-102370000D01*
X151511000Y-102367000D01*
X151510000Y-102365000D01*
X151509000Y-102362000D01*
X151509000Y-102360000D01*
X151508000Y-102357000D01*
X151508000Y-102355000D01*
X151507000Y-102352000D01*
X151507000Y-102350000D01*
X151507000Y-102347000D01*
X151507000Y-100757000D01*
X151507000Y-100754000D01*
X151507000Y-100752000D01*
X151508000Y-100749000D01*
X151508000Y-100747000D01*
X151509000Y-100744000D01*
X151509000Y-100742000D01*
X151510000Y-100739000D01*
X151511000Y-100737000D01*
X151512000Y-100734000D01*
X151514000Y-100732000D01*
X151515000Y-100730000D01*
X151517000Y-100728000D01*
X151518000Y-100726000D01*
X151520000Y-100724000D01*
X151522000Y-100722000D01*
X151524000Y-100720000D01*
X151526000Y-100718000D01*
X151528000Y-100717000D01*
X151530000Y-100715000D01*
X151532000Y-100714000D01*
X151534000Y-100712000D01*
X151537000Y-100711000D01*
X151539000Y-100710000D01*
X151542000Y-100709000D01*
X151544000Y-100709000D01*
X151547000Y-100708000D01*
X151549000Y-100708000D01*
X151552000Y-100707000D01*
X151554000Y-100707000D01*
X151557000Y-100707000D01*
X152197000Y-100707000D01*
X152200000Y-100707000D01*
X152202000Y-100707000D01*
X152205000Y-100708000D01*
G37*
X152205000Y-106108000D02*
X152207000Y-106108000D01*
X152210000Y-106109000D01*
X152212000Y-106109000D01*
X152215000Y-106110000D01*
X152217000Y-106111000D01*
X152220000Y-106112000D01*
X152222000Y-106114000D01*
X152224000Y-106115000D01*
X152226000Y-106117000D01*
X152228000Y-106118000D01*
X152230000Y-106120000D01*
X152232000Y-106122000D01*
X152234000Y-106124000D01*
X152236000Y-106126000D01*
X152237000Y-106128000D01*
X152239000Y-106130000D01*
X152240000Y-106132000D01*
X152242000Y-106134000D01*
X152243000Y-106137000D01*
X152244000Y-106139000D01*
X152245000Y-106142000D01*
X152245000Y-106144000D01*
X152246000Y-106147000D01*
X152246000Y-106149000D01*
X152247000Y-106152000D01*
X152247000Y-106154000D01*
X152247000Y-106157000D01*
X152247000Y-107747000D01*
X152247000Y-107750000D01*
X152247000Y-107752000D01*
X152246000Y-107755000D01*
X152246000Y-107757000D01*
X152245000Y-107760000D01*
X152245000Y-107762000D01*
X152244000Y-107765000D01*
X152243000Y-107767000D01*
X152242000Y-107770000D01*
X152240000Y-107772000D01*
X152239000Y-107774000D01*
X152237000Y-107776000D01*
X152236000Y-107778000D01*
X152234000Y-107780000D01*
X152232000Y-107782000D01*
X152230000Y-107784000D01*
X152228000Y-107786000D01*
X152226000Y-107787000D01*
X152224000Y-107789000D01*
X152222000Y-107790000D01*
X152220000Y-107792000D01*
X152217000Y-107793000D01*
X152215000Y-107794000D01*
X152212000Y-107795000D01*
X152210000Y-107795000D01*
X152207000Y-107796000D01*
X152205000Y-107796000D01*
X152202000Y-107797000D01*
X152200000Y-107797000D01*
X152197000Y-107797000D01*
X151557000Y-107797000D01*
X151554000Y-107797000D01*
X151552000Y-107797000D01*
X151549000Y-107796000D01*
X151547000Y-107796000D01*
X151544000Y-107795000D01*
X151542000Y-107795000D01*
X151539000Y-107794000D01*
X151537000Y-107793000D01*
X151534000Y-107792000D01*
X151532000Y-107790000D01*
X151530000Y-107789000D01*
X151528000Y-107787000D01*
X151526000Y-107786000D01*
X151524000Y-107784000D01*
X151522000Y-107782000D01*
X151520000Y-107780000D01*
X151518000Y-107778000D01*
X151517000Y-107776000D01*
X151515000Y-107774000D01*
X151514000Y-107772000D01*
X151512000Y-107770000D01*
X151511000Y-107767000D01*
X151510000Y-107765000D01*
X151509000Y-107762000D01*
X151509000Y-107760000D01*
X151508000Y-107757000D01*
X151508000Y-107755000D01*
X151507000Y-107752000D01*
X151507000Y-107750000D01*
X151507000Y-107747000D01*
X151507000Y-106157000D01*
X151507000Y-106154000D01*
X151507000Y-106152000D01*
X151508000Y-106149000D01*
X151508000Y-106147000D01*
X151509000Y-106144000D01*
X151509000Y-106142000D01*
X151510000Y-106139000D01*
X151511000Y-106137000D01*
X151512000Y-106134000D01*
X151514000Y-106132000D01*
X151515000Y-106130000D01*
X151517000Y-106128000D01*
X151518000Y-106126000D01*
X151520000Y-106124000D01*
X151522000Y-106122000D01*
X151524000Y-106120000D01*
X151526000Y-106118000D01*
X151528000Y-106117000D01*
X151530000Y-106115000D01*
X151532000Y-106114000D01*
X151534000Y-106112000D01*
X151537000Y-106111000D01*
X151539000Y-106110000D01*
X151542000Y-106109000D01*
X151544000Y-106109000D01*
X151547000Y-106108000D01*
X151549000Y-106108000D01*
X151552000Y-106107000D01*
X151554000Y-106107000D01*
X151557000Y-106107000D01*
X152197000Y-106107000D01*
X152200000Y-106107000D01*
X152202000Y-106107000D01*
X152205000Y-106108000D01*
G36*
X152205000Y-106108000D02*
G01*
X152207000Y-106108000D01*
X152210000Y-106109000D01*
X152212000Y-106109000D01*
X152215000Y-106110000D01*
X152217000Y-106111000D01*
X152220000Y-106112000D01*
X152222000Y-106114000D01*
X152224000Y-106115000D01*
X152226000Y-106117000D01*
X152228000Y-106118000D01*
X152230000Y-106120000D01*
X152232000Y-106122000D01*
X152234000Y-106124000D01*
X152236000Y-106126000D01*
X152237000Y-106128000D01*
X152239000Y-106130000D01*
X152240000Y-106132000D01*
X152242000Y-106134000D01*
X152243000Y-106137000D01*
X152244000Y-106139000D01*
X152245000Y-106142000D01*
X152245000Y-106144000D01*
X152246000Y-106147000D01*
X152246000Y-106149000D01*
X152247000Y-106152000D01*
X152247000Y-106154000D01*
X152247000Y-106157000D01*
X152247000Y-107747000D01*
X152247000Y-107750000D01*
X152247000Y-107752000D01*
X152246000Y-107755000D01*
X152246000Y-107757000D01*
X152245000Y-107760000D01*
X152245000Y-107762000D01*
X152244000Y-107765000D01*
X152243000Y-107767000D01*
X152242000Y-107770000D01*
X152240000Y-107772000D01*
X152239000Y-107774000D01*
X152237000Y-107776000D01*
X152236000Y-107778000D01*
X152234000Y-107780000D01*
X152232000Y-107782000D01*
X152230000Y-107784000D01*
X152228000Y-107786000D01*
X152226000Y-107787000D01*
X152224000Y-107789000D01*
X152222000Y-107790000D01*
X152220000Y-107792000D01*
X152217000Y-107793000D01*
X152215000Y-107794000D01*
X152212000Y-107795000D01*
X152210000Y-107795000D01*
X152207000Y-107796000D01*
X152205000Y-107796000D01*
X152202000Y-107797000D01*
X152200000Y-107797000D01*
X152197000Y-107797000D01*
X151557000Y-107797000D01*
X151554000Y-107797000D01*
X151552000Y-107797000D01*
X151549000Y-107796000D01*
X151547000Y-107796000D01*
X151544000Y-107795000D01*
X151542000Y-107795000D01*
X151539000Y-107794000D01*
X151537000Y-107793000D01*
X151534000Y-107792000D01*
X151532000Y-107790000D01*
X151530000Y-107789000D01*
X151528000Y-107787000D01*
X151526000Y-107786000D01*
X151524000Y-107784000D01*
X151522000Y-107782000D01*
X151520000Y-107780000D01*
X151518000Y-107778000D01*
X151517000Y-107776000D01*
X151515000Y-107774000D01*
X151514000Y-107772000D01*
X151512000Y-107770000D01*
X151511000Y-107767000D01*
X151510000Y-107765000D01*
X151509000Y-107762000D01*
X151509000Y-107760000D01*
X151508000Y-107757000D01*
X151508000Y-107755000D01*
X151507000Y-107752000D01*
X151507000Y-107750000D01*
X151507000Y-107747000D01*
X151507000Y-106157000D01*
X151507000Y-106154000D01*
X151507000Y-106152000D01*
X151508000Y-106149000D01*
X151508000Y-106147000D01*
X151509000Y-106144000D01*
X151509000Y-106142000D01*
X151510000Y-106139000D01*
X151511000Y-106137000D01*
X151512000Y-106134000D01*
X151514000Y-106132000D01*
X151515000Y-106130000D01*
X151517000Y-106128000D01*
X151518000Y-106126000D01*
X151520000Y-106124000D01*
X151522000Y-106122000D01*
X151524000Y-106120000D01*
X151526000Y-106118000D01*
X151528000Y-106117000D01*
X151530000Y-106115000D01*
X151532000Y-106114000D01*
X151534000Y-106112000D01*
X151537000Y-106111000D01*
X151539000Y-106110000D01*
X151542000Y-106109000D01*
X151544000Y-106109000D01*
X151547000Y-106108000D01*
X151549000Y-106108000D01*
X151552000Y-106107000D01*
X151554000Y-106107000D01*
X151557000Y-106107000D01*
X152197000Y-106107000D01*
X152200000Y-106107000D01*
X152202000Y-106107000D01*
X152205000Y-106108000D01*
G37*
X153475000Y-100708000D02*
X153477000Y-100708000D01*
X153480000Y-100709000D01*
X153482000Y-100709000D01*
X153485000Y-100710000D01*
X153487000Y-100711000D01*
X153490000Y-100712000D01*
X153492000Y-100714000D01*
X153494000Y-100715000D01*
X153496000Y-100717000D01*
X153498000Y-100718000D01*
X153500000Y-100720000D01*
X153502000Y-100722000D01*
X153504000Y-100724000D01*
X153506000Y-100726000D01*
X153507000Y-100728000D01*
X153509000Y-100730000D01*
X153510000Y-100732000D01*
X153512000Y-100734000D01*
X153513000Y-100737000D01*
X153514000Y-100739000D01*
X153515000Y-100742000D01*
X153515000Y-100744000D01*
X153516000Y-100747000D01*
X153516000Y-100749000D01*
X153517000Y-100752000D01*
X153517000Y-100754000D01*
X153517000Y-100757000D01*
X153517000Y-102347000D01*
X153517000Y-102350000D01*
X153517000Y-102352000D01*
X153516000Y-102355000D01*
X153516000Y-102357000D01*
X153515000Y-102360000D01*
X153515000Y-102362000D01*
X153514000Y-102365000D01*
X153513000Y-102367000D01*
X153512000Y-102370000D01*
X153510000Y-102372000D01*
X153509000Y-102374000D01*
X153507000Y-102376000D01*
X153506000Y-102378000D01*
X153504000Y-102380000D01*
X153502000Y-102382000D01*
X153500000Y-102384000D01*
X153498000Y-102386000D01*
X153496000Y-102387000D01*
X153494000Y-102389000D01*
X153492000Y-102390000D01*
X153490000Y-102392000D01*
X153487000Y-102393000D01*
X153485000Y-102394000D01*
X153482000Y-102395000D01*
X153480000Y-102395000D01*
X153477000Y-102396000D01*
X153475000Y-102396000D01*
X153472000Y-102397000D01*
X153470000Y-102397000D01*
X153467000Y-102397000D01*
X152827000Y-102397000D01*
X152824000Y-102397000D01*
X152822000Y-102397000D01*
X152819000Y-102396000D01*
X152817000Y-102396000D01*
X152814000Y-102395000D01*
X152812000Y-102395000D01*
X152809000Y-102394000D01*
X152807000Y-102393000D01*
X152804000Y-102392000D01*
X152802000Y-102390000D01*
X152800000Y-102389000D01*
X152798000Y-102387000D01*
X152796000Y-102386000D01*
X152794000Y-102384000D01*
X152792000Y-102382000D01*
X152790000Y-102380000D01*
X152788000Y-102378000D01*
X152787000Y-102376000D01*
X152785000Y-102374000D01*
X152784000Y-102372000D01*
X152782000Y-102370000D01*
X152781000Y-102367000D01*
X152780000Y-102365000D01*
X152779000Y-102362000D01*
X152779000Y-102360000D01*
X152778000Y-102357000D01*
X152778000Y-102355000D01*
X152777000Y-102352000D01*
X152777000Y-102350000D01*
X152777000Y-102347000D01*
X152777000Y-100757000D01*
X152777000Y-100754000D01*
X152777000Y-100752000D01*
X152778000Y-100749000D01*
X152778000Y-100747000D01*
X152779000Y-100744000D01*
X152779000Y-100742000D01*
X152780000Y-100739000D01*
X152781000Y-100737000D01*
X152782000Y-100734000D01*
X152784000Y-100732000D01*
X152785000Y-100730000D01*
X152787000Y-100728000D01*
X152788000Y-100726000D01*
X152790000Y-100724000D01*
X152792000Y-100722000D01*
X152794000Y-100720000D01*
X152796000Y-100718000D01*
X152798000Y-100717000D01*
X152800000Y-100715000D01*
X152802000Y-100714000D01*
X152804000Y-100712000D01*
X152807000Y-100711000D01*
X152809000Y-100710000D01*
X152812000Y-100709000D01*
X152814000Y-100709000D01*
X152817000Y-100708000D01*
X152819000Y-100708000D01*
X152822000Y-100707000D01*
X152824000Y-100707000D01*
X152827000Y-100707000D01*
X153467000Y-100707000D01*
X153470000Y-100707000D01*
X153472000Y-100707000D01*
X153475000Y-100708000D01*
G36*
X153475000Y-100708000D02*
G01*
X153477000Y-100708000D01*
X153480000Y-100709000D01*
X153482000Y-100709000D01*
X153485000Y-100710000D01*
X153487000Y-100711000D01*
X153490000Y-100712000D01*
X153492000Y-100714000D01*
X153494000Y-100715000D01*
X153496000Y-100717000D01*
X153498000Y-100718000D01*
X153500000Y-100720000D01*
X153502000Y-100722000D01*
X153504000Y-100724000D01*
X153506000Y-100726000D01*
X153507000Y-100728000D01*
X153509000Y-100730000D01*
X153510000Y-100732000D01*
X153512000Y-100734000D01*
X153513000Y-100737000D01*
X153514000Y-100739000D01*
X153515000Y-100742000D01*
X153515000Y-100744000D01*
X153516000Y-100747000D01*
X153516000Y-100749000D01*
X153517000Y-100752000D01*
X153517000Y-100754000D01*
X153517000Y-100757000D01*
X153517000Y-102347000D01*
X153517000Y-102350000D01*
X153517000Y-102352000D01*
X153516000Y-102355000D01*
X153516000Y-102357000D01*
X153515000Y-102360000D01*
X153515000Y-102362000D01*
X153514000Y-102365000D01*
X153513000Y-102367000D01*
X153512000Y-102370000D01*
X153510000Y-102372000D01*
X153509000Y-102374000D01*
X153507000Y-102376000D01*
X153506000Y-102378000D01*
X153504000Y-102380000D01*
X153502000Y-102382000D01*
X153500000Y-102384000D01*
X153498000Y-102386000D01*
X153496000Y-102387000D01*
X153494000Y-102389000D01*
X153492000Y-102390000D01*
X153490000Y-102392000D01*
X153487000Y-102393000D01*
X153485000Y-102394000D01*
X153482000Y-102395000D01*
X153480000Y-102395000D01*
X153477000Y-102396000D01*
X153475000Y-102396000D01*
X153472000Y-102397000D01*
X153470000Y-102397000D01*
X153467000Y-102397000D01*
X152827000Y-102397000D01*
X152824000Y-102397000D01*
X152822000Y-102397000D01*
X152819000Y-102396000D01*
X152817000Y-102396000D01*
X152814000Y-102395000D01*
X152812000Y-102395000D01*
X152809000Y-102394000D01*
X152807000Y-102393000D01*
X152804000Y-102392000D01*
X152802000Y-102390000D01*
X152800000Y-102389000D01*
X152798000Y-102387000D01*
X152796000Y-102386000D01*
X152794000Y-102384000D01*
X152792000Y-102382000D01*
X152790000Y-102380000D01*
X152788000Y-102378000D01*
X152787000Y-102376000D01*
X152785000Y-102374000D01*
X152784000Y-102372000D01*
X152782000Y-102370000D01*
X152781000Y-102367000D01*
X152780000Y-102365000D01*
X152779000Y-102362000D01*
X152779000Y-102360000D01*
X152778000Y-102357000D01*
X152778000Y-102355000D01*
X152777000Y-102352000D01*
X152777000Y-102350000D01*
X152777000Y-102347000D01*
X152777000Y-100757000D01*
X152777000Y-100754000D01*
X152777000Y-100752000D01*
X152778000Y-100749000D01*
X152778000Y-100747000D01*
X152779000Y-100744000D01*
X152779000Y-100742000D01*
X152780000Y-100739000D01*
X152781000Y-100737000D01*
X152782000Y-100734000D01*
X152784000Y-100732000D01*
X152785000Y-100730000D01*
X152787000Y-100728000D01*
X152788000Y-100726000D01*
X152790000Y-100724000D01*
X152792000Y-100722000D01*
X152794000Y-100720000D01*
X152796000Y-100718000D01*
X152798000Y-100717000D01*
X152800000Y-100715000D01*
X152802000Y-100714000D01*
X152804000Y-100712000D01*
X152807000Y-100711000D01*
X152809000Y-100710000D01*
X152812000Y-100709000D01*
X152814000Y-100709000D01*
X152817000Y-100708000D01*
X152819000Y-100708000D01*
X152822000Y-100707000D01*
X152824000Y-100707000D01*
X152827000Y-100707000D01*
X153467000Y-100707000D01*
X153470000Y-100707000D01*
X153472000Y-100707000D01*
X153475000Y-100708000D01*
G37*
X153475000Y-106108000D02*
X153477000Y-106108000D01*
X153480000Y-106109000D01*
X153482000Y-106109000D01*
X153485000Y-106110000D01*
X153487000Y-106111000D01*
X153490000Y-106112000D01*
X153492000Y-106114000D01*
X153494000Y-106115000D01*
X153496000Y-106117000D01*
X153498000Y-106118000D01*
X153500000Y-106120000D01*
X153502000Y-106122000D01*
X153504000Y-106124000D01*
X153506000Y-106126000D01*
X153507000Y-106128000D01*
X153509000Y-106130000D01*
X153510000Y-106132000D01*
X153512000Y-106134000D01*
X153513000Y-106137000D01*
X153514000Y-106139000D01*
X153515000Y-106142000D01*
X153515000Y-106144000D01*
X153516000Y-106147000D01*
X153516000Y-106149000D01*
X153517000Y-106152000D01*
X153517000Y-106154000D01*
X153517000Y-106157000D01*
X153517000Y-107747000D01*
X153517000Y-107750000D01*
X153517000Y-107752000D01*
X153516000Y-107755000D01*
X153516000Y-107757000D01*
X153515000Y-107760000D01*
X153515000Y-107762000D01*
X153514000Y-107765000D01*
X153513000Y-107767000D01*
X153512000Y-107770000D01*
X153510000Y-107772000D01*
X153509000Y-107774000D01*
X153507000Y-107776000D01*
X153506000Y-107778000D01*
X153504000Y-107780000D01*
X153502000Y-107782000D01*
X153500000Y-107784000D01*
X153498000Y-107786000D01*
X153496000Y-107787000D01*
X153494000Y-107789000D01*
X153492000Y-107790000D01*
X153490000Y-107792000D01*
X153487000Y-107793000D01*
X153485000Y-107794000D01*
X153482000Y-107795000D01*
X153480000Y-107795000D01*
X153477000Y-107796000D01*
X153475000Y-107796000D01*
X153472000Y-107797000D01*
X153470000Y-107797000D01*
X153467000Y-107797000D01*
X152827000Y-107797000D01*
X152824000Y-107797000D01*
X152822000Y-107797000D01*
X152819000Y-107796000D01*
X152817000Y-107796000D01*
X152814000Y-107795000D01*
X152812000Y-107795000D01*
X152809000Y-107794000D01*
X152807000Y-107793000D01*
X152804000Y-107792000D01*
X152802000Y-107790000D01*
X152800000Y-107789000D01*
X152798000Y-107787000D01*
X152796000Y-107786000D01*
X152794000Y-107784000D01*
X152792000Y-107782000D01*
X152790000Y-107780000D01*
X152788000Y-107778000D01*
X152787000Y-107776000D01*
X152785000Y-107774000D01*
X152784000Y-107772000D01*
X152782000Y-107770000D01*
X152781000Y-107767000D01*
X152780000Y-107765000D01*
X152779000Y-107762000D01*
X152779000Y-107760000D01*
X152778000Y-107757000D01*
X152778000Y-107755000D01*
X152777000Y-107752000D01*
X152777000Y-107750000D01*
X152777000Y-107747000D01*
X152777000Y-106157000D01*
X152777000Y-106154000D01*
X152777000Y-106152000D01*
X152778000Y-106149000D01*
X152778000Y-106147000D01*
X152779000Y-106144000D01*
X152779000Y-106142000D01*
X152780000Y-106139000D01*
X152781000Y-106137000D01*
X152782000Y-106134000D01*
X152784000Y-106132000D01*
X152785000Y-106130000D01*
X152787000Y-106128000D01*
X152788000Y-106126000D01*
X152790000Y-106124000D01*
X152792000Y-106122000D01*
X152794000Y-106120000D01*
X152796000Y-106118000D01*
X152798000Y-106117000D01*
X152800000Y-106115000D01*
X152802000Y-106114000D01*
X152804000Y-106112000D01*
X152807000Y-106111000D01*
X152809000Y-106110000D01*
X152812000Y-106109000D01*
X152814000Y-106109000D01*
X152817000Y-106108000D01*
X152819000Y-106108000D01*
X152822000Y-106107000D01*
X152824000Y-106107000D01*
X152827000Y-106107000D01*
X153467000Y-106107000D01*
X153470000Y-106107000D01*
X153472000Y-106107000D01*
X153475000Y-106108000D01*
G36*
X153475000Y-106108000D02*
G01*
X153477000Y-106108000D01*
X153480000Y-106109000D01*
X153482000Y-106109000D01*
X153485000Y-106110000D01*
X153487000Y-106111000D01*
X153490000Y-106112000D01*
X153492000Y-106114000D01*
X153494000Y-106115000D01*
X153496000Y-106117000D01*
X153498000Y-106118000D01*
X153500000Y-106120000D01*
X153502000Y-106122000D01*
X153504000Y-106124000D01*
X153506000Y-106126000D01*
X153507000Y-106128000D01*
X153509000Y-106130000D01*
X153510000Y-106132000D01*
X153512000Y-106134000D01*
X153513000Y-106137000D01*
X153514000Y-106139000D01*
X153515000Y-106142000D01*
X153515000Y-106144000D01*
X153516000Y-106147000D01*
X153516000Y-106149000D01*
X153517000Y-106152000D01*
X153517000Y-106154000D01*
X153517000Y-106157000D01*
X153517000Y-107747000D01*
X153517000Y-107750000D01*
X153517000Y-107752000D01*
X153516000Y-107755000D01*
X153516000Y-107757000D01*
X153515000Y-107760000D01*
X153515000Y-107762000D01*
X153514000Y-107765000D01*
X153513000Y-107767000D01*
X153512000Y-107770000D01*
X153510000Y-107772000D01*
X153509000Y-107774000D01*
X153507000Y-107776000D01*
X153506000Y-107778000D01*
X153504000Y-107780000D01*
X153502000Y-107782000D01*
X153500000Y-107784000D01*
X153498000Y-107786000D01*
X153496000Y-107787000D01*
X153494000Y-107789000D01*
X153492000Y-107790000D01*
X153490000Y-107792000D01*
X153487000Y-107793000D01*
X153485000Y-107794000D01*
X153482000Y-107795000D01*
X153480000Y-107795000D01*
X153477000Y-107796000D01*
X153475000Y-107796000D01*
X153472000Y-107797000D01*
X153470000Y-107797000D01*
X153467000Y-107797000D01*
X152827000Y-107797000D01*
X152824000Y-107797000D01*
X152822000Y-107797000D01*
X152819000Y-107796000D01*
X152817000Y-107796000D01*
X152814000Y-107795000D01*
X152812000Y-107795000D01*
X152809000Y-107794000D01*
X152807000Y-107793000D01*
X152804000Y-107792000D01*
X152802000Y-107790000D01*
X152800000Y-107789000D01*
X152798000Y-107787000D01*
X152796000Y-107786000D01*
X152794000Y-107784000D01*
X152792000Y-107782000D01*
X152790000Y-107780000D01*
X152788000Y-107778000D01*
X152787000Y-107776000D01*
X152785000Y-107774000D01*
X152784000Y-107772000D01*
X152782000Y-107770000D01*
X152781000Y-107767000D01*
X152780000Y-107765000D01*
X152779000Y-107762000D01*
X152779000Y-107760000D01*
X152778000Y-107757000D01*
X152778000Y-107755000D01*
X152777000Y-107752000D01*
X152777000Y-107750000D01*
X152777000Y-107747000D01*
X152777000Y-106157000D01*
X152777000Y-106154000D01*
X152777000Y-106152000D01*
X152778000Y-106149000D01*
X152778000Y-106147000D01*
X152779000Y-106144000D01*
X152779000Y-106142000D01*
X152780000Y-106139000D01*
X152781000Y-106137000D01*
X152782000Y-106134000D01*
X152784000Y-106132000D01*
X152785000Y-106130000D01*
X152787000Y-106128000D01*
X152788000Y-106126000D01*
X152790000Y-106124000D01*
X152792000Y-106122000D01*
X152794000Y-106120000D01*
X152796000Y-106118000D01*
X152798000Y-106117000D01*
X152800000Y-106115000D01*
X152802000Y-106114000D01*
X152804000Y-106112000D01*
X152807000Y-106111000D01*
X152809000Y-106110000D01*
X152812000Y-106109000D01*
X152814000Y-106109000D01*
X152817000Y-106108000D01*
X152819000Y-106108000D01*
X152822000Y-106107000D01*
X152824000Y-106107000D01*
X152827000Y-106107000D01*
X153467000Y-106107000D01*
X153470000Y-106107000D01*
X153472000Y-106107000D01*
X153475000Y-106108000D01*
G37*
%TD*%
D11*
%TO.C,C35*%
X154940000Y-86005500D03*
X154940000Y-87730500D03*
%TD*%
D12*
%TO.C,C1*%
X127762000Y-93912500D03*
X127762000Y-92777500D03*
%TD*%
%TO.C,C41*%
X123063000Y-88003000D03*
X123063000Y-86868000D03*
%TD*%
D13*
%TO.C,H4*%
X160350000Y-113000000D03*
X160833274Y-111833274D03*
X160833274Y-114166726D03*
X162000000Y-111350000D03*
D14*
X162000000Y-113000000D03*
D13*
X162000000Y-114650000D03*
X163166726Y-111833274D03*
X163166726Y-114166726D03*
X163650000Y-113000000D03*
%TD*%
D15*
%TO.C,Q6*%
X133985000Y-123165000D03*
X132715000Y-123165000D03*
X131445000Y-123165000D03*
X130175000Y-123165000D03*
X130175000Y-128803000D03*
X131445000Y-128803000D03*
X132715000Y-128803000D03*
X133985000Y-128778000D03*
D16*
X132080000Y-126721000D03*
%TD*%
D17*
%TO.C,D10*%
X149663176Y-118986000D03*
X149663176Y-120386000D03*
%TD*%
D18*
%TO.C,C21*%
X142213500Y-99441000D03*
X140488500Y-99441000D03*
%TD*%
D19*
%TO.C,R23*%
X123969444Y-102140000D03*
X125164444Y-102140000D03*
%TD*%
D20*
%TO.C,R36*%
X121662000Y-127762000D03*
X127762000Y-127762000D03*
%TD*%
D21*
%TO.C,CN5*%
X156821000Y-80068500D03*
X155821000Y-80068500D03*
X154821000Y-80068500D03*
X153821000Y-80068500D03*
D22*
X157921000Y-76668500D03*
X152721000Y-76668500D03*
%TD*%
D13*
%TO.C,H2*%
X160350000Y-78000000D03*
X160833274Y-76833274D03*
X160833274Y-79166726D03*
X162000000Y-76350000D03*
D14*
X162000000Y-78000000D03*
D13*
X162000000Y-79650000D03*
X163166726Y-76833274D03*
X163166726Y-79166726D03*
X163650000Y-78000000D03*
%TD*%
D23*
%TO.C,R44*%
X149352000Y-99822000D03*
X148157000Y-99822000D03*
%TD*%
D19*
%TO.C,R29*%
X123969444Y-110726556D03*
X125164444Y-110726556D03*
%TD*%
D24*
%TO.C,C13*%
X126755444Y-99383556D03*
X126755444Y-100518556D03*
%TD*%
D15*
%TO.C,Q9*%
X146007666Y-123165000D03*
X144737666Y-123165000D03*
X143467666Y-123165000D03*
X142197666Y-123165000D03*
X142197666Y-128803000D03*
X143467666Y-128803000D03*
X144737666Y-128803000D03*
X146007666Y-128778000D03*
D16*
X144102666Y-126721000D03*
%TD*%
D19*
%TO.C,R26*%
X123969444Y-106415333D03*
X125164444Y-106415333D03*
%TD*%
D13*
%TO.C,H1*%
X111350000Y-78000000D03*
X111833274Y-76833274D03*
X111833274Y-79166726D03*
X113000000Y-76350000D03*
D14*
X113000000Y-78000000D03*
D13*
X113000000Y-79650000D03*
X114166726Y-76833274D03*
X114166726Y-79166726D03*
X114650000Y-78000000D03*
%TD*%
D25*
%TO.C,L6*%
X159385000Y-97561000D03*
X159385000Y-91161000D03*
%TD*%
D24*
%TO.C,C3*%
X127508000Y-81855500D03*
X127508000Y-82990500D03*
%TD*%
D23*
%TO.C,R43*%
X151892000Y-99822000D03*
X150697000Y-99822000D03*
%TD*%
D26*
%TO.C,D12*%
X118110000Y-120436000D03*
X118110000Y-125436000D03*
%TD*%
D27*
%TO.C,C34*%
X159385000Y-87663000D03*
X159385000Y-82263000D03*
%TD*%
D28*
%TO.C,R45*%
X132064000Y-117221000D03*
X130064000Y-117221000D03*
%TD*%
D11*
%TO.C,C27*%
X139888088Y-119178500D03*
X139888088Y-120903500D03*
%TD*%
D19*
%TO.C,R42*%
X115902500Y-115443000D03*
X117097500Y-115443000D03*
%TD*%
D29*
%TO.C,R41*%
X151229448Y-120088500D03*
X151229448Y-118893500D03*
%TD*%
D23*
%TO.C,R9*%
X149441500Y-82169000D03*
X148246500Y-82169000D03*
%TD*%
D17*
%TO.C,D4*%
X122280944Y-96564556D03*
X122280944Y-97964556D03*
%TD*%
D19*
%TO.C,R18*%
X117648944Y-108440556D03*
X118843944Y-108440556D03*
%TD*%
D30*
%TO.C,C24*%
X139573000Y-108585000D03*
X140708000Y-108585000D03*
%TD*%
D24*
%TO.C,C9*%
X126746000Y-94174500D03*
X126746000Y-95309500D03*
%TD*%
D12*
%TO.C,C4*%
X128270000Y-86927500D03*
X128270000Y-85792500D03*
%TD*%
D17*
%TO.C,D8*%
X122280944Y-107740556D03*
X122280944Y-109140556D03*
%TD*%
D31*
%TO.C,D9*%
X144125000Y-119380000D03*
X141625000Y-119380000D03*
%TD*%
D11*
%TO.C,C39*%
X145034000Y-95885000D03*
X145034000Y-97610000D03*
%TD*%
D30*
%TO.C,C19*%
X144212500Y-101473000D03*
X145347500Y-101473000D03*
%TD*%
D32*
%TO.C,C29*%
X156137500Y-117348000D03*
X157862500Y-117348000D03*
%TD*%
D19*
%TO.C,R14*%
X117648944Y-97264556D03*
X118843944Y-97264556D03*
%TD*%
%TO.C,R27*%
X123969444Y-107840444D03*
X125164444Y-107840444D03*
%TD*%
D33*
%TO.C,Q1*%
X120327944Y-97589556D03*
X120677944Y-97589556D03*
D34*
X120502944Y-96939556D03*
%TD*%
D24*
%TO.C,C15*%
X126755444Y-105186556D03*
X126755444Y-106321556D03*
%TD*%
D23*
%TO.C,R32*%
X144996500Y-99441000D03*
X143801500Y-99441000D03*
%TD*%
D12*
%TO.C,C11*%
X123063000Y-90424000D03*
X123063000Y-89289000D03*
%TD*%
D29*
%TO.C,R1*%
X117094000Y-88608500D03*
X117094000Y-87413500D03*
%TD*%
D35*
%TO.C,C28*%
X154305000Y-120903500D03*
X154305000Y-119178500D03*
%TD*%
D12*
%TO.C,C2*%
X128778000Y-93912500D03*
X128778000Y-92777500D03*
%TD*%
D19*
%TO.C,R7*%
X132625500Y-99441000D03*
X133820500Y-99441000D03*
%TD*%
D15*
%TO.C,Q10*%
X152019000Y-123165000D03*
X150749000Y-123165000D03*
X149479000Y-123165000D03*
X148209000Y-123165000D03*
X148209000Y-128803000D03*
X149479000Y-128803000D03*
X150749000Y-128803000D03*
X152019000Y-128778000D03*
D16*
X150114000Y-126721000D03*
%TD*%
D33*
%TO.C,Q2*%
X120327944Y-100383556D03*
X120677944Y-100383556D03*
D34*
X120502944Y-99733556D03*
%TD*%
D11*
%TO.C,C38*%
X146812000Y-95885000D03*
X146812000Y-97610000D03*
%TD*%
D24*
%TO.C,C36*%
X129921000Y-95317500D03*
X129921000Y-96452500D03*
%TD*%
D36*
%TO.C,D2*%
X139573000Y-95949500D03*
X139573000Y-94804500D03*
%TD*%
D24*
%TO.C,C42*%
X128651000Y-81855500D03*
X128651000Y-82990500D03*
%TD*%
D19*
%TO.C,R22*%
X123969444Y-100714889D03*
X125164444Y-100714889D03*
%TD*%
D37*
%TO.C,H5*%
X161500000Y-126500000D03*
%TD*%
D19*
%TO.C,R47*%
X137451500Y-81915000D03*
X138646500Y-81915000D03*
%TD*%
D38*
%TO.C,D11*%
X156972000Y-125391000D03*
X156972000Y-120391000D03*
%TD*%
D30*
%TO.C,C6*%
X138116500Y-85852000D03*
X139251500Y-85852000D03*
%TD*%
D21*
%TO.C,CN1*%
X134271600Y-79941500D03*
X133271600Y-79941500D03*
X132271600Y-79941500D03*
X131271600Y-79941500D03*
X130271600Y-79941500D03*
X129271600Y-79941500D03*
D22*
X128171600Y-76541500D03*
X135371600Y-76541500D03*
%TD*%
D33*
%TO.C,Q5*%
X120327944Y-108765556D03*
X120677944Y-108765556D03*
D34*
X120502944Y-108115556D03*
%TD*%
D24*
%TO.C,C14*%
X126755444Y-102285056D03*
X126755444Y-103420056D03*
%TD*%
D17*
%TO.C,D7*%
X122280944Y-104935306D03*
X122280944Y-106335306D03*
%TD*%
D33*
%TO.C,Q3*%
X120327944Y-103177556D03*
X120677944Y-103177556D03*
D34*
X120502944Y-102527556D03*
%TD*%
D39*
%TO.C,U1*%
X114984000Y-88603185D03*
X114984000Y-89603185D03*
D40*
X111584000Y-90703185D03*
X111584000Y-87503185D03*
%TD*%
D23*
%TO.C,R40*%
X144107500Y-117729000D03*
X142912500Y-117729000D03*
%TD*%
D21*
%TO.C,U5*%
X149344200Y-79941500D03*
X148344200Y-79941500D03*
D22*
X147244200Y-76541500D03*
X150444200Y-76541500D03*
%TD*%
D19*
%TO.C,R46*%
X139991500Y-81915000D03*
X141186500Y-81915000D03*
%TD*%
D41*
%TO.C,D13*%
X159385000Y-107378000D03*
X159385000Y-100648000D03*
%TD*%
D42*
%TO.C,XTAL1*%
X124968000Y-85115400D03*
X124968000Y-87299800D03*
%TD*%
D17*
%TO.C,D5*%
X122280944Y-99324806D03*
X122280944Y-100724806D03*
%TD*%
D19*
%TO.C,R31*%
X137451500Y-99441000D03*
X138646500Y-99441000D03*
%TD*%
D24*
%TO.C,C25*%
X131318000Y-95317500D03*
X131318000Y-96452500D03*
%TD*%
D29*
%TO.C,R37*%
X125476000Y-116892000D03*
X125476000Y-115697000D03*
%TD*%
D33*
%TO.C,Q4*%
X120327944Y-105971556D03*
X120677944Y-105971556D03*
D34*
X120502944Y-105321556D03*
%TD*%
D29*
%TO.C,R11*%
X140843000Y-95974500D03*
X140843000Y-94779500D03*
%TD*%
%TO.C,R39*%
X132588000Y-96482500D03*
X132588000Y-95287500D03*
%TD*%
D19*
%TO.C,R21*%
X123969444Y-99289778D03*
X125164444Y-99289778D03*
%TD*%
D43*
%TO.C,L2*%
X136175544Y-119166000D03*
X136175544Y-120916000D03*
%TD*%
D35*
%TO.C,C26*%
X138031816Y-120903500D03*
X138031816Y-119178500D03*
%TD*%
D43*
%TO.C,L3*%
X134319272Y-119166000D03*
X134319272Y-120916000D03*
%TD*%
D29*
%TO.C,R6*%
X121031000Y-84036500D03*
X121031000Y-82841500D03*
%TD*%
D19*
%TO.C,R24*%
X123969444Y-103565111D03*
X125164444Y-103565111D03*
%TD*%
D24*
%TO.C,C12*%
X126755444Y-96482056D03*
X126755444Y-97617056D03*
%TD*%
D29*
%TO.C,R13*%
X123063000Y-92889000D03*
X123063000Y-91694000D03*
%TD*%
D30*
%TO.C,C23*%
X124273500Y-114554000D03*
X125408500Y-114554000D03*
%TD*%
D29*
%TO.C,R33*%
X124206000Y-116892000D03*
X124206000Y-115697000D03*
%TD*%
D44*
%TO.C,C10*%
X150935500Y-92075000D03*
X149800500Y-92075000D03*
%TD*%
D12*
%TO.C,C44*%
X119761000Y-84006500D03*
X119761000Y-82871500D03*
%TD*%
D29*
%TO.C,R4*%
X117094000Y-94450500D03*
X117094000Y-93255500D03*
%TD*%
D23*
%TO.C,R8*%
X136233500Y-99441000D03*
X135038500Y-99441000D03*
%TD*%
D12*
%TO.C,C43*%
X118491000Y-84006500D03*
X118491000Y-82871500D03*
%TD*%
D19*
%TO.C,R17*%
X117648944Y-105646556D03*
X118843944Y-105646556D03*
%TD*%
D20*
%TO.C,R35*%
X121662000Y-123698000D03*
X127762000Y-123698000D03*
%TD*%
D30*
%TO.C,C22*%
X137160000Y-108585000D03*
X138295000Y-108585000D03*
%TD*%
D45*
%TO.C,IC1*%
X125581000Y-83180000D03*
X125581000Y-82680000D03*
X125581000Y-82180000D03*
X125581000Y-81680000D03*
X124081000Y-81680000D03*
X124101000Y-82180000D03*
X124101000Y-82680000D03*
X124101000Y-83180000D03*
%TD*%
D19*
%TO.C,R2*%
X124878500Y-89027000D03*
X126073500Y-89027000D03*
%TD*%
D30*
%TO.C,C7*%
X130115500Y-84963000D03*
X131250500Y-84963000D03*
%TD*%
D35*
%TO.C,C33*%
X155194000Y-105383500D03*
X155194000Y-103658500D03*
%TD*%
D37*
%TO.C,H6*%
X161500000Y-119173000D03*
%TD*%
D19*
%TO.C,R30*%
X143420500Y-115189000D03*
X144615500Y-115189000D03*
%TD*%
D37*
%TO.C,H8*%
X113030000Y-119173000D03*
%TD*%
D21*
%TO.C,CN2*%
X143819400Y-79941500D03*
X142819400Y-79941500D03*
X141819400Y-79941500D03*
X140819400Y-79941500D03*
X139819400Y-79941500D03*
X138819400Y-79941500D03*
D22*
X137719400Y-76541500D03*
X144919400Y-76541500D03*
%TD*%
D46*
%TO.C,D1*%
X143383000Y-94804500D03*
X143383000Y-95949500D03*
%TD*%
D39*
%TO.C,U2*%
X114984000Y-94466371D03*
X114984000Y-95466371D03*
D40*
X111584000Y-96566371D03*
X111584000Y-93366371D03*
%TD*%
D47*
%TO.C,X1*%
X124968000Y-90367000D03*
D39*
X124968000Y-91567000D03*
D47*
X124968000Y-92767000D03*
%TD*%
D32*
%TO.C,C32*%
X151918500Y-109728000D03*
X153643500Y-109728000D03*
%TD*%
D19*
%TO.C,R28*%
X123969444Y-109265556D03*
X125164444Y-109265556D03*
%TD*%
D48*
%TO.C,C31*%
X151980500Y-112141000D03*
X155105500Y-112141000D03*
%TD*%
D49*
%TO.C,U7*%
X141871000Y-106925000D03*
X141871000Y-106275000D03*
X141871000Y-105625000D03*
X141871000Y-104975000D03*
X141871000Y-104325000D03*
X141871000Y-103675000D03*
X141871000Y-103025000D03*
X141871000Y-102375000D03*
X141871000Y-101725000D03*
X141871000Y-101075000D03*
X136129000Y-101075000D03*
X136129000Y-101725000D03*
X136129000Y-102375000D03*
X136129000Y-103025000D03*
X136129000Y-103675000D03*
X136129000Y-104325000D03*
X136129000Y-104975000D03*
X136129000Y-105625000D03*
X136129000Y-106275000D03*
X136129000Y-106925000D03*
%TD*%
D50*
%TO.C,Q11*%
X134190500Y-115509000D03*
X134190500Y-117409000D03*
X136065500Y-116459000D03*
%TD*%
D37*
%TO.C,H7*%
X113030000Y-126492000D03*
%TD*%
D23*
%TO.C,R5*%
X125184500Y-93980000D03*
X123989500Y-93980000D03*
%TD*%
D20*
%TO.C,R34*%
X121662000Y-119634000D03*
X127762000Y-119634000D03*
%TD*%
D13*
%TO.C,H3*%
X111350000Y-113000000D03*
X111833274Y-111833274D03*
X111833274Y-114166726D03*
X113000000Y-111350000D03*
D14*
X113000000Y-113000000D03*
D13*
X113000000Y-114650000D03*
X114166726Y-111833274D03*
X114166726Y-114166726D03*
X114650000Y-113000000D03*
%TD*%
D15*
%TO.C,Q7*%
X139996333Y-123165000D03*
X138726333Y-123165000D03*
X137456333Y-123165000D03*
X136186333Y-123165000D03*
X136186333Y-128803000D03*
X137456333Y-128803000D03*
X138726333Y-128803000D03*
X139996333Y-128778000D03*
D16*
X138091333Y-126721000D03*
%TD*%
D43*
%TO.C,L4*%
X145980632Y-119166000D03*
X145980632Y-120916000D03*
%TD*%
D19*
%TO.C,R19*%
X123969444Y-96439556D03*
X125164444Y-96439556D03*
%TD*%
D51*
%TO.C,L1*%
X124014500Y-95123000D03*
X125159500Y-95123000D03*
%TD*%
D21*
%TO.C,U10*%
X124746800Y-79941500D03*
X123746800Y-79941500D03*
D22*
X122646800Y-76541500D03*
X125846800Y-76541500D03*
%TD*%
D52*
%TO.C,U9*%
X148572000Y-95828500D03*
X148572000Y-96478500D03*
X148572000Y-97128500D03*
X150622000Y-97128500D03*
X150622000Y-96478500D03*
X150622000Y-95828500D03*
D53*
X149597000Y-96478500D03*
%TD*%
D29*
%TO.C,R38*%
X132723000Y-120088500D03*
X132723000Y-118893500D03*
%TD*%
D54*
%TO.C,U6*%
X142135000Y-88265000D03*
X142135000Y-89535000D03*
X142135000Y-90805000D03*
X142135000Y-92075000D03*
X147679000Y-92075000D03*
X147679000Y-90805000D03*
X147679000Y-89535000D03*
X147679000Y-88265000D03*
%TD*%
D24*
%TO.C,C40*%
X123063000Y-84395500D03*
X123063000Y-85530500D03*
%TD*%
D12*
%TO.C,C37*%
X151892000Y-96934000D03*
X151892000Y-95799000D03*
%TD*%
D50*
%TO.C,Q8*%
X140286500Y-115509000D03*
X140286500Y-117409000D03*
X142161500Y-116459000D03*
%TD*%
D24*
%TO.C,C17*%
X126755444Y-110677760D03*
X126755444Y-111812760D03*
%TD*%
D48*
%TO.C,C30*%
X151980500Y-114808000D03*
X155105500Y-114808000D03*
%TD*%
D44*
%TO.C,C8*%
X145601500Y-86995000D03*
X144466500Y-86995000D03*
%TD*%
D24*
%TO.C,C16*%
X126755444Y-108088056D03*
X126755444Y-109223056D03*
%TD*%
%TO.C,C5*%
X137414000Y-94174500D03*
X137414000Y-95309500D03*
%TD*%
D55*
%TO.C,U3*%
X130166500Y-86958800D03*
X130166500Y-87458800D03*
X130166500Y-87958800D03*
X130166500Y-88458800D03*
X130166500Y-88958800D03*
X130166500Y-89458800D03*
X130166500Y-89958800D03*
X130166500Y-90458800D03*
X130166500Y-90958800D03*
X130166500Y-91458800D03*
X130166500Y-91958800D03*
X130166500Y-92458800D03*
D56*
X130854000Y-93146300D03*
X131354000Y-93146300D03*
X131854000Y-93146300D03*
X132354000Y-93146300D03*
X132854000Y-93146300D03*
X133354000Y-93146300D03*
X133854000Y-93146300D03*
X134354000Y-93146300D03*
X134854000Y-93146300D03*
X135354000Y-93146300D03*
X135854000Y-93146300D03*
X136354000Y-93146300D03*
D55*
X137041500Y-92458800D03*
X137041500Y-91958800D03*
X137041500Y-91458800D03*
X137041500Y-90958800D03*
X137041500Y-90458800D03*
X137041500Y-89958800D03*
X137041500Y-89458800D03*
X137041500Y-88958800D03*
X137041500Y-88458800D03*
X137041500Y-87958800D03*
X137041500Y-87458800D03*
X137041500Y-86958800D03*
D56*
X136354000Y-86271300D03*
X135854000Y-86271300D03*
X135354000Y-86271300D03*
X134854000Y-86271300D03*
X134354000Y-86271300D03*
X133854000Y-86271300D03*
X133354000Y-86271300D03*
X132854000Y-86271300D03*
X132354000Y-86271300D03*
X131854000Y-86271300D03*
X131354000Y-86271300D03*
X130854000Y-86271300D03*
D57*
X133604000Y-89708800D03*
%TD*%
D17*
%TO.C,D6*%
X122280944Y-102130056D03*
X122280944Y-103530056D03*
%TD*%
D19*
%TO.C,R49*%
X146087500Y-115189000D03*
X147282500Y-115189000D03*
%TD*%
D43*
%TO.C,L5*%
X147836904Y-119166000D03*
X147836904Y-120916000D03*
%TD*%
D39*
%TO.C,U12*%
X114984000Y-82740000D03*
X114984000Y-83740000D03*
D40*
X111584000Y-84840000D03*
X111584000Y-81640000D03*
%TD*%
D19*
%TO.C,R16*%
X117648944Y-102852556D03*
X118843944Y-102852556D03*
%TD*%
D58*
%TO.C,TP1*%
X120904000Y-85725000D03*
%TD*%
D44*
%TO.C,C20*%
X145347500Y-104521000D03*
X144212500Y-104521000D03*
%TD*%
D21*
%TO.C,U11*%
X119245000Y-79932000D03*
X118245000Y-79932000D03*
D22*
X117145000Y-76532000D03*
X120345000Y-76532000D03*
%TD*%
D19*
%TO.C,R3*%
X130085500Y-83820000D03*
X131280500Y-83820000D03*
%TD*%
%TO.C,R25*%
X123969444Y-104990222D03*
X125164444Y-104990222D03*
%TD*%
%TO.C,R15*%
X117648944Y-100058556D03*
X118843944Y-100058556D03*
%TD*%
D30*
%TO.C,C18*%
X144212500Y-102743000D03*
X145347500Y-102743000D03*
%TD*%
D59*
%TO.C,R10*%
X142113000Y-94779500D03*
X142113000Y-95974500D03*
%TD*%
D19*
%TO.C,R48*%
X148627500Y-115189000D03*
X149822500Y-115189000D03*
%TD*%
D39*
%TO.C,CN6*%
X114984000Y-100352556D03*
X114984000Y-101352556D03*
X114984000Y-102352556D03*
X114984000Y-103352556D03*
X114984000Y-104352556D03*
X114984000Y-105352556D03*
D40*
X111584000Y-106452556D03*
X111584000Y-99252556D03*
%TD*%
D19*
%TO.C,R20*%
X123969444Y-97864667D03*
X125164444Y-97864667D03*
%TD*%
M02*
