M48
; DRILL file {KiCad 9.0.7} date 2026-03-11T04:27:45+0800
; FORMAT={-:-/ absolute / metric / decimal}
; #@! TF.CreationDate,2026-03-11T04:27:45+08:00
; #@! TF.GenerationSoftware,Kicad,Pcbnew,9.0.7
; #@! TF.FileFunction,Plated,1,4,PTH
FMAT,2
METRIC
; #@! TA.AperFunction,Plated,PTH,ViaDrill
T1C0.305
; #@! TA.AperFunction,Plated,PTH,ComponentDrill
T2C0.400
; #@! TA.AperFunction,Plated,PTH,ViaDrill
T3C0.508
; #@! TA.AperFunction,Plated,PTH,ComponentDrill
T4C2.200
; #@! TA.AperFunction,Plated,PTH,ComponentDrill
T5C2.500
%
G90
G05
T1
X113.52Y-89.603
X113.665Y-99.695
X113.665Y-100.33
X113.69Y-82.74
X113.703Y-95.466
X114.3Y-99.695
X117.85Y-93.26
X117.87Y-88.64
X117.93Y-87.41
X117.97Y-94.44
X118.25Y-77.98
X118.491Y-84.82
X119.25Y-78.44
X122.17Y-89.28
X122.27Y-92.91
X122.28Y-85.54
X122.33Y-90.44
X123.02Y-93.983
X123.06Y-95.13
X123.1Y-81.672
X123.73Y-78.68
X123.8Y-91.02
X124.75Y-78.67
X126.365Y-83.188
X127.748Y-95.326
X127.762Y-91.99
X127.762Y-94.742
X128.016Y-110.617
X128.27Y-84.963
X128.778Y-94.742
X128.79Y-105.03
X128.82Y-91.923
X129.184Y-83.82
X129.2Y-89.947
X129.25Y-78.68
X129.286Y-84.963
X129.413Y-82.982
X129.464Y-81.864
X129.921Y-97.282
X130.27Y-78.68
X130.62Y-95.35
X131.318Y-97.282
X131.445Y-122.174
X131.445Y-122.809
X131.81Y-99.44
X132.08Y-84.988
X132.715Y-122.174
X132.715Y-122.809
X132.75Y-115.51
X133.354Y-84.896
X133.417Y-84.278
X133.61Y-95.3
X133.83Y-100.16
X133.85Y-94.09
X133.985Y-122.174
X133.985Y-122.809
X134.71Y-106.92
X135.05Y-100.25
X136.23Y-98.56
X137.17Y-110.51
X137.414Y-81.026
X137.414Y-122.174
X137.414Y-122.809
X137.45Y-98.22
X138.02Y-89.94
X138.02Y-92.49
X138.11Y-85.11
X138.3Y-95.32
X138.32Y-94.16
X138.397Y-89.461
X138.684Y-122.174
X138.684Y-122.809
X139.24Y-85.13
X139.954Y-122.174
X139.954Y-122.809
X140.47Y-98.28
X140.47Y-104.377
X140.47Y-105.05
X140.54Y-89.56
X140.7Y-110.5
X140.81Y-93.83
X140.82Y-78.56
X141.19Y-81.19
X141.478Y-115.509
X141.82Y-81.19
X142.12Y-96.93
X142.47Y-115.19
X142.83Y-81.25
X143.195Y-105.173
X143.51Y-122.174
X143.51Y-122.809
X143.83Y-81.25
X143.891Y-103.505
X144.018Y-97.155
X144.018Y-97.79
X144.47Y-86.2
X144.526Y-103.505
X144.78Y-122.174
X144.78Y-122.809
X145.34Y-105.29
X145.415Y-103.505
X145.6Y-86.22
X145.882Y-100.67
X146.05Y-122.174
X146.05Y-122.809
X146.07Y-114.43
X146.177Y-101.473
X146.21Y-88.27
X146.939Y-93.599
X146.939Y-94.361
X147.193Y-122.174
X147.193Y-122.809
X147.28Y-114.51
X147.574Y-93.599
X147.574Y-94.361
X148.209Y-93.599
X148.209Y-94.361
X149.32Y-108.299
X149.352Y-103.378
X149.352Y-105.156
X149.479Y-122.174
X149.479Y-122.809
X149.597Y-96.478
X150.304Y-103.378
X150.304Y-105.156
X150.368Y-98.806
X150.622Y-108.331
X150.622Y-115.189
X150.749Y-122.174
X150.749Y-122.809
X151.003Y-98.806
X151.257Y-103.378
X151.257Y-105.156
X151.638Y-98.806
X151.88Y-94.98
X151.89Y-92.1
X152.019Y-122.174
X152.019Y-122.809
X152.146Y-86.487
X152.146Y-87.122
X152.146Y-87.72
X152.178Y-80.301
X152.178Y-80.936
X152.178Y-81.534
X152.209Y-103.378
X152.209Y-105.156
X153.13Y-87.72
X153.162Y-81.534
X153.162Y-86.487
X153.162Y-87.122
X153.162Y-103.378
X153.162Y-105.156
X153.194Y-80.301
X153.194Y-80.936
X154.82Y-78.46
X154.94Y-101.854
X154.94Y-102.489
X155.575Y-101.854
X155.575Y-102.489
X156.972Y-86.36
X156.972Y-86.995
X156.972Y-87.63
X156.972Y-91.059
X156.972Y-91.694
X157.607Y-86.36
X157.607Y-86.995
X157.607Y-87.63
X157.607Y-91.059
X157.607Y-91.694
X161.544Y-97.028
X161.544Y-97.663
X161.544Y-100.457
X161.544Y-101.092
X162.179Y-97.028
X162.179Y-97.663
X162.179Y-100.457
X162.179Y-101.092
T2
X111.35Y-78.0
X111.35Y-113.0
X111.833Y-76.833
X111.833Y-79.167
X111.833Y-111.833
X111.833Y-114.167
X113.0Y-76.35
X113.0Y-79.65
X113.0Y-111.35
X113.0Y-114.65
X114.167Y-76.833
X114.167Y-79.167
X114.167Y-111.833
X114.167Y-114.167
X114.65Y-78.0
X114.65Y-113.0
X160.35Y-78.0
X160.35Y-113.0
X160.833Y-76.833
X160.833Y-79.167
X160.833Y-111.833
X160.833Y-114.167
X162.0Y-76.35
X162.0Y-79.65
X162.0Y-111.35
X162.0Y-114.65
X163.167Y-76.833
X163.167Y-79.167
X163.167Y-111.833
X163.167Y-114.167
X163.65Y-78.0
X163.65Y-113.0
T3
X118.11Y-119.634
X118.11Y-121.158
X118.11Y-124.841
X118.11Y-126.492
X118.21Y-115.44
X121.666Y-118.364
X121.666Y-119.634
X121.666Y-120.904
X121.666Y-122.428
X127.762Y-118.364
X127.762Y-119.634
X127.762Y-120.904
X127.762Y-122.428
X130.277Y-124.587
X131.293Y-124.587
X132.309Y-124.587
X133.325Y-124.587
X134.341Y-124.587
X136.119Y-124.587
X137.135Y-124.587
X137.541Y-116.459
X138.151Y-124.587
X139.167Y-124.587
X140.183Y-124.587
X141.224Y-120.903
X142.215Y-124.587
X143.231Y-124.587
X144.247Y-124.587
X145.263Y-124.587
X146.279Y-124.587
X148.311Y-124.587
X149.327Y-124.587
X150.343Y-124.587
X151.359Y-124.587
X152.375Y-124.587
X155.194Y-82.296
X155.194Y-83.439
X155.194Y-84.582
X156.718Y-109.728
X156.718Y-112.141
X156.718Y-114.808
X156.972Y-119.38
X156.972Y-121.412
X156.972Y-125.391
X156.972Y-126.492
X159.385Y-109.474
T4
X113.0Y-78.0
X113.0Y-113.0
X162.0Y-78.0
X162.0Y-113.0
T5
X113.03Y-119.173
X113.03Y-126.492
X161.5Y-119.173
X161.5Y-126.5
M30
