%TF.GenerationSoftware,KiCad,Pcbnew,9.0.7*%
%TF.CreationDate,2026-03-11T04:27:33+08:00*%
%TF.ProjectId,CawBMS,43617742-4d53-42e6-9b69-6361645f7063,rev?*%
%TF.SameCoordinates,Original*%
%TF.FileFunction,Paste,Top*%
%TF.FilePolarity,Positive*%
%FSLAX46Y46*%
G04 Gerber Fmt 4.6, Leading zero omitted, Abs format (unit mm)*
G04 Created by KiCad (PCBNEW 9.0.7) date 2026-03-11 04:27:33*
%MOMM*%
%LPD*%
G01*
G04 APERTURE LIST*
G04 Aperture macros list*
%AMRoundRect*
0 Rectangle with rounded corners*
0 $1 Rounding radius*
0 $2 $3 $4 $5 $6 $7 $8 $9 X,Y pos of 4 corners*
0 Add a 4 corners polygon primitive as box body*
4,1,4,$2,$3,$4,$5,$6,$7,$8,$9,$2,$3,0*
0 Add four circle primitives for the rounded corners*
1,1,$1+$1,$2,$3*
1,1,$1+$1,$4,$5*
1,1,$1+$1,$6,$7*
1,1,$1+$1,$8,$9*
0 Add four rect primitives between the rounded corners*
20,1,$1+$1,$2,$3,$4,$5,0*
20,1,$1+$1,$4,$5,$6,$7,0*
20,1,$1+$1,$6,$7,$8,$9,0*
20,1,$1+$1,$8,$9,$2,$3,0*%
G04 Aperture macros list end*
%ADD10C,0.120000*%
%ADD11C,0.010000*%
%ADD12RoundRect,0.237500X-0.237500X0.300000X-0.237500X-0.300000X0.237500X-0.300000X0.237500X0.300000X0*%
%ADD13RoundRect,0.155000X0.155000X-0.212500X0.155000X0.212500X-0.155000X0.212500X-0.155000X-0.212500X0*%
%ADD14R,0.749000X1.300000*%
%ADD15R,4.560000X4.000000*%
%ADD16RoundRect,0.150000X0.200000X-0.150000X0.200000X0.150000X-0.200000X0.150000X-0.200000X-0.150000X0*%
%ADD17RoundRect,0.237500X0.300000X0.237500X-0.300000X0.237500X-0.300000X-0.237500X0.300000X-0.237500X0*%
%ADD18RoundRect,0.160000X-0.197500X-0.160000X0.197500X-0.160000X0.197500X0.160000X-0.197500X0.160000X0*%
%ADD19RoundRect,0.249999X-0.450001X-1.425001X0.450001X-1.425001X0.450001X1.425001X-0.450001X1.425001X0*%
%ADD20R,0.500000X1.700000*%
%ADD21R,1.200000X2.500000*%
%ADD22RoundRect,0.160000X0.197500X0.160000X-0.197500X0.160000X-0.197500X-0.160000X0.197500X-0.160000X0*%
%ADD23RoundRect,0.155000X-0.155000X0.212500X-0.155000X-0.212500X0.155000X-0.212500X0.155000X0.212500X0*%
%ADD24R,2.200000X1.500000*%
%ADD25RoundRect,0.250000X-0.650000X1.500000X-0.650000X-1.500000X0.650000X-1.500000X0.650000X1.500000X0*%
%ADD26RoundRect,0.250000X0.550000X-1.500000X0.550000X1.500000X-0.550000X1.500000X-0.550000X-1.500000X0*%
%ADD27RoundRect,0.250000X0.350000X0.450000X-0.350000X0.450000X-0.350000X-0.450000X0.350000X-0.450000X0*%
%ADD28RoundRect,0.160000X0.160000X-0.197500X0.160000X0.197500X-0.160000X0.197500X-0.160000X-0.197500X0*%
%ADD29RoundRect,0.155000X-0.212500X-0.155000X0.212500X-0.155000X0.212500X0.155000X-0.212500X0.155000X0*%
%ADD30RoundRect,0.030000X-0.270000X0.745000X-0.270000X-0.745000X0.270000X-0.745000X0.270000X0.745000X0*%
%ADD31RoundRect,0.250000X0.250000X0.250000X-0.250000X0.250000X-0.250000X-0.250000X0.250000X-0.250000X0*%
%ADD32RoundRect,0.237500X-0.300000X-0.237500X0.300000X-0.237500X0.300000X0.237500X-0.300000X0.237500X0*%
%ADD33R,0.150000X0.250000*%
%ADD34R,0.500000X0.250000*%
%ADD35RoundRect,0.237500X0.237500X-0.300000X0.237500X0.300000X-0.237500X0.300000X-0.237500X-0.300000X0*%
%ADD36RoundRect,0.160000X0.160000X-0.222500X0.160000X0.222500X-0.160000X0.222500X-0.160000X-0.222500X0*%
%ADD37RoundRect,0.250000X0.650000X-1.500000X0.650000X1.500000X-0.650000X1.500000X-0.650000X-1.500000X0*%
%ADD38R,1.700000X0.500000*%
%ADD39R,2.500000X1.200000*%
%ADD40RoundRect,0.291250X-1.243750X0.873750X-1.243750X-0.873750X1.243750X-0.873750X1.243750X0.873750X0*%
%ADD41R,1.295400X1.422400*%
%ADD42RoundRect,0.237500X-0.237500X0.287500X-0.237500X-0.287500X0.237500X-0.287500X0.237500X0.287500X0*%
%ADD43RoundRect,0.155000X0.212500X0.155000X-0.212500X0.155000X-0.212500X-0.155000X0.212500X-0.155000X0*%
%ADD44R,0.670000X0.300000*%
%ADD45RoundRect,0.160000X-0.160000X0.222500X-0.160000X-0.222500X0.160000X-0.222500X0.160000X0.222500X0*%
%ADD46R,1.700000X0.650000*%
%ADD47RoundRect,0.250000X-0.412500X-0.650000X0.412500X-0.650000X0.412500X0.650000X-0.412500X0.650000X0*%
%ADD48O,1.742000X0.364000*%
%ADD49RoundRect,0.150000X-0.587500X-0.150000X0.587500X-0.150000X0.587500X0.150000X-0.587500X0.150000X0*%
%ADD50RoundRect,0.160000X-0.222500X-0.160000X0.222500X-0.160000X0.222500X0.160000X-0.222500X0.160000X0*%
%ADD51R,0.660000X0.320000*%
%ADD52O,2.045000X0.588000*%
%ADD53RoundRect,0.250000X-0.315000X-0.315000X0.315000X-0.315000X0.315000X0.315000X-0.315000X0.315000X0*%
%ADD54RoundRect,0.062500X-0.375000X-0.062500X0.375000X-0.062500X0.375000X0.062500X-0.375000X0.062500X0*%
%ADD55RoundRect,0.062500X-0.062500X-0.375000X0.062500X-0.375000X0.062500X0.375000X-0.062500X0.375000X0*%
%ADD56RoundRect,0.160000X-0.160000X0.197500X-0.160000X-0.197500X0.160000X-0.197500X0.160000X0.197500X0*%
G04 APERTURE END LIST*
D10*
%TO.C,Q6*%
X130550000Y-123815000D02*
X129800000Y-123815000D01*
X129800000Y-122514000D01*
X130550000Y-122514000D01*
X130550000Y-123815000D01*
G36*
X130550000Y-123815000D02*
G01*
X129800000Y-123815000D01*
X129800000Y-122514000D01*
X130550000Y-122514000D01*
X130550000Y-123815000D01*
G37*
X131820000Y-123815000D02*
X131070000Y-123815000D01*
X131070000Y-122514000D01*
X131820000Y-122514000D01*
X131820000Y-123815000D01*
G36*
X131820000Y-123815000D02*
G01*
X131070000Y-123815000D01*
X131070000Y-122514000D01*
X131820000Y-122514000D01*
X131820000Y-123815000D01*
G37*
X133090000Y-123815000D02*
X132340000Y-123815000D01*
X132340000Y-122514000D01*
X133090000Y-122514000D01*
X133090000Y-123815000D01*
G36*
X133090000Y-123815000D02*
G01*
X132340000Y-123815000D01*
X132340000Y-122514000D01*
X133090000Y-122514000D01*
X133090000Y-123815000D01*
G37*
X134360000Y-123815000D02*
X133610000Y-123815000D01*
X133610000Y-122514000D01*
X134360000Y-122514000D01*
X134360000Y-123815000D01*
G36*
X134360000Y-123815000D02*
G01*
X133610000Y-123815000D01*
X133610000Y-122514000D01*
X134360000Y-122514000D01*
X134360000Y-123815000D01*
G37*
X134360000Y-128721000D02*
X134360000Y-129428000D01*
X133610000Y-129428000D01*
X133610000Y-128721000D01*
X133090000Y-128721000D01*
X133090000Y-129454000D01*
X132340000Y-129454000D01*
X132340000Y-128721000D01*
X131820000Y-128721000D01*
X131820000Y-129454000D01*
X131070000Y-129454000D01*
X131070000Y-128721000D01*
X130550000Y-128721000D01*
X130550000Y-129454000D01*
X129800000Y-129454000D01*
X129800000Y-128721000D01*
X129800000Y-124721000D01*
X134360000Y-124721000D01*
X134360000Y-128721000D01*
G36*
X134360000Y-128721000D02*
G01*
X134360000Y-129428000D01*
X133610000Y-129428000D01*
X133610000Y-128721000D01*
X133090000Y-128721000D01*
X133090000Y-129454000D01*
X132340000Y-129454000D01*
X132340000Y-128721000D01*
X131820000Y-128721000D01*
X131820000Y-129454000D01*
X131070000Y-129454000D01*
X131070000Y-128721000D01*
X130550000Y-128721000D01*
X130550000Y-129454000D01*
X129800000Y-129454000D01*
X129800000Y-128721000D01*
X129800000Y-124721000D01*
X134360000Y-124721000D01*
X134360000Y-128721000D01*
G37*
%TO.C,Q9*%
X142572666Y-123815000D02*
X141822666Y-123815000D01*
X141822666Y-122514000D01*
X142572666Y-122514000D01*
X142572666Y-123815000D01*
G36*
X142572666Y-123815000D02*
G01*
X141822666Y-123815000D01*
X141822666Y-122514000D01*
X142572666Y-122514000D01*
X142572666Y-123815000D01*
G37*
X143842666Y-123815000D02*
X143092666Y-123815000D01*
X143092666Y-122514000D01*
X143842666Y-122514000D01*
X143842666Y-123815000D01*
G36*
X143842666Y-123815000D02*
G01*
X143092666Y-123815000D01*
X143092666Y-122514000D01*
X143842666Y-122514000D01*
X143842666Y-123815000D01*
G37*
X145112666Y-123815000D02*
X144362666Y-123815000D01*
X144362666Y-122514000D01*
X145112666Y-122514000D01*
X145112666Y-123815000D01*
G36*
X145112666Y-123815000D02*
G01*
X144362666Y-123815000D01*
X144362666Y-122514000D01*
X145112666Y-122514000D01*
X145112666Y-123815000D01*
G37*
X146382666Y-123815000D02*
X145632666Y-123815000D01*
X145632666Y-122514000D01*
X146382666Y-122514000D01*
X146382666Y-123815000D01*
G36*
X146382666Y-123815000D02*
G01*
X145632666Y-123815000D01*
X145632666Y-122514000D01*
X146382666Y-122514000D01*
X146382666Y-123815000D01*
G37*
X146382666Y-128721000D02*
X146382666Y-129428000D01*
X145632666Y-129428000D01*
X145632666Y-128721000D01*
X145112666Y-128721000D01*
X145112666Y-129454000D01*
X144362666Y-129454000D01*
X144362666Y-128721000D01*
X143842666Y-128721000D01*
X143842666Y-129454000D01*
X143092666Y-129454000D01*
X143092666Y-128721000D01*
X142572666Y-128721000D01*
X142572666Y-129454000D01*
X141822666Y-129454000D01*
X141822666Y-128721000D01*
X141822666Y-124721000D01*
X146382666Y-124721000D01*
X146382666Y-128721000D01*
G36*
X146382666Y-128721000D02*
G01*
X146382666Y-129428000D01*
X145632666Y-129428000D01*
X145632666Y-128721000D01*
X145112666Y-128721000D01*
X145112666Y-129454000D01*
X144362666Y-129454000D01*
X144362666Y-128721000D01*
X143842666Y-128721000D01*
X143842666Y-129454000D01*
X143092666Y-129454000D01*
X143092666Y-128721000D01*
X142572666Y-128721000D01*
X142572666Y-129454000D01*
X141822666Y-129454000D01*
X141822666Y-128721000D01*
X141822666Y-124721000D01*
X146382666Y-124721000D01*
X146382666Y-128721000D01*
G37*
D11*
%TO.C,U8*%
X152792000Y-105552000D02*
X149692000Y-105552000D01*
X149692000Y-102952000D01*
X152792000Y-102952000D01*
X152792000Y-105552000D01*
G36*
X152792000Y-105552000D02*
G01*
X149692000Y-105552000D01*
X149692000Y-102952000D01*
X152792000Y-102952000D01*
X152792000Y-105552000D01*
G37*
D10*
%TO.C,Q10*%
X148584000Y-123815000D02*
X147834000Y-123815000D01*
X147834000Y-122514000D01*
X148584000Y-122514000D01*
X148584000Y-123815000D01*
G36*
X148584000Y-123815000D02*
G01*
X147834000Y-123815000D01*
X147834000Y-122514000D01*
X148584000Y-122514000D01*
X148584000Y-123815000D01*
G37*
X149854000Y-123815000D02*
X149104000Y-123815000D01*
X149104000Y-122514000D01*
X149854000Y-122514000D01*
X149854000Y-123815000D01*
G36*
X149854000Y-123815000D02*
G01*
X149104000Y-123815000D01*
X149104000Y-122514000D01*
X149854000Y-122514000D01*
X149854000Y-123815000D01*
G37*
X151124000Y-123815000D02*
X150374000Y-123815000D01*
X150374000Y-122514000D01*
X151124000Y-122514000D01*
X151124000Y-123815000D01*
G36*
X151124000Y-123815000D02*
G01*
X150374000Y-123815000D01*
X150374000Y-122514000D01*
X151124000Y-122514000D01*
X151124000Y-123815000D01*
G37*
X152394000Y-123815000D02*
X151644000Y-123815000D01*
X151644000Y-122514000D01*
X152394000Y-122514000D01*
X152394000Y-123815000D01*
G36*
X152394000Y-123815000D02*
G01*
X151644000Y-123815000D01*
X151644000Y-122514000D01*
X152394000Y-122514000D01*
X152394000Y-123815000D01*
G37*
X152394000Y-128721000D02*
X152394000Y-129428000D01*
X151644000Y-129428000D01*
X151644000Y-128721000D01*
X151124000Y-128721000D01*
X151124000Y-129454000D01*
X150374000Y-129454000D01*
X150374000Y-128721000D01*
X149854000Y-128721000D01*
X149854000Y-129454000D01*
X149104000Y-129454000D01*
X149104000Y-128721000D01*
X148584000Y-128721000D01*
X148584000Y-129454000D01*
X147834000Y-129454000D01*
X147834000Y-128721000D01*
X147834000Y-124721000D01*
X152394000Y-124721000D01*
X152394000Y-128721000D01*
G36*
X152394000Y-128721000D02*
G01*
X152394000Y-129428000D01*
X151644000Y-129428000D01*
X151644000Y-128721000D01*
X151124000Y-128721000D01*
X151124000Y-129454000D01*
X150374000Y-129454000D01*
X150374000Y-128721000D01*
X149854000Y-128721000D01*
X149854000Y-129454000D01*
X149104000Y-129454000D01*
X149104000Y-128721000D01*
X148584000Y-128721000D01*
X148584000Y-129454000D01*
X147834000Y-129454000D01*
X147834000Y-128721000D01*
X147834000Y-124721000D01*
X152394000Y-124721000D01*
X152394000Y-128721000D01*
G37*
%TO.C,Q7*%
X136561333Y-123815000D02*
X135811333Y-123815000D01*
X135811333Y-122514000D01*
X136561333Y-122514000D01*
X136561333Y-123815000D01*
G36*
X136561333Y-123815000D02*
G01*
X135811333Y-123815000D01*
X135811333Y-122514000D01*
X136561333Y-122514000D01*
X136561333Y-123815000D01*
G37*
X137831333Y-123815000D02*
X137081333Y-123815000D01*
X137081333Y-122514000D01*
X137831333Y-122514000D01*
X137831333Y-123815000D01*
G36*
X137831333Y-123815000D02*
G01*
X137081333Y-123815000D01*
X137081333Y-122514000D01*
X137831333Y-122514000D01*
X137831333Y-123815000D01*
G37*
X139101333Y-123815000D02*
X138351333Y-123815000D01*
X138351333Y-122514000D01*
X139101333Y-122514000D01*
X139101333Y-123815000D01*
G36*
X139101333Y-123815000D02*
G01*
X138351333Y-123815000D01*
X138351333Y-122514000D01*
X139101333Y-122514000D01*
X139101333Y-123815000D01*
G37*
X140371333Y-123815000D02*
X139621333Y-123815000D01*
X139621333Y-122514000D01*
X140371333Y-122514000D01*
X140371333Y-123815000D01*
G36*
X140371333Y-123815000D02*
G01*
X139621333Y-123815000D01*
X139621333Y-122514000D01*
X140371333Y-122514000D01*
X140371333Y-123815000D01*
G37*
X140371333Y-128721000D02*
X140371333Y-129428000D01*
X139621333Y-129428000D01*
X139621333Y-128721000D01*
X139101333Y-128721000D01*
X139101333Y-129454000D01*
X138351333Y-129454000D01*
X138351333Y-128721000D01*
X137831333Y-128721000D01*
X137831333Y-129454000D01*
X137081333Y-129454000D01*
X137081333Y-128721000D01*
X136561333Y-128721000D01*
X136561333Y-129454000D01*
X135811333Y-129454000D01*
X135811333Y-128721000D01*
X135811333Y-124721000D01*
X140371333Y-124721000D01*
X140371333Y-128721000D01*
G36*
X140371333Y-128721000D02*
G01*
X140371333Y-129428000D01*
X139621333Y-129428000D01*
X139621333Y-128721000D01*
X139101333Y-128721000D01*
X139101333Y-129454000D01*
X138351333Y-129454000D01*
X138351333Y-128721000D01*
X137831333Y-128721000D01*
X137831333Y-129454000D01*
X137081333Y-129454000D01*
X137081333Y-128721000D01*
X136561333Y-128721000D01*
X136561333Y-129454000D01*
X135811333Y-129454000D01*
X135811333Y-128721000D01*
X135811333Y-124721000D01*
X140371333Y-124721000D01*
X140371333Y-128721000D01*
G37*
D11*
%TO.C,U9*%
X149913000Y-96984500D02*
X149281000Y-96984500D01*
X149281000Y-95972500D01*
X149913000Y-95972500D01*
X149913000Y-96984500D01*
G36*
X149913000Y-96984500D02*
G01*
X149281000Y-96984500D01*
X149281000Y-95972500D01*
X149913000Y-95972500D01*
X149913000Y-96984500D01*
G37*
%TD*%
D12*
%TO.C,C35*%
X154940000Y-86005500D03*
X154940000Y-87730500D03*
%TD*%
D13*
%TO.C,C1*%
X127762000Y-93912500D03*
X127762000Y-92777500D03*
%TD*%
%TO.C,C41*%
X123063000Y-88003000D03*
X123063000Y-86868000D03*
%TD*%
D14*
%TO.C,Q6*%
X133985000Y-123165000D03*
X132715000Y-123165000D03*
X131445000Y-123165000D03*
X130175000Y-123165000D03*
X130175000Y-128803000D03*
X131445000Y-128803000D03*
X132715000Y-128803000D03*
X133985000Y-128778000D03*
D15*
X132080000Y-126721000D03*
%TD*%
D16*
%TO.C,D10*%
X149663176Y-118986000D03*
X149663176Y-120386000D03*
%TD*%
D17*
%TO.C,C21*%
X142213500Y-99441000D03*
X140488500Y-99441000D03*
%TD*%
D18*
%TO.C,R23*%
X123969444Y-102140000D03*
X125164444Y-102140000D03*
%TD*%
D19*
%TO.C,R36*%
X121662000Y-127762000D03*
X127762000Y-127762000D03*
%TD*%
D20*
%TO.C,CN5*%
X156821000Y-80068500D03*
X155821000Y-80068500D03*
X154821000Y-80068500D03*
X153821000Y-80068500D03*
D21*
X157921000Y-76668500D03*
X152721000Y-76668500D03*
%TD*%
D22*
%TO.C,R44*%
X149352000Y-99822000D03*
X148157000Y-99822000D03*
%TD*%
D18*
%TO.C,R29*%
X123969444Y-110726556D03*
X125164444Y-110726556D03*
%TD*%
D23*
%TO.C,C13*%
X126755444Y-99383556D03*
X126755444Y-100518556D03*
%TD*%
D14*
%TO.C,Q9*%
X146007666Y-123165000D03*
X144737666Y-123165000D03*
X143467666Y-123165000D03*
X142197666Y-123165000D03*
X142197666Y-128803000D03*
X143467666Y-128803000D03*
X144737666Y-128803000D03*
X146007666Y-128778000D03*
D15*
X144102666Y-126721000D03*
%TD*%
D18*
%TO.C,R26*%
X123969444Y-106415333D03*
X125164444Y-106415333D03*
%TD*%
D24*
%TO.C,L6*%
X159385000Y-97561000D03*
X159385000Y-91161000D03*
%TD*%
D23*
%TO.C,C3*%
X127508000Y-81855500D03*
X127508000Y-82990500D03*
%TD*%
D22*
%TO.C,R43*%
X151892000Y-99822000D03*
X150697000Y-99822000D03*
%TD*%
D25*
%TO.C,D12*%
X118110000Y-120436000D03*
X118110000Y-125436000D03*
%TD*%
D26*
%TO.C,C34*%
X159385000Y-87663000D03*
X159385000Y-82263000D03*
%TD*%
D27*
%TO.C,R45*%
X132064000Y-117221000D03*
X130064000Y-117221000D03*
%TD*%
D12*
%TO.C,C27*%
X139888088Y-119178500D03*
X139888088Y-120903500D03*
%TD*%
D18*
%TO.C,R42*%
X115902500Y-115443000D03*
X117097500Y-115443000D03*
%TD*%
D28*
%TO.C,R41*%
X151229448Y-120088500D03*
X151229448Y-118893500D03*
%TD*%
D22*
%TO.C,R9*%
X149441500Y-82169000D03*
X148246500Y-82169000D03*
%TD*%
D16*
%TO.C,D4*%
X122280944Y-96564556D03*
X122280944Y-97964556D03*
%TD*%
D18*
%TO.C,R18*%
X117648944Y-108440556D03*
X118843944Y-108440556D03*
%TD*%
D29*
%TO.C,C24*%
X139573000Y-108585000D03*
X140708000Y-108585000D03*
%TD*%
D23*
%TO.C,C9*%
X126746000Y-94174500D03*
X126746000Y-95309500D03*
%TD*%
D13*
%TO.C,C4*%
X128270000Y-86927500D03*
X128270000Y-85792500D03*
%TD*%
D16*
%TO.C,D8*%
X122280944Y-107740556D03*
X122280944Y-109140556D03*
%TD*%
D30*
%TO.C,U8*%
X153147000Y-101552000D03*
X151877000Y-101552000D03*
X150607000Y-101552000D03*
X149337000Y-101552000D03*
X149337000Y-106952000D03*
X150607000Y-106952000D03*
X151877000Y-106952000D03*
X153147000Y-106952000D03*
%TD*%
D31*
%TO.C,D9*%
X144125000Y-119380000D03*
X141625000Y-119380000D03*
%TD*%
D12*
%TO.C,C39*%
X145034000Y-95885000D03*
X145034000Y-97610000D03*
%TD*%
D29*
%TO.C,C19*%
X144212500Y-101473000D03*
X145347500Y-101473000D03*
%TD*%
D32*
%TO.C,C29*%
X156137500Y-117348000D03*
X157862500Y-117348000D03*
%TD*%
D18*
%TO.C,R14*%
X117648944Y-97264556D03*
X118843944Y-97264556D03*
%TD*%
%TO.C,R27*%
X123969444Y-107840444D03*
X125164444Y-107840444D03*
%TD*%
D33*
%TO.C,Q1*%
X120327944Y-97589556D03*
X120677944Y-97589556D03*
D34*
X120502944Y-96939556D03*
%TD*%
D23*
%TO.C,C15*%
X126755444Y-105186556D03*
X126755444Y-106321556D03*
%TD*%
D22*
%TO.C,R32*%
X144996500Y-99441000D03*
X143801500Y-99441000D03*
%TD*%
D13*
%TO.C,C11*%
X123063000Y-90424000D03*
X123063000Y-89289000D03*
%TD*%
D28*
%TO.C,R1*%
X117094000Y-88608500D03*
X117094000Y-87413500D03*
%TD*%
D35*
%TO.C,C28*%
X154305000Y-120903500D03*
X154305000Y-119178500D03*
%TD*%
D13*
%TO.C,C2*%
X128778000Y-93912500D03*
X128778000Y-92777500D03*
%TD*%
D18*
%TO.C,R7*%
X132625500Y-99441000D03*
X133820500Y-99441000D03*
%TD*%
D14*
%TO.C,Q10*%
X152019000Y-123165000D03*
X150749000Y-123165000D03*
X149479000Y-123165000D03*
X148209000Y-123165000D03*
X148209000Y-128803000D03*
X149479000Y-128803000D03*
X150749000Y-128803000D03*
X152019000Y-128778000D03*
D15*
X150114000Y-126721000D03*
%TD*%
D33*
%TO.C,Q2*%
X120327944Y-100383556D03*
X120677944Y-100383556D03*
D34*
X120502944Y-99733556D03*
%TD*%
D12*
%TO.C,C38*%
X146812000Y-95885000D03*
X146812000Y-97610000D03*
%TD*%
D23*
%TO.C,C36*%
X129921000Y-95317500D03*
X129921000Y-96452500D03*
%TD*%
D36*
%TO.C,D2*%
X139573000Y-95949500D03*
X139573000Y-94804500D03*
%TD*%
D23*
%TO.C,C42*%
X128651000Y-81855500D03*
X128651000Y-82990500D03*
%TD*%
D18*
%TO.C,R22*%
X123969444Y-100714889D03*
X125164444Y-100714889D03*
%TD*%
%TO.C,R47*%
X137451500Y-81915000D03*
X138646500Y-81915000D03*
%TD*%
D37*
%TO.C,D11*%
X156972000Y-125391000D03*
X156972000Y-120391000D03*
%TD*%
D29*
%TO.C,C6*%
X138116500Y-85852000D03*
X139251500Y-85852000D03*
%TD*%
D20*
%TO.C,CN1*%
X134271600Y-79941500D03*
X133271600Y-79941500D03*
X132271600Y-79941500D03*
X131271600Y-79941500D03*
X130271600Y-79941500D03*
X129271600Y-79941500D03*
D21*
X128171600Y-76541500D03*
X135371600Y-76541500D03*
%TD*%
D33*
%TO.C,Q5*%
X120327944Y-108765556D03*
X120677944Y-108765556D03*
D34*
X120502944Y-108115556D03*
%TD*%
D23*
%TO.C,C14*%
X126755444Y-102285056D03*
X126755444Y-103420056D03*
%TD*%
D16*
%TO.C,D7*%
X122280944Y-104935306D03*
X122280944Y-106335306D03*
%TD*%
D33*
%TO.C,Q3*%
X120327944Y-103177556D03*
X120677944Y-103177556D03*
D34*
X120502944Y-102527556D03*
%TD*%
D38*
%TO.C,U1*%
X114984000Y-88603185D03*
X114984000Y-89603185D03*
D39*
X111584000Y-90703185D03*
X111584000Y-87503185D03*
%TD*%
D22*
%TO.C,R40*%
X144107500Y-117729000D03*
X142912500Y-117729000D03*
%TD*%
D20*
%TO.C,U5*%
X149344200Y-79941500D03*
X148344200Y-79941500D03*
D21*
X147244200Y-76541500D03*
X150444200Y-76541500D03*
%TD*%
D18*
%TO.C,R46*%
X139991500Y-81915000D03*
X141186500Y-81915000D03*
%TD*%
D40*
%TO.C,D13*%
X159385000Y-107378000D03*
X159385000Y-100648000D03*
%TD*%
D41*
%TO.C,XTAL1*%
X124968000Y-85115400D03*
X124968000Y-87299800D03*
%TD*%
D16*
%TO.C,D5*%
X122280944Y-99324806D03*
X122280944Y-100724806D03*
%TD*%
D18*
%TO.C,R31*%
X137451500Y-99441000D03*
X138646500Y-99441000D03*
%TD*%
D23*
%TO.C,C25*%
X131318000Y-95317500D03*
X131318000Y-96452500D03*
%TD*%
D28*
%TO.C,R37*%
X125476000Y-116892000D03*
X125476000Y-115697000D03*
%TD*%
D33*
%TO.C,Q4*%
X120327944Y-105971556D03*
X120677944Y-105971556D03*
D34*
X120502944Y-105321556D03*
%TD*%
D28*
%TO.C,R11*%
X140843000Y-95974500D03*
X140843000Y-94779500D03*
%TD*%
%TO.C,R39*%
X132588000Y-96482500D03*
X132588000Y-95287500D03*
%TD*%
D18*
%TO.C,R21*%
X123969444Y-99289778D03*
X125164444Y-99289778D03*
%TD*%
D42*
%TO.C,L2*%
X136175544Y-119166000D03*
X136175544Y-120916000D03*
%TD*%
D35*
%TO.C,C26*%
X138031816Y-120903500D03*
X138031816Y-119178500D03*
%TD*%
D42*
%TO.C,L3*%
X134319272Y-119166000D03*
X134319272Y-120916000D03*
%TD*%
D28*
%TO.C,R6*%
X121031000Y-84036500D03*
X121031000Y-82841500D03*
%TD*%
D18*
%TO.C,R24*%
X123969444Y-103565111D03*
X125164444Y-103565111D03*
%TD*%
D23*
%TO.C,C12*%
X126755444Y-96482056D03*
X126755444Y-97617056D03*
%TD*%
D28*
%TO.C,R13*%
X123063000Y-92889000D03*
X123063000Y-91694000D03*
%TD*%
D29*
%TO.C,C23*%
X124273500Y-114554000D03*
X125408500Y-114554000D03*
%TD*%
D28*
%TO.C,R33*%
X124206000Y-116892000D03*
X124206000Y-115697000D03*
%TD*%
D43*
%TO.C,C10*%
X150935500Y-92075000D03*
X149800500Y-92075000D03*
%TD*%
D13*
%TO.C,C44*%
X119761000Y-84006500D03*
X119761000Y-82871500D03*
%TD*%
D28*
%TO.C,R4*%
X117094000Y-94450500D03*
X117094000Y-93255500D03*
%TD*%
D22*
%TO.C,R8*%
X136233500Y-99441000D03*
X135038500Y-99441000D03*
%TD*%
D13*
%TO.C,C43*%
X118491000Y-84006500D03*
X118491000Y-82871500D03*
%TD*%
D18*
%TO.C,R17*%
X117648944Y-105646556D03*
X118843944Y-105646556D03*
%TD*%
D19*
%TO.C,R35*%
X121662000Y-123698000D03*
X127762000Y-123698000D03*
%TD*%
D29*
%TO.C,C22*%
X137160000Y-108585000D03*
X138295000Y-108585000D03*
%TD*%
D44*
%TO.C,IC1*%
X125581000Y-83180000D03*
X125581000Y-82680000D03*
X125581000Y-82180000D03*
X125581000Y-81680000D03*
X124081000Y-81680000D03*
X124101000Y-82180000D03*
X124101000Y-82680000D03*
X124101000Y-83180000D03*
%TD*%
D18*
%TO.C,R2*%
X124878500Y-89027000D03*
X126073500Y-89027000D03*
%TD*%
D29*
%TO.C,C7*%
X130115500Y-84963000D03*
X131250500Y-84963000D03*
%TD*%
D35*
%TO.C,C33*%
X155194000Y-105383500D03*
X155194000Y-103658500D03*
%TD*%
D18*
%TO.C,R30*%
X143420500Y-115189000D03*
X144615500Y-115189000D03*
%TD*%
D20*
%TO.C,CN2*%
X143819400Y-79941500D03*
X142819400Y-79941500D03*
X141819400Y-79941500D03*
X140819400Y-79941500D03*
X139819400Y-79941500D03*
X138819400Y-79941500D03*
D21*
X137719400Y-76541500D03*
X144919400Y-76541500D03*
%TD*%
D45*
%TO.C,D1*%
X143383000Y-94804500D03*
X143383000Y-95949500D03*
%TD*%
D38*
%TO.C,U2*%
X114984000Y-94466371D03*
X114984000Y-95466371D03*
D39*
X111584000Y-96566371D03*
X111584000Y-93366371D03*
%TD*%
D46*
%TO.C,X1*%
X124968000Y-90367000D03*
D38*
X124968000Y-91567000D03*
D46*
X124968000Y-92767000D03*
%TD*%
D32*
%TO.C,C32*%
X151918500Y-109728000D03*
X153643500Y-109728000D03*
%TD*%
D18*
%TO.C,R28*%
X123969444Y-109265556D03*
X125164444Y-109265556D03*
%TD*%
D47*
%TO.C,C31*%
X151980500Y-112141000D03*
X155105500Y-112141000D03*
%TD*%
D48*
%TO.C,U7*%
X141871000Y-106925000D03*
X141871000Y-106275000D03*
X141871000Y-105625000D03*
X141871000Y-104975000D03*
X141871000Y-104325000D03*
X141871000Y-103675000D03*
X141871000Y-103025000D03*
X141871000Y-102375000D03*
X141871000Y-101725000D03*
X141871000Y-101075000D03*
X136129000Y-101075000D03*
X136129000Y-101725000D03*
X136129000Y-102375000D03*
X136129000Y-103025000D03*
X136129000Y-103675000D03*
X136129000Y-104325000D03*
X136129000Y-104975000D03*
X136129000Y-105625000D03*
X136129000Y-106275000D03*
X136129000Y-106925000D03*
%TD*%
D49*
%TO.C,Q11*%
X134190500Y-115509000D03*
X134190500Y-117409000D03*
X136065500Y-116459000D03*
%TD*%
D22*
%TO.C,R5*%
X125184500Y-93980000D03*
X123989500Y-93980000D03*
%TD*%
D19*
%TO.C,R34*%
X121662000Y-119634000D03*
X127762000Y-119634000D03*
%TD*%
D14*
%TO.C,Q7*%
X139996333Y-123165000D03*
X138726333Y-123165000D03*
X137456333Y-123165000D03*
X136186333Y-123165000D03*
X136186333Y-128803000D03*
X137456333Y-128803000D03*
X138726333Y-128803000D03*
X139996333Y-128778000D03*
D15*
X138091333Y-126721000D03*
%TD*%
D42*
%TO.C,L4*%
X145980632Y-119166000D03*
X145980632Y-120916000D03*
%TD*%
D18*
%TO.C,R19*%
X123969444Y-96439556D03*
X125164444Y-96439556D03*
%TD*%
D50*
%TO.C,L1*%
X124014500Y-95123000D03*
X125159500Y-95123000D03*
%TD*%
D20*
%TO.C,U10*%
X124746800Y-79941500D03*
X123746800Y-79941500D03*
D21*
X122646800Y-76541500D03*
X125846800Y-76541500D03*
%TD*%
D51*
%TO.C,U9*%
X148572000Y-95828500D03*
X148572000Y-96478500D03*
X148572000Y-97128500D03*
X150622000Y-97128500D03*
X150622000Y-96478500D03*
X150622000Y-95828500D03*
%TD*%
D28*
%TO.C,R38*%
X132723000Y-120088500D03*
X132723000Y-118893500D03*
%TD*%
D52*
%TO.C,U6*%
X142135000Y-88265000D03*
X142135000Y-89535000D03*
X142135000Y-90805000D03*
X142135000Y-92075000D03*
X147679000Y-92075000D03*
X147679000Y-90805000D03*
X147679000Y-89535000D03*
X147679000Y-88265000D03*
%TD*%
D23*
%TO.C,C40*%
X123063000Y-84395500D03*
X123063000Y-85530500D03*
%TD*%
D13*
%TO.C,C37*%
X151892000Y-96934000D03*
X151892000Y-95799000D03*
%TD*%
D49*
%TO.C,Q8*%
X140286500Y-115509000D03*
X140286500Y-117409000D03*
X142161500Y-116459000D03*
%TD*%
D23*
%TO.C,C17*%
X126755444Y-110677760D03*
X126755444Y-111812760D03*
%TD*%
D47*
%TO.C,C30*%
X151980500Y-114808000D03*
X155105500Y-114808000D03*
%TD*%
D43*
%TO.C,C8*%
X145601500Y-86995000D03*
X144466500Y-86995000D03*
%TD*%
D23*
%TO.C,C16*%
X126755444Y-108088056D03*
X126755444Y-109223056D03*
%TD*%
%TO.C,C5*%
X137414000Y-94174500D03*
X137414000Y-95309500D03*
%TD*%
D53*
%TO.C,U3*%
X131504000Y-87608800D03*
X131504000Y-89008800D03*
X131504000Y-90408800D03*
X131504000Y-91808800D03*
X132904000Y-87608800D03*
X132904000Y-89008800D03*
X132904000Y-90408800D03*
X132904000Y-91808800D03*
X134304000Y-87608800D03*
X134304000Y-89008800D03*
X134304000Y-90408800D03*
X134304000Y-91808800D03*
X135704000Y-87608800D03*
X135704000Y-89008800D03*
X135704000Y-90408800D03*
X135704000Y-91808800D03*
D54*
X130166500Y-86958800D03*
X130166500Y-87458800D03*
X130166500Y-87958800D03*
X130166500Y-88458800D03*
X130166500Y-88958800D03*
X130166500Y-89458800D03*
X130166500Y-89958800D03*
X130166500Y-90458800D03*
X130166500Y-90958800D03*
X130166500Y-91458800D03*
X130166500Y-91958800D03*
X130166500Y-92458800D03*
D55*
X130854000Y-93146300D03*
X131354000Y-93146300D03*
X131854000Y-93146300D03*
X132354000Y-93146300D03*
X132854000Y-93146300D03*
X133354000Y-93146300D03*
X133854000Y-93146300D03*
X134354000Y-93146300D03*
X134854000Y-93146300D03*
X135354000Y-93146300D03*
X135854000Y-93146300D03*
X136354000Y-93146300D03*
D54*
X137041500Y-92458800D03*
X137041500Y-91958800D03*
X137041500Y-91458800D03*
X137041500Y-90958800D03*
X137041500Y-90458800D03*
X137041500Y-89958800D03*
X137041500Y-89458800D03*
X137041500Y-88958800D03*
X137041500Y-88458800D03*
X137041500Y-87958800D03*
X137041500Y-87458800D03*
X137041500Y-86958800D03*
D55*
X136354000Y-86271300D03*
X135854000Y-86271300D03*
X135354000Y-86271300D03*
X134854000Y-86271300D03*
X134354000Y-86271300D03*
X133854000Y-86271300D03*
X133354000Y-86271300D03*
X132854000Y-86271300D03*
X132354000Y-86271300D03*
X131854000Y-86271300D03*
X131354000Y-86271300D03*
X130854000Y-86271300D03*
%TD*%
D16*
%TO.C,D6*%
X122280944Y-102130056D03*
X122280944Y-103530056D03*
%TD*%
D18*
%TO.C,R49*%
X146087500Y-115189000D03*
X147282500Y-115189000D03*
%TD*%
D42*
%TO.C,L5*%
X147836904Y-119166000D03*
X147836904Y-120916000D03*
%TD*%
D38*
%TO.C,U12*%
X114984000Y-82740000D03*
X114984000Y-83740000D03*
D39*
X111584000Y-84840000D03*
X111584000Y-81640000D03*
%TD*%
D18*
%TO.C,R16*%
X117648944Y-102852556D03*
X118843944Y-102852556D03*
%TD*%
D43*
%TO.C,C20*%
X145347500Y-104521000D03*
X144212500Y-104521000D03*
%TD*%
D20*
%TO.C,U11*%
X119245000Y-79932000D03*
X118245000Y-79932000D03*
D21*
X117145000Y-76532000D03*
X120345000Y-76532000D03*
%TD*%
D18*
%TO.C,R3*%
X130085500Y-83820000D03*
X131280500Y-83820000D03*
%TD*%
%TO.C,R25*%
X123969444Y-104990222D03*
X125164444Y-104990222D03*
%TD*%
%TO.C,R15*%
X117648944Y-100058556D03*
X118843944Y-100058556D03*
%TD*%
D29*
%TO.C,C18*%
X144212500Y-102743000D03*
X145347500Y-102743000D03*
%TD*%
D56*
%TO.C,R10*%
X142113000Y-94779500D03*
X142113000Y-95974500D03*
%TD*%
D18*
%TO.C,R48*%
X148627500Y-115189000D03*
X149822500Y-115189000D03*
%TD*%
D38*
%TO.C,CN6*%
X114984000Y-100352556D03*
X114984000Y-101352556D03*
X114984000Y-102352556D03*
X114984000Y-103352556D03*
X114984000Y-104352556D03*
X114984000Y-105352556D03*
D39*
X111584000Y-106452556D03*
X111584000Y-99252556D03*
%TD*%
D18*
%TO.C,R20*%
X123969444Y-97864667D03*
X125164444Y-97864667D03*
%TD*%
M02*
